<svg width="90" height="87" viewBox="0 0 90 87" fill="none" xmlns="http://www.w3.org/2000/svg">
<g clip-path="url(#clip0_1975_69146)">
<path opacity="0.1" d="M82.0662 4.67966H7.93377C3.55207 4.67966 0 8.22467 0 12.5977V73.9914C0 78.3644 3.55207 81.9094 7.93377 81.9094H82.0662C86.4479 81.9094 90 78.3644 90 73.9914V12.5977C90 8.22467 86.4479 4.67966 82.0662 4.67966Z" fill="#3E73F9"/>
<path d="M81.9431 53.8805L81.7772 65.3926C81.7772 66.0489 81.347 66.699 80.4805 67.2019L80.0872 67.4288L66.6409 75.2303L48.1862 85.939C46.447 86.9448 43.6324 86.9448 41.881 85.939L9.36542 67.2019C8.48662 66.6929 8.05029 66.0305 8.05029 65.3681L8.21622 53.8621C8.21622 54.5245 8.65255 55.1869 9.53134 55.6898L42.0407 74.4269C43.786 75.4327 46.6129 75.4327 48.346 74.4269L80.6464 55.6898C81.5068 55.1869 81.9431 54.5368 81.9431 53.8805Z" fill="white" stroke="#3E73F9" stroke-linecap="round" stroke-linejoin="round"/>
<g opacity="0.2">
<path d="M81.9494 53.8805L81.7835 65.3926C81.7835 66.0489 81.3533 66.699 80.4868 67.2019L80.6527 55.6898C81.5131 55.193 81.9433 54.5368 81.9494 53.8805Z" fill="#3E73F9"/>
</g>
<path d="M80.6279 52.0467C82.3732 53.0525 82.3855 54.684 80.6525 55.6898L48.352 74.4269C46.619 75.4327 43.7921 75.4327 42.0468 74.4269L9.53125 55.6959C7.78594 54.6901 7.77365 53.0587 9.51281 52.0528L41.8133 33.3158C43.5463 32.3099 46.367 32.3099 48.1185 33.3158L80.634 52.0467H80.6279Z" fill="white" stroke="#3E73F9" stroke-linecap="round" stroke-linejoin="round"/>
<g opacity="0.05">
<path d="M76.1908 52.2736C77.721 53.1568 77.7272 54.5797 76.2093 55.4629L47.9402 71.8571C46.4223 72.7402 43.9518 72.7402 42.4216 71.8571L13.9682 55.4629C12.438 54.5797 12.4318 53.1568 13.9498 52.2736L42.2188 35.8795C43.7367 35.0024 46.2072 35.0024 47.7374 35.8795L76.1908 52.2736Z" fill="#3E73F9"/>
</g>
<g opacity="0.2">
<path d="M66.549 52.7704C67.606 53.3776 67.6121 54.365 66.5613 54.9722L47.0556 66.2819C46.0048 66.8891 44.3025 66.8891 43.2516 66.2819L23.6169 54.9722C22.5599 54.365 22.5538 53.3776 23.6046 52.7704L43.1103 41.4607C44.155 40.8535 45.8634 40.8535 46.9143 41.4607L66.549 52.7704Z" fill="#3E73F9"/>
</g>
<g opacity="0.5">
<path d="M11.0309 53.396C10.7482 53.2304 10.2873 53.2304 10.0046 53.396C9.72195 53.5616 9.7281 53.8253 10.0046 53.9909C10.2873 54.1565 10.7482 54.1565 11.0309 53.9909C11.3136 53.8253 11.3136 53.5616 11.0309 53.396Z" fill="#3E73F9"/>
<path d="M45.3654 34.2542C45.6481 34.0886 45.6481 33.8248 45.3654 33.6592C45.0827 33.4936 44.6218 33.4936 44.3391 33.6592C44.0564 33.8248 44.0626 34.0886 44.3391 34.2542C44.6218 34.4198 45.0827 34.4198 45.3654 34.2542Z" fill="#3E73F9"/>
<path d="M45.9372 73.1941C45.6545 73.0285 45.1936 73.0285 44.9109 73.1941C44.6282 73.3597 44.6343 73.6234 44.9109 73.789C45.1936 73.9546 45.6545 73.9546 45.9372 73.789C46.2199 73.6234 46.2199 73.3597 45.9372 73.1941Z" fill="#3E73F9"/>
<path d="M80.2717 53.4573C79.989 53.2917 79.5281 53.2917 79.2454 53.4573C78.9627 53.6229 78.9688 53.8867 79.2454 54.0522C79.5281 54.2178 79.989 54.2178 80.2717 54.0522C80.5543 53.8867 80.5543 53.6229 80.2717 53.4573Z" fill="#3E73F9"/>
</g>
<g opacity="0.3">
<path d="M51.6214 78.5054C51.3202 78.6772 51.0806 79.0942 51.0806 79.4377V81.7315C51.0867 82.075 51.3325 82.2099 51.6275 82.0382C51.9286 81.8665 52.1683 81.4494 52.1683 81.1059V78.8121C52.1622 78.4686 51.9163 78.3337 51.6214 78.5054Z" fill="#3E73F9"/>
<path d="M53.5696 77.3892C53.2685 77.5609 53.0288 77.978 53.0288 78.3214V80.6153C53.035 80.9587 53.2808 81.0937 53.5758 80.9219C53.8707 80.7502 54.1165 80.3332 54.1165 79.9897V77.6959C54.1104 77.3524 53.8646 77.2175 53.5696 77.3892Z" fill="#3E73F9"/>
<path d="M55.5115 76.2668C55.2104 76.4386 54.9707 76.8556 54.9707 77.1991V79.4929C54.9768 79.8364 55.2227 79.9713 55.5176 79.7996C55.8188 79.6278 56.0584 79.2108 56.0584 78.8673V76.5735C56.0523 76.23 55.8065 76.0951 55.5115 76.2668Z" fill="#3E73F9"/>
<path d="M57.4534 75.1444C57.1523 75.3162 56.9126 75.7332 56.9126 76.0767V78.3705C56.9187 78.714 57.1646 78.8489 57.4595 78.6772C57.7545 78.5055 58.0003 78.0884 58.0003 77.7449V75.4511C57.9942 75.1076 57.7484 74.9727 57.4534 75.1444Z" fill="#3E73F9"/>
<path d="M59.3953 74.0282C59.0942 74.1999 58.8545 74.617 58.8545 74.9604V77.2543C58.8606 77.5977 59.1065 77.7327 59.4014 77.5609C59.6964 77.3892 59.9422 76.9721 59.9422 76.6287V74.3348C59.9361 73.9914 59.6903 73.8564 59.3953 74.0282Z" fill="#3E73F9"/>
<path d="M61.3435 72.9058C61.0424 73.0775 60.8027 73.4946 60.8027 73.8381V76.1319C60.8089 76.4753 61.0547 76.6103 61.3497 76.4385C61.6447 76.2668 61.8905 75.8498 61.8905 75.5063V73.2125C61.8843 72.869 61.6385 72.7341 61.3435 72.9058Z" fill="#3E73F9"/>
<path d="M63.2854 71.7896C62.9843 71.9613 62.7446 72.3783 62.7446 72.7218V75.0156C62.7508 75.3591 62.9966 75.494 63.2916 75.3223C63.5866 75.1506 63.8324 74.7335 63.8324 74.3901V72.0962C63.8262 71.7528 63.5804 71.6178 63.2854 71.7896Z" fill="#3E73F9"/>
<path d="M65.2273 70.6672C64.9262 70.8389 64.6865 71.256 64.6865 71.5994V73.8933C64.6927 74.2367 64.9385 74.3717 65.2335 74.1999C65.5284 74.0282 65.7743 73.6111 65.7743 73.2677V70.9738C65.7681 70.6304 65.5223 70.4955 65.2273 70.6672Z" fill="#3E73F9"/>
<path d="M67.1756 69.5448C66.8744 69.7165 66.6348 70.1336 66.6348 70.477V72.7709C66.6409 73.1143 66.8867 73.2493 67.1817 73.0775C67.4767 72.9058 67.7225 72.4887 67.7225 72.1453V69.8514C67.7164 69.508 67.4705 69.373 67.1756 69.5448Z" fill="#3E73F9"/>
<path d="M69.1175 68.4285C68.8163 68.6003 68.5767 69.0173 68.5767 69.3608V71.6546C68.5828 71.9981 68.8286 72.133 69.1236 71.9613C69.4247 71.7896 69.6644 71.3725 69.6644 71.029V68.7352C69.6583 68.3917 69.4124 68.2568 69.1175 68.4285Z" fill="#3E73F9"/>
<path d="M71.0594 67.3062C70.7582 67.4779 70.5186 67.895 70.5186 68.2384V70.5322C70.5247 70.8757 70.7705 71.0106 71.0655 70.8389C71.3605 70.6672 71.6063 70.2501 71.6063 69.9067V67.6128C71.6002 67.2694 71.3543 67.1344 71.0594 67.3062Z" fill="#3E73F9"/>
<path d="M73.0076 66.1838C72.7065 66.3555 72.4668 66.7726 72.4668 67.116V69.4099C72.4729 69.7533 72.7188 69.8883 73.0137 69.7165C73.3087 69.5448 73.5545 69.1277 73.5545 68.7843V66.4904C73.5484 66.147 73.3026 66.0121 73.0076 66.1838Z" fill="#3E73F9"/>
<path d="M74.9495 65.0675C74.6484 65.2392 74.4087 65.6563 74.4087 65.9998V68.2936C74.4148 68.6371 74.6607 68.772 74.9556 68.6003C75.2506 68.4285 75.4964 68.0115 75.4964 67.668V65.3742C75.4903 65.0307 75.2445 64.8958 74.9495 65.0675Z" fill="#3E73F9"/>
<path d="M76.8914 63.9451C76.5903 64.1169 76.3506 64.5339 76.3506 64.8774V67.1712C76.3567 67.5147 76.6025 67.6496 76.8975 67.4779C77.1925 67.3061 77.4383 66.8891 77.4383 66.5456V64.2518C77.4322 63.9083 77.1864 63.7734 76.8914 63.9451Z" fill="#3E73F9"/>
<path d="M78.8333 62.8289C78.5322 63.0006 78.2925 63.4177 78.2925 63.7611V66.055C78.2986 66.3984 78.5444 66.5334 78.8394 66.3616C79.1344 66.1899 79.3802 65.7728 79.3802 65.4294V63.1356C79.3741 62.7921 79.1283 62.6572 78.8333 62.8289Z" fill="#3E73F9"/>
</g>
<g opacity="0.3">
<path d="M11.7006 61.4489C11.3872 61.2711 11.1353 61.4121 11.1353 61.7679C11.1353 62.1236 11.3872 62.559 11.6945 62.7369C12.0079 62.9148 12.2599 62.7737 12.2599 62.418C12.2599 62.0622 12.0079 61.6329 11.7006 61.4489Z" fill="#3E73F9"/>
<path d="M14.0358 62.7921C13.7285 62.6142 13.4766 62.7553 13.4766 63.111C13.4766 63.4668 13.7285 63.9022 14.0358 64.0801C14.3431 64.2579 14.6012 64.1169 14.6012 63.7611C14.6012 63.4054 14.3492 62.9761 14.0419 62.7921H14.0358Z" fill="#3E73F9"/>
<path d="M16.371 64.1353C16.0576 63.9574 15.8057 64.0985 15.8057 64.4542C15.8057 64.81 16.0576 65.2454 16.3649 65.4233C16.6722 65.6011 16.9241 65.4601 16.9241 65.1044C16.9241 64.7486 16.6722 64.3193 16.3649 64.1414L16.371 64.1353Z" fill="#3E73F9"/>
<path d="M18.7065 65.4785C18.3992 65.3006 18.1411 65.4417 18.1411 65.7974C18.1411 66.1531 18.3931 66.5886 18.7003 66.7664C19.0076 66.9443 19.2657 66.8032 19.2657 66.4475C19.2657 66.0918 19.0138 65.6625 18.7065 65.4785Z" fill="#3E73F9"/>
<path d="M21.0417 66.8278C20.7344 66.6499 20.4824 66.791 20.4824 67.1467C20.4824 67.5024 20.7344 67.9379 21.0417 68.1158C21.3489 68.2936 21.607 68.1526 21.607 67.7968C21.607 67.4411 21.3551 67.0118 21.0478 66.8278H21.0417Z" fill="#3E73F9"/>
<path d="M23.3769 68.1709C23.0635 67.9931 22.8115 68.1341 22.8115 68.4899C22.8115 68.8456 23.0635 69.2811 23.3708 69.4589C23.678 69.6368 23.9361 69.4957 23.9361 69.14C23.9361 68.7843 23.6842 68.3488 23.3769 68.1709Z" fill="#3E73F9"/>
<path d="M25.7062 69.5141C25.3989 69.3363 25.147 69.4773 25.147 69.8331C25.147 70.1888 25.3989 70.6243 25.7062 70.8021C26.0135 70.98 26.2716 70.8389 26.2716 70.4832C26.2716 70.1275 26.0196 69.6981 25.7124 69.5141H25.7062Z" fill="#3E73F9"/>
<path d="M28.0415 70.8634C27.728 70.6856 27.4761 70.8266 27.4761 71.1824C27.4761 71.5381 27.728 71.9736 28.0353 72.1514C28.3426 72.3293 28.5945 72.1882 28.5945 71.8325C28.5945 71.4768 28.3426 71.0474 28.0353 70.8696L28.0415 70.8634Z" fill="#3E73F9"/>
<path d="M30.3769 72.2066C30.0635 72.0288 29.8115 72.1698 29.8115 72.5255C29.8115 72.8813 30.0635 73.3167 30.3708 73.4946C30.678 73.6725 30.9361 73.5314 30.9361 73.1757C30.9361 72.8199 30.6842 72.3906 30.3769 72.2066Z" fill="#3E73F9"/>
<path d="M32.7121 73.5498C32.4048 73.372 32.1528 73.513 32.1528 73.8687C32.1528 74.2245 32.4048 74.6599 32.7121 74.8378C33.0193 75.0157 33.2774 74.8746 33.2774 74.5189C33.2774 74.1631 33.0255 73.7338 32.7182 73.5498H32.7121Z" fill="#3E73F9"/>
<path d="M35.0473 74.8991C34.7339 74.7213 34.4819 74.8623 34.4819 75.218C34.4819 75.5738 34.7339 76.0092 35.0412 76.1871C35.3484 76.365 35.6004 76.2239 35.6004 75.8682C35.6004 75.5124 35.3484 75.0831 35.0412 74.9053L35.0473 74.8991Z" fill="#3E73F9"/>
<path d="M37.3828 76.2423C37.0755 76.0644 36.8174 76.2055 36.8174 76.5612C36.8174 76.917 37.0693 77.3524 37.3766 77.5303C37.6839 77.7081 37.942 77.5671 37.942 77.2113C37.942 76.8556 37.69 76.4263 37.3828 76.2423Z" fill="#3E73F9"/>
<path d="M39.7177 77.5855C39.4043 77.4076 39.1523 77.5487 39.1523 77.9044C39.1523 78.2601 39.4043 78.6956 39.7116 78.8735C40.0189 79.0513 40.2708 78.9103 40.2708 78.5545C40.2708 78.1988 40.0189 77.7695 39.7116 77.5916L39.7177 77.5855Z" fill="#3E73F9"/>
<path d="M11.6948 63.479C11.3814 63.3012 11.1294 63.4422 11.1294 63.7979C11.1294 64.1537 11.3814 64.5891 11.6886 64.767C11.9959 64.9449 12.254 64.8038 12.254 64.4481C12.254 64.0923 12.002 63.6569 11.6948 63.479Z" fill="#3E73F9"/>
<path d="M14.0299 64.8222C13.7227 64.6444 13.4707 64.7854 13.4707 65.1411C13.4707 65.4969 13.7227 65.9323 14.0299 66.1102C14.3372 66.2881 14.5953 66.147 14.5953 65.7913C14.5953 65.4355 14.3434 65.0001 14.0361 64.8222H14.0299Z" fill="#3E73F9"/>
<path d="M16.3652 66.1715C16.0518 65.9937 15.7998 66.1347 15.7998 66.4905C15.7998 66.8462 16.0518 67.2816 16.359 67.4595C16.6663 67.6374 16.9183 67.4963 16.9183 67.1406C16.9183 66.7848 16.6663 66.3494 16.359 66.1715H16.3652Z" fill="#3E73F9"/>
<path d="M18.7001 67.5147C18.3929 67.3368 18.1348 67.4779 18.1348 67.8336C18.1348 68.1893 18.3867 68.6248 18.694 68.8027C19.0013 68.9805 19.2594 68.8395 19.2594 68.4837C19.2594 68.128 19.0074 67.6926 18.7001 67.5147Z" fill="#3E73F9"/>
<path d="M21.0358 68.8579C20.7285 68.68 20.4766 68.8211 20.4766 69.1768C20.4766 69.5325 20.7285 69.968 21.0358 70.1458C21.3431 70.3237 21.6012 70.1826 21.6012 69.8269C21.6012 69.4712 21.3492 69.0357 21.0419 68.8579H21.0358Z" fill="#3E73F9"/>
<path d="M23.371 70.2011C23.0576 70.0232 22.8057 70.1643 22.8057 70.52C22.8057 70.8757 23.0576 71.3112 23.3649 71.489C23.6722 71.6669 23.9303 71.5258 23.9303 71.1701C23.9303 70.8144 23.6783 70.3789 23.371 70.2011Z" fill="#3E73F9"/>
<path d="M25.6999 71.5504C25.3926 71.3725 25.1406 71.5136 25.1406 71.8693C25.1406 72.225 25.3926 72.6605 25.6999 72.8383C26.0071 73.0162 26.2652 72.8751 26.2652 72.5194C26.2652 72.1637 26.0133 71.7282 25.706 71.5504H25.6999Z" fill="#3E73F9"/>
<path d="M28.0351 72.8935C27.7217 72.7157 27.4697 72.8567 27.4697 73.2125C27.4697 73.5682 27.7217 74.0037 28.029 74.1815C28.3362 74.3594 28.5882 74.2183 28.5882 73.8626C28.5882 73.5069 28.3362 73.0714 28.029 72.8935H28.0351Z" fill="#3E73F9"/>
<path d="M30.3706 74.2367C30.0571 74.0589 29.8052 74.1999 29.8052 74.5557C29.8052 74.9114 30.0571 75.3469 30.3644 75.5247C30.6717 75.7026 30.9298 75.5615 30.9298 75.2058C30.9298 74.8501 30.6778 74.4146 30.3706 74.2367Z" fill="#3E73F9"/>
<path d="M32.7057 75.586C32.3984 75.4082 32.1465 75.5492 32.1465 75.905C32.1465 76.2607 32.3984 76.6962 32.7057 76.874C33.013 77.0519 33.2711 76.9108 33.2711 76.5551C33.2711 76.1994 33.0191 75.7639 32.7119 75.586H32.7057Z" fill="#3E73F9"/>
<path d="M35.041 76.9292C34.7276 76.7513 34.4756 76.8924 34.4756 77.2481C34.4756 77.6039 34.7275 78.0393 35.0348 78.2172C35.3421 78.3951 35.5941 78.254 35.5941 77.8983C35.5941 77.5425 35.3421 77.1071 35.0348 76.9292H35.041Z" fill="#3E73F9"/>
<path d="M37.3764 78.2724C37.0691 78.0945 36.811 78.2356 36.811 78.5913C36.811 78.9471 37.063 79.3825 37.3703 79.5604C37.6775 79.7383 37.9356 79.5972 37.9356 79.2415C37.9356 78.8857 37.6837 78.4503 37.3764 78.2724Z" fill="#3E73F9"/>
<path d="M39.7119 79.6217C39.3984 79.4439 39.1465 79.5849 39.1465 79.9406C39.1465 80.2964 39.3984 80.7318 39.7057 80.9097C40.013 81.0876 40.265 80.9465 40.265 80.5908C40.265 80.235 40.013 79.7996 39.7057 79.6217H39.7119Z" fill="#3E73F9"/>
<path d="M11.6884 65.5091C11.375 65.3313 11.123 65.4723 11.123 65.8281C11.123 66.1838 11.375 66.6131 11.6823 66.7971C11.9957 66.975 12.2477 66.8339 12.2477 66.4782C12.2477 66.1225 11.9957 65.687 11.6884 65.5091Z" fill="#3E73F9"/>
<path d="M14.0236 66.8584C13.7163 66.6806 13.4644 66.8216 13.4644 67.1774C13.4644 67.5331 13.7163 67.9624 14.0236 68.1403C14.3309 68.3182 14.589 68.1771 14.589 67.8214C14.589 67.4656 14.337 67.0302 14.0297 66.8523L14.0236 66.8584Z" fill="#3E73F9"/>
<path d="M16.3588 68.2016C16.0454 68.0237 15.7935 68.1648 15.7935 68.5205C15.7935 68.8763 16.0454 69.3056 16.3527 69.4896C16.66 69.6736 16.9119 69.5264 16.9119 69.1707C16.9119 68.8149 16.66 68.3795 16.3527 68.2016H16.3588Z" fill="#3E73F9"/>
<path d="M18.6943 69.5448C18.387 69.3669 18.1289 69.508 18.1289 69.8637C18.1289 70.2195 18.3809 70.6549 18.6881 70.8328C18.9954 71.0107 19.2535 70.8696 19.2535 70.5139C19.2535 70.1581 19.0016 69.7227 18.6943 69.5448Z" fill="#3E73F9"/>
<path d="M21.0294 70.8941C20.7222 70.7163 20.4702 70.8573 20.4702 71.213C20.4702 71.5688 20.7222 71.9981 21.0294 72.176C21.3367 72.3538 21.5948 72.2128 21.5948 71.857C21.5948 71.5013 21.3429 71.0659 21.0356 70.888L21.0294 70.8941Z" fill="#3E73F9"/>
<path d="M23.3647 72.2373C23.0513 72.0594 22.7993 72.2005 22.7993 72.5562C22.7993 72.9119 23.0513 73.3413 23.3586 73.5253C23.6658 73.7093 23.9239 73.5621 23.9239 73.2063C23.9239 72.8506 23.672 72.4152 23.3647 72.2373Z" fill="#3E73F9"/>
<path d="M25.694 73.5805C25.3867 73.4026 25.1348 73.5437 25.1348 73.8994C25.1348 74.2551 25.3867 74.6845 25.694 74.8623C26.0013 75.0402 26.2594 74.8991 26.2594 74.5434C26.2594 74.1877 26.0074 73.7522 25.7001 73.5744L25.694 73.5805Z" fill="#3E73F9"/>
<path d="M28.0292 74.9298C27.7158 74.7519 27.4639 74.893 27.4639 75.2487C27.4639 75.6045 27.7158 76.0338 28.0231 76.2178C28.3304 76.3956 28.5823 76.2546 28.5823 75.8988C28.5823 75.5431 28.3304 75.1077 28.0231 74.9298H28.0292Z" fill="#3E73F9"/>
<path d="M30.3642 76.273C30.0508 76.0951 29.7988 76.2362 29.7988 76.5919C29.7988 76.9476 30.0508 77.3769 30.3581 77.5609C30.6653 77.7449 30.9234 77.5977 30.9234 77.242C30.9234 76.8863 30.6715 76.4508 30.3642 76.273Z" fill="#3E73F9"/>
<path d="M32.6999 77.6161C32.3926 77.4383 32.1406 77.5793 32.1406 77.9351C32.1406 78.2908 32.3926 78.7201 32.6999 78.898C33.0071 79.0758 33.2652 78.9348 33.2652 78.579C33.2652 78.2233 33.0133 77.7879 32.706 77.61L32.6999 77.6161Z" fill="#3E73F9"/>
<path d="M35.0351 78.9655C34.7217 78.7876 34.4697 78.9287 34.4697 79.2844C34.4697 79.6401 34.7217 80.0695 35.029 80.2535C35.3362 80.4374 35.5882 80.2902 35.5882 79.9345C35.5882 79.5788 35.3362 79.1433 35.029 78.9655H35.0351Z" fill="#3E73F9"/>
<path d="M37.3701 80.3086C37.0628 80.1308 36.8047 80.2718 36.8047 80.6276C36.8047 80.9833 37.0567 81.4187 37.3639 81.5966C37.6712 81.7745 37.9293 81.6334 37.9293 81.2777C37.9293 80.922 37.6773 80.4865 37.3701 80.3086Z" fill="#3E73F9"/>
<path d="M39.7055 81.6518C39.3921 81.4739 39.1401 81.615 39.1401 81.9707C39.1401 82.3265 39.3921 82.7558 39.6994 82.9398C40.0066 83.1176 40.2586 82.9766 40.2586 82.6209C40.2586 82.2651 40.0066 81.8297 39.6994 81.6518H39.7055Z" fill="#3E73F9"/>
</g>
<g opacity="0.2">
<path d="M48.352 74.7274L48.1861 85.6568C46.4531 86.6627 43.6262 86.6627 41.8809 85.6568L42.0468 74.7274C43.7921 75.7332 46.6128 75.7332 48.352 74.7274Z" fill="#3E73F9"/>
</g>
<g opacity="0.2">
<path d="M8.14258 65.687L8.30851 54.1749C8.30851 54.8373 8.74483 55.5058 9.62363 56.0087L9.4577 67.5208C8.5789 67.0118 8.14258 66.3494 8.14258 65.687Z" fill="#3E73F9"/>
</g>
<path d="M81.9431 37.7563L81.7772 49.2683C81.7772 49.9246 81.347 50.5747 80.4805 51.0776L80.0872 51.3046L66.6409 59.1061L48.1862 69.8147C46.447 70.8205 43.6324 70.8205 41.881 69.8147L9.36542 51.0776C8.48662 50.5686 8.05029 49.9062 8.05029 49.2438L8.21622 37.7379C8.21622 38.4002 8.65255 39.0626 9.53134 39.5656L42.0407 58.3026C43.786 59.3085 46.6129 59.3085 48.346 58.3026L80.6464 39.5656C81.5068 39.0626 81.9431 38.4125 81.9431 37.7563Z" fill="white" stroke="#3E73F9" stroke-linecap="round" stroke-linejoin="round"/>
<g opacity="0.2">
<path d="M81.9494 37.7563L81.7835 49.2683C81.7835 49.9246 81.3533 50.5747 80.4868 51.0777L80.6527 39.5656C81.5131 39.0688 81.9433 38.4125 81.9494 37.7563Z" fill="#3E73F9"/>
</g>
<path d="M80.6279 35.9224C82.3732 36.9283 82.3855 38.5597 80.6525 39.5655L48.352 58.3026C46.619 59.3084 43.7921 59.3084 42.0468 58.3026L9.53125 39.5717C7.78594 38.5658 7.77365 36.9344 9.51281 35.9285L41.8133 17.1915C43.5463 16.1856 46.367 16.1856 48.1185 17.1915L80.634 35.9224H80.6279Z" fill="white" stroke="#3E73F9" stroke-linecap="round" stroke-linejoin="round"/>
<g opacity="0.05">
<path d="M76.1908 36.1493C77.721 37.0325 77.7272 38.4554 76.2093 39.3386L47.9402 55.7328C46.4223 56.6159 43.9518 56.6159 42.4216 55.7328L13.9682 39.3386C12.438 38.4554 12.4318 37.0325 13.9498 36.1493L42.2188 19.7552C43.7367 18.8781 46.2072 18.8781 47.7374 19.7552L76.1908 36.1493Z" fill="#3E73F9"/>
</g>
<g opacity="0.2">
<path d="M66.549 36.6461C67.606 37.2533 67.6121 38.2408 66.5613 38.848L47.0556 50.1577C46.0048 50.7648 44.3025 50.7648 43.2516 50.1577L23.6169 38.848C22.5599 38.2408 22.5538 37.2533 23.6046 36.6461L43.1103 25.3364C44.155 24.7292 45.8634 24.7292 46.9143 25.3364L66.549 36.6461Z" fill="#3E73F9"/>
</g>
<g opacity="0.5">
<path d="M11.0309 37.2717C10.7482 37.1061 10.2873 37.1061 10.0046 37.2717C9.72195 37.4373 9.7281 37.701 10.0046 37.8666C10.2873 38.0322 10.7482 38.0322 11.0309 37.8666C11.3136 37.701 11.3136 37.4373 11.0309 37.2717Z" fill="#3E73F9"/>
<path d="M45.3654 18.1299C45.6481 17.9643 45.6481 17.7006 45.3654 17.535C45.0827 17.3694 44.6218 17.3694 44.3391 17.535C44.0564 17.7006 44.0626 17.9643 44.3391 18.1299C44.6218 18.2955 45.0827 18.2955 45.3654 18.1299Z" fill="#3E73F9"/>
<path d="M45.9372 57.0698C45.6545 56.9042 45.1936 56.9042 44.9109 57.0698C44.6282 57.2354 44.6343 57.4991 44.9109 57.6647C45.1936 57.8303 45.6545 57.8303 45.9372 57.6647C46.2199 57.4991 46.2199 57.2354 45.9372 57.0698Z" fill="#3E73F9"/>
<path d="M80.2717 37.3331C79.989 37.1675 79.5281 37.1675 79.2454 37.3331C78.9627 37.4987 78.9688 37.7624 79.2454 37.928C79.5281 38.0936 79.989 38.0936 80.2717 37.928C80.5543 37.7624 80.5543 37.4987 80.2717 37.3331Z" fill="#3E73F9"/>
</g>
<g opacity="0.3">
<path d="M51.6214 62.3812C51.3202 62.5529 51.0806 62.97 51.0806 63.3134V65.6073C51.0867 65.9507 51.3325 66.0857 51.6275 65.9139C51.9286 65.7422 52.1683 65.3251 52.1683 64.9817V62.6878C52.1622 62.3444 51.9163 62.2094 51.6214 62.3812Z" fill="#3E73F9"/>
<path d="M53.5696 61.2588C53.2685 61.4305 53.0288 61.8476 53.0288 62.1911V64.4849C53.035 64.8283 53.2808 64.9633 53.5758 64.7915C53.8707 64.6198 54.1165 64.2028 54.1165 63.8593V61.5655C54.1104 61.222 53.8646 61.0871 53.5696 61.2588Z" fill="#3E73F9"/>
<path d="M55.5115 60.1426C55.2104 60.3143 54.9707 60.7313 54.9707 61.0748V63.3686C54.9768 63.7121 55.2227 63.847 55.5176 63.6753C55.8126 63.5036 56.0584 63.0865 56.0584 62.7431V60.4492C56.0523 60.1058 55.8065 59.9708 55.5115 60.1426Z" fill="#3E73F9"/>
<path d="M57.4534 59.0202C57.1523 59.1919 56.9126 59.609 56.9126 59.9524V62.2463C56.9187 62.5897 57.1646 62.7247 57.4595 62.5529C57.7545 62.3812 58.0003 61.9641 58.0003 61.6207V59.3268C57.9942 58.9834 57.7484 58.8484 57.4534 59.0202Z" fill="#3E73F9"/>
<path d="M59.3953 57.9039C59.0942 58.0757 58.8545 58.4927 58.8545 58.8362V61.13C58.8606 61.4735 59.1065 61.6084 59.4014 61.4367C59.6964 61.265 59.9422 60.8479 59.9422 60.5044V58.2106C59.9361 57.8671 59.6903 57.7322 59.3953 57.9039Z" fill="#3E73F9"/>
<path d="M61.3435 56.7815C61.0424 56.9533 60.8027 57.3703 60.8027 57.7138V60.0076C60.8089 60.3511 61.0547 60.486 61.3497 60.3143C61.6447 60.1425 61.8905 59.7255 61.8905 59.382V57.0882C61.8843 56.7447 61.6385 56.6098 61.3435 56.7815Z" fill="#3E73F9"/>
<path d="M63.2854 55.6592C62.9843 55.8309 62.7446 56.2479 62.7446 56.5914V58.8852C62.7508 59.2287 62.9966 59.3636 63.2916 59.1919C63.5866 59.0202 63.8324 58.6031 63.8324 58.2596V55.9658C63.8262 55.6224 63.5804 55.4874 63.2854 55.6592Z" fill="#3E73F9"/>
<path d="M65.2273 54.5429C64.9262 54.7146 64.6865 55.1317 64.6865 55.4752V57.769C64.6927 58.1125 64.9385 58.2474 65.2335 58.0757C65.5284 57.9039 65.7743 57.4869 65.7743 57.1434V54.8496C65.7681 54.5061 65.5223 54.3712 65.2273 54.5429Z" fill="#3E73F9"/>
<path d="M67.1756 53.4205C66.8744 53.5922 66.6348 54.0093 66.6348 54.3528V56.6466C66.6409 56.9901 66.8867 57.125 67.1817 56.9533C67.4767 56.7815 67.7225 56.3645 67.7225 56.021V53.7272C67.7164 53.3837 67.4705 53.2488 67.1756 53.4205Z" fill="#3E73F9"/>
<path d="M69.1175 52.2981C68.8163 52.4699 68.5767 52.8869 68.5767 53.2304V55.5242C68.5828 55.8677 68.8286 56.0026 69.1236 55.8309C69.4186 55.6592 69.6644 55.2421 69.6644 54.8986V52.6048C69.6583 52.2613 69.4124 52.1264 69.1175 52.2981Z" fill="#3E73F9"/>
<path d="M71.0594 51.1819C70.7582 51.3536 70.5186 51.7707 70.5186 52.1141V54.408C70.5247 54.7514 70.7705 54.8864 71.0655 54.7146C71.3605 54.5429 71.6063 54.1259 71.6063 53.7824V51.4886C71.6002 51.1451 71.3543 51.0102 71.0594 51.1819Z" fill="#3E73F9"/>
<path d="M73.0076 50.0595C72.7065 50.2312 72.4668 50.6483 72.4668 50.9918V53.2856C72.4729 53.6291 72.7188 53.764 73.0137 53.5923C73.3087 53.4205 73.5545 53.0035 73.5545 52.66V50.3662C73.5484 50.0227 73.3026 49.8878 73.0076 50.0595Z" fill="#3E73F9"/>
<path d="M74.9495 48.9433C74.6484 49.115 74.4087 49.5321 74.4087 49.8755V52.1694C74.4148 52.5128 74.6607 52.6477 74.9556 52.476C75.2506 52.3043 75.4964 51.8872 75.4964 51.5438V49.2499C75.4903 48.9065 75.2445 48.7715 74.9495 48.9433Z" fill="#3E73F9"/>
<path d="M76.8914 47.8209C76.5903 47.9926 76.3506 48.4097 76.3506 48.7531V51.047C76.3567 51.3904 76.6025 51.5253 76.8975 51.3536C77.1925 51.1819 77.4383 50.7648 77.4383 50.4214V48.1275C77.4322 47.7841 77.1864 47.6491 76.8914 47.8209Z" fill="#3E73F9"/>
<path d="M78.8333 46.6985C78.5322 46.8702 78.2925 47.2873 78.2925 47.6307V49.9246C78.2986 50.268 78.5444 50.403 78.8394 50.2312C79.1344 50.0595 79.3802 49.6424 79.3802 49.299V47.0052C79.3741 46.6617 79.1283 46.5268 78.8333 46.6985Z" fill="#3E73F9"/>
</g>
<g opacity="0.3">
<path d="M11.7006 45.3185C11.3872 45.1407 11.1353 45.2817 11.1353 45.6375C11.1353 45.9932 11.3872 46.4286 11.6945 46.6065C12.0018 46.7844 12.2599 46.6433 12.2599 46.2876C12.2599 45.9318 12.0079 45.5025 11.7006 45.3185Z" fill="#3E73F9"/>
<path d="M14.0358 46.6678C13.7285 46.49 13.4766 46.631 13.4766 46.9868C13.4766 47.3425 13.7285 47.7779 14.0358 47.9558C14.3431 48.1337 14.6012 47.9926 14.6012 47.6369C14.6012 47.2812 14.3492 46.8518 14.0419 46.6678H14.0358Z" fill="#3E73F9"/>
<path d="M16.371 48.011C16.0576 47.8332 15.8057 47.9742 15.8057 48.33C15.8057 48.6857 16.0576 49.1211 16.3649 49.299C16.6722 49.4769 16.9241 49.3358 16.9241 48.9801C16.9241 48.6244 16.6722 48.195 16.3649 48.0172L16.371 48.011Z" fill="#3E73F9"/>
<path d="M18.7065 49.3542C18.3992 49.1763 18.1411 49.3174 18.1411 49.6731C18.1411 50.0289 18.3931 50.4643 18.7003 50.6422C19.0076 50.82 19.2657 50.679 19.2657 50.3233C19.2657 49.9675 19.0138 49.5382 18.7065 49.3542Z" fill="#3E73F9"/>
<path d="M21.0417 50.6974C20.7344 50.5195 20.4824 50.6606 20.4824 51.0163C20.4824 51.372 20.7344 51.8075 21.0417 51.9854C21.3489 52.1632 21.607 52.0221 21.607 51.6664C21.607 51.3107 21.3551 50.8814 21.0478 50.6974H21.0417Z" fill="#3E73F9"/>
<path d="M23.3769 52.0467C23.0635 51.8688 22.8115 52.0099 22.8115 52.3656C22.8115 52.7213 23.0635 53.1568 23.3708 53.3347C23.678 53.5125 23.9361 53.3715 23.9361 53.0157C23.9361 52.66 23.6842 52.2245 23.3769 52.0467Z" fill="#3E73F9"/>
<path d="M25.7062 53.3899C25.3989 53.212 25.147 53.3531 25.147 53.7088C25.147 54.0645 25.3989 54.5 25.7062 54.6779C26.0135 54.8557 26.2716 54.7147 26.2716 54.3589C26.2716 54.0032 26.0196 53.5739 25.7124 53.3899H25.7062Z" fill="#3E73F9"/>
<path d="M28.0415 54.7392C27.728 54.5613 27.4761 54.7024 27.4761 55.0581C27.4761 55.4138 27.728 55.8493 28.0353 56.0272C28.3426 56.205 28.5945 56.064 28.5945 55.7082C28.5945 55.3525 28.3426 54.9232 28.0353 54.7453L28.0415 54.7392Z" fill="#3E73F9"/>
<path d="M30.3769 56.0824C30.0635 55.9045 29.8115 56.0455 29.8115 56.4013C29.8115 56.757 30.0635 57.1925 30.3708 57.3703C30.678 57.5482 30.9361 57.4071 30.9361 57.0514C30.9361 56.6957 30.6842 56.2663 30.3769 56.0824Z" fill="#3E73F9"/>
<path d="M32.7121 57.4255C32.4048 57.2477 32.1528 57.3888 32.1528 57.7445C32.1528 58.1002 32.4048 58.5357 32.7121 58.7135C33.0193 58.8914 33.2774 58.7503 33.2774 58.3946C33.2774 58.0389 33.0255 57.6095 32.7182 57.4255H32.7121Z" fill="#3E73F9"/>
<path d="M35.0473 58.7687C34.7339 58.5909 34.4819 58.7319 34.4819 59.0876C34.4819 59.4434 34.7339 59.8788 35.0412 60.0567C35.3484 60.2346 35.6004 60.0935 35.6004 59.7378C35.6004 59.382 35.3484 58.9527 35.0412 58.7749L35.0473 58.7687Z" fill="#3E73F9"/>
<path d="M37.3828 60.118C37.0755 59.9402 36.8174 60.0812 36.8174 60.437C36.8174 60.7927 37.0693 61.2281 37.3766 61.406C37.6839 61.5839 37.942 61.4428 37.942 61.0871C37.942 60.7313 37.69 60.302 37.3828 60.118Z" fill="#3E73F9"/>
<path d="M39.7177 61.4612C39.4043 61.2834 39.1523 61.4244 39.1523 61.7802C39.1523 62.1359 39.4043 62.5713 39.7116 62.7492C40.0189 62.9271 40.2708 62.786 40.2708 62.4303C40.2708 62.0745 40.0189 61.6452 39.7116 61.4674L39.7177 61.4612Z" fill="#3E73F9"/>
<path d="M11.6948 47.3547C11.3814 47.1769 11.1294 47.318 11.1294 47.6737C11.1294 48.0294 11.3814 48.4649 11.6886 48.6427C11.9959 48.8206 12.254 48.6795 12.254 48.3238C12.254 47.9681 12.002 47.5326 11.6948 47.3547Z" fill="#3E73F9"/>
<path d="M14.0299 48.698C13.7227 48.5201 13.4707 48.6611 13.4707 49.0169C13.4707 49.3726 13.7227 49.8081 14.0299 49.9859C14.3372 50.1638 14.5953 50.0227 14.5953 49.667C14.5953 49.3113 14.3434 48.8758 14.0361 48.698H14.0299Z" fill="#3E73F9"/>
<path d="M16.3652 50.0411C16.0518 49.8633 15.7998 50.0043 15.7998 50.3601C15.7998 50.7158 16.0518 51.1512 16.359 51.3291C16.6663 51.507 16.9183 51.3659 16.9183 51.0102C16.9183 50.6544 16.6663 50.219 16.359 50.0411H16.3652Z" fill="#3E73F9"/>
<path d="M18.7001 51.3904C18.3929 51.2126 18.1348 51.3536 18.1348 51.7094C18.1348 52.0651 18.3867 52.5005 18.694 52.6784C19.0013 52.8563 19.2594 52.7152 19.2594 52.3595C19.2594 52.0038 19.0074 51.5683 18.7001 51.3904Z" fill="#3E73F9"/>
<path d="M21.0358 52.7336C20.7285 52.5558 20.4766 52.6968 20.4766 53.0526C20.4766 53.4083 20.7285 53.8437 21.0358 54.0216C21.3492 54.1995 21.6012 54.0584 21.6012 53.7027C21.6012 53.3469 21.3492 52.9115 21.0419 52.7336H21.0358Z" fill="#3E73F9"/>
<path d="M23.371 54.0768C23.0576 53.8989 22.8057 54.04 22.8057 54.3957C22.8057 54.7515 23.0576 55.1869 23.3649 55.3648C23.6722 55.5426 23.9303 55.4016 23.9303 55.0458C23.9303 54.6901 23.6783 54.2547 23.371 54.0768Z" fill="#3E73F9"/>
<path d="M25.6999 55.42C25.3926 55.2421 25.1406 55.3832 25.1406 55.7389C25.1406 56.0946 25.3926 56.5301 25.6999 56.7079C26.0071 56.8858 26.2652 56.7447 26.2652 56.389C26.2652 56.0333 26.0133 55.5978 25.706 55.42H25.6999Z" fill="#3E73F9"/>
<path d="M28.0351 56.7693C27.7217 56.5914 27.4697 56.7325 27.4697 57.0882C27.4697 57.4439 27.7217 57.8794 28.029 58.0573C28.3362 58.2351 28.5882 58.0941 28.5882 57.7383C28.5882 57.3826 28.3362 56.9471 28.029 56.7693H28.0351Z" fill="#3E73F9"/>
<path d="M30.3706 58.1125C30.0571 57.9346 29.8052 58.0757 29.8052 58.4314C29.8052 58.7871 30.0571 59.2226 30.3644 59.4005C30.6717 59.5783 30.9298 59.4373 30.9298 59.0815C30.9298 58.7258 30.6778 58.2903 30.3706 58.1125Z" fill="#3E73F9"/>
<path d="M32.7057 59.4556C32.3984 59.2778 32.1465 59.4188 32.1465 59.7746C32.1465 60.1303 32.3984 60.5658 32.7057 60.7436C33.0191 60.9215 33.2711 60.7804 33.2711 60.4247C33.2711 60.069 33.0191 59.6335 32.7119 59.4556H32.7057Z" fill="#3E73F9"/>
<path d="M35.041 60.8049C34.7276 60.6271 34.4756 60.7681 34.4756 61.1239C34.4756 61.4796 34.7275 61.9151 35.0348 62.0929C35.3421 62.2708 35.5941 62.1297 35.5941 61.774C35.5941 61.4183 35.3421 60.9828 35.0348 60.8049H35.041Z" fill="#3E73F9"/>
<path d="M37.3764 62.1481C37.0691 61.9703 36.811 62.1113 36.811 62.4671C36.811 62.8228 37.063 63.2583 37.3703 63.4361C37.6775 63.614 37.9356 63.4729 37.9356 63.1172C37.9356 62.7615 37.6837 62.326 37.3764 62.1481Z" fill="#3E73F9"/>
<path d="M39.7119 63.4913C39.3984 63.3135 39.1465 63.4545 39.1465 63.8102C39.1465 64.166 39.3984 64.6014 39.7057 64.7793C40.013 64.9572 40.265 64.8161 40.265 64.4604C40.265 64.1046 40.013 63.6692 39.7057 63.4913H39.7119Z" fill="#3E73F9"/>
<path d="M11.6884 49.3849C11.375 49.207 11.123 49.3481 11.123 49.7038C11.123 50.0595 11.375 50.4889 11.6823 50.6729C11.9896 50.8569 12.2477 50.7097 12.2477 50.3539C12.2477 49.9982 11.9957 49.5627 11.6884 49.3849Z" fill="#3E73F9"/>
<path d="M14.0236 50.728C13.7163 50.5502 13.4644 50.6912 13.4644 51.047C13.4644 51.4027 13.7163 51.832 14.0236 52.0099C14.3309 52.1878 14.589 52.0467 14.589 51.691C14.589 51.3352 14.337 50.8998 14.0297 50.7219L14.0236 50.728Z" fill="#3E73F9"/>
<path d="M16.3588 52.0773C16.0454 51.8995 15.7935 52.0405 15.7935 52.3963C15.7935 52.752 16.0454 53.1813 16.3527 53.3653C16.66 53.5493 16.9119 53.4021 16.9119 53.0464C16.9119 52.6907 16.66 52.2552 16.3527 52.0773H16.3588Z" fill="#3E73F9"/>
<path d="M18.6943 53.4205C18.387 53.2427 18.1289 53.3837 18.1289 53.7395C18.1289 54.0952 18.3809 54.5307 18.6881 54.7085C18.9954 54.8864 19.2535 54.7453 19.2535 54.3896C19.2535 54.0339 19.0016 53.5984 18.6943 53.4205Z" fill="#3E73F9"/>
<path d="M21.0294 54.7637C20.7222 54.5859 20.4702 54.7269 20.4702 55.0826C20.4702 55.4384 20.7222 55.8677 21.0294 56.0456C21.3429 56.2234 21.5948 56.0824 21.5948 55.7266C21.5948 55.3709 21.3429 54.9354 21.0356 54.7576L21.0294 54.7637Z" fill="#3E73F9"/>
<path d="M23.3647 56.113C23.0513 55.9352 22.7993 56.0762 22.7993 56.432C22.7993 56.7877 23.0513 57.217 23.3586 57.401C23.6658 57.585 23.9239 57.4378 23.9239 57.0821C23.9239 56.7263 23.672 56.2909 23.3647 56.113Z" fill="#3E73F9"/>
<path d="M25.694 57.4562C25.3867 57.2784 25.1348 57.4194 25.1348 57.7751C25.1348 58.1309 25.3867 58.5602 25.694 58.7381C26.0013 58.9159 26.2594 58.7749 26.2594 58.4191C26.2594 58.0634 26.0074 57.628 25.7001 57.4501L25.694 57.4562Z" fill="#3E73F9"/>
<path d="M28.0292 58.7994C27.7158 58.6215 27.4639 58.7626 27.4639 59.1183C27.4639 59.474 27.7158 59.9034 28.0231 60.0874C28.3304 60.2714 28.5823 60.1242 28.5823 59.7684C28.5823 59.4127 28.3304 58.9773 28.0231 58.7994H28.0292Z" fill="#3E73F9"/>
<path d="M30.3642 60.1487C30.0508 59.9708 29.7988 60.1119 29.7988 60.4676C29.7988 60.8233 30.0508 61.2527 30.3581 61.4367C30.6653 61.6207 30.9234 61.4735 30.9234 61.1177C30.9234 60.762 30.6715 60.3266 30.3642 60.1487Z" fill="#3E73F9"/>
<path d="M32.6999 61.4919C32.3926 61.314 32.1406 61.4551 32.1406 61.8108C32.1406 62.1665 32.3926 62.5958 32.6999 62.7737C33.0071 62.9516 33.2652 62.8105 33.2652 62.4548C33.2652 62.0991 33.0133 61.6636 32.706 61.4857L32.6999 61.4919Z" fill="#3E73F9"/>
<path d="M35.0351 62.8351C34.7217 62.6572 34.4697 62.7983 34.4697 63.154C34.4697 63.5097 34.7217 63.9391 35.029 64.123C35.3362 64.307 35.5882 64.1598 35.5882 63.8041C35.5882 63.4484 35.3362 63.0129 35.029 62.8351H35.0351Z" fill="#3E73F9"/>
<path d="M37.3701 64.1844C37.0628 64.0065 36.8047 64.1476 36.8047 64.5033C36.8047 64.859 37.0567 65.2945 37.3639 65.4723C37.6712 65.6502 37.9293 65.5092 37.9293 65.1534C37.9293 64.7977 37.6773 64.3622 37.3701 64.1844Z" fill="#3E73F9"/>
<path d="M39.7055 65.5275C39.3921 65.3497 39.1401 65.4907 39.1401 65.8465C39.1401 66.2022 39.3921 66.6315 39.6994 66.8155C40.0066 66.9934 40.2586 66.8523 40.2586 66.4966C40.2586 66.1409 40.0066 65.7054 39.6994 65.5275H39.7055Z" fill="#3E73F9"/>
</g>
<g opacity="0.2">
<path d="M48.352 58.597L48.1861 69.5264C46.4531 70.5323 43.6262 70.5323 41.8809 69.5264L42.0468 58.597C43.7921 59.6028 46.6128 59.6028 48.352 58.597Z" fill="#3E73F9"/>
</g>
<g opacity="0.2">
<path d="M8.14258 49.5566L8.30851 38.0445C8.30851 38.7069 8.74483 39.3754 9.62363 39.8783L9.4577 51.3904C8.5789 50.8814 8.14258 50.219 8.14258 49.5566Z" fill="#3E73F9"/>
</g>
<path d="M81.9431 21.632L81.7772 33.144C81.7772 33.8003 81.347 34.4504 80.4805 34.9534L80.0872 35.1803L66.6409 42.9818L48.1862 53.6904C46.447 54.6962 43.6324 54.6962 41.881 53.6904L9.36542 34.9534C8.48662 34.4443 8.05029 33.7819 8.05029 33.1195L8.21622 21.6136C8.21622 22.2759 8.65255 22.9383 9.53134 23.4413L42.0407 42.1783C43.786 43.1842 46.6129 43.1842 48.346 42.1783L80.6464 23.4413C81.5068 22.9383 81.9431 22.2882 81.9431 21.632Z" fill="white" stroke="#3E73F9" stroke-linecap="round" stroke-linejoin="round"/>
<g opacity="0.2">
<path d="M81.9494 21.632L81.7835 33.144C81.7835 33.8003 81.3533 34.4504 80.4868 34.9534L80.6527 23.4413C81.5131 22.9445 81.9433 22.2882 81.9494 21.632Z" fill="#3E73F9"/>
</g>
<path d="M80.6279 19.7981C82.3732 20.804 82.3855 22.4354 80.6525 23.4412L48.352 42.1783C46.619 43.1841 43.7921 43.1841 42.0468 42.1783L9.53125 23.4412C7.78594 22.4354 7.77365 20.804 9.51281 19.7981L41.8133 1.06106C43.5463 0.0552084 46.367 0.0552084 48.1185 1.06106L80.634 19.792L80.6279 19.7981Z" fill="white" stroke="#3E73F9" stroke-linecap="round" stroke-linejoin="round"/>
<g opacity="0.05">
<path d="M76.1908 20.025C77.721 20.9082 77.7272 22.3311 76.2093 23.2143L47.9402 39.6085C46.4223 40.4916 43.9518 40.4916 42.4216 39.6085L13.9682 23.2143C12.438 22.3311 12.4318 20.9082 13.9498 20.025L42.225 3.62474C43.7429 2.74769 46.2133 2.74769 47.7436 3.62474L76.197 20.0189L76.1908 20.025Z" fill="#3E73F9"/>
</g>
<path d="M66.549 20.5157C67.606 21.1229 67.6121 22.1103 66.5613 22.7175L47.0556 34.0272C46.0048 34.6344 44.3025 34.6344 43.2516 34.0272L23.6169 22.7175C22.5599 22.1103 22.5538 21.1229 23.6046 20.5157L43.1103 9.206C44.155 8.59881 45.8634 8.59881 46.9143 9.206L66.549 20.5157Z" fill="url(#paint0_linear_1975_69146)"/>
<g opacity="0.5">
<path d="M11.0309 21.1413C10.7482 20.9757 10.2873 20.9757 10.0046 21.1413C9.72195 21.3069 9.7281 21.5706 10.0046 21.7362C10.2873 21.9018 10.7482 21.9018 11.0309 21.7362C11.3136 21.5706 11.3136 21.3069 11.0309 21.1413Z" fill="#3E73F9"/>
<path d="M45.3654 1.99946C45.6481 1.83386 45.6481 1.57013 45.3654 1.40453C45.0827 1.23894 44.6218 1.23894 44.3391 1.40453C44.0564 1.57013 44.0626 1.83386 44.3391 1.99946C44.6218 2.16505 45.0827 2.16505 45.3654 1.99946Z" fill="#3E73F9"/>
<path d="M45.9372 40.9455C45.6545 40.7799 45.1936 40.7799 44.9109 40.9455C44.6282 41.1111 44.6343 41.3748 44.9109 41.5404C45.1936 41.706 45.6545 41.706 45.9372 41.5404C46.2199 41.3748 46.2199 41.1111 45.9372 40.9455Z" fill="#3E73F9"/>
<path d="M80.2717 21.2088C79.989 21.0432 79.5281 21.0432 79.2454 21.2088C78.9627 21.3744 78.9688 21.6381 79.2454 21.8037C79.5281 21.9693 79.989 21.9693 80.2717 21.8037C80.5543 21.6381 80.5543 21.3744 80.2717 21.2088Z" fill="#3E73F9"/>
</g>
<g opacity="0.3">
<path d="M51.6214 46.2569C51.3202 46.4286 51.0806 46.8457 51.0806 47.1891V49.483C51.0867 49.8264 51.3325 49.9614 51.6275 49.7896C51.9225 49.6179 52.1683 49.2008 52.1683 48.8574V46.5635C52.1622 46.2201 51.9163 46.0851 51.6214 46.2569Z" fill="#3E73F9"/>
<path d="M53.5696 45.1345C53.2685 45.3062 53.0288 45.7233 53.0288 46.0668V48.3606C53.035 48.704 53.2808 48.839 53.5758 48.6672C53.8707 48.4955 54.1165 48.0785 54.1165 47.735V45.4412C54.1104 45.0977 53.8646 44.9628 53.5696 45.1345Z" fill="#3E73F9"/>
<path d="M55.5115 44.0183C55.2104 44.19 54.9707 44.6071 54.9707 44.9505V47.2443C54.9768 47.5878 55.2227 47.7227 55.5176 47.551C55.8126 47.3793 56.0584 46.9622 56.0584 46.6188V44.3249C56.0523 43.9815 55.8065 43.8465 55.5115 44.0183Z" fill="#3E73F9"/>
<path d="M57.4534 42.8959C57.1523 43.0676 56.9126 43.4847 56.9126 43.8281V46.122C56.9187 46.4654 57.1646 46.6004 57.4595 46.4286C57.7545 46.2569 58.0003 45.8398 58.0003 45.4964V43.2025C57.9942 42.8591 57.7484 42.7242 57.4534 42.8959Z" fill="#3E73F9"/>
<path d="M59.3953 41.7735C59.0942 41.9452 58.8545 42.3623 58.8545 42.7058V44.9996C58.8606 45.3431 59.1065 45.478 59.4014 45.3063C59.6964 45.1345 59.9422 44.7175 59.9422 44.374V42.0802C59.9361 41.7367 59.6903 41.6018 59.3953 41.7735Z" fill="#3E73F9"/>
<path d="M61.3435 40.6572C61.0424 40.829 60.8027 41.246 60.8027 41.5895V43.8833C60.8089 44.2268 61.0547 44.3617 61.3497 44.19C61.6447 44.0183 61.8905 43.6012 61.8905 43.2577V40.9639C61.8843 40.6204 61.6385 40.4855 61.3435 40.6572Z" fill="#3E73F9"/>
<path d="M63.2854 39.5349C62.9843 39.7066 62.7446 40.1237 62.7446 40.4671V42.7609C62.7508 43.1044 62.9966 43.2393 63.2916 43.0676C63.5866 42.8959 63.8324 42.4788 63.8324 42.1354V39.8415C63.8262 39.4981 63.5804 39.3631 63.2854 39.5349Z" fill="#3E73F9"/>
<path d="M65.2273 38.4125C64.9262 38.5842 64.6865 39.0013 64.6865 39.3447V41.6386C64.6927 41.982 64.9385 42.117 65.2335 41.9452C65.5284 41.7735 65.7743 41.3564 65.7743 41.013V38.7191C65.7681 38.3757 65.5223 38.2408 65.2273 38.4125Z" fill="#3E73F9"/>
<path d="M67.1756 37.2962C66.8744 37.468 66.6348 37.885 66.6348 38.2285V40.5223C66.6409 40.8658 66.8867 41.0007 67.1817 40.829C67.4767 40.6573 67.7225 40.2402 67.7225 39.8967V37.6029C67.7164 37.2594 67.4705 37.1245 67.1756 37.2962Z" fill="#3E73F9"/>
<path d="M69.1175 36.1738C68.8163 36.3456 68.5767 36.7626 68.5767 37.1061V39.3999C68.5828 39.7434 68.8286 39.8783 69.1236 39.7066C69.4186 39.5349 69.6644 39.1178 69.6644 38.7743V36.4805C69.6583 36.137 69.4124 36.0021 69.1175 36.1738Z" fill="#3E73F9"/>
<path d="M71.0594 35.0576C70.7582 35.2293 70.5186 35.6464 70.5186 35.9898V38.2837C70.5247 38.6271 70.7705 38.7621 71.0655 38.5903C71.3605 38.4186 71.6063 38.0016 71.6063 37.6581V35.3643C71.6002 35.0208 71.3543 34.8859 71.0594 35.0576Z" fill="#3E73F9"/>
<path d="M73.0076 33.9352C72.7065 34.1069 72.4668 34.524 72.4668 34.8675V37.1613C72.4729 37.5048 72.7188 37.6397 73.0137 37.468C73.3087 37.2962 73.5545 36.8792 73.5545 36.5357V34.2419C73.5484 33.8984 73.3026 33.7635 73.0076 33.9352Z" fill="#3E73F9"/>
<path d="M74.9495 32.8128C74.6484 32.9846 74.4087 33.4016 74.4087 33.7451V36.0389C74.4148 36.3824 74.6607 36.5173 74.9556 36.3456C75.2506 36.1739 75.4964 35.7568 75.4964 35.4133V33.1195C75.4903 32.776 75.2445 32.6411 74.9495 32.8128Z" fill="#3E73F9"/>
<path d="M76.8914 31.6966C76.5903 31.8683 76.3506 32.2854 76.3506 32.6288V34.9227C76.3567 35.2661 76.6025 35.401 76.8975 35.2293C77.1925 35.0576 77.4383 34.6405 77.4383 34.2971V32.0032C77.4322 31.6598 77.1864 31.5248 76.8914 31.6966Z" fill="#3E73F9"/>
<path d="M78.8333 30.5742C78.5322 30.7459 78.2925 31.163 78.2925 31.5064V33.8003C78.2986 34.1437 78.5444 34.2787 78.8394 34.1069C79.1344 33.9352 79.3802 33.5182 79.3802 33.1747V30.8809C79.3741 30.5374 79.1283 30.4025 78.8333 30.5742Z" fill="#3E73F9"/>
</g>
<g opacity="0.3">
<path d="M11.7006 29.1942C11.3872 29.0164 11.1353 29.1574 11.1353 29.5132C11.1353 29.8689 11.3872 30.3043 11.6945 30.4822C12.0018 30.6601 12.2599 30.519 12.2599 30.1633C12.2599 29.8076 12.0079 29.3782 11.7006 29.1942Z" fill="#3E73F9"/>
<path d="M14.0358 30.5374C13.7285 30.3595 13.4766 30.5006 13.4766 30.8563C13.4766 31.2121 13.7285 31.6475 14.0358 31.8254C14.3431 32.0032 14.6012 31.8622 14.6012 31.5064C14.6012 31.1507 14.3492 30.7214 14.0419 30.5374H14.0358Z" fill="#3E73F9"/>
<path d="M16.371 31.8867C16.0576 31.7089 15.8057 31.8499 15.8057 32.2057C15.8057 32.5614 16.0576 32.9968 16.3649 33.1747C16.6722 33.3526 16.9241 33.2115 16.9241 32.8558C16.9241 32.5001 16.6722 32.0707 16.3649 31.8929L16.371 31.8867Z" fill="#3E73F9"/>
<path d="M18.7065 33.2299C18.3992 33.052 18.1411 33.1931 18.1411 33.5488C18.1411 33.9046 18.3931 34.34 18.7003 34.5179C19.0076 34.6957 19.2657 34.5547 19.2657 34.199C19.2657 33.8432 19.0138 33.4139 18.7065 33.2299Z" fill="#3E73F9"/>
<path d="M21.0417 34.5731C20.7344 34.3952 20.4824 34.5363 20.4824 34.892C20.4824 35.2477 20.7344 35.6832 21.0417 35.8611C21.3489 36.0389 21.607 35.8979 21.607 35.5421C21.607 35.1864 21.3551 34.7571 21.0478 34.5731H21.0417Z" fill="#3E73F9"/>
<path d="M23.3769 35.9224C23.0635 35.7445 22.8115 35.8856 22.8115 36.2413C22.8115 36.597 23.0635 37.0325 23.3708 37.2104C23.678 37.3882 23.9361 37.2472 23.9361 36.8914C23.9361 36.5357 23.6842 36.1002 23.3769 35.9224Z" fill="#3E73F9"/>
<path d="M25.7062 37.2656C25.3989 37.0877 25.147 37.2288 25.147 37.5845C25.147 37.9402 25.3989 38.3757 25.7062 38.5536C26.0135 38.7314 26.2716 38.5904 26.2716 38.2346C26.2716 37.8789 26.0196 37.4496 25.7124 37.2656H25.7062Z" fill="#3E73F9"/>
<path d="M28.0415 38.6087C27.728 38.4309 27.4761 38.5719 27.4761 38.9277C27.4761 39.2834 27.728 39.7189 28.0353 39.8967C28.3426 40.0746 28.5945 39.9335 28.5945 39.5778C28.5945 39.2221 28.3426 38.7927 28.0353 38.6149L28.0415 38.6087Z" fill="#3E73F9"/>
<path d="M30.3769 39.9581C30.0635 39.7802 29.8115 39.9213 29.8115 40.277C29.8115 40.6327 30.0635 41.0682 30.3708 41.246C30.678 41.4239 30.9361 41.2828 30.9361 40.9271C30.9361 40.5714 30.6842 40.142 30.3769 39.9581Z" fill="#3E73F9"/>
<path d="M32.7121 41.3013C32.4048 41.1234 32.1528 41.2645 32.1528 41.6202C32.1528 41.9759 32.4048 42.4114 32.7121 42.5892C33.0193 42.7671 33.2774 42.626 33.2774 42.2703C33.2774 41.9146 33.0255 41.4852 32.7182 41.3013H32.7121Z" fill="#3E73F9"/>
<path d="M35.0473 42.6444C34.7339 42.4666 34.4819 42.6076 34.4819 42.9634C34.4819 43.3191 34.7339 43.7545 35.0412 43.9324C35.3484 44.1103 35.6004 43.9692 35.6004 43.6135C35.6004 43.2577 35.3484 42.8284 35.0412 42.6506L35.0473 42.6444Z" fill="#3E73F9"/>
<path d="M37.3828 43.9876C37.0755 43.8097 36.8174 43.9508 36.8174 44.3065C36.8174 44.6622 37.0693 45.0977 37.3766 45.2756C37.6839 45.4534 37.942 45.3124 37.942 44.9566C37.942 44.6009 37.69 44.1716 37.3828 43.9876Z" fill="#3E73F9"/>
<path d="M39.7177 45.3369C39.4043 45.1591 39.1523 45.3001 39.1523 45.6559C39.1523 46.0116 39.4043 46.447 39.7116 46.6249C40.0189 46.8028 40.2708 46.6617 40.2708 46.306C40.2708 45.9503 40.0189 45.5209 39.7116 45.3431L39.7177 45.3369Z" fill="#3E73F9"/>
<path d="M11.6948 31.2243C11.3814 31.0465 11.1294 31.1875 11.1294 31.5432C11.1294 31.899 11.3814 32.3344 11.6886 32.5123C11.9959 32.6902 12.254 32.5491 12.254 32.1934C12.254 31.8376 12.002 31.4022 11.6948 31.2243Z" fill="#3E73F9"/>
<path d="M14.0299 32.5737C13.7227 32.3958 13.4707 32.5369 13.4707 32.8926C13.4707 33.2483 13.7227 33.6838 14.0299 33.8616C14.3372 34.0395 14.5953 33.8984 14.5953 33.5427C14.5953 33.187 14.3434 32.7515 14.0361 32.5737H14.0299Z" fill="#3E73F9"/>
<path d="M16.3652 33.9168C16.0518 33.739 15.7998 33.88 15.7998 34.2358C15.7998 34.5915 16.0518 35.0269 16.359 35.2048C16.6663 35.3827 16.9183 35.2416 16.9183 34.8859C16.9183 34.5301 16.6663 34.0947 16.359 33.9168H16.3652Z" fill="#3E73F9"/>
<path d="M18.7001 35.26C18.3929 35.0821 18.1348 35.2232 18.1348 35.5789C18.1348 35.9346 18.3867 36.3701 18.694 36.548C19.0013 36.7258 19.2594 36.5848 19.2594 36.229C19.2594 35.8733 19.0074 35.4379 18.7001 35.26Z" fill="#3E73F9"/>
<path d="M21.0358 36.6093C20.7285 36.4315 20.4766 36.5725 20.4766 36.9283C20.4766 37.284 20.7285 37.7194 21.0358 37.8973C21.3431 38.0752 21.6012 37.9341 21.6012 37.5784C21.6012 37.2227 21.3492 36.7872 21.0419 36.6093H21.0358Z" fill="#3E73F9"/>
<path d="M23.371 37.9525C23.0576 37.7746 22.8057 37.9157 22.8057 38.2714C22.8057 38.6272 23.0576 39.0626 23.3649 39.2405C23.6722 39.4183 23.9303 39.2773 23.9303 38.9215C23.9303 38.5658 23.6783 38.1304 23.371 37.9525Z" fill="#3E73F9"/>
<path d="M25.6999 39.2957C25.3926 39.1178 25.1406 39.2589 25.1406 39.6146C25.1406 39.9703 25.3926 40.4058 25.6999 40.5836C26.0133 40.7615 26.2652 40.6204 26.2652 40.2647C26.2652 39.909 26.0133 39.4735 25.706 39.2957H25.6999Z" fill="#3E73F9"/>
<path d="M28.0351 40.645C27.7217 40.4671 27.4697 40.6082 27.4697 40.9639C27.4697 41.3196 27.7217 41.7551 28.029 41.933C28.3362 42.1108 28.5882 41.9698 28.5882 41.614C28.5882 41.2583 28.3362 40.8228 28.029 40.645H28.0351Z" fill="#3E73F9"/>
<path d="M30.3706 41.9882C30.0571 41.8103 29.8052 41.9514 29.8052 42.3071C29.8052 42.6628 30.0571 43.0983 30.3644 43.2762C30.6717 43.454 30.9298 43.313 30.9298 42.9572C30.9298 42.6015 30.6778 42.166 30.3706 41.9882Z" fill="#3E73F9"/>
<path d="M32.7057 43.3313C32.3984 43.1535 32.1465 43.2945 32.1465 43.6503C32.1465 44.006 32.3984 44.4415 32.7057 44.6193C33.013 44.7972 33.2711 44.6561 33.2711 44.3004C33.2711 43.9447 33.0191 43.5092 32.7119 43.3313H32.7057Z" fill="#3E73F9"/>
<path d="M35.041 44.6806C34.7276 44.5028 34.4756 44.6438 34.4756 44.9996C34.4756 45.3553 34.7275 45.7908 35.0348 45.9686C35.3421 46.1465 35.5941 46.0054 35.5941 45.6497C35.5941 45.294 35.3421 44.8585 35.0348 44.6806H35.041Z" fill="#3E73F9"/>
<path d="M37.3764 46.0238C37.0691 45.846 36.811 45.987 36.811 46.3428C36.811 46.6985 37.063 47.134 37.3703 47.3118C37.6775 47.4897 37.9356 47.3486 37.9356 46.9929C37.9356 46.6372 37.6837 46.2017 37.3764 46.0238Z" fill="#3E73F9"/>
<path d="M39.7119 47.367C39.3984 47.1892 39.1465 47.3302 39.1465 47.6859C39.1465 48.0417 39.3984 48.4771 39.7057 48.655C40.013 48.8329 40.265 48.6918 40.265 48.3361C40.265 47.9803 40.013 47.5449 39.7057 47.367H39.7119Z" fill="#3E73F9"/>
<path d="M11.6884 33.2606C11.375 33.0827 11.123 33.2238 11.123 33.5795C11.123 33.9352 11.375 34.3646 11.6823 34.5486C11.9957 34.7264 12.2477 34.5854 12.2477 34.2296C12.2477 33.8739 11.9957 33.4384 11.6884 33.2606Z" fill="#3E73F9"/>
<path d="M14.0236 34.6037C13.7163 34.4259 13.4644 34.5669 13.4644 34.9227C13.4644 35.2784 13.7163 35.7077 14.0236 35.8856C14.3309 36.0635 14.589 35.9224 14.589 35.5667C14.589 35.2109 14.337 34.7755 14.0297 34.5976L14.0236 34.6037Z" fill="#3E73F9"/>
<path d="M16.3588 35.953C16.0454 35.7752 15.7935 35.9162 15.7935 36.272C15.7935 36.6277 16.0454 37.057 16.3527 37.241C16.66 37.425 16.9119 37.2778 16.9119 36.9221C16.9119 36.5664 16.66 36.1309 16.3527 35.953H16.3588Z" fill="#3E73F9"/>
<path d="M18.6943 37.2962C18.387 37.1184 18.1289 37.2594 18.1289 37.6152C18.1289 37.9709 18.3809 38.4064 18.6881 38.5842C18.9954 38.7621 19.2535 38.621 19.2535 38.2653C19.2535 37.9096 19.0016 37.4741 18.6943 37.2962Z" fill="#3E73F9"/>
<path d="M21.0294 38.6394C20.7222 38.4616 20.4702 38.6026 20.4702 38.9583C20.4702 39.3141 20.7222 39.7434 21.0294 39.9213C21.3367 40.0991 21.5948 39.9581 21.5948 39.6023C21.5948 39.2466 21.3429 38.8111 21.0356 38.6333L21.0294 38.6394Z" fill="#3E73F9"/>
<path d="M23.3647 39.9887C23.0513 39.8109 22.7993 39.9519 22.7993 40.3077C22.7993 40.6634 23.0513 41.0927 23.3586 41.2767C23.6658 41.4546 23.9239 41.3135 23.9239 40.9578C23.9239 40.602 23.672 40.1666 23.3647 39.9887Z" fill="#3E73F9"/>
<path d="M25.694 41.3319C25.3867 41.1541 25.1348 41.2951 25.1348 41.6509C25.1348 42.0066 25.3867 42.4359 25.694 42.6138C26.0013 42.7916 26.2594 42.6506 26.2594 42.2948C26.2594 41.9391 26.0074 41.5037 25.7001 41.3258L25.694 41.3319Z" fill="#3E73F9"/>
<path d="M28.0292 42.6751C27.7158 42.4972 27.4639 42.6383 27.4639 42.994C27.4639 43.3497 27.7158 43.7791 28.0231 43.9631C28.3304 44.1471 28.5823 43.9999 28.5823 43.6441C28.5823 43.2884 28.3304 42.853 28.0231 42.6751H28.0292Z" fill="#3E73F9"/>
<path d="M30.3642 44.0183C30.0508 43.8404 29.7988 43.9815 29.7988 44.3372C29.7988 44.6929 30.0508 45.1222 30.3581 45.3062C30.6653 45.4902 30.9234 45.343 30.9234 44.9873C30.9234 44.6316 30.6715 44.1961 30.3642 44.0183Z" fill="#3E73F9"/>
<path d="M32.6999 45.3676C32.3926 45.1897 32.1406 45.3308 32.1406 45.6865C32.1406 46.0423 32.3926 46.4716 32.6999 46.6494C33.0071 46.8273 33.2652 46.6862 33.2652 46.3305C33.2652 45.9748 33.0133 45.5393 32.706 45.3615L32.6999 45.3676Z" fill="#3E73F9"/>
<path d="M35.0351 46.7108C34.7217 46.5329 34.4697 46.674 34.4697 47.0297C34.4697 47.3854 34.7217 47.8148 35.029 47.9987C35.3362 48.1827 35.5882 48.0355 35.5882 47.6798C35.5882 47.3241 35.3362 46.8886 35.029 46.7108H35.0351Z" fill="#3E73F9"/>
<path d="M37.3701 48.0539C37.0628 47.8761 36.8047 48.0171 36.8047 48.3729C36.8047 48.7286 37.0567 49.1641 37.3639 49.3419C37.6712 49.5198 37.9293 49.3787 37.9293 49.023C37.9293 48.6673 37.6773 48.2318 37.3701 48.0539Z" fill="#3E73F9"/>
<path d="M39.7055 49.4032C39.3921 49.2254 39.1401 49.3664 39.1401 49.7222C39.1401 50.0779 39.3921 50.5072 39.6994 50.6912C40.0066 50.8691 40.2586 50.728 40.2586 50.3723C40.2586 50.0166 40.0066 49.5811 39.6994 49.4032H39.7055Z" fill="#3E73F9"/>
</g>
<g opacity="0.2">
<path d="M48.352 42.4727L48.1861 53.4021C46.4531 54.408 43.6262 54.408 41.8809 53.4021L42.0468 42.4727C43.7921 43.4785 46.6128 43.4785 48.352 42.4727Z" fill="#3E73F9"/>
</g>
<g opacity="0.2">
<path d="M8.14258 33.4323L8.30851 21.9202C8.30851 22.5826 8.74483 23.2511 9.62363 23.754L9.4577 35.2661C8.5789 34.7571 8.14258 34.0947 8.14258 33.4323Z" fill="#3E73F9"/>
</g>
<path d="M57.8962 17.308L53.9754 19.5834L52.5251 16.48L45.6115 15.4128L36.0737 20.945L37.9358 24.9378L43.3069 25.7657L41.2851 26.9372L38.6855 26.5385L39.0973 27.4279L41.703 27.8327L49.901 23.0794L48.0389 19.0867L42.6678 18.2587L46.0293 16.3083L51.4005 17.1363L52.8508 20.2397L51.7323 20.8898L52.1441 21.7791L58.3079 18.2035L57.89 17.3203M42.4281 22.3311L47.7992 23.1591L44.4377 25.1095L39.0666 24.2815L37.6162 21.1781L40.9778 19.2277L42.4281 22.3311ZM43.5466 21.681L42.3052 19.0192L46.9143 19.7306L48.1557 22.3863L43.5466 21.681Z" fill="#3961DB"/>
</g>
<defs>
<linearGradient id="paint0_linear_1975_69146" x1="22.8242" y1="21.6197" x2="67.3417" y2="21.6197" gradientUnits="userSpaceOnUse">
<stop stop-color="#E6E6FF"/>
<stop offset="1" stop-color="#9FB8F9"/>
</linearGradient>
<clipPath id="clip0_1975_69146">
<rect width="90" height="87" fill="white"/>
</clipPath>
</defs>
</svg>
