<svg width="134" height="51" viewBox="0 0 134 51" fill="none" xmlns="http://www.w3.org/2000/svg">
    <g clip-path="url(#clip0_7372_380)">
        <path
            d="M119.37 16V22.62H119.22C118.55 21.35 117.22 20.47 115.69 20.47H114.21C112 20.47 110.21 22.26 110.21 24.47V28.48C110.21 30.69 112 32.48 114.21 32.48H115.69C117.2 32.48 118.51 31.63 119.19 30.39H119.3L119.38 32.26H120.82V16H119.38H119.37ZM116.21 30.98H114.73C113.07 30.98 111.73 29.64 111.73 27.98V24.98C111.73 23.32 113.07 21.98 114.73 21.98H116.21C117.87 21.98 119.21 23.32 119.21 24.98V27.98C119.21 29.64 117.87 30.98 116.21 30.98Z"
            fill="#222222" />
        <path
            d="M104.55 20.6899H103.9C103.35 20.6899 102.9 21.1399 102.9 21.6899V32.2699H104.55V21.9999H109.05V20.6899H104.55Z"
            fill="#222222" />
        <path
            d="M99.0799 32.27L99.0599 24.05C99.0599 22.08 97.4599 20.47 95.4799 20.47H93.5299C91.5599 20.47 89.9499 22.07 89.9499 24.05H91.4399C91.5799 22.76 92.6599 21.76 93.9899 21.76H95.0099C96.4299 21.76 97.5899 22.91 97.5899 24.34V25.35H93.1499C91.1799 25.35 89.5699 26.95 89.5699 28.93C89.5699 30.91 91.1699 32.51 93.1499 32.51H94.5899C95.7799 32.51 96.8199 31.92 97.4699 31.03H97.5799V32.29H99.0599L99.0799 32.27ZM94.6299 31.2H93.4299C92.1699 31.2 91.1599 30.18 91.1599 28.93C91.1599 27.68 92.1799 26.66 93.4299 26.66H97.5999V28.24C97.5999 29.88 96.2699 31.21 94.6299 31.21V31.2Z"
            fill="#222222" />
        <path
            d="M85.31 27.9799C85.31 29.6399 83.97 30.9799 82.31 30.9799H81.55C79.89 30.9799 78.55 29.6399 78.55 27.9799V20.6899H77.03V28.4899C77.03 30.6999 78.82 32.4899 81.03 32.4899H81.8C83.31 32.4899 84.62 31.6399 85.3 30.3999H85.41L85.49 32.2699H86.93V20.6899H85.34L85.32 27.9799H85.31Z"
            fill="#222222" />
        <path
            d="M72.0001 30.11H66.8601C66.3701 30.11 65.9801 29.76 65.9801 29.27C65.9801 28.78 66.3701 28.39 66.8601 28.39H68.2901H70.0101C71.9401 28.39 73.5101 26.82 73.5101 24.89V23.97C73.5101 22.86 72.9801 21.88 72.1801 21.24V20.43H74.6001V19.12H72.0601C71.5101 19.12 71.0601 19.57 71.0601 20.12V20.65C70.7301 20.54 70.3801 20.47 70.0101 20.47H68.2901C66.3601 20.47 64.7901 22.04 64.7901 23.97V24.89C64.7901 26.07 65.3801 27.11 66.2701 27.74C65.3601 27.78 64.6301 28.52 64.6301 29.44C64.6301 30.2 65.1401 30.82 65.8301 31.02C64.6701 31.38 63.8301 32.35 63.8301 33.5V33.83C63.8301 35.29 65.1701 36.47 66.8301 36.47H71.9801C73.6401 36.47 74.9801 35.13 74.9801 33.47V33.09C74.9801 31.43 73.6401 30.09 71.9801 30.09L72.0001 30.11ZM66.3101 23.69C66.3101 22.63 67.2101 21.77 68.3101 21.77H70.0201C71.1201 21.77 72.0201 22.63 72.0201 23.69V25.17C72.0201 26.23 71.1201 27.09 70.0201 27.09H68.3101C67.2101 27.09 66.3101 26.23 66.3101 25.17V23.69ZM71.9301 35.05H66.9201C65.9501 35.05 65.1601 34.26 65.1601 33.29C65.1601 32.32 65.9501 31.53 66.9201 31.53H71.9301C72.9001 31.53 73.6901 32.32 73.6901 33.29C73.6901 34.26 72.9001 35.05 71.9301 35.05Z"
            fill="#222222" />
        <path
            d="M62.38 17.32V16H59.02C58.47 16 58.02 16.45 58.02 17V20.69H56.01V22.04H58.02V32.27H59.49V22.04H62.12V20.69H59.49V17.32H62.38Z"
            fill="#222222" />
        <path
            d="M53.09 26.81H54.5V25.47C54.5 22.71 52.26 20.47 49.5 20.47H49.04C46.28 20.47 44.04 22.71 44.04 25.47V27.22C44.04 30.12 46.41 32.48 49.3 32.48H49.76C52.04 32.48 53.94 30.95 54.54 28.87H52.82C52.17 30.51 50.68 31.59 48.73 31.14C46.78 30.69 45.61 28.94 45.61 27.03V26.81H53.09ZM49.35 21.71C51.41 21.71 52.89 23.38 52.89 25.45V25.54H45.61V25.45C45.61 23.39 47.28 21.71 49.35 21.71Z"
            fill="#222222" />
        <path
            d="M39.66 16V22.62H39.51C38.84 21.35 37.51 20.47 35.98 20.47H34.5C32.29 20.47 30.5 22.26 30.5 24.47V28.48C30.5 30.69 32.29 32.48 34.5 32.48H35.98C37.49 32.48 38.8 31.63 39.48 30.39H39.59L39.67 32.26H41.11V16H39.67H39.66ZM36.5 30.98H35.02C33.36 30.98 32.02 29.64 32.02 27.98V24.98C32.02 23.32 33.36 21.98 35.02 21.98H36.5C38.16 21.98 39.5 23.32 39.5 24.98V27.98C39.5 29.64 38.16 30.98 36.5 30.98Z"
            fill="#222222" />
        <path
            d="M24.0802 12V17.8489L19.0171 14.9245L12.5 18.6868V32.8929L19.0119 36.6552L24.0749 33.7307V36.7447L21.625 38.1622L23.0739 39L25.5237 37.5826V25.3683L19.0119 21.606L13.9488 24.5304V19.5193L19.0119 16.5948L24.0749 19.5193V21.1844L25.5237 22.0222V12.8378L24.0749 12H24.0802ZM13.9488 32.055V27.0439L19.0119 29.9684L24.0749 27.0439V32.055L19.0119 34.9795L13.9488 32.055ZM23.3531 25.7898L19.0119 28.298L14.6706 25.7898L19.0119 23.2816L23.3531 25.7898Z"
            fill="#0C8CE0" />
    </g>
    <defs>
        <clipPath id="clip0_7372_380">
            <rect width="109" height="27" fill="white" transform="translate(12.5 12)" />
        </clipPath>
    </defs>
</svg>