<svg width="91" height="27" viewBox="0 0 91 27" fill="none" xmlns="http://www.w3.org/2000/svg">
    <path
        d="M88.87 4.03564V10.6556H88.72C88.05 9.38564 86.72 8.50564 85.19 8.50564H83.71C81.5 8.50564 79.71 10.2956 79.71 12.5056V16.5156C79.71 18.7256 81.5 20.5156 83.71 20.5156H85.19C86.7 20.5156 88.01 19.6656 88.69 18.4256H88.8L88.88 20.2956H90.32V4.03564H88.88H88.87ZM85.71 19.0156H84.23C82.57 19.0156 81.23 17.6756 81.23 16.0156V13.0156C81.23 11.3556 82.57 10.0156 84.23 10.0156H85.71C87.37 10.0156 88.71 11.3556 88.71 13.0156V16.0156C88.71 17.6756 87.37 19.0156 85.71 19.0156Z"
        fill="#222222" />
    <path d="M74.05 8.72559H73.4C72.85 8.72559 72.4 9.17559 72.4 9.72559V20.3056H74.05V10.0356H78.55V8.72559H74.05Z"
        fill="#222222" />
    <path
        d="M68.5799 20.3056L68.5599 12.0856C68.5599 10.1156 66.9599 8.50562 64.9799 8.50562H63.0299C61.0599 8.50562 59.4499 10.1056 59.4499 12.0856H60.9399C61.0799 10.7956 62.1599 9.79562 63.4899 9.79562H64.5099C65.9299 9.79562 67.0899 10.9456 67.0899 12.3756V13.3856H62.6499C60.6799 13.3856 59.0699 14.9856 59.0699 16.9656C59.0699 18.9456 60.6699 20.5456 62.6499 20.5456H64.0899C65.2799 20.5456 66.3199 19.9556 66.9699 19.0656H67.0799V20.3256H68.5599L68.5799 20.3056ZM64.1299 19.2356H62.9299C61.6699 19.2356 60.6599 18.2156 60.6599 16.9656C60.6599 15.7156 61.6799 14.6956 62.9299 14.6956H67.0999V16.2756C67.0999 17.9156 65.7699 19.2456 64.1299 19.2456V19.2356Z"
        fill="#222222" />
    <path
        d="M54.81 16.0156C54.81 17.6756 53.47 19.0156 51.81 19.0156H51.05C49.39 19.0156 48.05 17.6756 48.05 16.0156V8.72559H46.53V16.5256C46.53 18.7356 48.32 20.5256 50.53 20.5256H51.3C52.81 20.5256 54.12 19.6756 54.8 18.4356H54.91L54.99 20.3056H56.43V8.72559H54.84L54.82 16.0156H54.81Z"
        fill="#222222" />
    <path
        d="M41.5 18.1456H36.36C35.87 18.1456 35.48 17.7956 35.48 17.3056C35.48 16.8156 35.87 16.4256 36.36 16.4256H37.79H39.51C41.44 16.4256 43.01 14.8556 43.01 12.9256V12.0056C43.01 10.8956 42.48 9.91564 41.68 9.27564V8.46564H44.1V7.15564H41.56C41.01 7.15564 40.56 7.60564 40.56 8.15564V8.68564C40.23 8.57564 39.88 8.50564 39.51 8.50564H37.79C35.86 8.50564 34.29 10.0756 34.29 12.0056V12.9256C34.29 14.1056 34.88 15.1456 35.77 15.7756C34.86 15.8156 34.13 16.5556 34.13 17.4756C34.13 18.2356 34.64 18.8556 35.33 19.0556C34.17 19.4156 33.33 20.3856 33.33 21.5356V21.8656C33.33 23.3256 34.67 24.5056 36.33 24.5056H41.48C43.14 24.5056 44.48 23.1656 44.48 21.5056V21.1256C44.48 19.4656 43.14 18.1256 41.48 18.1256L41.5 18.1456ZM35.81 11.7256C35.81 10.6656 36.71 9.80564 37.81 9.80564H39.52C40.62 9.80564 41.52 10.6656 41.52 11.7256V13.2056C41.52 14.2656 40.62 15.1256 39.52 15.1256H37.81C36.71 15.1256 35.81 14.2656 35.81 13.2056V11.7256ZM41.43 23.0856H36.42C35.45 23.0856 34.66 22.2956 34.66 21.3256C34.66 20.3556 35.45 19.5656 36.42 19.5656H41.43C42.4 19.5656 43.19 20.3556 43.19 21.3256C43.19 22.2956 42.4 23.0856 41.43 23.0856Z"
        fill="#222222" />
    <path
        d="M31.88 5.35564V4.03564H28.52C27.97 4.03564 27.52 4.48564 27.52 5.03564V8.72564H25.51V10.0756H27.52V20.3056H28.99V10.0756H31.62V8.72564H28.99V5.35564H31.88Z"
        fill="#222222" />
    <path
        d="M22.59 14.8456H24V13.5056C24 10.7456 21.76 8.50562 19 8.50562H18.54C15.78 8.50562 13.54 10.7456 13.54 13.5056V15.2556C13.54 18.1556 15.91 20.5156 18.8 20.5156H19.26C21.54 20.5156 23.44 18.9856 24.04 16.9056H22.32C21.67 18.5456 20.18 19.6256 18.23 19.1756C16.28 18.7256 15.11 16.9756 15.11 15.0656V14.8456H22.59ZM18.85 9.74562C20.91 9.74562 22.39 11.4156 22.39 13.4856V13.5756H15.11V13.4856C15.11 11.4256 16.78 9.74562 18.85 9.74562Z"
        fill="#222222" />
    <path
        d="M9.16 4.03564V10.6556H9.01C8.34 9.38564 7.01 8.50564 5.48 8.50564H4C1.79 8.50564 0 10.2956 0 12.5056V16.5156C0 18.7256 1.79 20.5156 4 20.5156H5.48C6.99 20.5156 8.3 19.6656 8.98 18.4256H9.09L9.17 20.2956H10.61V4.03564H9.17H9.16ZM6 19.0156H4.52C2.86 19.0156 1.52 17.6756 1.52 16.0156V13.0156C1.52 11.3556 2.86 10.0156 4.52 10.0156H6C7.66 10.0156 9 11.3556 9 13.0156V16.0156C9 17.6756 7.66 19.0156 6 19.0156Z"
        fill="#222222" />
</svg>