<svg width="21" height="43" viewBox="0 0 21 43" fill="none" xmlns="http://www.w3.org/2000/svg">
    <g clip-path="url(#clip0_6758_12901)">
        <path
            d="M18.7064 0V9.31499L10.5277 4.65749L0 10.6493V33.2738L10.5192 39.2656L18.6979 34.6081V39.4083L14.7405 41.6657L17.0809 43L21.0383 40.7426V21.2902L10.5192 15.2984L2.34043 19.9559V11.9752L10.5192 7.31772L18.6979 11.9752V14.627L21.0383 15.9614V1.33431L18.6979 0H18.7064ZM2.34043 31.9395V23.9588L10.5192 28.6163L18.6979 23.9588V31.9395L10.5192 36.597L2.34043 31.9395ZM17.5319 21.9616L10.5192 25.9561L3.50639 21.9616L10.5192 17.967L17.5319 21.9616Z"
            fill="#0C8CE0" />
    </g>
    <defs>
        <clipPath id="clip0_6758_12901">
            <rect width="21" height="43" fill="white" />
        </clipPath>
    </defs>
</svg>