<svg width="13" height="27" viewBox="0 0 13 27" fill="none" xmlns="http://www.w3.org/2000/svg">
  <g clip-path="url(#clip0_6758_11935)">
    <path
      d="M11.5802 0V5.84895L6.51714 2.92447L0 6.68677V20.8929L6.51187 24.6552L11.5749 21.7307V24.7447L9.12504 26.1622L10.5739 27L13.0237 25.5826V13.3683L6.51187 9.60597L1.44884 12.5304V7.51932L6.51187 4.59485L11.5749 7.51932V9.18443L13.0237 10.0222V0.837822L11.5749 0H11.5802ZM1.44884 20.055V15.0439L6.51187 17.9684L11.5749 15.0439V20.055L6.51187 22.9795L1.44884 20.055ZM10.8531 13.7898L6.51187 16.298L2.17062 13.7898L6.51187 11.2816L10.8531 13.7898Z"
      fill="#0C8CE0" />
  </g>
  <defs>
    <clipPath id="clip0_6758_11935">
      <rect width="13" height="27" fill="white" />
    </clipPath>
  </defs>
</svg>