<?xml version="1.0" encoding="UTF-8" standalone="no"?><!DOCTYPE svg PUBLIC "-//W3C//DTD SVG 1.1//EN" "http://www.w3.org/Graphics/SVG/1.1/DTD/svg11.dtd"><svg width="100%" height="100%" viewBox="0 0 24 24" version="1.1" xmlns="http://www.w3.org/2000/svg" xmlns:xlink="http://www.w3.org/1999/xlink" xml:space="preserve" xmlns:serif="http://www.serif.com/" style="fill-rule:evenodd;clip-rule:evenodd;stroke-linejoin:round;stroke-miterlimit:2;"><g><path d="M24,5.99c-0,-3.308 -2.682,-5.99 -5.99,-5.99l-12.02,0c-3.308,0 -5.99,2.682 -5.99,5.99l0,12.02c0,3.308 2.682,5.99 5.99,5.99l12.02,0c3.308,-0 5.99,-2.682 5.99,-5.99l0,-12.02Z" style="fill:url(#_Radial1);"/></g><g><path d="M17.917,18.015c-1.523,1.498 -3.612,2.422 -5.917,2.422c-2.3,0 -4.385,-0.92 -5.907,-2.412c3.455,-2.722 8.365,-2.725 11.824,-0.01Zm0.098,-0.098c1.498,-1.523 2.422,-3.612 2.422,-5.917c0,-2.299 -0.919,-4.384 -2.411,-5.906c-2.723,3.465 -2.726,8.366 -0.011,11.823Zm-0.085,-11.919c-3.464,2.728 -8.39,2.725 -11.85,-0.01c1.523,-1.5 3.614,-2.426 5.92,-2.426c2.312,0 4.406,0.93 5.93,2.436Zm-11.942,0.082c-1.5,1.523 -2.425,3.614 -2.425,5.92c-0,2.312 0.929,4.406 2.435,5.93c2.728,-3.464 2.725,-8.39 -0.01,-11.85Z" style="fill:url(#_Linear2);"/><path d="M17.917,18.015c-1.523,1.498 -3.612,2.422 -5.917,2.422c-2.3,0 -4.385,-0.92 -5.907,-2.412c3.455,-2.722 8.365,-2.725 11.824,-0.01Zm0.098,-0.098c1.498,-1.523 2.422,-3.612 2.422,-5.917c0,-2.299 -0.919,-4.384 -2.411,-5.906c-2.723,3.465 -2.726,8.366 -0.011,11.823Zm-0.085,-11.919c-3.464,2.728 -8.39,2.725 -11.85,-0.01c1.523,-1.5 3.614,-2.426 5.92,-2.426c2.312,0 4.406,0.93 5.93,2.436Zm-11.942,0.082c-1.5,1.523 -2.425,3.614 -2.425,5.92c-0,2.312 0.929,4.406 2.435,5.93c2.728,-3.464 2.725,-8.39 -0.01,-11.85Z" style="fill:url(#_Radial3);"/></g><defs><radialGradient id="_Radial1" cx="0" cy="0" r="1" gradientUnits="userSpaceOnUse" gradientTransform="matrix(20.6316,20,-19.9391,20.5687,1.40255,2.10527)"><stop offset="0" style="stop-color:#8000ff;stop-opacity:1"/><stop offset="0.51" style="stop-color:#a732d6;stop-opacity:1"/><stop offset="1" style="stop-color:#ef79ff;stop-opacity:1"/></radialGradient><linearGradient id="_Linear2" x1="0" y1="0" x2="1" y2="0" gradientUnits="userSpaceOnUse" gradientTransform="matrix(1.0333e-15,16.875,-16.875,1.0333e-15,12,3.5625)"><stop offset="0" style="stop-color:#fff;stop-opacity:1"/><stop offset="1" style="stop-color:#fff;stop-opacity:0.7"/></linearGradient><radialGradient id="_Radial3" cx="0" cy="0" r="1" gradientUnits="userSpaceOnUse" gradientTransform="matrix(-3.23035e-15,8.4375,-8.4375,-3.23035e-15,12,12)"><stop offset="0" style="stop-color:#fff;stop-opacity:0"/><stop offset="0.91" style="stop-color:#fff;stop-opacity:0"/><stop offset="1" style="stop-color:#fff;stop-opacity:1"/></radialGradient></defs></svg>