<svg xmlns="http://www.w3.org/2000/svg" xmlns:xlink="http://www.w3.org/1999/xlink" width="16" height="16" viewBox="0 0 16 16"><defs><style>.a,.c{fill:#cb3f3f;}.b{clip-path:url(#a);}.d,.e{stroke:none;}.e{fill:#cb3f3f;}</style><clipPath id="a"><rect class="a" width="16" height="16"/></clipPath></defs><g class="b"><g transform="translate(1.997 5)"><rect class="a" width="2" height="2" rx="1" transform="translate(9 2)"/><rect class="a" width="2" height="2" rx="1" transform="translate(6 2)"/><g class="c" transform="translate(0 6) rotate(-90)"><path class="d" d="M 4.233810424804688 3.999997854232788 L 1.76619029045105 3.999997854232788 L 2.999748229980469 1.944077730178833 L 2.999943017959595 1.944077730178833 L 4.233810424804688 4.000007629394531 L 4.233810424804688 3.999997854232788 Z"/><path class="e" d="M 3.000000238418579 0.9436526298522949 C 3.331645250320435 0.9436526298522949 3.66329026222229 1.105487823486328 3.857490301132202 1.429157733917236 L 5.091300010681152 3.485507726669312 C 5.491220474243164 4.152027606964111 5.011100292205811 4.999997615814209 4.233810424804688 4.999997615814209 L 1.766190052032471 4.999997615814209 C 0.9889001846313477 4.999997615814209 0.5087800025939941 4.152027606964111 0.9087004661560059 3.485507726669312 L 2.142510175704956 1.429157733917236 C 2.336710214614868 1.105487823486328 2.668355226516724 0.9436526298522949 3.000000238418579 0.9436526298522949 Z"/></g></g></g></svg>