<svg width="24" height="25" viewBox="0 0 24 25" fill="none" xmlns="http://www.w3.org/2000/svg">
  <path d="M12.77 6.122V10.97H14.578C14.7037 10.9659 14.8289 10.9871 14.9463 11.0324C15.0636 11.0776 15.1706 11.146 15.261 11.2335C15.3513 11.321 15.4232 11.4257 15.4723 11.5415C15.5213 11.6573 15.5466 11.7817 15.5466 11.9075C15.5466 12.0333 15.5213 12.1577 15.4723 12.2735C15.4232 12.3893 15.3513 12.494 15.261 12.5815C15.1706 12.669 15.0636 12.7374 14.9463 12.7826C14.8289 12.8279 14.7037 12.8491 14.578 12.845H12.77V17.834C12.77 18.3379 12.9702 18.8212 13.3265 19.1775C13.6828 19.5338 14.1661 19.734 14.67 19.734C14.9133 19.7419 15.1441 19.8442 15.3134 20.0192C15.4827 20.1941 15.5774 20.428 15.5774 20.6715C15.5774 20.915 15.4827 21.1489 15.3134 21.3239C15.1441 21.4988 14.9133 21.6011 14.67 21.609C13.6686 21.6079 12.7085 21.2097 12.0004 20.5016C11.2923 19.7935 10.8941 18.8334 10.893 17.832V6.122C10.8941 5.1206 11.2923 4.16052 12.0004 3.45243C12.7085 2.74433 13.6686 2.34606 14.67 2.345C14.9186 2.345 15.1571 2.44377 15.3329 2.61959C15.5087 2.7954 15.6075 3.03386 15.6075 3.2825C15.6075 3.53114 15.5087 3.7696 15.3329 3.94541C15.1571 4.12123 14.9186 4.22 14.67 4.22C14.4203 4.22 14.1731 4.26921 13.9424 4.36482C13.7118 4.46043 13.5022 4.60056 13.3258 4.77721C13.1493 4.95385 13.0094 5.16354 12.9141 5.39429C12.8187 5.62504 12.7697 5.87232 12.77 6.122ZM24 11.907C24 12.5745 23.8021 13.227 23.4312 13.7821C23.0604 14.3371 22.5333 14.7696 21.9166 15.0251C21.2999 15.2805 20.6213 15.3474 19.9666 15.2172C19.3119 15.0869 18.7105 14.7655 18.2385 14.2935C17.7665 13.8215 17.4451 13.2201 17.3148 12.5654C17.1846 11.9107 17.2515 11.2321 17.5069 10.6154C17.7624 9.99874 18.1949 9.47164 18.75 9.10079C19.305 8.72994 19.9575 8.532 20.625 8.532C21.5198 8.53306 22.3776 8.88898 23.0103 9.52169C23.643 10.1544 23.9989 11.0122 24 11.907ZM22.125 11.907C22.125 11.6103 22.037 11.3203 21.8722 11.0736C21.7074 10.827 21.4731 10.6347 21.199 10.5212C20.9249 10.4077 20.6233 10.3779 20.3324 10.4358C20.0414 10.4937 19.7741 10.6366 19.5643 10.8463C19.3546 11.0561 19.2117 11.3234 19.1538 11.6144C19.0959 11.9053 19.1257 12.2069 19.2392 12.481C19.3527 12.7551 19.545 12.9894 19.7916 13.1542C20.0383 13.319 20.3283 13.407 20.625 13.407C21.0228 13.407 21.4044 13.249 21.6857 12.9677C21.967 12.6864 22.125 12.3048 22.125 11.907ZM17.25 3.376C17.25 2.70849 17.4479 2.05597 17.8188 1.50095C18.1896 0.945936 18.7167 0.513354 19.3334 0.257908C19.9501 0.00246209 20.6287 -0.0643742 21.2834 0.0658509C21.9381 0.196076 22.5395 0.517514 23.0115 0.989516C23.4835 1.46152 23.8049 2.06289 23.9352 2.71757C24.0654 3.37226 23.9985 4.05086 23.7431 4.66756C23.4876 5.28426 23.0551 5.81136 22.5 6.18221C21.945 6.55306 21.2925 6.751 20.625 6.751C19.7302 6.74994 18.8724 6.39402 18.2397 5.76132C17.607 5.12861 17.2511 4.27078 17.25 3.376ZM19.125 3.376C19.125 3.67267 19.213 3.96268 19.3778 4.20936C19.5426 4.45603 19.7769 4.64829 20.051 4.76182C20.3251 4.87535 20.6267 4.90506 20.9176 4.84718C21.2086 4.7893 21.4759 4.64644 21.6857 4.43666C21.8954 4.22688 22.0383 3.95961 22.0962 3.66864C22.1541 3.37767 22.1243 3.07607 22.0108 2.80198C21.8973 2.52789 21.705 2.29362 21.4584 2.1288C21.2117 1.96397 20.9217 1.876 20.625 1.876C20.2272 1.876 19.8456 2.03404 19.5643 2.31534C19.283 2.59665 19.125 2.97818 19.125 3.376ZM8.906 11.984V15.938C8.90913 16.1538 8.8346 16.3636 8.696 16.529C7.65143 18.1439 7.1346 20.0435 7.217 21.965C7.20336 22.5174 6.97131 23.0419 6.57169 23.4235C6.17206 23.8052 5.63745 24.0128 5.085 24.001H3.822C3.26955 24.0131 2.73483 23.8057 2.33501 23.4242C1.9352 23.0428 1.70289 22.5184 1.689 21.966C1.77264 20.0453 1.25644 18.1461 0.212 16.532C0.07489 16.3644 -1.32119e-05 16.1545 1.74795e-09 15.938V11.984C0.00132321 10.8824 0.439506 9.82636 1.21843 9.04743C1.99736 8.26851 3.05343 7.83032 4.155 7.829H4.755C5.85657 7.83032 6.91264 8.26851 7.69157 9.04743C8.47049 9.82636 8.90868 10.8824 8.91 11.984H8.906ZM7.031 11.984C7.031 11.379 6.79088 10.7988 6.36339 10.3707C5.93589 9.94268 5.35597 9.7018 4.751 9.701H4.151C3.54655 9.70179 2.96708 9.94226 2.53967 10.3697C2.11226 10.7971 1.87179 11.3766 1.871 11.981V15.635C3.03765 17.5351 3.62463 19.7343 3.56 21.963C3.56 22.025 3.678 22.123 3.818 22.123H5.085C5.225 22.123 5.343 22.023 5.343 21.963C5.27837 19.7343 5.86535 17.5351 7.032 15.635L7.031 11.984ZM1.219 3.184C1.21979 2.5536 1.40746 1.93759 1.75829 1.41383C2.10911 0.890072 2.60735 0.482081 3.19001 0.241431C3.77266 0.000781983 4.41359 -0.0617222 5.03176 0.0618199C5.64994 0.185362 6.21761 0.489404 6.66302 0.935513C7.10843 1.38162 7.41158 1.94977 7.53415 2.56814C7.65673 3.1865 7.59322 3.82733 7.35166 4.40961C7.11009 4.99189 6.70132 5.48948 6.17701 5.83949C5.65271 6.18949 5.0364 6.3762 4.406 6.376C3.56091 6.37494 2.75074 6.03869 2.15327 5.44103C1.55579 4.84336 1.21979 4.03309 1.219 3.188V3.184ZM3.094 3.184C3.09321 3.44366 3.16948 3.69771 3.31316 3.914C3.45685 4.13028 3.66148 4.29906 3.90114 4.39898C4.14081 4.4989 4.40473 4.52545 4.6595 4.47528C4.91426 4.42511 5.14841 4.30047 5.3323 4.11714C5.51619 3.93381 5.64154 3.70005 5.69249 3.44543C5.74344 3.19082 5.71769 2.92682 5.61851 2.68685C5.51932 2.44688 5.35117 2.24174 5.13532 2.09739C4.91948 1.95305 4.66566 1.876 4.406 1.876C4.0582 1.87653 3.72479 2.01493 3.47886 2.26086C3.23293 2.50679 3.09453 2.8402 3.094 3.188V3.184ZM24 20.626C24 21.2935 23.8021 21.946 23.4312 22.5011C23.0604 23.0561 22.5333 23.4886 21.9166 23.7441C21.2999 23.9995 20.6213 24.0664 19.9666 23.9362C19.3119 23.8059 18.7105 23.4845 18.2385 23.0125C17.7665 22.5405 17.4451 21.9391 17.3148 21.2844C17.1846 20.6297 17.2515 19.9511 17.5069 19.3344C17.7624 18.7177 18.1949 18.1906 18.75 17.8198C19.305 17.4489 19.9575 17.251 20.625 17.251C21.5198 17.2521 22.3776 17.608 23.0103 18.2407C23.643 18.8734 23.9989 19.7312 24 20.626ZM22.125 20.626C22.125 20.3293 22.037 20.0393 21.8722 19.7926C21.7074 19.546 21.4731 19.3537 21.199 19.2402C20.9249 19.1267 20.6233 19.0969 20.3324 19.1548C20.0414 19.2127 19.7741 19.3556 19.5643 19.5653C19.3546 19.7751 19.2117 20.0424 19.1538 20.3334C19.0959 20.6243 19.1257 20.9259 19.2392 21.2C19.3527 21.4741 19.545 21.7084 19.7916 21.8732C20.0383 22.038 20.3283 22.126 20.625 22.126C21.0228 22.126 21.4044 21.968 21.6857 21.6867C21.967 21.4054 22.125 21.0238 22.125 20.626Z" fill="#899CA8"/>
</svg>
