<svg width="23" height="23" viewBox="0 0 23 23" fill="none" xmlns="http://www.w3.org/2000/svg">
<g id="icon-clip">
<mask id="mask0_2244_5297" style="mask-type:luminance" maskUnits="userSpaceOnUse" x="0" y="0" width="23" height="23">
<g id="clip-path-5">
<path id="Rectangle 1568" d="M22.5 0.5L0.5 0.5L0.5 22.5H22.5V0.5Z" fill="white"/>
</g>
</mask>
<g mask="url(#mask0_2244_5297)">
<g id="icon-user-list-element">
<g id="Group 4403">
<g id="Vector">
<path d="M15.4998 12.9647H7.49976C6.94747 12.9647 6.49976 13.4124 6.49976 13.9647C6.49976 14.517 6.94747 14.9647 7.49976 14.9647H15.4998C16.052 14.9647 16.4998 14.517 16.4998 13.9647C16.4998 13.4124 16.052 12.9647 15.4998 12.9647Z" fill="#899CA8"/>
<path d="M16.7422 12.7931L14.6209 10.6718C14.2303 10.2813 13.5972 10.2813 13.2067 10.6718C12.8161 11.0624 12.8161 11.6955 13.2067 12.086L15.328 14.2074C15.7185 14.5979 16.3517 14.5979 16.7422 14.2074C17.1327 13.8168 17.1327 13.1837 16.7422 12.7931Z" fill="#899CA8"/>
<path d="M15.3282 13.6713L13.2069 15.7926C12.8163 16.1831 12.8163 16.8163 13.2069 17.2068C13.5974 17.5973 14.2306 17.5973 14.6211 17.2068L16.7424 15.0855C17.1329 14.695 17.1329 14.0618 16.7424 13.6713C16.3519 13.2808 15.7187 13.2808 15.3282 13.6713Z" fill="#899CA8"/>
<path d="M8.49976 13.9647V5.96472C8.49976 5.41244 8.05204 4.96472 7.49976 4.96472C6.94747 4.96472 6.49976 5.41244 6.49976 5.96472V13.9647C6.49976 14.517 6.94747 14.9647 7.49976 14.9647C8.05204 14.9647 8.49976 14.517 8.49976 13.9647Z" fill="#899CA8"/>
</g>
</g>
</g>
</g>
</g>
</svg>
