<svg xmlns="http://www.w3.org/2000/svg" xmlns:xlink="http://www.w3.org/1999/xlink" width="22" height="22" viewBox="0 0 22 22"><defs><style>.a,.c{fill:#899ca8;}.a{opacity:0;}.b{clip-path:url(#a);}</style><clipPath id="a"><rect class="a" width="22" height="22"/></clipPath></defs><g class="b" transform="translate(0 22) rotate(-90)"><path class="c" d="M0,0" transform="translate(11 12)"/><g transform="translate(20 2) rotate(90)"><g transform="translate(8.303 4.176)"><path class="c" d="M240.073,125.193l-2.51-1.882v-3.834a.7.7,0,0,0-1.394,0v4.183a.7.7,0,0,0,.279.558l2.789,2.091a.7.7,0,0,0,.837-1.115Z" transform="translate(-236.169 -118.779)"/></g><path class="c" d="M9,0a9,9,0,1,0,9,9A9.01,9.01,0,0,0,9,0ZM9,16.606A7.606,7.606,0,1,1,16.606,9,7.615,7.615,0,0,1,9,16.606Z"/></g></g></svg>