<svg width="23" height="22" viewBox="0 0 23 22" fill="none" xmlns="http://www.w3.org/2000/svg">
<g id="icon-collapse">
<path id="Union" d="M18.5 9L18.5 5C18.5 4.44772 18.0523 4 17.5 4L13.5 4C12.9477 4 12.5 4.44772 12.5 5C12.5 5.55228 12.9477 6 13.5 6L15.0866 6L14.0608 7.02578C13.6703 7.4163 13.6703 8.04946 14.0608 8.43999C14.4514 8.83051 15.0845 8.83051 15.4751 8.43999L16.5 7.41498L16.5 9C16.5 9.55229 16.9477 10 17.5 10C18.0523 10 18.5 9.55229 18.5 9Z" fill="#0C8CE0"/>
<path id="Rectangle 2907 (Stroke)" fill-rule="evenodd" clip-rule="evenodd" d="M6.50012 16L11.7344 16L11.7344 10.7657L6.50012 10.7657L6.50012 16ZM11.7344 18C12.8389 18 13.7344 17.1046 13.7344 16L13.7344 10.7657C13.7344 9.66118 12.8389 8.76575 11.7344 8.76575L6.50012 8.76575C5.39555 8.76575 4.50012 9.66118 4.50012 10.7657L4.50012 16C4.50012 17.1046 5.39555 18 6.50012 18L11.7344 18Z" fill="#0C8CE0"/>
</g>
</svg>
