<svg width="24" height="25" viewBox="0 0 24 25" fill="none" xmlns="http://www.w3.org/2000/svg">
  <path d="M14.8645 6.95327C15.5514 7.58411 15.8878 8.42523 15.8878 9.47664C15.8878 10.6542 15.5234 11.5234 14.7944 12.0981C14.1289 12.6101 13.2531 12.9 12.1563 12.9466C11.978 12.9542 11.8315 13.0946 11.8252 13.2729L11.8033 13.8976C11.7905 14.2623 11.4911 14.5514 11.1262 14.5514C10.752 14.5514 10.4486 14.2482 10.4486 13.874C10.4486 13.5886 10.4486 13.2536 10.4486 12.9533C10.4486 11.2966 12.3846 11.9656 13.4766 11.3832C14.1075 11.0467 14.4159 10.4159 14.4159 9.47664C14.4159 8.80374 14.2196 8.27103 13.8131 7.8785C13.4065 7.48598 12.8598 7.28972 12.1869 7.28972C11.514 7.28972 10.9393 7.47196 10.5467 7.85047C10.3099 8.07888 10.1394 8.35323 10.0414 8.67969C9.92676 9.06159 9.62069 9.39252 9.22196 9.39252C8.82323 9.39252 8.49116 9.06646 8.56356 8.67436C8.63445 8.2904 8.76395 7.93749 8.9486 7.61215C9.25701 7.10748 9.67757 6.70093 10.2383 6.42056C10.7991 6.14019 11.4299 6 12.1589 6C13.2664 6 14.1636 6.30841 14.8505 6.93925L14.8645 6.95327ZM10.3785 17.6916C10.1822 17.4953 10.0701 17.243 10.0701 16.9486C10.0701 16.6542 10.1682 16.4159 10.3785 16.2056C10.5748 16.0093 10.8271 15.8972 11.1215 15.8972C11.4159 15.8972 11.6402 15.9953 11.8364 16.2056C12.0327 16.4019 12.1308 16.6542 12.1308 16.9486C12.1308 17.243 12.0327 17.4813 11.8364 17.6916C11.6402 17.8878 11.4019 18 11.1215 18C10.8411 18 10.5888 17.9019 10.3785 17.6916Z" fill="white"/>
  <circle cx="12" cy="12" r="11" stroke="white" stroke-width="2"/>
</svg>
