<svg width="18" height="21" viewBox="0 0 18 21" fill="none" xmlns="http://www.w3.org/2000/svg">
  <path d="M0.781 20C0.573866 20 0.375216 19.9177 0.22875 19.7713C0.0822843 19.6248 0 19.4261 0 19.219C0.00211743 17.334 0.751885 15.5267 2.08481 14.1938C3.41774 12.8609 5.22496 12.1111 7.11 12.109H8.282C9.07897 12.1083 9.87037 12.2419 10.623 12.504C10.818 12.5726 10.9778 12.7158 11.0675 12.902C11.1571 13.0883 11.1693 13.3025 11.1012 13.4977C11.0332 13.6929 10.8906 13.8532 10.7046 13.9434C10.5186 14.0336 10.3044 14.0464 10.109 13.979C9.52162 13.7744 8.90398 13.6703 8.282 13.671H7.11C5.63933 13.6726 4.22935 14.2575 3.18943 15.2974C2.14951 16.3374 1.56459 17.7473 1.563 19.218C1.56313 19.3207 1.54299 19.4225 1.50374 19.5174C1.46449 19.6124 1.40689 19.6986 1.33425 19.7713C1.26161 19.8439 1.17535 19.9015 1.08041 19.9407C0.985478 19.98 0.883731 20.0001 0.781 20ZM12.891 5.274C12.891 4.2309 12.5817 3.21123 12.0022 2.34392C11.4227 1.47662 10.599 0.800638 9.63527 0.401462C8.67158 0.00228515 7.61115 -0.102158 6.58809 0.101341C5.56504 0.304839 4.6253 0.807139 3.88772 1.54472C3.15014 2.2823 2.64784 3.22204 2.44434 4.2451C2.24084 5.26815 2.34528 6.32858 2.74446 7.29227C3.14364 8.25597 3.81962 9.07966 4.68692 9.65917C5.55423 10.2387 6.5739 10.548 7.617 10.548C9.01526 10.5464 10.3558 9.99025 11.3445 9.00153C12.3333 8.01281 12.8894 6.67227 12.891 5.274ZM11.328 5.274C11.328 6.00797 11.1104 6.72545 10.7026 7.33572C10.2948 7.94599 9.71524 8.42164 9.03714 8.70252C8.35904 8.9834 7.61288 9.05689 6.89302 8.9137C6.17316 8.77051 5.51192 8.41707 4.99293 7.89808C4.47394 7.37908 4.1205 6.71785 3.97731 5.99798C3.83412 5.27812 3.90761 4.53196 4.18848 3.85386C4.46936 3.17577 4.94501 2.59619 5.55528 2.18842C6.16555 1.78065 6.88303 1.563 7.617 1.563C8.60107 1.5638 9.54462 1.955 10.2406 2.65075C10.9365 3.34649 11.3279 4.28994 11.329 5.274H11.328ZM16.914 15.314H14.571V12.969C14.571 12.7617 14.4887 12.563 14.3421 12.4164C14.1955 12.2698 13.9968 12.1875 13.7895 12.1875C13.5822 12.1875 13.3835 12.2698 13.2369 12.4164C13.0903 12.563 13.008 12.7617 13.008 12.969V15.313H10.665C10.4577 15.313 10.259 15.3953 10.1124 15.5419C9.96584 15.6885 9.8835 15.8872 9.8835 16.0945C9.8835 16.3018 9.96584 16.5005 10.1124 16.6471C10.259 16.7937 10.4577 16.876 10.665 16.876H13.009V19.22C13.009 19.4273 13.0913 19.626 13.2379 19.7726C13.3845 19.9192 13.5832 20.0015 13.7905 20.0015C13.9978 20.0015 14.1965 19.9192 14.3431 19.7726C14.4897 19.626 14.572 19.4273 14.572 19.22V16.876H16.916C17.1233 16.876 17.322 16.7937 17.4686 16.6471C17.6152 16.5005 17.6975 16.3018 17.6975 16.0945C17.6975 15.8872 17.6152 15.6885 17.4686 15.5419C17.322 15.3953 17.1233 15.313 16.916 15.313L16.914 15.314Z" fill="white"/>
</svg>

