<svg width="22" height="22" viewBox="0 0 22 22" fill="none" xmlns="http://www.w3.org/2000/svg">
<g id="icon-X" opacity="0.8">
<mask id="mask0_2882_530" style="mask-type:luminance" maskUnits="userSpaceOnUse" x="0" y="0" width="22" height="22">
<g id="clip-path-5">
<path id="Rectangle 1568" d="M22 22L22 0L0 0L0 22H22Z" fill="white"/>
</g>
</mask>
<g mask="url(#mask0_2882_530)">
<g id="icon-cancel">
<path id="Rectangle 1914" d="M6.75741 16.6566L16.6569 6.75713C17.0474 6.3666 17.0474 5.73344 16.6569 5.34291C16.2664 4.95239 15.6332 4.95239 15.2427 5.34291L5.3432 15.2424C4.95267 15.6329 4.95267 16.2661 5.3432 16.6566C5.73372 17.0471 6.36689 17.0471 6.75741 16.6566Z" fill="#899CA8"/>
<path id="Rectangle 1915" d="M5.34341 6.75741L15.2429 16.6569C15.6334 17.0474 16.2666 17.0474 16.6571 16.6569C17.0476 16.2664 17.0476 15.6332 16.6571 15.2427L6.75762 5.3432C6.3671 4.95267 5.73393 4.95267 5.34341 5.3432C4.95289 5.73372 4.95289 6.36689 5.34341 6.75741Z" fill="#899CA8"/>
</g>
</g>
</g>
</svg>
