<svg xmlns="http://www.w3.org/2000/svg" xmlns:xlink="http://www.w3.org/1999/xlink" width="16" height="16" viewBox="0 0 16 16"><defs><style>.a{fill:#cb3f3f;}.b{clip-path:url(#a);}.c{fill:none;}.d,.e{stroke:none;}.e{fill:#cb3f3f;}</style><clipPath id="a"><rect class="a" width="16" height="16"/></clipPath></defs><g class="b"><g class="c" transform="translate(14 2) rotate(90)"><path class="d" d="M6,0A6,6,0,1,1,0,6,6,6,0,0,1,6,0Z"/><path class="e" d="M 6 2 C 3.794389724731445 2 2 3.794389724731445 2 6 C 2 8.205610275268555 3.794389724731445 10 6 10 C 8.205610275268555 10 10 8.205610275268555 10 6 C 10 3.794389724731445 8.205610275268555 2 6 2 M 6 0 C 9.31371021270752 0 12 2.68628978729248 12 6 C 12 9.31371021270752 9.31371021270752 12 6 12 C 2.68628978729248 12 0 9.31371021270752 0 6 C 0 2.68628978729248 2.68628978729248 0 6 0 Z"/></g><rect class="a" width="10" height="2" rx="1" transform="translate(12.243 5.172) rotate(135)"/></g></svg>