<svg xmlns="http://www.w3.org/2000/svg" xmlns:xlink="http://www.w3.org/1999/xlink" width="22" height="22" viewBox="0 0 22 22"><defs><style>.a,.c,.d{fill:#899ca8;}.a{opacity:0;}.b{clip-path:url(#a);}.e,.f{stroke:none;}.f{fill:#899ca8;}</style><clipPath id="a"><rect class="a" width="22" height="22"/></clipPath></defs><g class="b" transform="translate(0 22) rotate(-90)"><path class="c" d="M0,0" transform="translate(11 10)"/><g transform="translate(16 8) rotate(90)"><rect class="c" width="14" height="2" rx="1" transform="translate(0 8)"/><rect class="c" width="10" height="2" rx="1" transform="translate(0 4)"/><rect class="c" width="10" height="2" rx="1"/></g><g transform="translate(6)"><rect class="c" width="8" height="2" rx="1" transform="translate(0 2)"/><g class="d" transform="translate(11) rotate(90)"><path class="e" d="M 4.233810424804688 3.999997854232788 L 1.76619029045105 3.999997854232788 L 2.999748229980469 1.944077730178833 L 2.999943017959595 1.944077730178833 L 4.233810424804688 4.000007629394531 L 4.233810424804688 3.999997854232788 Z"/><path class="f" d="M 3.000000238418579 0.9436526298522949 C 3.331645250320435 0.9436526298522949 3.66329026222229 1.105487823486328 3.857490301132202 1.429157733917236 L 5.091300010681152 3.485507726669312 C 5.491220474243164 4.152027606964111 5.011100292205811 4.999997615814209 4.233810424804688 4.999997615814209 L 1.766190052032471 4.999997615814209 C 0.9889001846313477 4.999997615814209 0.5087800025939941 4.152027606964111 0.9087004661560059 3.485507726669312 L 2.142510175704956 1.429157733917236 C 2.336710214614868 1.105487823486328 2.668355226516724 0.9436526298522949 3.000000238418579 0.9436526298522949 Z"/></g></g></g></svg>