<svg xmlns="http://www.w3.org/2000/svg" width="24" height="24" viewBox="0 0 24 24" fill="none">
  <path fill-rule="evenodd" clip-rule="evenodd" d="M13 6.00019C13 6.55251 12.5523 7.00025 12 7.00025C11.4477 7.00025 11 6.55251 11 6.00019C11 5.44787 11.4477 5.00012 12 5.00012C12.5523 5.00012 13 5.44787 13 6.00019ZM15 6.00019C15 7.65715 13.6569 9.00037 12 9.00037C10.3431 9.00037 9 7.65715 9 6.00019C9 4.34323 10.3431 3 12 3C13.6569 3 15 4.34323 15 6.00019ZM7 12.0008C7.55229 12.0008 8 11.553 8 11.0007C8 10.4484 7.55229 10.0006 7 10.0006C6.44772 10.0006 6 10.4484 6 11.0007C6 11.553 6.44772 12.0008 7 12.0008ZM7 14.0009C8.65686 14.0009 10 12.6576 10 11.0007C10 9.34373 8.65686 8.0005 7 8.0005C5.34315 8.0005 4 9.34373 4 11.0007C4 12.6576 5.34315 14.0009 7 14.0009ZM12 16.1302C11.9282 16.0269 11.8515 15.9258 11.7699 15.8273C10.768 14.6185 9.18468 14.0009 7 14.0009C4.81532 14.0009 3.23202 14.6185 2.2301 15.8273C1.25986 16.9979 1 18.5317 1 20.0013C1 20.5536 1.44772 21.0013 2 21.0013C2.55229 21.0013 3 20.5536 3 20.0013C3 18.7092 3.24014 17.7429 3.7699 17.1037C4.26798 16.5028 5.18468 16.001 7 16.001C8.81532 16.001 9.73202 16.5028 10.2301 17.1037C10.7599 17.7429 11 18.7092 11 20.0013C11 20.5536 11.4477 21.0013 12 21.0013C12.5523 21.0013 13 20.5536 13 20.0013C13 18.7092 13.2401 17.7429 13.7699 17.1037C14.268 16.5028 15.1847 16.001 17 16.001C18.8153 16.001 19.732 16.5028 20.2301 17.1037C20.7599 17.7429 21 18.7092 21 20.0013C21 20.5536 21.4477 21.0013 22 21.0013C22.5523 21.0013 23 20.5536 23 20.0013C23 18.5317 22.7401 16.9979 21.7699 15.8273C20.768 14.6185 19.1847 14.0009 17 14.0009C18.6569 14.0009 20 12.6576 20 11.0007C20 9.34373 18.6569 8.0005 17 8.0005C15.3431 8.0005 14 9.34373 14 11.0007C14 12.6576 15.3431 14.0009 17 14.0009C14.8153 14.0009 13.232 14.6185 12.2301 15.8273C12.1485 15.9258 12.0719 16.0269 12 16.1302ZM17 12.0008C17.5523 12.0008 18 11.553 18 11.0007C18 10.4484 17.5523 10.0006 17 10.0006C16.4477 10.0006 16 10.4484 16 11.0007C16 11.553 16.4477 12.0008 17 12.0008Z" fill="#0C8CE0"/>
</svg>
