<svg width="22" height="22" viewBox="0 0 22 22" fill="none" xmlns="http://www.w3.org/2000/svg">
  <path d="M11.126 20.001C10.5663 20.0005 10.0297 19.7779 9.6339 19.3821C9.23813 18.9864 9.01555 18.4497 9.01502 17.89V17.872C9.01565 17.7498 8.97892 17.6303 8.90976 17.5295C8.8406 17.4287 8.7423 17.3514 8.62802 17.308C7.98375 17.0549 7.3821 16.7045 6.84402 16.269C6.74925 16.1907 6.63296 16.1429 6.51049 16.132C6.38802 16.1211 6.26512 16.1476 6.15802 16.208C5.66979 16.4821 5.09295 16.5518 4.55351 16.4019C4.01406 16.252 3.55587 15.8947 3.27902 15.408C3.14208 15.1669 3.05414 14.9011 3.02025 14.6259C2.98636 14.3506 3.00718 14.0714 3.08152 13.8043C3.15585 13.5371 3.28224 13.2873 3.45343 13.0691C3.62461 12.851 3.83721 12.6688 4.07902 12.533H4.08802C4.1921 12.4743 4.27625 12.3858 4.3297 12.2789C4.38315 12.172 4.40346 12.0515 4.38802 11.933C4.29817 11.2921 4.29951 10.6416 4.39202 10.001C4.40795 9.88001 4.38721 9.757 4.33248 9.6479C4.27775 9.53879 4.19155 9.44862 4.08502 9.38903L4.07302 9.38203C3.83148 9.24628 3.61911 9.06419 3.4481 8.84618C3.27709 8.62818 3.1508 8.37856 3.07648 8.11164C3.00215 7.84472 2.98126 7.56576 3.01498 7.29074C3.04871 7.01573 3.1364 6.75008 3.27302 6.50903C3.54987 6.02239 4.00807 5.66509 4.54751 5.51519C5.08695 5.3653 5.66379 5.43498 6.15202 5.70903L6.19402 5.73303C6.30114 5.79315 6.4239 5.81958 6.54628 5.80888C6.66865 5.79817 6.78496 5.75083 6.88002 5.67303C7.40849 5.25183 7.997 4.91207 8.62602 4.66503C8.74054 4.62134 8.83912 4.54396 8.90874 4.44308C8.97837 4.34221 9.01578 4.2226 9.01602 4.10003C9.02803 3.54825 9.25566 3.02311 9.65015 2.63712C10.0446 2.25112 10.5746 2.03497 11.1265 2.03497C11.6784 2.03497 12.2084 2.25112 12.6029 2.63712C12.9974 3.02311 13.225 3.54825 13.237 4.10003V4.11403C13.2374 4.23604 13.2745 4.35512 13.3435 4.45573C13.4125 4.55634 13.5103 4.63381 13.624 4.67803C14.2455 4.92603 14.8268 5.26471 15.349 5.68303C15.4439 5.76115 15.5601 5.80885 15.6825 5.81991C15.8048 5.83097 15.9277 5.80487 16.035 5.74503L16.097 5.71003C16.5855 5.43562 17.1627 5.36573 17.7026 5.51564C18.2424 5.66554 18.701 6.02305 18.978 6.51003C19.115 6.75117 19.2029 7.01698 19.2368 7.29221C19.2707 7.56743 19.2499 7.84664 19.1755 8.11379C19.1012 8.38095 18.9748 8.63078 18.8036 8.84894C18.6324 9.0671 18.4198 9.24928 18.178 9.38503L18.13 9.41203C18.0259 9.47079 17.9418 9.55929 17.8883 9.66619C17.8349 9.77309 17.8146 9.89351 17.83 10.012C17.9211 10.6443 17.9234 11.2861 17.837 11.919C17.8216 12.0375 17.8419 12.158 17.8953 12.2649C17.9488 12.3718 18.0329 12.4603 18.137 12.519L18.179 12.543C18.4216 12.6785 18.635 12.8608 18.8066 13.0793C18.9783 13.2978 19.1048 13.5482 19.179 13.816C19.2877 14.2182 19.2753 14.6436 19.1434 15.0387C19.0115 15.4339 18.7659 15.7814 18.4373 16.0376C18.1088 16.2939 17.712 16.4475 17.2966 16.4792C16.8812 16.5109 16.4656 16.4194 16.102 16.216L16.077 16.202C15.9691 16.1416 15.8453 16.1153 15.7221 16.1268C15.5989 16.1382 15.482 16.1867 15.387 16.266C14.8552 16.6956 14.2615 17.0422 13.626 17.294C13.5125 17.3378 13.4149 17.4152 13.3463 17.5157C13.2777 17.6163 13.2414 17.7353 13.242 17.857V17.889C13.2419 18.1667 13.187 18.4416 13.0806 18.698C12.9742 18.9545 12.8182 19.1874 12.6217 19.3836C12.4252 19.5797 12.192 19.7352 11.9353 19.8411C11.6787 19.9471 11.4037 20.0014 11.126 20.001ZM6.45502 14.721C6.91887 14.7219 7.36832 14.8822 7.72802 15.175C8.15496 15.5212 8.63252 15.7998 9.14402 16.001C9.52212 16.1469 9.84698 16.4042 10.0756 16.7389C10.3041 17.0736 10.4257 17.4698 10.424 17.875V17.893C10.424 18.0796 10.4981 18.2585 10.6301 18.3905C10.762 18.5224 10.9409 18.5965 11.1275 18.5965C11.3141 18.5965 11.493 18.5224 11.625 18.3905C11.7569 18.2585 11.831 18.0796 11.831 17.893V17.861C11.8294 17.4576 11.9498 17.0631 12.1765 16.7294C12.4031 16.3957 12.7254 16.1383 13.101 15.991C13.6065 15.7902 14.0786 15.5137 14.501 15.171C14.8148 14.9113 15.2001 14.7531 15.6059 14.7174C16.0117 14.6816 16.4187 14.7701 16.773 14.971L16.795 14.984C16.9583 15.0757 17.1511 15.0991 17.3316 15.049C17.512 14.999 17.6653 14.8797 17.758 14.717C17.8032 14.6369 17.8321 14.5486 17.8432 14.4573C17.8542 14.3659 17.8471 14.2733 17.8223 14.1847C17.7975 14.0961 17.7555 14.0132 17.6986 13.9409C17.6418 13.8685 17.5712 13.8081 17.491 13.763L17.448 13.738C17.0987 13.5413 16.8165 13.244 16.6382 12.8849C16.4599 12.5257 16.3936 12.1213 16.448 11.724C16.5164 11.2215 16.5144 10.712 16.442 10.21C16.3875 9.81123 16.4536 9.40525 16.6318 9.04436C16.8101 8.68346 17.0922 8.38417 17.442 8.18503L17.492 8.15603C17.5725 8.11114 17.6434 8.05078 17.7005 7.97843C17.7577 7.90608 17.7999 7.82315 17.8249 7.73442C17.8499 7.64568 17.8571 7.55288 17.8462 7.46135C17.8352 7.36982 17.8063 7.28135 17.761 7.20103C17.6679 7.0385 17.5144 6.91934 17.3338 6.86952C17.1532 6.8197 16.9603 6.84324 16.797 6.93503L16.737 6.96903C16.3851 7.16903 15.981 7.25817 15.5776 7.22481C15.1742 7.19145 14.7903 7.03713 14.476 6.78203C14.0624 6.44929 13.6017 6.17969 13.109 5.98203C12.7335 5.83422 12.4112 5.57662 12.1843 5.24284C11.9573 4.90907 11.8363 4.51463 11.837 4.11103V4.10103C11.837 3.91445 11.7629 3.73551 11.631 3.60358C11.499 3.47165 11.3201 3.39753 11.1335 3.39753C10.9469 3.39753 10.768 3.47165 10.6361 3.60358C10.5041 3.73551 10.43 3.91445 10.43 4.10103C10.431 4.50654 10.309 4.90283 10.0801 5.23758C9.85125 5.57232 9.52625 5.8298 9.14802 5.97603C8.65006 6.17233 8.18424 6.44198 7.76602 6.77603C7.45163 7.02953 7.06824 7.18254 6.66571 7.21518C6.26317 7.24782 5.86014 7.15857 5.50902 6.95903L5.46902 6.93603C5.30586 6.84469 5.11323 6.8215 4.93306 6.8715C4.75288 6.92151 4.59976 7.04067 4.50702 7.20303C4.46184 7.28319 4.43291 7.37146 4.42188 7.46281C4.41085 7.55415 4.41794 7.64678 4.44274 7.73538C4.46754 7.82399 4.50956 7.90684 4.5664 7.97919C4.62325 8.05154 4.6938 8.11197 4.77402 8.15703L4.78802 8.16503C5.13923 8.36622 5.42216 8.66794 5.60038 9.03134C5.77861 9.39473 5.84396 9.80317 5.78802 10.204C5.7154 10.7138 5.7154 11.2313 5.78802 11.741C5.84433 12.1392 5.77897 12.545 5.60051 12.9053C5.42205 13.2656 5.13883 13.5636 4.78802 13.76L4.77702 13.766C4.69596 13.8112 4.62468 13.872 4.56734 13.945C4.51 14.018 4.46774 14.1016 4.44302 14.191C4.41836 14.2793 4.4115 14.3717 4.42283 14.4627C4.43416 14.5536 4.46346 14.6415 4.50902 14.721C4.60212 14.8836 4.75568 15.0027 4.93624 15.0525C5.11681 15.1024 5.30974 15.0788 5.47302 14.987C5.7755 14.8144 6.11772 14.7234 6.46602 14.723L6.45502 14.721ZM11.126 14.689C10.3957 14.6878 9.68207 14.4702 9.07538 14.0636C8.46869 13.6569 7.99616 13.0796 7.71749 12.4045C7.43882 11.7294 7.36652 10.9869 7.50973 10.2707C7.65294 9.55453 8.00523 8.89688 8.52209 8.38086C9.03894 7.86485 9.69716 7.51363 10.4136 7.37158C11.13 7.22953 11.8724 7.30303 12.547 7.5828C13.2217 7.86256 13.7982 8.33603 14.2039 8.94338C14.6095 9.55072 14.826 10.2647 14.826 10.995C14.8242 11.9751 14.4335 12.9144 13.7398 13.6068C13.0462 14.2992 12.1061 14.689 11.126 14.689ZM11.126 8.70903C10.6737 8.70903 10.2315 8.84316 9.85543 9.09446C9.47934 9.34576 9.1862 9.70294 9.01311 10.1208C8.84001 10.5387 8.79472 10.9986 8.88296 11.4422C8.97121 11.8858 9.18902 12.2933 9.50887 12.6132C9.82871 12.933 10.2362 13.1508 10.6798 13.2391C11.1235 13.3273 11.5833 13.282 12.0012 13.1089C12.4191 12.9358 12.7763 12.6427 13.0276 12.2666C13.2789 11.8905 13.413 11.4484 13.413 10.996C13.4128 10.3895 13.1718 9.80781 12.7429 9.37882C12.3141 8.94982 11.7326 8.70956 11.126 8.70903Z" fill="#899CA8"/>
</svg>
