<svg xmlns="http://www.w3.org/2000/svg" xmlns:xlink="http://www.w3.org/1999/xlink" width="16" height="16" viewBox="0 0 16 16"><defs><style>.a{fill:#cb3f3f;}.b{clip-path:url(#a);}.c{fill:#fff;}</style><clipPath id="a"><rect class="a" width="16" height="16"/></clipPath></defs><g class="b"><g transform="translate(-784 -142.59)"><circle class="a" cx="6" cy="6" r="6" transform="translate(786 144.59)"/><path class="c" d="M2.426-4.7H.984L.757-9.953h1.9ZM.7-3.061a.877.877,0,0,1,.071-.354.812.812,0,0,1,.2-.283.988.988,0,0,1,.312-.187,1.116,1.116,0,0,1,.4-.069,1.116,1.116,0,0,1,.4.069A.988.988,0,0,1,2.4-3.7a.812.812,0,0,1,.2.283.877.877,0,0,1,.071.354.877.877,0,0,1-.071.354.812.812,0,0,1-.2.283.988.988,0,0,1-.312.187,1.116,1.116,0,0,1-.4.069,1.116,1.116,0,0,1-.4-.069.988.988,0,0,1-.312-.187.812.812,0,0,1-.2-.283A.877.877,0,0,1,.7-3.061Z" transform="translate(790.296 156.543)"/></g></g></svg>