<svg width="24" height="24" viewBox="0 0 24 24" fill="none" xmlns="http://www.w3.org/2000/svg">
  <path d="M20.531 24C20.4079 24 20.2861 23.9758 20.1724 23.9287C20.0587 23.8816 19.9554 23.8126 19.8684 23.7256C19.7814 23.6385 19.7124 23.5352 19.6653 23.4216C19.6182 23.3079 19.594 23.1861 19.594 23.063C19.5919 21.2984 18.8899 19.6066 17.6422 18.3589C16.3944 17.1111 14.7026 16.4091 12.938 16.407H11.531C9.76637 16.4091 8.07462 17.1111 6.82684 18.3589C5.57905 19.6066 4.87712 21.2984 4.875 23.063C4.86705 23.3064 4.7648 23.5371 4.58985 23.7064C4.4149 23.8757 4.18097 23.9704 3.9375 23.9704C3.69403 23.9704 3.4601 23.8757 3.28515 23.7064C3.1102 23.5371 3.00795 23.3064 3 23.063C3.00238 20.8011 3.90192 18.6325 5.50124 17.033C7.10057 15.4334 9.26908 14.5337 11.531 14.531H12.937C15.1987 14.5336 17.3671 15.4333 18.9664 17.0326C20.5657 18.6319 21.4654 20.8003 21.468 23.062C21.4681 23.1851 21.444 23.3071 21.397 23.4209C21.3499 23.5347 21.2809 23.6381 21.1939 23.7252C21.1069 23.8123 21.0036 23.8814 20.8898 23.9286C20.7761 23.9757 20.6541 24 20.531 24Z" fill="#899CA8"/>
  <path d="M12.141 12.656C10.8894 12.656 9.66599 12.2849 8.62535 11.5895C7.58472 10.8942 6.77364 9.90591 6.29469 8.74962C5.81573 7.59333 5.69042 6.32098 5.93459 5.09347C6.17875 3.86596 6.78144 2.73842 7.66643 1.85343C8.55141 0.968444 9.67895 0.365761 10.9065 0.121594C12.134 -0.122574 13.4063 0.00274181 14.5626 0.481693C15.7189 0.960644 16.7072 1.77172 17.4025 2.81235C18.0979 3.85299 18.469 5.07644 18.469 6.328C18.4671 8.00572 17.7998 9.6142 16.6135 10.8005C15.4272 11.9869 13.8187 12.6542 12.141 12.656ZM12.141 1.875C11.2603 1.875 10.3993 2.13617 9.66704 2.62547C8.93475 3.11477 8.364 3.81023 8.02696 4.62391C7.68993 5.43759 7.60174 6.33294 7.77356 7.19674C7.94538 8.06054 8.36949 8.85399 8.99225 9.47675C9.61501 10.0995 10.4085 10.5236 11.2723 10.6954C12.1361 10.8673 13.0314 10.7791 13.8451 10.442C14.6588 10.105 15.3542 9.53425 15.8435 8.80196C16.3328 8.06966 16.594 7.20872 16.594 6.328C16.5927 5.1474 16.1231 4.01553 15.2883 3.18072C14.4535 2.34591 13.3216 1.87633 12.141 1.875Z" fill="#899CA8"/>
</svg>
