<svg xmlns="http://www.w3.org/2000/svg" width="24.001" height="24" viewBox="0 0 24.001 24"><defs><style>.a,.b{fill:#899ca8;}.a{opacity:0;}</style></defs><g transform="translate(-414.999 -552)"><rect class="a" width="24" height="24" transform="translate(415 552)"/><path class="b" d="M18.257,24a2.41,2.41,0,0,1-2.4-2.418V19.591a.937.937,0,0,1,1.875,0v1.991a.516.516,0,0,0,.323.5.5.5,0,0,0,.558-.115l2.958-2.932a1.924,1.924,0,0,0,0-2.729L18.61,13.373a.5.5,0,0,0-.558-.115.516.516,0,0,0-.323.5v2.085a.937.937,0,0,1-.937.937H5.636a.937.937,0,0,0,0,1.875h1.5a.937.937,0,1,1,0,1.875h-1.5a2.812,2.812,0,1,1,0-5.625H15.854V13.756a2.4,2.4,0,0,1,1.477-2.229,2.352,2.352,0,0,1,2.6.514l2.958,2.932a3.8,3.8,0,0,1,0,5.392L19.93,23.3a2.367,2.367,0,0,1-1.673.7Zm-4.091-4.409a.937.937,0,0,0-.937-.937H10.7a.937.937,0,1,0,0,1.875h2.531A.937.937,0,0,0,14.167,19.591ZM6.725,12.463a2.376,2.376,0,0,0,1.489-2.225V9.185H18.385a2.812,2.812,0,0,0,0-5.625H8.214V2.413A2.376,2.376,0,0,0,6.725.188,2.412,2.412,0,0,0,4.091.7L1.133,3.63a3.8,3.8,0,0,0,0,5.392l2.958,2.932a2.4,2.4,0,0,0,1.7.7A2.438,2.438,0,0,0,6.725,12.463ZM6,1.919a.522.522,0,0,1,.335.494V4.5a.937.937,0,0,0,.937.937H18.385a.937.937,0,0,1,0,1.875H7.276a.937.937,0,0,0-.937.937v1.991a.548.548,0,0,1-.928.383L2.453,7.69a1.924,1.924,0,0,1,0-2.729L5.411,2.029a.508.508,0,0,1,.367-.157A.6.6,0,0,1,6,1.919Z" transform="translate(414.988 552)"/></g></svg>