<svg width="22" height="22" viewBox="0 0 22 22" fill="none" xmlns="http://www.w3.org/2000/svg">
<g id="icon-expand">
<g id="Union">
<path d="M4 13L4 17C4 17.5523 4.44771 18 5 18L9 18C9.55228 18 10 17.5523 10 17C10 16.4477 9.55228 16 9 16L7.41345 16L11.0701 12.3434C11.4606 11.9528 11.4606 11.3197 11.0701 10.9291C10.6796 10.5386 10.0464 10.5386 9.65588 10.9291L6 14.585L6 13C6 12.4477 5.55228 12 5 12C4.44772 12 4 12.4477 4 13Z" fill="#0C8CE0"/>
<path fill-rule="evenodd" clip-rule="evenodd" d="M12 5L12 9C12 9.55228 12.4477 10 13 10L17 10C17.5523 10 18 9.55229 18 9L18 5C18 4.44772 17.5523 4 17 4L13 4C12.4477 4 12 4.44772 12 5ZM16 8L16 6L14 6L14 8L16 8Z" fill="#0C8CE0"/>
</g>
</g>
</svg>
