<svg xmlns="http://www.w3.org/2000/svg" width="131" height="130" viewBox="0 0 131 130"><defs><style>.image-regular-network-a{fill:#cbd3d8;}.image-regular-network-b{fill:#4db6e4;}.image-regular-network-c{fill:#5cc1ed;}.image-regular-network-d{fill:#3ba5d3;}.image-regular-network-e{fill:#0c8ce0;}.image-regular-network-f{fill:#d5d5d3;}.image-regular-network-g{fill:#dfdfdd;}.h{fill:#cececc;}</style></defs><g transform="translate(30 20)"><path class="image-regular-network-a" d="M144,240h14v5H144Z" transform="translate(-141 -200)"/><path class="image-regular-network-a" d="M0,0H4.465V25.142H0Z" transform="translate(0 3.394) rotate(-49.504)"/><path class="image-regular-network-a" d="M0,0H23.288V4.466H0Z" transform="translate(2.118 87.465) rotate(-45)"/><path class="image-regular-network-a" d="M320,240h14v5H320Z" transform="translate(-267.078 -200)"/><path class="image-regular-network-a" d="M0,0H24.642V4.466H0Z" transform="translate(48.312 16.042) rotate(-40.62)"/><path class="image-regular-network-a" d="M0,0H4.466V23.979H0Z" transform="matrix(0.704, -0.71, 0.71, 0.704, 47.615, 74.171)"/></g><g transform="translate(46 26)"><rect class="image-regular-network-b" width="37" height="75" rx="8"/><rect class="image-regular-network-c" width="37" height="21" rx="8"/><path class="image-regular-network-d" d="M229,240v6.313a7.041,7.041,0,0,1-2.312.385H194.312a7.041,7.041,0,0,1-2.312-.385V240a2.277,2.277,0,0,0,2.312,2.233h32.375A2.277,2.277,0,0,0,229,240Z" transform="translate(-192 -205.794)"/><path class="image-regular-network-d" d="M229,304v6.313a7.042,7.042,0,0,1-2.312.385H194.312a7.042,7.042,0,0,1-2.312-.385V304a2.277,2.277,0,0,0,2.312,2.233h32.375A2.277,2.277,0,0,0,229,304Z" transform="translate(-192 -251.955)"/><path class="image-regular-network-c" d="M216,216h4.466v4.466H216Z" transform="translate(-208.412 -188.482)"/><path class="image-regular-network-c" d="M216,280h4.466v4.466H216Z" transform="translate(-208.412 -234.643)"/><path class="image-regular-network-c" d="M216,344h4.466v4.466H216Z" transform="translate(-208.412 -280.804)"/><path class="image-regular-network-d" d="M248,216h13.4v4.466H248Z" transform="translate(-231.481 -188.482)"/><path class="image-regular-network-d" d="M248,280h13.4v4.466H248Z" transform="translate(-231.481 -234.643)"/><path class="image-regular-network-d" d="M248,344h13.4v4.466H248Z" transform="translate(-231.481 -280.804)"/></g><rect class="image-regular-network-e" width="26" height="18" rx="4"/><path class="image-regular-network-f" d="M61.4,96.931H48L50.233,88h8.931Z" transform="translate(-41.302 -70)"/><path class="image-regular-network-g" d="M40,112H57.863v4.466H40Z" transform="translate(-35.534 -87.471)"/><path class="h" d="M63.164,92.466H52L53.116,88h8.931Z" transform="translate(-44.185 -70)"/><rect class="image-regular-network-e" width="28" height="18" rx="4" transform="translate(103)"/><path class="image-regular-network-f" d="M429.4,96.931H416L418.233,88h8.931Z" transform="translate(-305.592 -70)"/><path class="image-regular-network-g" d="M408,112h17.863v4.466H408Z" transform="translate(-299.825 -87.471)"/><path class="h" d="M431.164,92.466H420L421.116,88h8.931Z" transform="translate(-308.475 -70)"/><rect class="image-regular-network-e" width="26" height="17" rx="4" transform="translate(0 52)"/><path class="image-regular-network-f" d="M61.4,280.931H48L50.233,272h8.931Z" transform="translate(-41.302 -203.094)"/><path class="image-regular-network-g" d="M40,296H57.863v4.466H40Z" transform="translate(-35.534 -220.183)"/><path class="h" d="M63.164,276.466H52L53.116,272h8.931Z" transform="translate(-44.185 -203.09)"/><rect class="image-regular-network-e" width="28" height="17" rx="4" transform="translate(103 52)"/><path class="image-regular-network-f" d="M429.4,280.931H416L418.233,272h8.931Z" transform="translate(-305.592 -203.094)"/><path class="image-regular-network-g" d="M408,296h17.863v4.466H408Z" transform="translate(-299.825 -220.183)"/><path class="h" d="M431.164,276.466H420L421.116,272h8.931Z" transform="translate(-308.475 -203.09)"/><rect class="image-regular-network-e" width="26" height="17" rx="4" transform="translate(0 102)"/><path class="image-regular-network-f" d="M61.4,464.931H48L50.233,456h8.931Z" transform="translate(-41.302 -337)"/><path class="image-regular-network-g" d="M40,480H57.863v4.466H40Z" transform="translate(-35.534 -354.466)"/><path class="h" d="M63.164,460.466H52L53.116,456h8.931Z" transform="translate(-44.185 -337)"/><rect class="image-regular-network-e" width="28" height="17" rx="4" transform="translate(103 102)"/><path class="image-regular-network-f" d="M429.4,464.931H416L418.233,456h8.931Z" transform="translate(-305.592 -337)"/><path class="image-regular-network-g" d="M408,480h17.863v4.466H408Z" transform="translate(-299.825 -354.466)"/><path class="h" d="M431.164,460.466H420L421.116,456h8.931Z" transform="translate(-308.475 -337)"/></svg>