<svg width="216" height="214" viewBox="0 0 216 214" fill="none" xmlns="http://www.w3.org/2000/svg">
<path d="M56.7552 98.95H79.6553V107.13H56.7552V98.95Z" fill="#CBD3D8"/>
<path d="M50.845 55.06L55.585 49.51L86.865 76.22L82.125 81.77L50.845 55.06Z" fill="#CBD3D8"/>
<path d="M138.425 98.95H161.325V107.13H138.425V98.95Z" fill="#CBD3D8"/>
<path d="M129.865 75.75L160.465 49.5L165.225 55.05L134.625 81.3L129.865 75.75Z" fill="#CBD3D8"/>
<path d="M55.3052 149.44L82.2452 122.5L87.4152 127.67L60.4752 154.61L55.3052 149.44Z" fill="#CBD3D8"/>
<path d="M129.735 127.69L134.875 122.5L162.725 150.12L157.585 155.31L129.735 127.69Z" fill="#CBD3D8"/>
<path d="M36.835 0.5H7.38489C3.77295 0.5 0.844971 3.42807 0.844971 7.04001V23.41C0.844971 27.0219 3.77295 29.95 7.38489 29.95H36.835C40.4469 29.95 43.3749 27.0219 43.3749 23.41V7.04001C43.3749 3.42807 40.4469 0.5 36.835 0.5Z" fill="#0C8CE0"/>
<path d="M33.725 44.5599H11.8049L15.455 29.95H30.0649L33.725 44.5599Z" fill="#D5D5D3"/>
<path d="M8.15491 40.63H37.3749V47.94H8.15491V40.63Z" fill="#DFDFDD"/>
<path d="M31.8949 37.2499H13.6349L15.465 29.9399H30.075L31.9049 37.2499H31.8949Z" fill="#CECECC"/>
<path d="M208.615 0.5H175.885C172.273 0.5 169.345 3.42807 169.345 7.04001V23.41C169.345 27.0219 172.273 29.95 175.885 29.95H208.615C212.227 29.95 215.155 27.0219 215.155 23.41V7.04001C215.155 3.42807 212.227 0.5 208.615 0.5Z" fill="#0C8CE0"/>
<path d="M203.385 44.5599H181.465L185.115 29.95H199.725L203.385 44.5599Z" fill="#D5D5D3"/>
<path d="M177.815 40.63H207.035V47.94H177.815V40.63Z" fill="#DFDFDD"/>
<path d="M201.555 37.2499H183.295L185.125 29.9399H199.735L201.565 37.2499H201.555Z" fill="#CECECC"/>
<path d="M36.835 85.5701H7.38489C3.77295 85.5701 0.844971 88.4981 0.844971 92.1101V106.84C0.844971 110.452 3.77295 113.38 7.38489 113.38H36.835C40.4469 113.38 43.3749 110.452 43.3749 106.84V92.1101C43.3749 88.4981 40.4469 85.5701 36.835 85.5701Z" fill="#0C8CE0"/>
<path d="M33.725 127.84H11.8049L15.455 113.23H30.0649L33.725 127.84Z" fill="#D5D5D3"/>
<path d="M8.15491 124.53H37.3749V131.84H8.15491V124.53Z" fill="#DFDFDD"/>
<path d="M122.907 127.106H81.7067C79.911 127.106 78.4551 128.559 78.4551 130.352V131.966C78.4551 133.759 79.911 135.212 81.7067 135.212H122.907C124.703 135.212 126.159 133.759 126.159 131.966V130.352C126.159 128.559 124.703 127.106 122.907 127.106Z" fill="#3BA5D3"/>
<path d="M31.8949 120.54H13.6349L15.465 113.23H30.075L31.9049 120.54H31.8949Z" fill="#CECECC"/>
<path d="M208.615 85.5701H175.885C172.273 85.5701 169.345 88.4981 169.345 92.1101V106.84C169.345 110.452 172.273 113.38 175.885 113.38H208.615C212.227 113.38 215.155 110.452 215.155 106.84V92.1101C215.155 88.4981 212.227 85.5701 208.615 85.5701Z" fill="#0C8CE0"/>
<path d="M203.385 127.84H181.465L185.115 113.23H199.725L203.385 127.84Z" fill="#D5D5D3"/>
<path d="M177.815 124.53H207.035V131.84H177.815V124.53Z" fill="#DFDFDD"/>
<path d="M201.555 120.54H183.295L185.125 113.23H199.735L201.565 120.54H201.555Z" fill="#CECECC"/>
<path d="M36.835 167.37H7.38489C3.77295 167.37 0.844971 170.298 0.844971 173.91V188.64C0.844971 192.252 3.77295 195.18 7.38489 195.18H36.835C40.4469 195.18 43.3749 192.252 43.3749 188.64V173.91C43.3749 170.298 40.4469 167.37 36.835 167.37Z" fill="#0C8CE0"/>
<path d="M33.725 209.79H11.8049L15.455 195.18H30.0649L33.725 209.79Z" fill="#D5D5D3"/>
<path d="M8.15491 205.87H37.3749V213.18H8.15491V205.87Z" fill="#DFDFDD"/>
<path d="M31.8949 202.48H13.6349L15.465 195.17H30.075L31.9049 202.48H31.8949Z" fill="#CECECC"/>
<path d="M208.615 167.37H175.885C172.273 167.37 169.345 170.298 169.345 173.91V188.64C169.345 192.252 172.273 195.18 175.885 195.18H208.615C212.227 195.18 215.155 192.252 215.155 188.64V173.91C215.155 170.298 212.227 167.37 208.615 167.37Z" fill="#0C8CE0"/>
<path d="M203.385 209.79H181.465L185.115 195.18H199.725L203.385 209.79Z" fill="#D5D5D3"/>
<path d="M177.815 205.87H207.035V213.18H177.815V205.87Z" fill="#DFDFDD"/>
<path d="M201.555 202.48H183.295L185.125 195.17H199.735L201.565 202.48H201.555Z" fill="#CECECC"/>
<rect x="74" y="62" width="69" height="96" rx="10" fill="#5CC1ED"/>
<path d="M102.605 84H115.193C116.815 84 118.129 82.5658 118.129 80.7966V79.2034C118.129 77.4342 116.815 76 115.193 76H102.605C100.983 76 99.6686 77.4342 99.6686 79.2034V80.7966C99.6686 82.5658 100.983 84 102.605 84Z" fill="#3BA5D3"/>
<path d="M124.439 84H133.063C134.685 84 136 82.5658 136 80.7966V79.2034C136 77.4342 134.685 76 133.063 76H124.439C122.817 76 121.502 77.4342 121.502 79.2034V80.7966C121.502 82.5658 122.817 84 124.439 84Z" fill="#3BA5D3"/>
<path d="M84.9368 84H93.9188C95.5408 84 96.856 82.5658 96.856 80.7966V79.2034C96.856 77.4342 95.5408 76 93.9188 76H84.9368C83.3148 76 82 77.4342 82 79.2034V80.7966C82 82.5658 83.3148 84 84.9368 84Z" fill="#3BA5D3"/>
<path d="M132.082 93H84.9181C83.3066 93 82 94.4342 82 96.2034V97.7966C82 99.5658 83.3066 101 84.9181 101H132.082C133.694 101 135 99.5658 135 97.7966V96.2034C135 94.4342 133.694 93 132.082 93Z" fill="#3BA5D3"/>
<path d="M108.6 110H84.9181C83.3066 110 82 111.434 82 113.203V114.797C82 116.566 83.3066 118 84.9181 118H108.6C110.212 118 111.518 116.566 111.518 114.797V113.203C111.518 111.434 110.212 110 108.6 110Z" fill="#3BA5D3"/>
<path d="M132.082 110H117.539C115.928 110 114.621 111.434 114.621 113.203V114.797C114.621 116.566 115.928 118 117.539 118H132.082C133.694 118 135 116.566 135 114.797V113.203C135 111.434 133.694 110 132.082 110Z" fill="#3BA5D3"/>
<path d="M116.018 127H83.9821C82.8875 127 82 128.434 82 130.203V131.797C82 133.566 82.8875 135 83.9821 135H116.018C117.113 135 118 133.566 118 131.797V130.203C118 128.434 117.113 127 116.018 127Z" fill="#3BA5D3"/>
</svg>
