<svg width="404" height="156" viewBox="0 0 404 156" fill="none" xmlns="http://www.w3.org/2000/svg">
    <g clip-path="url(#clip0_2818_9387)">
        <path
            d="M360.618 49.332V69.3827H360.164C358.134 65.5361 354.106 62.8708 349.472 62.8708H344.989C338.296 62.8708 332.874 68.2923 332.874 74.986V87.1314C332.874 93.8251 338.296 99.2466 344.989 99.2466H349.472C354.046 99.2466 358.013 96.6722 360.073 92.9165H360.406L360.648 98.5803H365.01V49.332H360.648H360.618ZM351.047 94.7034H346.564C341.537 94.7034 337.478 90.6448 337.478 85.617V76.5306C337.478 71.5028 341.537 67.4443 346.564 67.4443H351.047C356.075 67.4443 360.133 71.5028 360.133 76.5306V85.617C360.133 90.6448 356.075 94.7034 351.047 94.7034Z"
            fill="white" />
        <path
            d="M315.731 63.543H313.763C312.097 63.543 310.734 64.9059 310.734 66.5718V98.6165H315.731V67.5107H329.361V63.543H315.731Z"
            fill="white" />
        <path
            d="M299.164 98.6129L299.103 73.7161C299.103 67.7494 294.257 62.873 288.26 62.873H282.354C276.387 62.873 271.511 67.7191 271.511 73.7161H276.024C276.448 69.809 279.719 66.7802 283.747 66.7802H286.837C291.137 66.7802 294.651 70.2633 294.651 74.5945V77.6536H281.203C275.236 77.6536 270.36 82.4997 270.36 88.4967C270.36 94.4937 275.206 99.3398 281.203 99.3398H285.564C289.169 99.3398 292.319 97.5528 294.287 94.8572H294.621V98.6735H299.103L299.164 98.6129ZM285.686 95.3721H282.051C278.235 95.3721 275.176 92.2827 275.176 88.4967C275.176 84.7107 278.265 81.6213 282.051 81.6213H294.681V86.4068C294.681 91.374 290.653 95.4023 285.686 95.4023V95.3721Z"
            fill="white" />
        <path
            d="M257.457 85.6229C257.457 90.6507 253.399 94.7093 248.371 94.7093H246.069C241.041 94.7093 236.983 90.6507 236.983 85.6229V63.543H232.379V87.1676C232.379 93.8612 237.8 99.2828 244.494 99.2828H246.826C251.4 99.2828 255.367 96.7083 257.427 92.9526H257.76L258.003 98.6165H262.364V63.543H257.548L257.488 85.6229H257.457Z"
            fill="white" />
        <path
            d="M217.144 92.0717H201.576C200.092 92.0717 198.91 91.0116 198.91 89.5275C198.91 88.0434 200.092 86.8621 201.576 86.8621H205.907H211.117C216.962 86.8621 221.717 82.1069 221.717 76.2613V73.4748C221.717 70.1129 220.112 67.1446 217.689 65.2062V62.7529H225.019V58.7852H217.326C215.66 58.7852 214.297 60.1481 214.297 61.814V63.4192C213.297 63.0861 212.237 62.874 211.117 62.874H205.907C200.061 62.874 195.306 67.6292 195.306 73.4748V76.2613C195.306 79.8353 197.093 82.9853 199.789 84.8934C197.033 85.0146 194.822 87.2559 194.822 90.0424C194.822 92.3442 196.366 94.2221 198.456 94.8279C194.943 95.9182 192.399 98.8562 192.399 102.339V103.339C192.399 107.761 196.457 111.335 201.485 111.335H217.083C222.111 111.335 226.17 107.276 226.17 102.248V101.097C226.17 96.0697 222.111 92.0111 217.083 92.0111L217.144 92.0717ZM199.91 72.6268C199.91 69.4162 202.636 66.8115 205.968 66.8115H211.147C214.479 66.8115 217.204 69.4162 217.204 72.6268V77.1094C217.204 80.3199 214.479 82.9247 211.147 82.9247H205.968C202.636 82.9247 199.91 80.3199 199.91 77.1094V72.6268ZM216.932 107.034H201.758C198.82 107.034 196.427 104.641 196.427 101.703C196.427 98.7653 198.82 96.3726 201.758 96.3726H216.932C219.87 96.3726 222.263 98.7653 222.263 101.703C222.263 104.641 219.87 107.034 216.932 107.034Z"
            fill="white" />
        <path
            d="M188.007 53.33V49.332H177.83C176.164 49.332 174.801 50.695 174.801 52.3608V63.5371H168.714V67.626H174.801V98.6106H179.254V67.626H187.219V63.5371H179.254V53.33H188.007Z"
            fill="white" />
        <path
            d="M159.869 82.0756H164.14V78.017C164.14 69.6576 157.356 62.873 148.996 62.873H147.603C139.243 62.873 132.459 69.6576 132.459 78.017V83.3174C132.459 92.101 139.637 99.2489 148.39 99.2489H149.784C156.689 99.2489 162.444 94.6149 164.261 88.315H159.052C157.083 93.2822 152.57 96.5533 146.664 95.1903C140.758 93.8274 137.214 88.527 137.214 82.742V82.0756H159.869ZM148.542 66.6288C154.781 66.6288 159.264 71.6869 159.264 77.9565V78.2291H137.214V77.9565C137.214 71.7171 142.272 66.6288 148.542 66.6288Z"
            fill="white" />
        <path
            d="M119.193 49.332V69.3827H118.738C116.709 65.5361 112.681 62.8708 108.047 62.8708H103.564C96.8704 62.8708 91.4489 68.2923 91.4489 74.986V87.1314C91.4489 93.8251 96.8704 99.2466 103.564 99.2466H108.047C112.62 99.2466 116.588 96.6722 118.647 92.9165H118.981L119.223 98.5803H123.584V49.332H119.223H119.193ZM109.622 94.7034H105.139C100.111 94.7034 96.0526 90.6448 96.0526 85.617V76.5306C96.0526 71.5028 100.111 67.4443 105.139 67.4443H109.622C114.649 67.4443 118.708 71.5028 118.708 76.5306V85.617C118.708 90.6448 114.649 94.7034 109.622 94.7034Z"
            fill="white" />
        <path
            d="M72.0044 37.1113V54.8266L56.6695 45.969L36.9304 57.3642V100.392L56.6536 111.787L71.9884 102.929V112.058L64.5683 116.351L68.9566 118.889L76.3767 114.596V77.6011L56.6536 66.2059L41.3187 75.0635V59.8858L56.6536 51.0282L71.9884 59.8858V64.9291L76.3767 67.4667V39.6489L71.9884 37.1113H72.0044ZM41.3187 97.854V82.6763L56.6536 91.5339L71.9884 82.6763V97.854L56.6536 106.712L41.3187 97.854ZM69.8023 78.8779L56.6536 86.4747L43.5048 78.8779L56.6536 71.2811L69.8023 78.8779Z"
            fill="white" />
    </g>
    <defs>
        <clipPath id="clip0_2818_9387">
            <rect width="330.139" height="81.7776" fill="white" transform="translate(36.9304 37.1113)" />
        </clipPath>
    </defs>
</svg>