<svg width="216" height="214" viewBox="0 0 216 214" fill="none" xmlns="http://www.w3.org/2000/svg">
<path d="M56.7552 98.95H79.6553V107.13H56.7552V98.95Z" fill="#CBD3D8"/>
<path d="M50.845 55.06L55.585 49.51L86.865 76.22L82.125 81.77L50.845 55.06Z" fill="#CBD3D8"/>
<path d="M138.425 98.95H161.325V107.13H138.425V98.95Z" fill="#CBD3D8"/>
<path d="M129.865 75.75L160.465 49.5L165.225 55.05L134.625 81.3L129.865 75.75Z" fill="#CBD3D8"/>
<path d="M55.3052 149.44L82.2452 122.5L87.4152 127.67L60.4752 154.61L55.3052 149.44Z" fill="#CBD3D8"/>
<path d="M129.735 127.69L134.875 122.5L162.725 150.12L157.585 155.31L129.735 127.69Z" fill="#CBD3D8"/>
<path d="M76.6156 124.336C77.6627 122.629 78.6292 120.97 79.6923 119.375C81.9797 115.912 80.4977 112.384 76.3901 111.675C75.4719 111.514 74.5377 111.353 73.6196 111.16C70.8973 110.564 69.9148 109.436 69.8664 106.634C69.8181 104.137 69.8664 101.624 69.8664 99.111C69.8664 96.6786 71.155 95.3739 73.4263 94.8746C74.1833 94.6974 74.9725 94.4074 75.7296 94.4557C79.2251 94.7135 80.1273 92.1845 80.9327 89.6233C81.0777 89.1562 80.8681 88.4474 80.5943 87.9803C79.7406 86.5789 78.7419 85.2741 77.8399 83.9049C76.5834 82.0042 76.7766 80.2 78.3391 78.5731C80.1271 76.7045 81.9796 74.9004 83.8159 73.0802C85.4911 71.4211 87.3436 71.2277 89.3249 72.5325C89.9854 72.9674 90.7423 73.3057 91.2417 73.8695C93.5129 76.3663 95.9291 75.6253 98.297 74.1916C98.893 73.8373 99.3763 72.8869 99.489 72.1459C100.778 63.3992 101.905 64.559 108.8 64.5429C115.855 64.5268 115.855 64.5429 117.111 71.6305C117.675 74.8843 121.493 76.5113 124.231 74.6749C128.344 71.9043 132.162 72.2963 135.684 75.8508C139.206 79.4054 139.534 83.1639 136.667 87.1266C134.83 89.8649 136.473 93.6987 139.727 94.2625C144.463 95.0786 146.831 97.8438 146.831 102.558C146.831 103.976 146.863 105.377 146.831 106.778C146.766 109.356 145.687 110.612 143.158 111.16C142.401 111.321 141.612 111.611 140.855 111.563C137.263 111.289 136.65 114.075 135.732 116.492C135.571 116.911 135.926 117.635 136.215 118.103C137.069 119.504 138.052 120.825 138.938 122.21C140.097 124.03 139.969 125.786 138.455 127.349C136.602 129.265 134.717 131.134 132.817 133.003C131.19 134.597 129.386 134.726 127.485 133.534C126.76 133.083 125.922 132.697 125.375 132.068C123.071 129.443 120.639 130.522 118.336 131.875C117.707 132.246 117.305 133.357 117.176 134.195C115.952 142.313 114.937 141.475 108.284 141.475C103.355 141.475 100.461 139.075 99.6019 134.275C99.0542 131.198 95.0917 129.427 92.611 131.263C85.894 136.224 85.6039 134.758 80.9647 130.103C80.0305 129.153 78.9996 128.283 78.1781 127.236C77.5821 126.479 77.2439 125.512 76.6479 124.353L76.6156 124.336ZM108.526 126.253C121.412 126.205 131.625 115.815 131.609 102.784C131.592 89.9454 121.138 79.6685 108.139 79.7168C95.2526 79.7651 84.9918 90.2032 85.0562 103.17C85.1207 116.057 95.5427 126.302 108.526 126.237V126.253Z" fill="#5CC1ED"/>
<path d="M131.608 103.235C131.528 116.379 121.106 126.398 107.64 126.269C94.8982 126.157 84.9595 115.622 85.0561 102.365C85.1528 89.72 95.6553 79.6362 108.638 79.7329C121.605 79.8295 131.689 90.1549 131.608 103.235ZM123.506 103.09C123.571 94.8262 116.692 87.8836 108.381 87.8192C100.214 87.7709 93.3035 94.5524 93.1908 102.751C93.078 111.063 99.8916 118.07 108.187 118.135C116.547 118.215 123.442 111.434 123.522 103.09H123.506Z" fill="#3BA5D3"/>
<path d="M123.506 103.154C123.458 111.724 116.66 118.247 107.881 118.167C99.5858 118.086 93.0942 111.224 93.1587 102.59C93.2231 94.3429 100.069 87.7708 108.526 87.8352C116.966 87.8996 123.555 94.6328 123.49 103.154H123.506ZM114.47 103.041C114.502 99.7069 111.715 96.888 108.348 96.8719C105.046 96.8558 102.26 99.5942 102.211 102.896C102.163 106.263 104.918 109.082 108.268 109.114C111.651 109.146 114.437 106.408 114.47 103.025V103.041Z" fill="#4DB6E4"/>
<path d="M108.332 109.324C111.837 109.324 114.679 106.482 114.679 102.977C114.679 99.4719 111.837 96.6304 108.332 96.6304C104.827 96.6304 101.986 99.4719 101.986 102.977C101.986 106.482 104.827 109.324 108.332 109.324Z" fill="#5CC1ED"/>
<path d="M36.835 0.5H7.38489C3.77295 0.5 0.844971 3.42807 0.844971 7.04001V23.41C0.844971 27.0219 3.77295 29.95 7.38489 29.95H36.835C40.4469 29.95 43.3749 27.0219 43.3749 23.41V7.04001C43.3749 3.42807 40.4469 0.5 36.835 0.5Z" fill="#0C8CE0"/>
<path d="M33.725 44.5599H11.8049L15.455 29.95H30.0649L33.725 44.5599Z" fill="#D5D5D3"/>
<path d="M8.15491 40.63H37.3749V47.94H8.15491V40.63Z" fill="#DFDFDD"/>
<path d="M31.8949 37.2499H13.6349L15.465 29.9399H30.075L31.9049 37.2499H31.8949Z" fill="#CECECC"/>
<path d="M208.615 0.5H175.885C172.273 0.5 169.345 3.42807 169.345 7.04001V23.41C169.345 27.0219 172.273 29.95 175.885 29.95H208.615C212.227 29.95 215.155 27.0219 215.155 23.41V7.04001C215.155 3.42807 212.227 0.5 208.615 0.5Z" fill="#0C8CE0"/>
<path d="M203.385 44.5599H181.465L185.115 29.95H199.725L203.385 44.5599Z" fill="#D5D5D3"/>
<path d="M177.815 40.63H207.035V47.94H177.815V40.63Z" fill="#DFDFDD"/>
<path d="M201.555 37.2499H183.295L185.125 29.9399H199.735L201.565 37.2499H201.555Z" fill="#CECECC"/>
<path d="M36.835 85.5701H7.38489C3.77295 85.5701 0.844971 88.4981 0.844971 92.1101V106.84C0.844971 110.452 3.77295 113.38 7.38489 113.38H36.835C40.4469 113.38 43.3749 110.452 43.3749 106.84V92.1101C43.3749 88.4981 40.4469 85.5701 36.835 85.5701Z" fill="#0C8CE0"/>
<path d="M33.725 127.84H11.8049L15.455 113.23H30.0649L33.725 127.84Z" fill="#D5D5D3"/>
<path d="M8.15491 124.53H37.3749V131.84H8.15491V124.53Z" fill="#DFDFDD"/>
<path d="M31.8949 120.54H13.6349L15.465 113.23H30.075L31.9049 120.54H31.8949Z" fill="#CECECC"/>
<path d="M208.615 85.5701H175.885C172.273 85.5701 169.345 88.4981 169.345 92.1101V106.84C169.345 110.452 172.273 113.38 175.885 113.38H208.615C212.227 113.38 215.155 110.452 215.155 106.84V92.1101C215.155 88.4981 212.227 85.5701 208.615 85.5701Z" fill="#0C8CE0"/>
<path d="M203.385 127.84H181.465L185.115 113.23H199.725L203.385 127.84Z" fill="#D5D5D3"/>
<path d="M177.815 124.53H207.035V131.84H177.815V124.53Z" fill="#DFDFDD"/>
<path d="M201.555 120.54H183.295L185.125 113.23H199.735L201.565 120.54H201.555Z" fill="#CECECC"/>
<path d="M36.835 167.37H7.38489C3.77295 167.37 0.844971 170.298 0.844971 173.91V188.64C0.844971 192.252 3.77295 195.18 7.38489 195.18H36.835C40.4469 195.18 43.3749 192.252 43.3749 188.64V173.91C43.3749 170.298 40.4469 167.37 36.835 167.37Z" fill="#0C8CE0"/>
<path d="M33.725 209.79H11.8049L15.455 195.18H30.0649L33.725 209.79Z" fill="#D5D5D3"/>
<path d="M8.15491 205.87H37.3749V213.18H8.15491V205.87Z" fill="#DFDFDD"/>
<path d="M31.8949 202.48H13.6349L15.465 195.17H30.075L31.9049 202.48H31.8949Z" fill="#CECECC"/>
<path d="M208.615 167.37H175.885C172.273 167.37 169.345 170.298 169.345 173.91V188.64C169.345 192.252 172.273 195.18 175.885 195.18H208.615C212.227 195.18 215.155 192.252 215.155 188.64V173.91C215.155 170.298 212.227 167.37 208.615 167.37Z" fill="#0C8CE0"/>
<path d="M203.385 209.79H181.465L185.115 195.18H199.725L203.385 209.79Z" fill="#D5D5D3"/>
<path d="M177.815 205.87H207.035V213.18H177.815V205.87Z" fill="#DFDFDD"/>
<path d="M201.555 202.48H183.295L185.125 195.17H199.735L201.565 202.48H201.555Z" fill="#CECECC"/>
</svg>
