<svg xmlns="http://www.w3.org/2000/svg" width="25" height="23.249" viewBox="0 0 25 23.249">
  <g id="metamask-icon" transform="translate(-31.3 -35)">
    <path id="Path_5615" data-name="Path 5615" d="M183.965,35.5,174.6,42.455l1.732-4.1Z" transform="translate(-129.36)" fill="#e2761b" stroke="#e2761b" stroke-linecap="round" stroke-linejoin="round" stroke-width="1"/>
    <g id="Group_4692" data-name="Group 4692" transform="translate(31.998 35.5)">
      <path id="Path_5616" data-name="Path 5616" d="M44.4,35.5l9.289,7.021-1.647-4.169Z" transform="translate(-43.412 -35.5)" fill="#e4761b" stroke="#e4761b" stroke-linecap="round" stroke-linejoin="round" stroke-width="1"/>
      <path id="Path_5617" data-name="Path 5617" d="M214.294,206.8l-2.494,3.821,5.336,1.468,1.534-5.2Z" transform="translate(-195.056 -190.678)" fill="#e4761b" stroke="#e4761b" stroke-linecap="round" stroke-linejoin="round" stroke-width="1"/>
      <path id="Path_5618" data-name="Path 5618" d="M33.9,206.885l1.525,5.2,5.336-1.468L38.267,206.8Z" transform="translate(-33.9 -190.678)" fill="#e4761b" stroke="#e4761b" stroke-linecap="round" stroke-linejoin="round" stroke-width="1"/>
      <path id="Path_5619" data-name="Path 5619" d="M89.287,107.309,87.8,109.559l5.3.235-.188-5.694Z" transform="translate(-82.727 -97.644)" fill="#e4761b" stroke="#e4761b" stroke-linecap="round" stroke-linejoin="round" stroke-width="1"/>
      <path id="Path_5620" data-name="Path 5620" d="M178.393,106.675l-3.671-3.275-.122,5.76,5.289-.235Z" transform="translate(-161.358 -97.009)" fill="#e4761b" stroke="#e4761b" stroke-linecap="round" stroke-linejoin="round" stroke-width="1"/>
      <path id="Path_5621" data-name="Path 5621" d="M106.8,211.8l3.181-1.553-2.748-2.146Z" transform="translate(-99.939 -191.855)" fill="#e4761b" stroke="#e4761b" stroke-linecap="round" stroke-linejoin="round" stroke-width="1"/>
      <path id="Path_5622" data-name="Path 5622" d="M177.9,210.246l3.191,1.553-.442-3.7Z" transform="translate(-164.347 -191.855)" fill="#e4761b" stroke="#e4761b" stroke-linecap="round" stroke-linejoin="round" stroke-width="1"/>
    </g>
    <g id="Group_4693" data-name="Group 4693" transform="translate(38.859 53.891)">
      <path id="Path_5623" data-name="Path 5623" d="M181.091,232.453,177.9,230.9l.254,2.08-.028.875Z" transform="translate(-171.208 -230.9)" fill="#d7c1b3" stroke="#d7c1b3" stroke-linecap="round" stroke-linejoin="round" stroke-width="1"/>
      <path id="Path_5624" data-name="Path 5624" d="M106.8,232.453l2.965,1.4-.019-.875.235-2.08Z" transform="translate(-106.8 -230.9)" fill="#d7c1b3" stroke="#d7c1b3" stroke-linecap="round" stroke-linejoin="round" stroke-width="1"/>
    </g>
    <path id="Path_5625" data-name="Path 5625" d="M113.254,177.738l-2.654-.781,1.873-.856Z" transform="translate(-71.384 -127.367)" fill="#233447" stroke="#233447" stroke-linecap="round" stroke-linejoin="round" stroke-width="1"/>
    <path id="Path_5626" data-name="Path 5626" d="M179.7,177.738l.781-1.638,1.882.856Z" transform="translate(-133.98 -127.367)" fill="#233447" stroke="#233447" stroke-linecap="round" stroke-linejoin="round" stroke-width="1"/>
    <g id="Group_4694" data-name="Group 4694" transform="translate(36.365 47.415)">
      <path id="Path_5627" data-name="Path 5627" d="M82.794,210.621l.452-3.821-2.946.085Z" transform="translate(-80.3 -202.593)" fill="#cd6116" stroke="#cd6116" stroke-linecap="round" stroke-linejoin="round" stroke-width="1"/>
      <path id="Path_5628" data-name="Path 5628" d="M207,206.8l.452,3.821,2.494-3.736Z" transform="translate(-195.075 -202.593)" fill="#cd6116" stroke="#cd6116" stroke-linecap="round" stroke-linejoin="round" stroke-width="1"/>
      <path id="Path_5629" data-name="Path 5629" d="M179.889,162.1l-5.289.235.489,2.72.781-1.638,1.882.856Z" transform="translate(-165.725 -162.1)" fill="#cd6116" stroke="#cd6116" stroke-linecap="round" stroke-linejoin="round" stroke-width="1"/>
      <path id="Path_5630" data-name="Path 5630" d="M89.946,164.274l1.882-.856.772,1.638.5-2.72-5.3-.235Z" transform="translate(-87.094 -162.1)" fill="#cd6116" stroke="#cd6116" stroke-linecap="round" stroke-linejoin="round" stroke-width="1"/>
    </g>
    <g id="Group_4695" data-name="Group 4695" transform="translate(37.071 47.415)">
      <path id="Path_5631" data-name="Path 5631" d="M87.8,162.1l2.221,4.329-.075-2.155Z" transform="translate(-87.8 -162.1)" fill="#e4751f" stroke="#e4751f" stroke-linecap="round" stroke-linejoin="round" stroke-width="1"/>
      <path id="Path_5632" data-name="Path 5632" d="M207.194,164.274l-.094,2.155,2.231-4.329Z" transform="translate(-195.872 -162.1)" fill="#e4751f" stroke="#e4751f" stroke-linecap="round" stroke-linejoin="round" stroke-width="1"/>
      <path id="Path_5633" data-name="Path 5633" d="M139.3,164.6l-.5,2.72.621,3.209.141-4.226Z" transform="translate(-134 -164.365)" fill="#e4751f" stroke="#e4751f" stroke-linecap="round" stroke-linejoin="round" stroke-width="1"/>
      <path id="Path_5634" data-name="Path 5634" d="M172.154,164.6l-.254,1.694.113,4.235.631-3.209Z" transform="translate(-163.985 -164.365)" fill="#e4751f" stroke="#e4751f" stroke-linecap="round" stroke-linejoin="round" stroke-width="1"/>
    </g>
    <path id="Path_5635" data-name="Path 5635" d="M173.731,185.981l-.631,3.209.452.311,2.748-2.146.094-2.155Z" transform="translate(-128.001 -135.611)" fill="#f6851b" stroke="#f6851b" stroke-linecap="round" stroke-linejoin="round" stroke-width="1"/>
    <path id="Path_5636" data-name="Path 5636" d="M110.6,185.2l.075,2.155,2.748,2.146.452-.311-.621-3.209Z" transform="translate(-71.384 -135.611)" fill="#f6851b" stroke="#f6851b" stroke-linecap="round" stroke-linejoin="round" stroke-width="1"/>
    <path id="Path_5637" data-name="Path 5637" d="M113.718,248.8l.028-.875-.235-.207h-3.548l-.216.207.019.875-2.965-1.4,1.035.847,2.1,1.459h3.6l2.108-1.459,1.035-.847Z" transform="translate(-67.941 -191.956)" fill="#c0ad9e" stroke="#c0ad9e" stroke-linecap="round" stroke-linejoin="round" stroke-width="1"/>
    <path id="Path_5638" data-name="Path 5638" d="M141.846,227.911l-.452-.311h-2.607l-.452.311-.235,2.08.216-.207h3.548l.235.207Z" transform="translate(-96.295 -174.02)" fill="#161616" stroke="#161616" stroke-linecap="round" stroke-linejoin="round" stroke-width="1"/>
    <g id="Group_4696" data-name="Group 4696" transform="translate(31.8 35.5)">
      <path id="Path_5639" data-name="Path 5639" d="M187.349,42.907l.8-3.84-1.2-3.567L177.9,42.22l3.482,2.946,4.922,1.44,1.092-1.271L186.926,45l.753-.687-.584-.452.753-.574Z" transform="translate(-164.149 -35.5)" fill="#763d16" stroke="#763d16" stroke-linecap="round" stroke-linejoin="round" stroke-width="1"/>
      <path id="Path_5640" data-name="Path 5640" d="M31.8,39.067l.8,3.84-.508.376.753.574-.574.452.753.687-.471.339,1.082,1.271,4.922-1.44L42.04,42.22,32.986,35.5Z" transform="translate(-31.8 -35.5)" fill="#763d16" stroke="#763d16" stroke-linecap="round" stroke-linejoin="round" stroke-width="1"/>
    </g>
    <path id="Path_5641" data-name="Path 5641" d="M212.756,139.64l-4.922-1.44,1.5,2.249-2.231,4.329,2.936-.038h4.376Z" transform="translate(-158.801 -93.034)" fill="#f6851b" stroke="#f6851b" stroke-linecap="round" stroke-linejoin="round" stroke-width="1"/>
    <path id="Path_5642" data-name="Path 5642" d="M40.46,138.2l-4.922,1.44-1.638,5.1h4.367l2.927.038-2.221-4.329Z" transform="translate(-1.902 -93.034)" fill="#f6851b" stroke="#f6851b" stroke-linecap="round" stroke-linejoin="round" stroke-width="1"/>
    <path id="Path_5643" data-name="Path 5643" d="M130.212,75.1l.311-5.431,1.431-3.868H125.6l1.412,3.868.329,5.431.113,1.713.009,4.216h2.607l.019-4.216Z" transform="translate(-84.972 -27.448)" fill="#f6851b" stroke="#f6851b" stroke-linecap="round" stroke-linejoin="round" stroke-width="1"/>
  </g>
</svg>
