<svg xmlns="http://www.w3.org/2000/svg" xmlns:xlink="http://www.w3.org/1999/xlink" width="20.863" height="44" viewBox="0 0 20.863 44"><defs><style>.defguad-nav-logo-collapsed-a{fill:none;}.defguad-nav-logo-collapsed-b{fill:url(#defguad-nav-logo-collapsed-a);}</style><linearGradient id="defguad-nav-logo-collapsed-a" x1="0.5" x2="0.5" y2="1" gradientUnits="objectBoundingBox"><stop offset="0" stop-color="#2accff"/><stop offset="1" stop-color="#0071d4"/></linearGradient></defs><g transform="translate(-1640 2073.751)"><g transform="translate(1640 -2073.751)"><path class="defguad-nav-logo-collapsed-a" d="M1710.288-1889.281l-3.477-2.007-3.477,2.007,3.477,2.008Z" transform="translate(-1696.379 1911.257)"/><path class="defguad-nav-logo-collapsed-b" d="M1660.863-2055.789v-15.961l-3.477-2v7.965l-6.954-4-10.431,6v24.018l10.431,6,6.954-4v4.015l-3.473,2,3.477,2,3.473-2v-20.032l-10.431-6-6.954,4v-8.01l6.954-4,6.954,4v4Zm-10.431,2.012,3.477,2-3.477,2-3.477-2Zm0,8,6.954-4v8.006l-6.954,4-6.954-4v-8.006Z" transform="translate(-1640 2073.751)"/></g></g></svg>