<svg width="83" height="25" viewBox="0 0 83 25" fill="none" xmlns="http://www.w3.org/2000/svg">
<path d="M7.89655 6.37253C7.09387 5.7928 6.20175 5.56985 5.30972 5.56985C2.63394 5.56985 0.404053 7.75504 0.404053 10.4309V15.0692C0.404053 17.968 2.50009 19.9303 5.39896 19.9303C8.07498 19.9303 10.394 17.745 10.394 15.0692V0.976318H7.89655V6.37253ZM7.89655 15.0692C7.89655 16.4963 6.87082 17.6113 5.39896 17.6113C3.97183 17.6113 2.90149 16.4963 2.90149 15.0692L2.94611 10.4309C2.94611 8.9592 3.97183 7.88885 5.39896 7.88885C6.87082 7.88885 7.89655 8.9592 7.89655 10.4309V15.0692Z" fill="#222222"/>
<path d="M17.6629 5.56982C14.9871 5.56982 12.668 7.755 12.668 10.4309V15.0692C12.668 17.968 14.764 19.9303 17.6629 19.9303C20.3388 19.9303 22.6579 17.745 22.6579 15.0692H20.1603C20.1603 16.4963 19.1346 17.6113 17.6629 17.6113C16.2357 17.6113 15.1655 16.4963 15.1655 15.0692V13.9096H22.6579V10.4309C22.6579 7.53204 20.5618 5.56982 17.6629 5.56982ZM20.1603 11.5905H15.2101V10.4309C15.2101 8.95917 16.2357 7.88885 17.6629 7.88885C19.1346 7.88885 20.1603 8.95917 20.1603 10.4309V11.5905Z" fill="#222222"/>
<path d="M25.5567 4.41022V5.79272H24.3079V8.11186H25.5567V19.7073H28.0541V8.11186H29.3028V5.79272H28.0541V4.41022C28.0541 3.69667 28.5447 3.25066 29.2137 3.25066H29.4366V0.931641H29.0353C27.0284 0.931641 25.5567 2.35878 25.5567 4.41022Z" fill="#222222"/>
<path d="M35.9476 5.56982C33.2717 5.56982 30.9526 7.755 30.9526 10.4309V15.0692C30.9526 17.968 32.9596 19.9303 35.7247 19.9303C36.8843 19.9303 37.9992 19.529 38.4897 18.9045V19.7073C38.4897 21.2237 37.5086 22.3832 35.9922 22.3832C35.9764 22.3832 35.9614 22.3814 35.9457 22.3812V24.5676C35.9612 24.5676 35.9766 24.5684 35.9922 24.5684C38.6235 24.5684 40.9426 22.6062 40.9426 19.7073V10.4309C40.9426 7.53204 38.8464 5.56982 35.9476 5.56982ZM38.4451 15.0692C38.4451 16.4963 37.4194 17.6113 35.9476 17.6113C34.5205 17.6113 33.4501 16.4963 33.4501 15.0692V10.4309C33.4501 8.95917 34.5205 7.88885 35.9476 7.88885C37.4194 7.88885 38.4451 8.95917 38.4451 10.4309V15.0692Z" fill="#222222"/>
<path d="M50.4417 15.0691C50.4417 16.4962 49.416 17.6112 47.9442 17.6112C46.517 17.6112 45.4467 16.4962 45.4467 15.0691V5.79272H42.9492V15.0691C42.9492 17.968 45.0008 19.9302 47.8995 19.9302C50.4417 19.9302 52.9391 17.968 52.9391 15.0691V5.79272H50.4417V15.0691Z" fill="#222222"/>
<path d="M60.03 5.56982C57.4433 5.56982 55.035 7.44284 55.035 10.3417H57.3987C57.3987 8.82547 58.4245 7.755 59.9407 7.755C61.4571 7.755 62.4828 8.91458 62.4828 10.4309V11.2783H62.4382C61.7247 10.6985 60.8774 10.3863 59.8516 10.3863C57.1757 10.3863 54.9458 12.4825 54.9458 15.1584C54.9458 18.0573 56.9528 19.9303 59.7178 19.9303C60.8774 19.9303 61.9477 19.529 62.4828 18.9045V19.7073H64.9359V10.4309C64.9359 7.53204 62.9288 5.56982 60.03 5.56982ZM59.9407 17.7005C58.5136 17.7005 57.4433 16.5855 57.4433 15.1584C57.4433 13.6867 58.5136 12.6163 59.9407 12.6163C61.4125 12.6163 62.4382 13.6867 62.4382 15.1584C62.4382 16.5855 61.4125 17.7005 59.9407 17.7005Z" fill="#222222"/>
<path d="M66.8535 9.2713V19.7072H69.351V9.2713C69.351 8.55771 69.8415 8.11185 70.5104 8.11185H71.2239V5.79272H70.3321C68.3253 5.79272 66.8535 7.21985 66.8535 9.2713Z" fill="#222222"/>
<path d="M80.0984 0.976318V6.37253C79.2957 5.7928 78.4038 5.56985 77.5119 5.56985C74.8359 5.56985 72.606 7.75504 72.606 10.4309V15.0692C72.606 17.968 74.702 19.9303 77.601 19.9303C80.2769 19.9303 82.5959 17.745 82.5959 15.0692V0.976318H80.0984ZM80.0984 15.0692C80.0984 16.4963 79.0728 17.6113 77.601 17.6113C76.1737 17.6113 75.1034 16.4963 75.1034 15.0692L75.148 10.4309C75.148 8.9592 76.1737 7.88885 77.601 7.88885C79.0728 7.88885 80.0984 8.9592 80.0984 10.4309V15.0692Z" fill="#222222"/>
</svg>
