<svg xmlns="http://www.w3.org/2000/svg" width="251.997" height="101" viewBox="0 0 251.997 101"><defs><style>.defguard-logo-login-a{fill:#fff;}</style></defs><g transform="translate(-1640 2073.751)"><g transform="translate(1640 -2073.751)"><path class="defguard-logo-login-a" d="M1687.794-2032.519v-36.639l-7.966-4.593v18.282l-15.931-9.19-23.9,13.783v55.133l23.9,13.783,15.931-9.189v9.217l-7.956,4.588,7.966,4.594,7.956-4.587v-45.984l-23.9-13.768-15.932,9.188v-18.388l15.932-9.188,15.931,9.188v9.177Zm-23.9,4.62,7.966,4.593-7.966,4.594-7.966-4.594Zm0,18.373,15.931-9.187v18.377l-15.931,9.188-15.932-9.188v-18.377Z" transform="translate(-1640 2073.75)"/></g><g transform="translate(1703.702 -2048.078)"><path class="defguard-logo-login-a" d="M428.411,244.914a9.9,9.9,0,0,0-5.926-1.839,11.25,11.25,0,0,0-11.239,11.136v10.626c0,6.641,4.8,11.136,11.443,11.136a11.429,11.429,0,0,0,11.443-11.136V232.552h-5.721Zm0,19.923a5.611,5.611,0,0,1-5.722,5.824,5.672,5.672,0,0,1-5.721-5.824l.1-10.626a5.673,5.673,0,1,1,11.341,0Z" transform="translate(-411.246 -232.45)"/><path class="defguard-logo-login-a" d="M525.777,271.164A11.429,11.429,0,0,0,514.334,282.3v10.626c0,6.641,4.8,11.136,11.443,11.136a11.429,11.429,0,0,0,11.443-11.136H531.5a5.611,5.611,0,0,1-5.721,5.824,5.672,5.672,0,0,1-5.721-5.824V290.27H537.22V282.3C537.22,275.659,532.418,271.164,525.777,271.164Zm5.721,13.793H520.158V282.3a5.672,5.672,0,1,1,11.341,0Z" transform="translate(-486.238 -260.538)"/><path class="defguard-logo-login-a" d="M615.036,240.146v3.167h-2.861v5.313h2.861V275.19h5.721V248.626h2.86v-5.313h-2.86v-3.167a2.52,2.52,0,0,1,2.656-2.656h.511v-5.313h-.919A7.673,7.673,0,0,0,615.036,240.146Z" transform="translate(-557.413 -232.177)"/><path class="defguard-logo-login-a" d="M679.473,271.164A11.429,11.429,0,0,0,668.03,282.3v10.626c0,6.641,4.6,11.136,10.932,11.136,2.656,0,5.211-.919,6.334-2.35v1.839c0,3.474-2.248,6.13-5.721,6.13-.036,0-.071,0-.107,0v5.009l.107,0a11.075,11.075,0,0,0,11.341-11.136V282.3C690.916,275.659,686.114,271.164,679.473,271.164Zm5.722,21.762a5.611,5.611,0,0,1-5.722,5.824,5.672,5.672,0,0,1-5.722-5.824V282.3a5.612,5.612,0,0,1,5.722-5.824,5.554,5.554,0,0,1,5.722,5.824Z" transform="translate(-598.045 -260.538)"/><path class="defguard-logo-login-a" d="M786.034,294.289a5.611,5.611,0,0,1-5.722,5.824,5.672,5.672,0,0,1-5.722-5.824V273.038H768.87v21.251c0,6.641,4.7,11.136,11.341,11.136,5.824,0,11.545-4.5,11.545-11.136V273.038h-5.721Z" transform="translate(-671.402 -261.902)"/><path class="defguard-logo-login-a" d="M881.357,271.164c-5.926,0-11.443,4.291-11.443,10.932h5.415a5.605,5.605,0,0,1,5.824-5.926c3.474,0,5.824,2.656,5.824,6.13v1.941h-.1a9.068,9.068,0,0,0-5.926-2.043,11.078,11.078,0,0,0-11.239,10.932c0,6.641,4.6,10.932,10.932,10.932,2.656,0,5.108-.919,6.334-2.35v1.839h5.62V282.3C892.6,275.659,888,271.164,881.357,271.164Zm-.2,27.79a5.672,5.672,0,0,1-5.721-5.824,5.612,5.612,0,0,1,5.721-5.824,5.554,5.554,0,0,1,5.722,5.824A5.611,5.611,0,0,1,881.153,298.954Z" transform="translate(-744.759 -260.538)"/><path class="defguard-logo-login-a" d="M969.8,281.007v23.908h5.721V281.007a2.52,2.52,0,0,1,2.656-2.656h1.635v-5.313h-2.043A7.673,7.673,0,0,0,969.8,281.007Z" transform="translate(-817.572 -261.902)"/><path class="defguard-logo-login-a" d="M1035.321,232.552v12.362a9.9,9.9,0,0,0-5.925-1.839,11.251,11.251,0,0,0-11.239,11.136v10.626c0,6.641,4.8,11.136,11.443,11.136a11.429,11.429,0,0,0,11.443-11.136V232.552Zm0,32.286a5.611,5.611,0,0,1-5.721,5.824,5.672,5.672,0,0,1-5.722-5.824l.1-10.626a5.672,5.672,0,1,1,11.341,0Z" transform="translate(-852.748 -232.45)"/></g></g></svg>