<svg xmlns="http://www.w3.org/2000/svg" width="24" height="24" viewBox="0 0 24 24"><defs><style>.a,.b{fill:#899ca8;}.a{opacity:0;}</style></defs><g transform="translate(-367 -552)"><rect class="a" width="24" height="24" transform="translate(367 552)"/><g transform="translate(367 552)"><path class="b" d="M66.328,12.655A6.328,6.328,0,1,0,60,6.328,6.335,6.335,0,0,0,66.328,12.655Zm0-10.781a4.453,4.453,0,1,1-4.453,4.453A4.458,4.458,0,0,1,66.328,1.875Z" transform="translate(-57.188)"/><path class="b" d="M8.671,310A8.662,8.662,0,0,0,0,318.531a.937.937,0,0,0,1.875,0,6.785,6.785,0,0,1,6.8-6.656.937.937,0,1,0,0-1.875Z" transform="translate(0 -295.47)"/><path class="b" d="M359.53,316.922h-.656v-.984a.937.937,0,1,0-1.875,0v1.922a.937.937,0,0,0,.937.937h1.593a.937.937,0,0,0,0-1.875Z" transform="translate(-340.267 -300.235)"/><path class="b" d="M248.328,241a6.328,6.328,0,1,0,6.328,6.328A6.335,6.335,0,0,0,248.328,241Zm0,10.781a4.453,4.453,0,1,1,4.453-4.453A4.458,4.458,0,0,1,248.328,251.781Z" transform="translate(-230.657 -229.704)"/></g></g></svg>