<svg xmlns="http://www.w3.org/2000/svg" xmlns:xlink="http://www.w3.org/1999/xlink" width="22" height="22" viewBox="0 0 22 22"><defs><style>.a,.b{fill:#0c8ce0;}.b{opacity:0;}.c{clip-path:url(#a);}.d{clip-path:url(#b);}</style><clipPath id="a"><rect class="a" width="22" height="22"/></clipPath><clipPath id="b"><rect class="b" width="22" height="22"/></clipPath></defs><g class="c" transform="translate(22) rotate(90)"><path class="a" d="M0,0" transform="translate(11 12)"/><g transform="translate(-227 334) rotate(-90)"><rect class="a" width="10" height="2" rx="1" transform="translate(320 233)"/><rect class="a" width="6" height="2" rx="1" transform="translate(320 237)"/><rect class="a" width="2" height="2" rx="1" transform="translate(316 237)"/><rect class="a" width="2" height="2" rx="1" transform="translate(316 241)"/><rect class="a" width="2" height="2" rx="1" transform="translate(316 233)"/><rect class="a" width="6" height="2" rx="1" transform="translate(320 241)"/></g><g class="d" transform="translate(26 4) rotate(180)"><path class="a" d="M0,0" transform="translate(11 12)"/><rect class="a" width="8" height="2" rx="1" transform="translate(9.342 9.585) rotate(45)"/><rect class="a" width="8" height="2" rx="1" transform="translate(15 6.414) rotate(135)"/></g></g></svg>