<svg width="22" height="23" viewBox="0 0 22 23" fill="none" xmlns="http://www.w3.org/2000/svg">
<g id="icon-arrow-single">
<mask id="mask0_2349_6724" style="mask-type:luminance" maskUnits="userSpaceOnUse" x="0" y="0" width="22" height="23">
<g id="clip-path-5">
<path id="Rectangle 1568" d="M22 0.5H0V22.5H22V0.5Z" fill="white"/>
</g>
</mask>
<g mask="url(#mask0_2349_6724)">
<g id="icon-arrow-gray-left">
<path id="Rectangle 2773" d="M11.8777 6.55025L7.63509 10.7929C7.24456 11.1834 7.24456 11.8166 7.63509 12.2071C8.02561 12.5976 8.65877 12.5976 9.0493 12.2071L13.2919 7.96447C13.6825 7.57394 13.6825 6.94078 13.2919 6.55025C12.9014 6.15973 12.2683 6.15973 11.8777 6.55025Z" fill="#899CA8"/>
<path id="Rectangle 2774" d="M7.63625 12.5503L11.8789 16.7929C12.2694 17.1834 12.9026 17.1834 13.2931 16.7929C13.6836 16.4024 13.6836 15.7692 13.2931 15.3787L9.05046 11.136C8.65994 10.7455 8.02678 10.7455 7.63625 11.136C7.24573 11.5266 7.24573 12.1597 7.63625 12.5503Z" fill="#899CA8"/>
</g>
</g>
</g>
</svg>
