<svg width="23" height="22" viewBox="0 0 23 22" fill="none" xmlns="http://www.w3.org/2000/svg">
<path d="M4.5 13L4.5 17C4.5 17.5523 4.94772 18 5.5 18L9.5 18C10.0523 18 10.5 17.5523 10.5 17C10.5 16.4477 10.0523 16 9.5 16L7.91345 16L8.93916 14.9742C9.32968 14.5837 9.32968 13.9505 8.93916 13.56C8.54863 13.1695 7.91547 13.1695 7.52494 13.56L6.5 14.585L6.5 13C6.5 12.4477 6.05229 12 5.5 12C4.94772 12 4.5 12.4477 4.5 13Z" fill="#0C8CE0"/>
<path fill-rule="evenodd" clip-rule="evenodd" d="M16.4999 6H11.2656V11.2343H16.4999V6ZM11.2656 4C10.1611 4 9.26562 4.89543 9.26562 6V11.2343C9.26562 12.3388 10.1611 13.2343 11.2656 13.2343H16.4999C17.6044 13.2343 18.4999 12.3388 18.4999 11.2343V6C18.4999 4.89543 17.6044 4 16.4999 4H11.2656Z" fill="#0C8CE0"/>
</svg>
