<svg xmlns="http://www.w3.org/2000/svg" xmlns:xlink="http://www.w3.org/1999/xlink" width="22" height="22" viewBox="0 0 22 22"><defs><style>.a,.c{fill:#899ca8;}.a{opacity:0;}.b{clip-path:url(#a);}</style><clipPath id="a"><rect class="a" width="22" height="22" transform="translate(627 812)"/></clipPath></defs><g class="b" transform="translate(-627 -812)"><path class="c" d="M13.781,18H4.219A4.224,4.224,0,0,1,0,13.781V4.219A4.224,4.224,0,0,1,4.219,0h9.563A4.224,4.224,0,0,1,18,4.219v9.563A4.224,4.224,0,0,1,13.781,18ZM4.219,1.406A2.816,2.816,0,0,0,1.406,4.219v9.563a2.816,2.816,0,0,0,2.813,2.812h9.563a2.816,2.816,0,0,0,2.812-2.812V4.219a2.816,2.816,0,0,0-2.812-2.812Zm.6,10.969a.7.7,0,0,1-.69-.841l.4-1.992a5.069,5.069,0,0,1,1.391-2.6L9.295,3.564a2.566,2.566,0,1,1,3.629,3.629L9.545,10.573a5.069,5.069,0,0,1-2.6,1.391l-1.992.4a.7.7,0,0,1-.138.014Zm6.293-8.156a1.153,1.153,0,0,0-.82.34L6.91,7.937A3.666,3.666,0,0,0,5.9,9.818l-.191.958.958-.191a3.666,3.666,0,0,0,1.88-1.006L11.93,6.2a1.166,1.166,0,0,0,0-1.641h0a1.153,1.153,0,0,0-.82-.34Zm3.938,10.266a.7.7,0,0,0-.7-.7H3.656a.7.7,0,0,0,0,1.406H14.344A.7.7,0,0,0,15.047,14.484Z" transform="translate(629 814)"/></g></svg>