<svg id="icon-wallet" xmlns="http://www.w3.org/2000/svg" width="22" height="24" viewBox="0 0 22 24">
  <rect id="Rectangle_2891" data-name="Rectangle 2891" width="22" height="24" fill="#326d74" opacity="0"/>
  <path id="Union_82" data-name="Union 82" d="M3.066,19.745A3.066,3.066,0,0,1,0,16.683V7.563A3.07,3.07,0,0,1,3.066,4.5H4.51c0-.083-.008-.167-.008-.25a4.25,4.25,0,0,1,8.5,0c0,.083,0,.167-.01.25h3.691A3.07,3.07,0,0,1,19.75,7.563V9h1.375A.878.878,0,0,1,22,9.873v4.5a.878.878,0,0,1-.875.875H19.75v1.435a3.066,3.066,0,0,1-3.066,3.062ZM1.75,16.683A1.315,1.315,0,0,0,3.066,18H16.684A1.317,1.317,0,0,0,18,16.683V15.248H16.623a3.125,3.125,0,0,1,0-6.25H18V7.563a1.321,1.321,0,0,0-1.316-1.317H11.973q-.044,0-.088,0H3.066A1.318,1.318,0,0,0,1.75,7.563V9H5.012L6.438,7.572A.874.874,0,0,1,7.672,8.811L5.99,10.492a.865.865,0,0,1-.615.255H1.75v2.747H7.625a.878.878,0,0,1,.617.259l1.68,1.681a.872.872,0,0,1,0,1.235.848.848,0,0,1-.613.26.869.869,0,0,1-.621-.26L7.262,15.248H1.75Zm18.5-3.189V10.747H16.623a1.374,1.374,0,1,0,0,2.747h3.629Zm-9.018-9a2.142,2.142,0,0,0,.016-.25,2.5,2.5,0,0,0-5,0,2.142,2.142,0,0,0,.016.25Z" transform="translate(0 1)" fill="#899ca8"/>
</svg>
