<svg width="25" height="25" viewBox="0 0 25 25" fill="none" xmlns="http://www.w3.org/2000/svg">
  <path d="M22.216 20.4859L22.216 3.77494C22.216 3.27103 22.0158 2.78776 21.6595 2.43144C21.3032 2.07512 20.8199 1.87494 20.316 1.87494C20.0727 1.86699 19.842 1.76474 19.6726 1.58979C19.5033 1.41484 19.4086 1.18091 19.4086 0.937439C19.4086 0.693968 19.5033 0.460037 19.6726 0.285089C19.842 0.110142 20.0727 0.00788689 20.316 -6.10352e-05C21.3174 0.000997543 22.2775 0.399271 22.9856 1.10737C23.6937 1.81546 24.092 2.77554 24.093 3.77694L24.093 20.4859C24.092 21.4877 23.6934 22.4481 22.9849 23.1562C22.2764 23.8644 21.3158 24.2624 20.314 24.2629C20.0707 24.255 19.84 24.1527 19.6706 23.9778C19.5013 23.8028 19.4066 23.5689 19.4066 23.3254C19.4066 23.082 19.5013 22.848 19.6706 22.6731C19.84 22.4981 20.0707 22.3959 20.314 22.3879C20.5639 22.3882 20.8113 22.3392 21.0422 22.2437C21.2731 22.1482 21.4829 22.0081 21.6595 21.8314C21.8362 21.6548 21.9763 21.445 22.0718 21.2141C22.1673 20.9832 22.2163 20.7358 22.216 20.4859Z" fill="#899CA8"/>
  <path d="M15.9227 12.1798C16.0001 11.8534 15.9115 11.4955 15.6569 11.2409L12.1214 7.70537C11.7308 7.31484 11.0977 7.31484 10.7072 7.70537C10.3166 8.09589 10.3166 8.72906 10.7072 9.11958L12.5856 10.998H1C0.447715 10.998 0 11.4457 0 11.998C0 12.5503 0.447715 12.998 1 12.998H12.9499L10.7073 15.2406C10.3168 15.6312 10.3168 16.2643 10.7073 16.6549C11.0978 17.0454 11.731 17.0454 12.1215 16.6549L15.6571 13.1193C15.9119 12.8645 16.0004 12.5064 15.9227 12.1798Z" fill="#899CA8"/>
</svg>
