<svg xmlns="http://www.w3.org/2000/svg" xmlns:xlink="http://www.w3.org/1999/xlink" width="22" height="22" viewBox="0 0 22 22">
  <defs>
    <clipPath id="clip-path">
      <rect id="network_btn" data-name="network btn" width="22" height="22" transform="translate(627 812)" fill="#899ca8" opacity="0"/>
    </clipPath>
  </defs>
  <g id="icon-edit_network" transform="translate(-627 -812)" clip-path="url(#clip-path)">
    <path id="icon-edit" d="M13.781,18H4.219A4.224,4.224,0,0,1,0,13.781V4.219A4.224,4.224,0,0,1,4.219,0h9.563A4.224,4.224,0,0,1,18,4.219v9.563A4.224,4.224,0,0,1,13.781,18ZM4.219,1.406A2.816,2.816,0,0,0,1.406,4.219v9.563a2.816,2.816,0,0,0,2.813,2.812h9.563a2.816,2.816,0,0,0,2.812-2.812V4.219a2.816,2.816,0,0,0-2.812-2.812Z" transform="translate(629 814)" fill="#899ca8"/>
    <path id="Union_81" data-name="Union 81" d="M19445.969,14051.171a1.893,1.893,0,1,1,1.891,1.828A1.863,1.863,0,0,1,19445.969,14051.171Zm1.051,0a.841.841,0,1,0,.84-.812A.827.827,0,0,0,19447.02,14051.171Zm-4.613-1.513v-2.7h-.723a.508.508,0,1,1,0-1.016h.723v-2.627a2.086,2.086,0,0,1,2.117-2.045.508.508,0,1,1,0,1.016,1.05,1.05,0,0,0-1.066,1.029v2.627h1.016a.508.508,0,1,1,0,1.016h-1.016v2.7a1.051,1.051,0,0,0,1.066,1.031.508.508,0,1,1,0,1.016A2.086,2.086,0,0,1,19442.406,14049.658Zm3.563-3.209a1.893,1.893,0,1,1,1.891,1.828A1.863,1.863,0,0,1,19445.969,14046.449Zm1.051,0a.841.841,0,1,0,.84-.812A.829.829,0,0,0,19447.02,14046.449Zm-10.021,0a1.789,1.789,0,1,1,1.787,1.728A1.76,1.76,0,0,1,19437,14046.449Zm1.053,0a.737.737,0,1,0,.734-.711A.725.725,0,0,0,19438.051,14046.449Zm7.918-4.621a1.893,1.893,0,1,1,1.891,1.828A1.863,1.863,0,0,1,19445.969,14041.828Zm1.051,0a.841.841,0,1,0,.84-.812A.829.829,0,0,0,19447.02,14041.828Z" transform="translate(-18805.75 -13223.5)" fill="#899ca8"/>
  </g>
</svg>
