<svg width="22" height="22" viewBox="0 0 22 22" fill="none" xmlns="http://www.w3.org/2000/svg">
<g id="icon-arrow-double">
<g id="icon-arrow-double-gray-left">
<path id="Rectangle 2786" d="M11.7082 7.46517L15.9509 11.7078C16.3414 12.0983 16.9745 12.0983 17.3651 11.7078C17.7556 11.3173 17.7556 10.6841 17.3651 10.2936L13.1224 6.05096C12.7319 5.66043 12.0987 5.66043 11.7082 6.05096C11.3177 6.44148 11.3177 7.07465 11.7082 7.46517Z" fill="#899CA8"/>
<path id="Rectangle 2787" d="M5.70821 7.46517L9.95085 11.7078C10.3414 12.0983 10.9745 12.0983 11.3651 11.7078C11.7556 11.3173 11.7556 10.6841 11.3651 10.2936L7.12243 6.05096C6.7319 5.66043 6.09874 5.66043 5.70821 6.05096C5.31769 6.44148 5.31769 7.07465 5.70821 7.46517Z" fill="#899CA8"/>
<path id="Rectangle 2788" d="M15.9497 10.6362L11.7071 14.8788C11.3166 15.2694 11.3166 15.9025 11.7071 16.293C12.0976 16.6836 12.7308 16.6836 13.1213 16.293L17.364 12.0504C17.7545 11.6599 17.7545 11.0267 17.364 10.6362C16.9734 10.2457 16.3403 10.2457 15.9497 10.6362Z" fill="#899CA8"/>
<path id="Rectangle 2789" d="M9.94975 10.6362L5.70711 14.8788C5.31658 15.2694 5.31658 15.9025 5.70711 16.293C6.09763 16.6836 6.7308 16.6836 7.12132 16.293L11.364 12.0504C11.7545 11.6599 11.7545 11.0267 11.364 10.6362C10.9734 10.2457 10.3403 10.2457 9.94975 10.6362Z" fill="#899CA8"/>
</g>
</g>
</svg>
