<svg xmlns="http://www.w3.org/2000/svg" width="18" height="18" viewBox="0 0 18 18">
  <g id="icon-warning" transform="translate(-786 -145)">
    <circle id="Ellipse_315" data-name="Ellipse 315" cx="9" cy="9" r="9" transform="translate(786 145)" fill="#cb3f3f"/>
    <path id="Path_4740" data-name="Path 4740" d="M2.933-3.151H1.066l-.294-6.8H3.227ZM.7-1.032A1.135,1.135,0,0,1,.8-1.49a1.051,1.051,0,0,1,.263-.366,1.278,1.278,0,0,1,.4-.243,1.445,1.445,0,0,1,.52-.089A1.445,1.445,0,0,1,2.5-2.1a1.278,1.278,0,0,1,.4.243,1.051,1.051,0,0,1,.263.366,1.135,1.135,0,0,1,.092.458,1.135,1.135,0,0,1-.092.458,1.051,1.051,0,0,1-.263.366,1.278,1.278,0,0,1-.4.243,1.445,1.445,0,0,1-.52.089,1.445,1.445,0,0,1-.52-.089,1.278,1.278,0,0,1-.4-.243A1.051,1.051,0,0,1,.8-.574,1.135,1.135,0,0,1,.7-1.032Z" transform="translate(793 159)" fill="#fff"/>
  </g>
</svg>
