<svg width="24" height="24" viewBox="0 0 24 24" fill="none" xmlns="http://www.w3.org/2000/svg">
<path d="M7.0583 15.1422C6.97247 15.0583 6.98545 14.9592 7.09093 14.9084C7.26687 14.8356 7.43928 14.7629 7.61168 14.6902C7.78408 14.6175 7.95648 14.5447 8.13242 14.472C8.16053 14.4575 8.18866 14.443 8.20978 14.4357C8.5555 14.368 8.67264 14.105 8.78946 13.8137C8.86654 13.6225 8.95026 13.4289 9.03441 13.2344C9.10031 13.082 9.16648 12.929 9.22992 12.7761C9.31934 12.563 9.40702 12.3516 9.4947 12.1402C9.58241 11.9288 9.67012 11.7173 9.75957 11.5041C9.78421 11.4474 9.80899 11.3905 9.83383 11.3335C9.98942 10.9763 10.1473 10.6138 10.2894 10.2463L10.3243 10.2105C10.4213 10.0396 10.4777 10.0248 10.6206 10.1505C10.8606 10.3513 11.0826 10.5705 11.3047 10.7897C11.3602 10.8445 11.4157 10.8993 11.4715 10.9538C11.5288 11.0097 11.5436 11.0661 11.5163 11.1512C11.4402 11.3885 11.3368 11.617 11.2338 11.8444C11.1797 11.9638 11.1257 12.083 11.076 12.203C11.0106 12.3558 10.9416 12.5086 10.8727 12.6615C10.8038 12.8143 10.7349 12.9671 10.6695 13.1199C10.6469 13.169 10.6226 13.218 10.598 13.2674C10.5549 13.3541 10.5113 13.4418 10.4763 13.5324C10.4727 13.5398 10.4667 13.5477 10.4604 13.556C10.4427 13.5794 10.4227 13.6058 10.4491 13.6317C10.4674 13.6495 10.5008 13.6312 10.5276 13.6165C10.5322 13.614 10.5367 13.6115 10.5408 13.6094C10.7574 13.5273 10.9697 13.4173 11.178 13.3094C11.2473 13.2735 11.3162 13.2379 11.3847 13.2035C11.5596 13.119 11.7334 13.0313 11.9069 12.9438C12.1799 12.806 12.4524 12.6686 12.7276 12.5443C12.7452 12.5335 12.7646 12.528 12.7839 12.5225C12.8033 12.5169 12.8227 12.5114 12.8403 12.5006C12.9457 12.4498 13.0096 12.4703 13.0883 12.5472C13.2692 12.6959 13.4314 12.8638 13.5937 13.0316C13.6748 13.1155 13.7559 13.1994 13.8394 13.2809C13.8699 13.3108 13.8902 13.3407 13.9134 13.3751C13.9173 13.3809 13.9214 13.3869 13.9256 13.3931C13.9978 13.5195 13.9909 13.5408 13.8645 13.613C13.6344 13.7466 13.3824 13.8518 13.1319 13.9564C13.0307 13.9987 12.9297 14.0408 12.8305 14.0847C12.5531 14.2119 12.2644 14.3354 11.9782 14.4579C11.8724 14.5032 11.767 14.5483 11.6625 14.5934C11.2193 14.7895 10.7831 14.9784 10.3327 15.1676C9.91567 15.3369 9.51068 15.518 9.1057 15.6991C8.97076 15.7594 8.83582 15.8197 8.70044 15.8796C8.55969 15.9378 8.41195 16.0032 8.26421 16.0686C8.15158 16.1123 8.05259 16.1135 7.95245 16.0157L7.0583 15.1422Z" fill="#899CA8"/>
<path fill-rule="evenodd" clip-rule="evenodd" d="M20.6465 8.99239L20.3371 8.68304L23.5425 5.47803C23.9331 5.08753 23.9331 4.4544 23.5425 4.0639L19.9356 0.457426C19.545 0.0669258 18.9118 0.0669259 18.5213 0.457426L15.3159 3.66244L15.0095 3.35612C13.8379 2.18462 11.9382 2.18461 10.7666 3.35611L0.906934 13.2145C-0.264712 14.386 -0.264715 16.2854 0.906933 17.4569L6.54391 23.0932C7.71556 24.2647 9.61517 24.2647 10.7868 23.0932L20.6465 13.2348C21.8181 12.0633 21.8181 10.1639 20.6465 8.99239ZM18.9228 7.26892L16.7302 5.07657L19.2284 2.57861L21.4211 4.77097L18.9228 7.26892ZM7.95822 21.6791C8.34877 22.0696 8.98197 22.0696 9.37252 21.6791L19.2322 11.8206C19.6227 11.4301 19.6227 10.797 19.2322 10.4065L13.5952 4.77024C13.2046 4.37974 12.5714 4.37974 12.1809 4.77024L2.32124 14.6287C1.93069 15.0192 1.93069 15.6523 2.32123 16.0428L7.95822 21.6791Z" fill="#899CA8"/>
</svg>
