<svg width="24" height="24" viewBox="0 0 24 24" fill="none" xmlns="http://www.w3.org/2000/svg">
  <path d="M7.02101 22.8431C5.18077 22.3241 3.51258 21.3229 2.18901 19.9431C0.937309 18.6484 0.228504 16.9238 0.208008 15.1231C0.239704 13.9406 0.552889 12.7827 1.12158 11.7455C1.69028 10.7083 2.49809 9.82162 3.47801 9.15905C5.3883 7.78763 7.6517 6.99256 10 6.86805V2.00005C9.99585 1.87131 10.0176 1.74305 10.064 1.62288C10.1104 1.50272 10.1805 1.39311 10.2701 1.30058C10.3597 1.20804 10.467 1.13445 10.5856 1.0842C10.7042 1.03395 10.8317 1.00806 10.9605 1.00806C11.0893 1.00806 11.2168 1.03395 11.3354 1.0842C11.454 1.13445 11.5613 1.20804 11.6509 1.30058C11.7405 1.39311 11.8106 1.50272 11.857 1.62288C11.9034 1.74305 11.9252 1.87131 11.921 2.00005V6.86805C14.2692 6.99294 16.5325 7.78798 18.443 9.15905C19.5897 9.98182 20.5079 11.0831 21.111 12.3591L22.197 10.2841C22.2542 10.1706 22.3337 10.0699 22.4307 9.98794C22.5278 9.90598 22.6404 9.84448 22.7618 9.80713C22.8832 9.76977 23.0109 9.75733 23.1373 9.77055C23.2636 9.78376 23.386 9.82237 23.497 9.88405C23.7229 10.0183 23.8885 10.2343 23.9594 10.4873C24.0303 10.7403 24.0012 11.0109 23.878 11.2431L21.598 15.6001C21.5658 15.6616 21.5272 15.7195 21.483 15.7731C21.3947 15.8807 21.2838 15.9676 21.1582 16.0276C21.0326 16.0876 20.8952 16.1191 20.756 16.1201H20.7H20.672H20.65H20.633H20.612H20.602L20.56 16.1121C20.5309 16.1065 20.5022 16.0992 20.474 16.0901H20.463L20.446 16.0831C20.4239 16.0761 20.4021 16.0677 20.381 16.0581L15.972 14.2961C15.7304 14.1936 15.5378 14.0018 15.4344 13.7606C15.3309 13.5195 15.3247 13.2477 15.417 13.0021C15.4586 12.8812 15.5243 12.77 15.6099 12.6752C15.6956 12.5804 15.7996 12.5039 15.9156 12.4502C16.0316 12.3966 16.1573 12.367 16.285 12.3632C16.4128 12.3594 16.54 12.3814 16.659 12.4281L19.513 13.5701C19.072 12.4481 18.3125 11.4797 17.328 10.7841C15.7395 9.6547 13.8664 8.99302 11.921 8.87405V18.9461C11.9259 19.5707 11.788 20.1883 11.5178 20.7516C11.2476 21.3148 10.8523 21.8089 10.362 22.1961C9.71176 22.7103 8.90802 22.992 8.07901 22.9961C7.72063 22.9989 7.36389 22.9473 7.02101 22.8431ZM4.59501 10.7841C3.8696 11.2604 3.26756 11.9021 2.83835 12.6564C2.40915 13.4107 2.16501 14.2561 2.12601 15.1231C2.12601 17.6531 4.25401 19.9291 7.55401 20.9231C7.83525 21.0072 8.13272 21.0218 8.42084 20.9655C8.70896 20.9093 8.9791 20.7838 9.20801 20.6001C9.45661 20.4029 9.65698 20.1516 9.79387 19.8653C9.93076 19.5791 10.0006 19.2654 9.99801 18.9481V8.87405C8.05379 8.99275 6.18187 9.65449 4.59501 10.7841Z" fill="#899CA8"/>
</svg>
