<svg xmlns="http://www.w3.org/2000/svg" width="23.791" height="24" viewBox="0 0 23.791 24"><g transform="translate(-434.604 -611.5)"><rect width="23.791" height="24" transform="translate(434.604 611.5)" fill="#899ca8" opacity="0"/><path d="M12,23.5a1,1,0,0,1-.371-.072,16.21,16.21,0,0,1-5.637-4.378,21.3,21.3,0,0,1-3.789-6.5A29.385,29.385,0,0,1,.5,2.289a1,1,0,0,1,1.424-.906,9.58,9.58,0,0,0,3.639.633A14.1,14.1,0,0,0,11.575.6a1,1,0,0,1,.851,0,14.1,14.1,0,0,0,6.011,1.422,9.534,9.534,0,0,0,3.637-.632,1,1,0,0,1,1.427.9,29.385,29.385,0,0,1-1.7,10.261,21.3,21.3,0,0,1-3.789,6.5,16.21,16.21,0,0,1-5.637,4.378A1,1,0,0,1,12,23.5ZM2.528,3.668C2.762,9.325,4.446,14.141,7.434,17.66A15.46,15.46,0,0,0,12,21.395a15.46,15.46,0,0,0,4.566-3.734c2.988-3.519,4.672-8.335,4.906-13.992a13.014,13.014,0,0,1-3.035.349A15.92,15.92,0,0,1,12,2.6,15.92,15.92,0,0,1,5.563,4.017,13.014,13.014,0,0,1,2.528,3.668Z" transform="translate(434.5 611.5)" fill="#899ca8"/><path d="M23.3,10.612a4.058,4.058,0,0,1,2.518,7.223V21.67a2.518,2.518,0,1,1-5.036,0V17.835A4.059,4.059,0,0,1,23.3,10.612Zm0,11.587a.524.524,0,0,0,.518-.529V17.313a1,1,0,0,1,.5-.864,2.036,2.036,0,1,0-2.028,0,1,1,0,0,1,.5.864V21.67A.524.524,0,0,0,23.3,22.2Z" transform="translate(423.205 605.388)" fill="#899ca8"/></g></svg>