<svg width="22" height="22" viewBox="0 0 22 22" fill="none" xmlns="http://www.w3.org/2000/svg">
<path d="M5.00173 17.1448C5.16609 17.2386 5.3509 17.2778 5.53477 17.2738L5.54535 17.2628C5.92391 17.2545 6.2874 17.0518 6.47453 16.7014L9.61559 10.887C9.75076 10.6351 9.77684 10.3424 9.69499 10.0628C9.61338 9.7941 9.42432 9.56016 9.17249 9.42499C8.85505 9.25878 8.56889 9.03778 8.32528 8.78339C7.06254 7.44751 7.11386 5.3363 8.44975 4.07356C9.09653 3.46429 9.95542 3.15339 10.8322 3.16672C11.7201 3.19063 12.5506 3.56206 13.1596 4.19803C13.8241 4.89772 14.148 5.85371 14.05 6.81892C13.9981 7.4152 14.4314 7.93597 15.028 7.9987C15.6243 8.05062 16.145 7.61724 16.2078 7.02072C16.3569 5.42678 15.825 3.85853 14.7285 2.70297C13.7206 1.64286 12.355 1.04505 10.8824 1.00143C9.4208 0.968398 8.01503 1.50766 6.9655 2.50444C4.77123 4.59749 4.68499 8.08372 6.76721 10.2782C6.92217 10.4372 7.08795 10.5959 7.25326 10.7329L4.56945 15.6826C4.27793 16.2083 4.4762 16.8641 5.00173 17.1448Z" fill="#899CA8"/>
<path d="M16.6357 21.6738C15.446 21.6998 14.2694 21.3359 13.291 20.6323C12.8073 20.2857 12.6951 19.6064 13.0416 19.1228C13.3881 18.6391 14.0674 18.5269 14.5511 18.8734C15.3426 19.4405 16.3318 19.6461 17.2683 19.4201C18.1295 19.2173 18.8539 18.6929 19.3241 17.9252C19.7943 17.1575 19.948 16.2668 19.7455 15.4164C19.3277 13.6292 17.5287 12.5106 15.7418 12.9392C15.3973 13.0224 15.0649 13.1595 14.7658 13.3392C14.5201 13.4852 14.2182 13.5351 13.9462 13.4653C13.6633 13.3957 13.4213 13.217 13.2753 12.9714L9.84081 7.32201C9.52664 6.80946 9.69612 6.14568 10.1979 5.83174C10.7104 5.51757 11.3742 5.68705 11.6881 6.18878L14.6175 11.0051C14.8213 10.9249 15.0365 10.8661 15.2518 10.8181C18.2017 10.1262 21.1632 11.9552 21.8552 14.905C22.1892 16.3261 21.9509 17.803 21.1666 19.0537C20.3932 20.3041 19.1788 21.1855 17.7577 21.5195C17.3808 21.6035 17.0032 21.655 16.6355 21.663L16.6357 21.6738Z" fill="#899CA8"/>
<path d="M5.60966 21.698C5.00397 21.7112 4.39616 21.6271 3.80763 21.4343C2.41282 20.9886 1.28789 20.0177 0.609916 18.7015C-0.0572453 17.3851 -0.18692 15.9054 0.269583 14.5104C0.756174 13.0065 1.87622 11.7701 3.35582 11.1426C3.90247 10.9035 4.53569 11.1602 4.77509 11.7176C5.01426 12.2643 4.75755 12.8975 4.20009 13.1369C3.29935 13.5137 2.62318 14.2642 2.32911 15.1688C2.05526 16.008 2.12892 16.9045 2.54681 17.707C2.95364 18.4988 3.63744 19.0899 4.47663 19.3638C5.31582 19.6376 6.22317 19.5637 7.0148 19.1461C7.80668 18.7392 7.97877 17.3439 8.28562 16.4525C8.57216 15.6175 8.49643 14.7306 8.07337 13.9487C7.84031 13.548 8.06635 13.0664 8.46701 12.8334C8.86766 12.6004 9.34921 12.8264 9.58227 13.2271C10.2323 14.4285 10.1066 15.9233 9.2223 17.163C8.32075 18.4302 6.93741 19.1851 5.60966 19.2189V21.698Z" fill="#899CA8"/>
</svg>
