<svg width="372" height="369" viewBox="0 0 372 369" fill="none" xmlns="http://www.w3.org/2000/svg">
<g clip-path="url(#clip0_1425_2941)">
<path d="M96.9602 170.506H191.35V184.673H96.9602V170.506Z" fill="#CBD3D8"/>
<path d="M86.7793 94.8323L94.8895 85.1572L171.16 153.574L163.05 163.076L86.7793 94.8323Z" fill="#CBD3D8"/>
<path d="M198.252 170.506H277.456V184.673H198.252V170.506Z" fill="#CBD3D8"/>
<path d="M210.158 143.553L275.903 85.1572L284.186 94.6596L218.441 153.056L210.158 143.553Z" fill="#CBD3D8"/>
<path d="M94.5442 257.754L175.647 176.553L184.62 185.537L103.517 266.739L94.5442 257.754Z" fill="#CBD3D8"/>
<path d="M187.381 184.673L196.181 175.689L279.699 258.964L270.899 267.948L187.381 184.673Z" fill="#CBD3D8"/>
<path d="M347.342 37.9911V27.1065C347.342 18.2953 340.094 11.0389 331.294 11.0389C322.494 11.0389 315.246 18.2953 315.246 27.1065" stroke="#5CC1ED" stroke-width="10" stroke-miterlimit="10" stroke-linecap="round"/>
<path d="M347.342 180.699V169.815C347.342 161.003 340.094 153.747 331.294 153.747C322.494 153.747 315.246 161.003 315.246 169.815" stroke="#5CC1ED" stroke-width="10" stroke-miterlimit="10" stroke-linecap="round"/>
<path d="M347.342 323.407V312.522C347.342 303.711 340.094 296.455 331.294 296.455C322.494 296.455 315.246 303.711 315.246 312.522" stroke="#5CC1ED" stroke-width="10" stroke-miterlimit="10" stroke-linecap="round"/>
<path d="M54.3382 323.407V312.522C54.3382 303.711 47.0908 296.455 38.2903 296.455C29.4899 296.455 22.2424 303.711 22.2424 312.522" stroke="#5CC1ED" stroke-width="10" stroke-miterlimit="10" stroke-linecap="round"/>
<path d="M54.3382 182.254V171.369C54.3382 162.558 47.0908 155.302 38.2903 155.302C29.4899 155.302 22.2424 162.558 22.2424 171.369" stroke="#5CC1ED" stroke-width="10" stroke-miterlimit="10" stroke-linecap="round"/>
<path d="M54.3382 37.9911V27.1065C54.3382 18.2953 47.0908 11.0389 38.2903 11.0389C29.4899 11.0389 22.2424 18.2953 22.2424 27.1065" stroke="#5CC1ED" stroke-width="10" stroke-miterlimit="10" stroke-linecap="round"/>
<path d="M219.649 123.685C209.123 106.235 185.828 100.879 167.882 111.937C149.936 122.821 143.896 145.799 154.595 163.249C158.736 170.16 164.948 175.17 172.023 177.935L171.505 204.887L179.098 209.206L180.306 214.907L172.368 222.337L174.266 245.142L183.929 252.053L173.749 261.21L172.886 270.194L186.345 283.843L199.805 273.131L202.048 177.416C203.601 176.725 205.154 176.034 206.535 174.998C224.308 164.113 230.348 141.135 219.649 123.685ZM187.208 153.056C180.478 153.056 175.129 147.527 175.129 140.962C175.129 134.224 180.651 128.868 187.208 128.868C193.765 128.868 199.287 134.397 199.287 140.962C199.287 147.527 193.938 153.056 187.208 153.056Z" fill="#3BA5D3"/>
<path d="M349.758 226.31H311.968C309.034 226.31 306.791 223.892 306.791 221.127V183.291C306.791 180.354 309.207 178.108 311.968 178.108H349.758C352.691 178.108 354.934 180.526 354.934 183.291V221.127C354.934 223.892 352.519 226.31 349.758 226.31Z" fill="#0876BE"/>
<path d="M331.294 203.678C335.201 203.678 338.369 200.506 338.369 196.594C338.369 192.682 335.201 189.51 331.294 189.51C327.387 189.51 324.219 192.682 324.219 196.594C324.219 200.506 327.387 203.678 331.294 203.678Z" fill="#0876BE"/>
<path d="M331.294 213.18C329.223 213.18 327.498 211.452 327.498 209.379V201.086C327.498 199.013 329.223 197.285 331.294 197.285C333.365 197.285 335.09 199.013 335.09 201.086V209.379C334.918 211.452 333.365 213.18 331.294 213.18Z" fill="#0876BE"/>
<path d="M349.758 83.9479H311.968C309.034 83.9479 306.791 81.5292 306.791 78.7648V40.9282C306.791 37.9911 309.207 35.7451 311.968 35.7451H349.758C352.691 35.7451 354.934 38.1639 354.934 40.9282V78.7648C354.934 81.7019 352.519 83.9479 349.758 83.9479Z" fill="#0876BE"/>
<path d="M331.294 61.3151C335.201 61.3151 338.369 58.1437 338.369 54.2315C338.369 50.3194 335.201 47.1479 331.294 47.1479C327.387 47.1479 324.219 50.3194 324.219 54.2315C324.219 58.1437 327.387 61.3151 331.294 61.3151Z" fill="#0876BE"/>
<path d="M331.294 70.8173C329.223 70.8173 327.498 69.0896 327.498 67.0164V58.7234C327.498 56.6502 329.223 54.9225 331.294 54.9225C333.365 54.9225 335.09 56.6502 335.09 58.7234V67.0164C334.918 69.2624 333.365 70.8173 331.294 70.8173Z" fill="#0876BE"/>
<path d="M349.758 368.5H311.968C309.034 368.5 306.791 366.081 306.791 363.317V325.48C306.791 322.543 309.207 320.297 311.968 320.297H349.758C352.691 320.297 354.934 322.716 354.934 325.48V363.317C354.934 366.254 352.519 368.5 349.758 368.5Z" fill="#0876BE"/>
<path d="M331.294 345.867C335.201 345.867 338.369 342.696 338.369 338.784C338.369 334.871 335.201 331.7 331.294 331.7C327.387 331.7 324.219 334.871 324.219 338.784C324.219 342.696 327.387 345.867 331.294 345.867Z" fill="#0876BE"/>
<path d="M331.294 355.369C329.223 355.369 327.498 353.642 327.498 351.569V343.276C327.498 341.202 329.223 339.475 331.294 339.475C333.365 339.475 335.09 341.202 335.09 343.276V351.569C334.918 353.642 333.365 355.369 331.294 355.369Z" fill="#0876BE"/>
<path d="M55.8912 368.5H17.9285C14.995 368.5 12.7517 366.081 12.7517 363.317V325.48C12.7517 322.543 15.1675 320.297 17.9285 320.297H55.7187C58.6522 320.297 60.8954 322.716 60.8954 325.48V363.317C61.068 366.254 58.6522 368.5 55.8912 368.5Z" fill="#0876BE"/>
<path d="M37.4274 345.867C41.3348 345.867 44.5023 342.696 44.5023 338.784C44.5023 334.871 41.3348 331.7 37.4274 331.7C33.5201 331.7 30.3525 334.871 30.3525 338.784C30.3525 342.696 33.5201 345.867 37.4274 345.867Z" fill="#0876BE"/>
<path d="M37.4276 355.369C35.3569 355.369 33.6313 353.642 33.6313 351.569V343.276C33.6313 341.202 35.3569 339.475 37.4276 339.475C39.4983 339.475 41.2239 341.202 41.2239 343.276V351.569C41.0513 353.642 39.3258 355.369 37.4276 355.369Z" fill="#0876BE"/>
<path d="M55.8912 227.347H17.9285C14.995 227.347 12.7517 224.928 12.7517 222.164V184.327C12.7517 181.39 15.1675 179.144 17.9285 179.144H55.7187C58.6522 179.144 60.8954 181.563 60.8954 184.327V222.164C61.068 225.101 58.6522 227.347 55.8912 227.347Z" fill="#0876BE"/>
<path d="M37.4274 204.714C41.3348 204.714 44.5023 201.543 44.5023 197.631C44.5023 193.718 41.3348 190.547 37.4274 190.547C33.5201 190.547 30.3525 193.718 30.3525 197.631C30.3525 201.543 33.5201 204.714 37.4274 204.714Z" fill="#0876BE"/>
<path d="M37.4276 214.216C35.3569 214.216 33.6313 212.489 33.6313 210.415V202.122C33.6313 200.049 35.3569 198.322 37.4276 198.322C39.4983 198.322 41.2239 200.049 41.2239 202.122V210.415C41.0513 212.661 39.3258 214.216 37.4276 214.216Z" fill="#0876BE"/>
<path d="M55.8912 83.084H17.9285C14.995 83.084 12.7517 80.6653 12.7517 77.9009V40.0643C12.7517 37.1272 15.1675 34.8812 17.9285 34.8812H55.7187C58.6522 34.8812 60.8954 37.3 60.8954 40.0643V77.9009C61.068 80.838 58.6522 83.084 55.8912 83.084Z" fill="#0876BE"/>
<path d="M37.4274 60.4512C41.3348 60.4512 44.5023 57.2798 44.5023 53.3676C44.5023 49.4555 41.3348 46.2841 37.4274 46.2841C33.5201 46.2841 30.3525 49.4555 30.3525 53.3676C30.3525 57.2798 33.5201 60.4512 37.4274 60.4512Z" fill="#0876BE"/>
<path d="M37.4276 69.9536C35.3569 69.9536 33.6313 68.2259 33.6313 66.1526V57.8597C33.6313 55.7864 35.3569 54.0587 37.4276 54.0587C39.4983 54.0587 41.2239 55.7864 41.2239 57.8597V66.1526C41.0513 68.3986 39.3258 69.9536 37.4276 69.9536Z" fill="#0876BE"/>
<path d="M349.758 226.31H311.968C309.034 226.31 306.791 223.892 306.791 221.127V183.291C306.791 180.354 309.207 178.108 311.968 178.108H349.758C352.691 178.108 354.934 180.526 354.934 183.291V221.127C354.934 223.892 352.519 226.31 349.758 226.31Z" fill="#0C8CE0"/>
<path d="M331.294 203.678C335.201 203.678 338.369 200.506 338.369 196.594C338.369 192.682 335.201 189.51 331.294 189.51C327.387 189.51 324.219 192.682 324.219 196.594C324.219 200.506 327.387 203.678 331.294 203.678Z" fill="#3BA5D3"/>
<path d="M331.294 213.18C329.223 213.18 327.498 211.452 327.498 209.379V201.086C327.498 199.013 329.223 197.285 331.294 197.285C333.365 197.285 335.09 199.013 335.09 201.086V209.379C334.918 211.452 333.365 213.18 331.294 213.18Z" fill="#3BA5D3"/>
<path d="M349.758 83.9479H311.968C309.034 83.9479 306.791 81.5292 306.791 78.7648V40.9282C306.791 37.9911 309.207 35.7451 311.968 35.7451H349.758C352.691 35.7451 354.934 38.1639 354.934 40.9282V78.7648C354.934 81.7019 352.519 83.9479 349.758 83.9479Z" fill="#0C8CE0"/>
<path d="M331.294 61.3151C335.201 61.3151 338.369 58.1437 338.369 54.2315C338.369 50.3194 335.201 47.1479 331.294 47.1479C327.387 47.1479 324.219 50.3194 324.219 54.2315C324.219 58.1437 327.387 61.3151 331.294 61.3151Z" fill="#3BA5D3"/>
<path d="M331.294 70.8173C329.223 70.8173 327.498 69.0896 327.498 67.0164V58.7234C327.498 56.6502 329.223 54.9225 331.294 54.9225C333.365 54.9225 335.09 56.6502 335.09 58.7234V67.0164C334.918 69.2624 333.365 70.8173 331.294 70.8173Z" fill="#3BA5D3"/>
<path d="M349.758 368.5H311.968C309.034 368.5 306.791 366.081 306.791 363.317V325.48C306.791 322.543 309.207 320.297 311.968 320.297H349.758C352.691 320.297 354.934 322.716 354.934 325.48V363.317C354.934 366.254 352.519 368.5 349.758 368.5Z" fill="#0C8CE0"/>
<path d="M331.294 345.867C335.201 345.867 338.369 342.696 338.369 338.784C338.369 334.871 335.201 331.7 331.294 331.7C327.387 331.7 324.219 334.871 324.219 338.784C324.219 342.696 327.387 345.867 331.294 345.867Z" fill="#3BA5D3"/>
<path d="M331.294 355.369C329.223 355.369 327.498 353.642 327.498 351.569V343.276C327.498 341.202 329.223 339.475 331.294 339.475C333.365 339.475 335.09 341.202 335.09 343.276V351.569C334.918 353.642 333.365 355.369 331.294 355.369Z" fill="#3BA5D3"/>
<path d="M55.8912 368.5H17.9285C14.995 368.5 12.7517 366.081 12.7517 363.317V325.48C12.7517 322.543 15.1675 320.297 17.9285 320.297H55.7187C58.6522 320.297 60.8954 322.716 60.8954 325.48V363.317C61.068 366.254 58.6522 368.5 55.8912 368.5Z" fill="#0C8CE0"/>
<path d="M37.4274 345.867C41.3348 345.867 44.5023 342.696 44.5023 338.784C44.5023 334.871 41.3348 331.7 37.4274 331.7C33.5201 331.7 30.3525 334.871 30.3525 338.784C30.3525 342.696 33.5201 345.867 37.4274 345.867Z" fill="#3BA5D3"/>
<path d="M37.4276 355.369C35.3569 355.369 33.6313 353.642 33.6313 351.569V343.276C33.6313 341.202 35.3569 339.475 37.4276 339.475C39.4983 339.475 41.2239 341.202 41.2239 343.276V351.569C41.0513 353.642 39.3258 355.369 37.4276 355.369Z" fill="#3BA5D3"/>
<path d="M55.8912 227.347H17.9285C14.995 227.347 12.7517 224.928 12.7517 222.164V184.327C12.7517 181.39 15.1675 179.144 17.9285 179.144H55.7187C58.6522 179.144 60.8954 181.563 60.8954 184.327V222.164C61.068 225.101 58.6522 227.347 55.8912 227.347Z" fill="#0C8CE0"/>
<path d="M37.4274 204.714C41.3348 204.714 44.5023 201.543 44.5023 197.631C44.5023 193.718 41.3348 190.547 37.4274 190.547C33.5201 190.547 30.3525 193.718 30.3525 197.631C30.3525 201.543 33.5201 204.714 37.4274 204.714Z" fill="#3BA5D3"/>
<path d="M37.4276 214.216C35.3569 214.216 33.6313 212.489 33.6313 210.415V202.122C33.6313 200.049 35.3569 198.322 37.4276 198.322C39.4983 198.322 41.2239 200.049 41.2239 202.122V210.415C41.0513 212.661 39.3258 214.216 37.4276 214.216Z" fill="#3BA5D3"/>
<path d="M55.8912 83.084H17.9285C14.995 83.084 12.7517 80.6653 12.7517 77.9009V40.0643C12.7517 37.1272 15.1675 34.8812 17.9285 34.8812H55.7187C58.6522 34.8812 60.8954 37.3 60.8954 40.0643V77.9009C61.068 80.838 58.6522 83.084 55.8912 83.084Z" fill="#0C8CE0"/>
<path d="M37.4274 60.4512C41.3348 60.4512 44.5023 57.2798 44.5023 53.3676C44.5023 49.4555 41.3348 46.2841 37.4274 46.2841C33.5201 46.2841 30.3525 49.4555 30.3525 53.3676C30.3525 57.2798 33.5201 60.4512 37.4274 60.4512Z" fill="#3BA5D3"/>
<path d="M37.4276 69.9536C35.3569 69.9536 33.6313 68.2259 33.6313 66.1526V57.8597C33.6313 55.7864 35.3569 54.0587 37.4276 54.0587C39.4983 54.0587 41.2239 55.7864 41.2239 57.8597V66.1526C41.0513 68.3986 39.3258 69.9536 37.4276 69.9536Z" fill="#3BA5D3"/>
</g>
<defs>
<clipPath id="clip0_1425_2941">
<rect width="371" height="368" fill="white" transform="translate(0.5 0.5)"/>
</clipPath>
</defs>
</svg>
