<svg width="21" height="14" viewBox="0 0 21 14" fill="none" xmlns="http://www.w3.org/2000/svg">
  <path d="M19.9492 0H1.94922C1.39693 0 0.949219 0.447715 0.949219 1C0.949219 1.55228 1.39693 2 1.94922 2H19.9492C20.5015 2 20.9492 1.55228 20.9492 1C20.9492 0.447715 20.5015 0 19.9492 0Z" fill="#899CA8"/>
  <path d="M14 6H2C1.44772 6 1 6.44772 1 7C1 7.55228 1.44772 8 2 8H14C14.5523 8 15 7.55228 15 7C15 6.44772 14.5523 6 14 6Z" fill="#899CA8"/>
  <path d="M14 12H2C1.44772 12 1 12.4477 1 13C1 13.5523 1.44772 14 2 14H14C14.5523 14 15 13.5523 15 13C15 12.4477 14.5523 12 14 12Z" fill="#899CA8"/>
</svg>
