<svg width="22" height="22" viewBox="0 0 22 22" fill="none" xmlns="http://www.w3.org/2000/svg">
<path d="M18 9V5C18 4.44772 17.5523 4 17 4H13C12.4477 4 12 4.44772 12 5C12 5.55228 12.4477 6 13 6H14.5866L10.9299 9.65664C10.5394 10.0472 10.5394 10.6803 10.9299 11.0709C11.3204 11.4614 11.9536 11.4614 12.3441 11.0709L16 7.41498V9C16 9.55228 16.4477 10 17 10C17.5523 10 18 9.55228 18 9Z" fill="#0C8CE0"/>
<path fill-rule="evenodd" clip-rule="evenodd" d="M10 17V13C10 12.4477 9.55229 12 9 12H5C4.44772 12 4 12.4477 4 13V17C4 17.5523 4.44772 18 5 18H9C9.55229 18 10 17.5523 10 17ZM6 14V16H8V14H6Z" fill="#0C8CE0"/>
</svg>
