<svg width="12" height="12" viewBox="0 0 12 12" fill="none" xmlns="http://www.w3.org/2000/svg">
  <path d="M10.6281 9.47122L2.52849 1.37163C2.20897 1.05211 1.69093 1.05211 1.37141 1.37163C1.05189 1.69115 1.05189 2.2092 1.37141 2.52872L9.471 10.6283C9.79052 10.9478 10.3086 10.9478 10.6281 10.6283C10.9476 10.3088 10.9476 9.79074 10.6281 9.47122Z" fill="#C4C4C4"/>
  <path d="M2.5289 10.6282L10.6285 2.52862C10.948 2.2091 10.948 1.69105 10.6285 1.37153C10.309 1.05201 9.79093 1.05201 9.47141 1.37153L1.37182 9.47112C1.0523 9.79064 1.0523 10.3087 1.37182 10.6282C1.69134 10.9477 2.20938 10.9477 2.5289 10.6282Z" fill="#C4C4C4"/>
</svg>
