<svg width="22" height="22" viewBox="0 0 22 22" fill="none" xmlns="http://www.w3.org/2000/svg">
  <path d="M3.29801 21.7381C3.03282 21.738 2.77851 21.6326 2.59101 21.4451L1.654 20.5071C0.617002 19.4701 0.85401 17.6291 2.19401 16.2241L8.58399 9.54609C8.12517 8.22872 8.10835 6.79768 8.53605 5.46989C8.96376 4.14209 9.81267 2.98994 10.9541 2.18806C12.0956 1.38618 13.4674 0.978312 14.8616 1.02625C16.2557 1.07419 17.5962 1.57535 18.6799 2.45374C19.7636 3.33214 20.5314 4.53986 20.8669 5.8939C21.2024 7.24793 21.0873 8.67446 20.539 9.95719C19.9908 11.2399 19.0393 12.3089 17.8288 13.0022C16.6183 13.6955 15.2148 13.9753 13.831 13.7991L11.546 15.8131C11.4138 15.9298 11.253 16.0095 11.08 16.0441L8.35499 16.5831L7.417 19.2831C7.33717 19.5132 7.17609 19.7063 6.964 19.8261L3.78999 21.6141C3.63938 21.697 3.46995 21.7397 3.29801 21.7381ZM10.208 10.7381L3.63899 17.6041C2.98599 18.2861 2.939 18.9641 3.068 19.0901L3.468 19.4901L5.65199 18.2611L6.65199 15.3821C6.70918 15.2173 6.80851 15.0703 6.94007 14.9558C7.07164 14.8412 7.23088 14.763 7.40199 14.7291L10.423 14.1291L12.861 11.9811C12.9777 11.8789 13.1163 11.8051 13.2661 11.7652C13.416 11.7253 13.573 11.7204 13.725 11.7511C14.7094 11.9639 15.7368 11.8362 16.639 11.3888C17.5413 10.9414 18.2649 10.2008 18.6913 9.28846C19.1177 8.37609 19.2216 7.34598 18.986 6.36683C18.7505 5.38768 18.1894 4.51755 17.3947 3.89893C16.6 3.28032 15.6188 2.94987 14.6118 2.96177C13.6048 2.97367 12.6317 3.3272 11.8518 3.96442C11.072 4.60164 10.5316 5.4848 10.3193 6.46924C10.1069 7.45369 10.2352 8.48106 10.683 9.38309C10.7707 9.5599 10.8041 9.75867 10.779 9.95441C10.7539 10.1502 10.6714 10.3341 10.542 10.4831C10.4498 10.5934 10.3339 10.6816 10.203 10.7411L10.208 10.7381Z" fill="#899CA8"/>
  <path d="M15.6979 7.56006C15.5259 7.56066 15.3555 7.52711 15.1965 7.46136C15.0376 7.39562 14.8933 7.29899 14.7719 7.17706C14.5886 6.99389 14.4638 6.76046 14.4132 6.50632C14.3626 6.25218 14.3885 5.98875 14.4876 5.74933C14.5867 5.50991 14.7546 5.30524 14.97 5.16125C15.1855 5.01727 15.4388 4.94043 15.6979 4.94043C15.9571 4.94043 16.2104 5.01727 16.4258 5.16125C16.6413 5.30524 16.8092 5.50991 16.9083 5.74933C17.0074 5.98875 17.0333 6.25218 16.9827 6.50632C16.9321 6.76046 16.8072 6.99389 16.6239 7.17706C16.5026 7.29899 16.3583 7.39562 16.1993 7.46136C16.0404 7.52711 15.8699 7.56066 15.6979 7.56006Z" fill="#899CA8"/>
</svg>
