
<svg xmlns="http://www.w3.org/2000/svg" width="24" height="24" viewBox="0 0 24.209 24"><g transform="translate(-375 -579)"><rect width="24" height="24" transform="translate(375 579)" fill="#899ca8" opacity="0"/><path d="M-14100.126,15341.843a10.844,10.844,0,0,1-4.875-2.9,7.021,7.021,0,0,1-2-4.817,7.423,7.423,0,0,1,3.3-5.964,12.48,12.48,0,0,1,6.579-2.291V15321a.984.984,0,0,1,.969-1,.986.986,0,0,1,.969,1v4.867a12.483,12.483,0,0,1,6.579,2.291,8.318,8.318,0,0,1,2.691,3.2l1.1-2.075a.956.956,0,0,1,1.315-.4,1.018,1.018,0,0,1,.384,1.359l-2.3,4.358a1.009,1.009,0,0,1-.116.173.961.961,0,0,1-.733.347h-.056l-.028,0h-.023l-.017,0-.021,0h-.01l-.042-.008h0a.668.668,0,0,1-.087-.022l-.011,0-.018-.007a.57.57,0,0,1-.065-.025l-4.448-1.762a1.015,1.015,0,0,1-.56-1.294.959.959,0,0,1,1.253-.574l2.88,1.142a6.182,6.182,0,0,0-2.205-2.773,10.579,10.579,0,0,0-5.454-1.91v10.072a4.084,4.084,0,0,1-1.572,3.25,3.763,3.763,0,0,1-2.3.8A3.6,3.6,0,0,1-14100.126,15341.843Zm-2.448-12.059a5.476,5.476,0,0,0-2.49,4.339c0,2.53,2.146,4.806,5.476,5.8a1.838,1.838,0,0,0,1.67-.323,2.079,2.079,0,0,0,.8-1.652v-10.072A10.56,10.56,0,0,0-14102.574,15329.784Z" transform="translate(14482.207 -14740)" fill="#899ca8"/></g></svg>
