<svg xmlns="http://www.w3.org/2000/svg" width="24" height="24" viewBox="0 0 24 24"><defs><style>.a,.b{fill:#899ca8;}.a{opacity:0;}</style></defs><g transform="translate(-40 -146)"><rect class="a" width="24" height="24" transform="translate(40 146)"/><path class="b" d="M21.12,10.126H16.753a2.882,2.882,0,0,1-2.879-2.879V2.88A2.881,2.881,0,0,1,17.613.132a9.478,9.478,0,0,1,6.255,6.255,2.881,2.881,0,0,1-2.748,3.739ZM16.754,1.877a1,1,0,0,0-.6.2.991.991,0,0,0-.406.805V7.247a1,1,0,0,0,1,1H21.12a.991.991,0,0,0,.805-.406,1.006,1.006,0,0,0,.151-.9,7.6,7.6,0,0,0-5.018-5.018A1.032,1.032,0,0,0,16.754,1.877ZM11.062,24A11.062,11.062,0,0,1,2.441,6.007,11.108,11.108,0,0,1,8.558,2.161,2.811,2.811,0,0,1,12,4.9v6.161a.939.939,0,0,0,.937.937H19.1a2.811,2.811,0,0,1,2.742,3.441A11.066,11.066,0,0,1,11.062,24ZM9.191,3.963a.932.932,0,0,0-.21.024A9.188,9.188,0,1,0,20.012,15.019a.925.925,0,0,0-.179-.788.936.936,0,0,0-.736-.355H12.937a2.816,2.816,0,0,1-2.812-2.812V4.9a.936.936,0,0,0-.355-.736.926.926,0,0,0-.578-.2Z" transform="translate(40 146)"/></g></svg>