<svg xmlns="http://www.w3.org/2000/svg" xmlns:xlink="http://www.w3.org/1999/xlink" width="22" height="22" viewBox="0 0 22 22"><defs><style>.a,.c{fill:#899ca8;}.a{opacity:0;}.b{clip-path:url(#a);}</style><clipPath id="a"><rect class="a" width="22" height="22"/></clipPath></defs><g class="b" transform="translate(0 22) rotate(-90)"><path class="c" d="M0,0" transform="translate(11 12)"/><path class="c" d="M59.094,14.75h-.625V12.439A5.07,5.07,0,0,0,55.849,8a5.07,5.07,0,0,0,2.62-4.439V1.25h.625a.625.625,0,0,0,0-1.25H47.25a.625.625,0,0,0,0,1.25h.594V3.561A5.07,5.07,0,0,0,50.465,8a5.07,5.07,0,0,0-2.62,4.439V14.75H47.25a.625.625,0,0,0,0,1.25H59.094A.625.625,0,0,0,59.094,14.75Zm-10-11.189V1.25h8.125V3.561a3.81,3.81,0,0,1-3.8,3.814A3.861,3.861,0,0,1,49.094,3.561Zm0,8.878a3.86,3.86,0,0,1,4.328-3.814,3.81,3.81,0,0,1,3.8,3.814V14.75H49.094Zm6.188-7.533h-4.25a.625.625,0,0,1,0-1.25h4.25a.625.625,0,1,1,0,1.25Zm.319,8.44a.625.625,0,0,0,0-.884l-1.315-1.306a1.51,1.51,0,0,0-2.125,0l-1.316,1.306a.625.625,0,1,0,.881.887l1.316-1.307a.258.258,0,0,1,.363,0l1.316,1.306a.625.625,0,0,0,.884,0Z" transform="translate(19 -41.99) rotate(90)"/></g></svg>