<svg width="24" height="24" viewBox="0 0 24 24" fill="none" xmlns="http://www.w3.org/2000/svg">
  <path d="M21.12 10.1259H16.753C15.9897 10.1252 15.2579 9.82158 14.7181 9.28183C14.1784 8.74209 13.8748 8.01026 13.874 7.24695V2.87995C13.8744 2.42835 13.9809 1.98316 14.1849 1.58031C14.389 1.17745 14.6849 0.828208 15.0488 0.560766C15.4127 0.293323 15.8344 0.11517 16.2798 0.040682C16.7252 -0.0338061 17.1819 -0.00254284 17.613 0.131949C19.0857 0.587321 20.425 1.395 21.515 2.48497C22.6049 3.57494 23.4126 4.9143 23.868 6.38695C24.0025 6.81806 24.0338 7.27474 23.9593 7.72015C23.8848 8.16556 23.7066 8.58723 23.4392 8.95112C23.1717 9.31501 22.8225 9.61093 22.4196 9.815C22.0168 10.0191 21.5716 10.1256 21.12 10.1259ZM16.754 1.87695C16.5376 1.87695 16.3271 1.94713 16.154 2.07695C16.0275 2.16947 15.9247 2.29067 15.8542 2.4306C15.7836 2.57054 15.7472 2.72522 15.748 2.88195V7.24695C15.748 7.51217 15.8534 7.76652 16.0409 7.95406C16.2284 8.14159 16.4828 8.24695 16.748 8.24695H21.12C21.2767 8.24775 21.4314 8.21137 21.5713 8.1408C21.7113 8.07022 21.8325 7.96746 21.925 7.84095C22.0193 7.71346 22.0822 7.56547 22.1084 7.40906C22.1347 7.25265 22.1236 7.09225 22.076 6.94095C21.711 5.75939 21.0631 4.68475 20.1887 3.8103C19.3142 2.93584 18.2396 2.28799 17.058 1.92295C16.9595 1.89252 16.8571 1.87702 16.754 1.87695ZM11.062 23.9999C8.97608 23.9999 6.93269 23.41 5.16762 22.2984C3.40254 21.1869 1.98772 19.5989 1.08641 17.7178C0.185092 15.8366 -0.165979 13.739 0.0737021 11.6669C0.313383 9.59477 1.13405 7.63266 2.441 6.00695C3.99441 4.07907 6.14737 2.72542 8.558 2.16095C8.96996 2.06605 9.39803 2.0653 9.81032 2.15874C10.2226 2.25218 10.6085 2.43741 10.9393 2.70065C11.2701 2.96388 11.5373 3.29834 11.7209 3.67912C11.9046 4.0599 12 4.4772 12 4.89995V11.0609C12.0005 11.3093 12.0994 11.5473 12.275 11.7229C12.4506 11.8985 12.6887 11.9974 12.937 11.9979H19.1C19.5229 11.9976 19.9404 12.0926 20.3215 12.276C20.7026 12.4594 21.0373 12.7264 21.3009 13.0571C21.5644 13.3879 21.75 13.7738 21.8437 14.1862C21.9373 14.5986 21.9368 15.0268 21.842 15.4389C21.2762 17.8737 19.9027 20.0452 17.9452 21.5997C15.9877 23.1542 13.5616 24.0002 11.062 23.9999ZM9.191 3.96295C9.12032 3.96296 9.04987 3.97101 8.981 3.98695C7.38498 4.35831 5.91732 5.14975 4.73013 6.27925C3.54293 7.40874 2.67941 8.83518 2.22906 10.4107C1.7787 11.9863 1.7579 13.6536 2.16882 15.2399C2.57973 16.8262 3.4074 18.2737 4.56605 19.4325C5.7247 20.5912 7.17217 21.4191 8.75843 21.8301C10.3447 22.2412 12.012 22.2205 13.5876 21.7703C15.1632 21.3201 16.5897 20.4567 17.7193 19.2696C18.8489 18.0825 19.6405 16.6149 20.012 15.0189C20.0437 14.8826 20.0441 14.7409 20.0131 14.6044C19.9821 14.4679 19.9205 14.3402 19.833 14.2309C19.7451 14.12 19.6333 14.0304 19.5058 13.9689C19.3783 13.9074 19.2385 13.8756 19.097 13.8759H12.937C12.1915 13.8749 11.4769 13.5783 10.9498 13.0512C10.4227 12.524 10.1261 11.8094 10.125 11.0639V4.89995C10.1253 4.75841 10.0935 4.61865 10.0321 4.49116C9.97057 4.36368 9.88097 4.2518 9.77 4.16395C9.60555 4.03374 9.40176 3.96323 9.192 3.96395L9.191 3.96295Z" fill="#899CA8"/>
</svg>
