<svg width="12" height="9" viewBox="0 0 12 9" fill="none" xmlns="http://www.w3.org/2000/svg">
  <path d="M5.41797 7.82782L11.2682 1.97757C11.5914 1.65441 11.5914 1.13047 11.2682 0.80731C10.9451 0.484151 10.4211 0.484151 10.098 0.80731L4.24771 6.65756C3.92455 6.98072 3.92455 7.50466 4.24771 7.82782C4.57087 8.15098 5.09481 8.15098 5.41797 7.82782Z" fill="white"/>
  <path d="M5.37005 6.69915L1.85997 3.18907C1.53681 2.86591 1.01287 2.86591 0.68971 3.18907C0.366552 3.51223 0.366552 4.03618 0.68971 4.35934L4.19979 7.86941C4.52295 8.19257 5.04689 8.19257 5.37005 7.86941C5.69321 7.54625 5.69321 7.02231 5.37005 6.69915Z" fill="white"/>
</svg>
