<svg xmlns="http://www.w3.org/2000/svg" xmlns:xlink="http://www.w3.org/1999/xlink" width="22" height="22" viewBox="0 0 22 22"><defs><style>.a,.c{fill:#fff;}.a{opacity:0;}.b{clip-path:url(#a);}</style><clipPath id="a"><rect class="a" width="22" height="22"/></clipPath></defs><g class="b"><path class="c" d="M0,0" transform="translate(11 10)"/><path class="c" d="M30.281,20a.781.781,0,0,1-.781-.781,7.118,7.118,0,0,1,7.11-7.11h1.172a7.1,7.1,0,0,1,2.341.395.781.781,0,0,1-.514,1.475,5.537,5.537,0,0,0-1.827-.308H36.61a5.553,5.553,0,0,0-5.547,5.547A.781.781,0,0,1,30.281,20ZM42.391,5.274a5.274,5.274,0,1,0-5.274,5.274A5.28,5.28,0,0,0,42.391,5.274Zm-1.563,0a3.711,3.711,0,1,1-3.711-3.711A3.715,3.715,0,0,1,40.829,5.274Zm5.586,10.04H44.071V12.969a.781.781,0,0,0-1.563,0v2.344H40.165a.781.781,0,1,0,0,1.563h2.344V19.22a.781.781,0,0,0,1.563,0V16.876h2.344a.781.781,0,0,0,0-1.563Z" transform="translate(-27.348 1)"/></g></svg>