<svg xmlns="http://www.w3.org/2000/svg" width="24" height="24" viewBox="0 0 24 24"><defs><style>.a,.b{fill:#899ca8;}.a{opacity:0;}</style></defs><g transform="translate(-40 -338)"><rect class="a" width="24" height="24" transform="translate(40 338)"/><path class="b" d="M18.375,14H5.625A5.631,5.631,0,0,0,0,19.625v7.688a5.63,5.63,0,0,0,5.624,5.624H18.375A5.631,5.631,0,0,0,24,27.313V19.625A5.631,5.631,0,0,0,18.375,14Zm3.75,13.313a3.754,3.754,0,0,1-3.75,3.75H5.624a3.753,3.753,0,0,1-3.749-3.749V19.625a3.754,3.754,0,0,1,3.75-3.75h12.75a3.754,3.754,0,0,1,3.75,3.75ZM17.437,35.75a.937.937,0,0,1-.937.937h-9a.937.937,0,1,1,0-1.875h9A.937.937,0,0,1,17.437,35.75ZM16.514,25.2l-.625-.375a3.979,3.979,0,0,0,0-2.424l.625-.375a.938.938,0,0,0-.965-1.608l-.636.382a3.983,3.983,0,0,0-1.882-1.059v-.816a.938.938,0,1,0-1.875,0v.816a3.984,3.984,0,0,0-1.916,1.095l-.7-.417a.938.938,0,0,0-.965,1.608l.7.422a3.983,3.983,0,0,0,0,2.33l-.7.422A.937.937,0,1,0,8.545,26.8l.7-.417a3.984,3.984,0,0,0,1.916,1.095V28.3a.938.938,0,1,0,1.875,0v-.816a3.983,3.983,0,0,0,1.882-1.059l.636.382a.938.938,0,0,0,.965-1.608Zm-4.42.523A2.109,2.109,0,1,1,14.2,23.609,2.112,2.112,0,0,1,12.094,25.719Z" transform="translate(40 325)"/></g></svg>