<svg width="24" height="24" viewBox="0 0 24 24" fill="none" xmlns="http://www.w3.org/2000/svg">
  <path d="M11.8561 24C11.1084 23.9993 10.3915 23.702 9.86281 23.1733C9.33411 22.6446 9.03678 21.9277 9.03607 21.18V21.156C9.03691 20.9927 8.98785 20.833 8.89546 20.6984C8.80307 20.5637 8.67176 20.4605 8.5191 20.4025C7.65845 20.0644 6.85473 19.5963 6.13594 19.0146C6.00934 18.9099 5.85399 18.8461 5.69039 18.8316C5.52679 18.817 5.36262 18.8524 5.21954 18.9331C4.56734 19.2992 3.79677 19.3923 3.07615 19.192C2.35554 18.9918 1.74346 18.5145 1.37362 17.8644C1.1907 17.5423 1.07323 17.1872 1.02795 16.8196C0.982671 16.4519 1.01049 16.0789 1.10979 15.722C1.2091 15.3652 1.37793 15.0314 1.60661 14.74C1.83529 14.4486 2.11929 14.2052 2.44231 14.0239H2.45433C2.59336 13.9454 2.70578 13.8271 2.77718 13.6843C2.84858 13.5415 2.87571 13.3807 2.85509 13.2223C2.73505 12.3661 2.73685 11.4972 2.86043 10.6415C2.88171 10.4798 2.85401 10.3155 2.7809 10.1697C2.70778 10.024 2.59263 9.90353 2.45032 9.82394L2.43429 9.81458C2.11163 9.63324 1.82794 9.38999 1.59949 9.09877C1.37105 8.80755 1.20235 8.47409 1.10306 8.11753C1.00377 7.76097 0.975857 7.38831 1.02091 7.02093C1.06597 6.65355 1.18311 6.29869 1.36561 5.97668C1.73544 5.3266 2.34752 4.8493 3.06814 4.64906C3.78875 4.44882 4.55933 4.54191 5.21153 4.908L5.26763 4.94006C5.41074 5.02037 5.57472 5.05568 5.7382 5.04138C5.90167 5.02708 6.05704 4.96384 6.18403 4.85991C6.88999 4.29725 7.67615 3.84338 8.51643 3.51337C8.66941 3.45501 8.80109 3.35163 8.89411 3.21688C8.98712 3.08213 9.03709 2.92234 9.03741 2.75861C9.05346 2.02151 9.35754 1.32 9.88451 0.804373C10.4115 0.288743 11.1194 0 11.8567 0C12.594 0 13.302 0.288743 13.8289 0.804373C14.3559 1.32 14.66 2.02151 14.676 2.75861V2.77731C14.6765 2.94031 14.7261 3.09938 14.8183 3.23378C14.9105 3.36817 15.0411 3.47166 15.193 3.53073C16.0232 3.86203 16.7997 4.31445 17.4974 4.87327C17.6241 4.97762 17.7793 5.04134 17.9428 5.05612C18.1063 5.07089 18.2704 5.03603 18.4138 4.95609L18.4966 4.90933C19.1491 4.54276 19.9202 4.4494 20.6414 4.64965C21.3625 4.8499 21.9751 5.32748 22.3452 5.97802C22.5281 6.30014 22.6456 6.65523 22.6908 7.02289C22.7361 7.39055 22.7083 7.76353 22.609 8.12041C22.5097 8.47728 22.3409 8.81102 22.1122 9.10245C21.8835 9.39388 21.5995 9.63725 21.2765 9.81859L21.2124 9.85466C21.0733 9.93315 20.9609 10.0514 20.8895 10.1942C20.8181 10.337 20.791 10.4979 20.8116 10.6562C20.9332 11.5008 20.9364 12.3582 20.821 13.2036C20.8003 13.362 20.8275 13.5228 20.8989 13.6656C20.9703 13.8084 21.0827 13.9267 21.2217 14.0052L21.2778 14.0372C21.6019 14.2182 21.8869 14.4617 22.1162 14.7536C22.3455 15.0455 22.5146 15.38 22.6137 15.7378C22.7589 16.275 22.7423 16.8432 22.5661 17.3711C22.3898 17.899 22.0617 18.3632 21.6229 18.7055C21.1841 19.0478 20.654 19.253 20.099 19.2953C19.5441 19.3377 18.989 19.2155 18.5033 18.9438L18.4699 18.9251C18.3256 18.8443 18.1603 18.8093 17.9957 18.8245C17.8311 18.8398 17.675 18.9047 17.5481 19.0106C16.8377 19.5844 16.0446 20.0474 15.1957 20.3838C15.044 20.4424 14.9137 20.5457 14.8221 20.68C14.7304 20.8143 14.6818 20.9733 14.6827 21.1359V21.1787C14.6825 21.5496 14.6093 21.9168 14.4671 22.2594C14.3249 22.6019 14.1166 22.9131 13.8541 23.1752C13.5916 23.4372 13.28 23.6449 12.9372 23.7864C12.5943 23.9279 12.227 24.0005 11.8561 24ZM5.61629 16.9467C6.23592 16.9478 6.83633 17.1619 7.31683 17.5532C7.88716 18.0156 8.52511 18.3878 9.2084 18.6566C9.71348 18.8515 10.1474 19.1952 10.4528 19.6423C10.7581 20.0893 10.9205 20.6186 10.9183 21.16V21.184C10.9183 21.4333 11.0173 21.6723 11.1935 21.8485C11.3698 22.0248 11.6088 22.1238 11.8581 22.1238C12.1073 22.1238 12.3463 22.0248 12.5226 21.8485C12.6988 21.6723 12.7978 21.4333 12.7978 21.184V21.1413C12.7957 20.6024 12.9566 20.0754 13.2593 19.6296C13.5621 19.1838 13.9926 18.8399 14.4944 18.6432C15.1696 18.3749 15.8002 18.0056 16.3646 17.5478C16.7837 17.2009 17.2985 16.9895 17.8405 16.9418C18.3825 16.8941 18.9263 17.0123 19.3996 17.2807L19.429 17.298C19.6471 17.4205 19.9047 17.4517 20.1457 17.3849C20.3867 17.318 20.5915 17.1586 20.7154 16.9414C20.7758 16.8343 20.8144 16.7164 20.8292 16.5943C20.8439 16.4723 20.8344 16.3486 20.8013 16.2302C20.7682 16.1118 20.712 16.0012 20.6361 15.9045C20.5602 15.8079 20.4659 15.7271 20.3588 15.667L20.3013 15.6336C19.8346 15.3707 19.4577 14.9736 19.2195 14.4939C18.9813 14.0141 18.8928 13.4738 18.9655 12.9431C19.0568 12.2719 19.0541 11.5912 18.9574 10.9207C18.8846 10.3879 18.9729 9.8456 19.211 9.3635C19.4491 8.88139 19.826 8.48159 20.2933 8.21557L20.3601 8.17683C20.4677 8.11686 20.5623 8.03623 20.6386 7.93958C20.715 7.84293 20.7714 7.73216 20.8048 7.61362C20.8382 7.49508 20.8478 7.37111 20.8332 7.24884C20.8185 7.12656 20.7799 7.00838 20.7194 6.90109C20.5951 6.68397 20.3899 6.5248 20.1487 6.45824C19.9075 6.39168 19.6498 6.42314 19.4317 6.54575L19.3515 6.59117C18.8814 6.85834 18.3416 6.97743 17.8028 6.93286C17.2639 6.88829 16.751 6.68214 16.3312 6.34137C15.7786 5.89687 15.1632 5.53673 14.5051 5.27269C14.0034 5.07524 13.5728 4.73111 13.2697 4.28524C12.9666 3.83937 12.8049 3.31246 12.8058 2.77331V2.75995C12.8058 2.5107 12.7068 2.27167 12.5306 2.09543C12.3544 1.91919 12.1153 1.82018 11.8661 1.82018C11.6168 1.82018 11.3778 1.91919 11.2016 2.09543C11.0253 2.27167 10.9263 2.5107 10.9263 2.75995C10.9276 3.30165 10.7647 3.83103 10.4589 4.2782C10.1532 4.72538 9.71901 5.06933 9.21374 5.26467C8.54854 5.5269 7.92628 5.88711 7.3676 6.33335C6.94762 6.67198 6.43546 6.87639 5.89774 6.91999C5.36002 6.96359 4.82162 6.84436 4.35258 6.57781L4.29914 6.54709C4.08119 6.42507 3.82386 6.39409 3.58317 6.46089C3.34249 6.52769 3.13794 6.68687 3.01405 6.90376C2.9537 7.01084 2.91506 7.12876 2.90032 7.25079C2.88559 7.37281 2.89506 7.49654 2.92818 7.61491C2.96131 7.73327 3.01745 7.84394 3.09338 7.94059C3.16932 8.03724 3.26356 8.11797 3.37072 8.17816L3.38943 8.18885C3.85859 8.45761 4.23655 8.86066 4.47463 9.34611C4.71271 9.83155 4.8 10.3772 4.72528 10.9127C4.62827 11.5936 4.62827 12.2849 4.72528 12.9659C4.8005 13.4977 4.71319 14.0398 4.47479 14.5212C4.2364 15.0025 3.85806 15.4005 3.38943 15.6629L3.37473 15.671C3.26644 15.7313 3.17123 15.8126 3.09463 15.91C3.01804 16.0075 2.96158 16.1192 2.92856 16.2387C2.89561 16.3567 2.88645 16.48 2.90158 16.6015C2.91672 16.7231 2.95586 16.8404 3.01672 16.9467C3.1411 17.1638 3.34623 17.323 3.58743 17.3895C3.82864 17.4561 4.08637 17.4247 4.30448 17.302C4.70856 17.0714 5.16571 16.9498 5.63099 16.9494L5.61629 16.9467ZM11.8561 16.904C10.8804 16.9024 9.92715 16.6116 9.11671 16.0684C8.30627 15.5252 7.67503 14.754 7.30277 13.8522C6.9305 12.9503 6.83392 11.9584 7.02523 11.0017C7.21654 10.045 7.68715 9.16649 8.37759 8.47717C9.06803 7.78785 9.94731 7.31867 10.9043 7.12891C11.8613 6.93916 12.8531 7.03735 13.7543 7.41107C14.6555 7.7848 15.4258 8.41729 15.9676 9.22861C16.5095 10.0399 16.7987 10.9937 16.7987 11.9693C16.7962 13.2786 16.2744 14.5333 15.3477 15.4583C14.4211 16.3832 13.1653 16.904 11.8561 16.904ZM11.8561 8.91555C11.2518 8.91555 10.6611 9.09473 10.1587 9.43043C9.65633 9.76613 9.26475 10.2433 9.03352 10.8015C8.80229 11.3598 8.74179 11.974 8.85967 12.5667C8.97755 13.1593 9.26852 13.7037 9.69578 14.1309C10.123 14.5582 10.6674 14.8492 11.26 14.967C11.8527 15.0849 12.4669 15.0244 13.0252 14.7932C13.5834 14.562 14.0606 14.1704 14.3963 13.668C14.732 13.1656 14.9112 12.5749 14.9112 11.9706C14.9108 11.1604 14.5889 10.3834 14.016 9.81029C13.4432 9.23721 12.6663 8.91626 11.8561 8.91555Z" fill="#899CA8"/>
</svg>
