<svg xmlns="http://www.w3.org/2000/svg" width="24" height="24" viewBox="0 0 24 24"><defs><style>.a,.b{fill:#899ca8;}.a{opacity:0;}</style></defs><g transform="translate(-314 -552)"><rect class="a" width="24" height="24" transform="translate(314 552)"/><path class="b" d="M15.844,9.844a.938.938,0,0,1-.926-.8,25.179,25.179,0,0,0-.906-3.888A.937.937,0,0,1,15.8,4.595a27.024,27.024,0,0,1,.972,4.175.938.938,0,0,1-.929,1.074Zm-2.438,1.219H8.885a24.175,24.175,0,0,1,1.157-5.907.937.937,0,0,0-1.789-.561,25.855,25.855,0,0,0-1.246,6.468H4.688a.938.938,0,1,0,0,1.875h2.32A25.973,25.973,0,0,0,8.246,19.4a.938.938,0,0,0,1.79-.558,24.289,24.289,0,0,1-1.151-5.909h4.521a.938.938,0,0,0,0-1.875Zm9.507-1.112A.938.938,0,0,1,21.76,9.3a10.126,10.126,0,1,0-10.1,12.823.938.938,0,0,1-.031,1.874h-.032A12,12,0,0,1,3.515,3.515,12,12,0,0,1,19.328,2.5a12.079,12.079,0,0,1,4.24,6.3.937.937,0,0,1-.654,1.153Zm-3.836.6a3.516,3.516,0,1,0,3.516,3.516A3.52,3.52,0,0,0,19.078,10.547Zm0,5.156a1.641,1.641,0,1,1,1.641-1.641A1.642,1.642,0,0,1,19.078,15.7ZM24,23.063a4.594,4.594,0,0,0-4.584-4.594H18.74a4.594,4.594,0,0,0-4.584,4.594.938.938,0,0,0,1.875,0,2.717,2.717,0,0,1,2.709-2.719h.675a2.717,2.717,0,0,1,2.709,2.719.938.938,0,0,0,1.875,0Z" transform="translate(314 552)"/></g></svg>