<svg id="icon-nav-logout" xmlns="http://www.w3.org/2000/svg" width="24.091" height="24.266" viewBox="0 0 24.091 24.266">
  <path id="branching" d="M12.77,4.121V20.832a1.9,1.9,0,0,0,1.9,1.9.938.938,0,0,1,0,1.875,3.781,3.781,0,0,1-3.777-3.777V4.121A3.781,3.781,0,0,1,14.672.344a.938.938,0,0,1,0,1.875A1.9,1.9,0,0,0,12.77,4.121Z" transform="translate(34.986 24.609) rotate(180)" fill="#899ca8"/>
  <g id="Group_4662" data-name="Group 4662" transform="translate(-34.623 -966.583)">
    <rect id="Rectangle_2756" data-name="Rectangle 2756" width="2" height="15.906" rx="1" transform="translate(50.529 977.583) rotate(90)" fill="#899ca8"/>
    <rect id="Rectangle_2757" data-name="Rectangle 2757" width="2" height="7" rx="1" transform="translate(50.987 978.533) rotate(135)" fill="#899ca8"/>
    <rect id="Rectangle_2758" data-name="Rectangle 2758" width="2" height="7" rx="1" transform="translate(49.573 977.583) rotate(45)" fill="#899ca8"/>
  </g>
</svg>
