<svg xmlns="http://www.w3.org/2000/svg" width="24" height="24" viewBox="0 0 24 24"><defs><style>.a,.b{fill:#0c8ce0;}.a{opacity:0;}</style></defs><g transform="translate(-40 -400)"><rect class="a" width="24" height="24" transform="translate(40 400)"/><g transform="translate(43 400)"><g transform="translate(0 14.531)"><path class="b" d="M76.531,319.469a.937.937,0,0,1-.937-.937,6.664,6.664,0,0,0-6.656-6.656H67.531a6.664,6.664,0,0,0-6.656,6.656.938.938,0,0,1-1.875,0A8.541,8.541,0,0,1,67.531,310h1.406a8.541,8.541,0,0,1,8.531,8.531A.937.937,0,0,1,76.531,319.469Z" transform="translate(-59 -310)"/></g><g transform="translate(2.813)"><path class="b" d="M125.328,12.656a6.328,6.328,0,1,1,6.328-6.328A6.335,6.335,0,0,1,125.328,12.656Zm0-10.781a4.453,4.453,0,1,0,4.453,4.453A4.458,4.458,0,0,0,125.328,1.875Z" transform="translate(-119)"/></g></g></g></svg>