<svg width="216" height="217" viewBox="0 0 216 217" fill="none" xmlns="http://www.w3.org/2000/svg">
<g id="dfgOpenIllu">
<path id="Vector" d="M57.5076 113.019H109.231V121.199H57.5076V113.019Z" fill="#CBD3D8"/>
<path id="Vector_2" d="M50.9475 69.576L55.6875 64.026L86.9675 90.736L82.2275 96.286L50.9475 69.576Z" fill="#CBD3D8"/>
<path id="Vector_3" d="M114.012 112.559H158.823V120.739H114.012V112.559Z" fill="#CBD3D8"/>
<path id="Vector_4" d="M129.693 90.276L160.293 64.026L165.053 69.576L134.453 95.826L129.693 90.276Z" fill="#CBD3D8"/>
<path id="Vector_5" d="M52.9026 164.873L98.9139 118.861L104.084 124.031L58.0726 170.043L52.9026 164.873Z" fill="#CBD3D8"/>
<path id="Vector_6" d="M109.956 122.609L115.096 117.419L162.553 164.646L157.413 169.836L109.956 122.609Z" fill="#CBD3D8"/>
<path id="Union" fill-rule="evenodd" clip-rule="evenodd" d="M122.555 109.491C134.284 104.008 142.41 92.1037 142.41 78.3015C142.41 59.2972 127.004 43.8912 108 43.8912C88.9958 43.8912 73.5898 59.2972 73.5898 78.3015C73.5898 92.1037 81.7161 104.008 93.4452 109.491L93.8859 118.563C93.9214 119.294 94.2276 119.985 94.7447 120.502L100.975 126.732C102.124 127.882 102.124 129.746 100.975 130.895L95.7078 136.162C95.1206 136.749 94.8088 137.557 94.849 138.387L95.565 153.122C95.6005 153.853 95.9066 154.544 96.4237 155.061L100.975 159.612C102.124 160.762 102.124 162.626 100.975 163.775L97.2313 167.519C96.6441 168.106 96.3322 168.914 96.3725 169.743L97.1499 185.745C97.1958 186.688 97.6905 187.551 98.4805 188.067L106.39 193.234C107.368 193.873 108.632 193.873 109.61 193.234L117.52 188.067C118.31 187.551 118.804 186.688 118.85 185.745L122.555 109.491Z" fill="#5CC1ED"/>
<path id="Union_2" d="M116.333 66.0301C116.333 61.428 112.602 57.6973 108 57.6973C103.398 57.6973 99.6672 61.428 99.6672 66.0301C99.6672 70.6321 103.398 74.3629 108 74.3629C112.602 74.3629 116.333 70.6321 116.333 66.0301Z" fill="#3BA5D3"/>
<g id="Group 4648">
<path id="Ellipse 878" d="M207.895 103.19V98.6676C207.895 95.5393 206.653 92.5391 204.44 90.327C202.228 88.1149 199.228 86.8722 196.1 86.8722C192.972 86.8722 189.971 88.1149 187.759 90.327C186.775 91.3113 185.983 92.4515 185.406 93.6897" stroke="#CBD3D8" stroke-width="7" stroke-linecap="round"/>
<rect id="Rectangle 2837" x="177.125" y="102.884" width="37.9493" height="28.3014" rx="6" fill="#0C8CE0"/>
</g>
<g id="Group 4650">
<path id="Ellipse 878_2" d="M207.895 19.8174V15.2954C207.895 12.1671 206.653 9.16688 204.44 6.9548C202.228 4.74273 199.228 3.5 196.1 3.5C192.972 3.5 189.971 4.74273 187.759 6.9548C186.775 7.93906 185.983 9.07936 185.406 10.3175" stroke="#CBD3D8" stroke-width="7" stroke-linecap="round"/>
<rect id="Rectangle 2837_2" x="177.125" y="19.5113" width="37.9493" height="28.3014" rx="6" fill="#0C8CE0"/>
</g>
<g id="Group 4652">
<path id="Ellipse 878_3" d="M207.895 188.185V183.663C207.895 180.534 206.653 177.534 204.44 175.322C202.228 173.11 199.228 171.867 196.1 171.867C192.972 171.867 189.971 173.11 187.759 175.322C186.775 176.306 185.983 177.447 185.406 178.685" stroke="#CBD3D8" stroke-width="7" stroke-linecap="round"/>
<rect id="Rectangle 2837_3" x="177.125" y="187.879" width="37.9493" height="28.3014" rx="6" fill="#0C8CE0"/>
</g>
<g id="Group 4649">
<path id="Ellipse 878_4" d="M31.6956 103.19V98.6676C31.6956 95.5393 30.4528 92.5391 28.2408 90.327C26.0287 88.1149 23.0285 86.8722 19.9001 86.8722C16.7718 86.8722 13.7716 88.1149 11.5595 90.327C10.5752 91.3113 9.7829 92.4515 9.20654 93.6897" stroke="#CBD3D8" stroke-width="7" stroke-linecap="round"/>
<rect id="Rectangle 2837_4" x="0.925537" y="102.884" width="37.9493" height="28.3014" rx="6" fill="#0C8CE0"/>
</g>
<g id="Group 4651">
<path id="Ellipse 878_5" d="M31.6956 19.8174V15.2954C31.6956 12.1671 30.4528 9.16688 28.2408 6.9548C26.0287 4.74273 23.0285 3.5 19.9001 3.5C16.7718 3.5 13.7716 4.74273 11.5595 6.9548C10.5752 7.93906 9.7829 9.07936 9.20654 10.3175" stroke="#CBD3D8" stroke-width="7" stroke-linecap="round"/>
<rect id="Rectangle 2837_5" x="0.925537" y="19.5113" width="37.9493" height="28.3014" rx="6" fill="#0C8CE0"/>
</g>
<g id="Group 4653">
<path id="Ellipse 878_6" d="M31.6956 188.185V183.663C31.6956 180.534 30.4528 177.534 28.2408 175.322C26.0287 173.11 23.0285 171.867 19.9001 171.867C16.7718 171.867 13.7716 173.11 11.5595 175.322C10.5752 176.306 9.7829 177.447 9.20654 178.685" stroke="#CBD3D8" stroke-width="7" stroke-linecap="round"/>
<rect id="Rectangle 2837_6" x="0.925537" y="187.879" width="37.9493" height="28.3014" rx="6" fill="#0C8CE0"/>
</g>
</g>
</svg>
