<svg xmlns="http://www.w3.org/2000/svg" width="24" height="24" viewBox="0 0 24 24"><defs><style>.a,.b{fill:#899ca8;}.a{opacity:0;}</style></defs><g transform="translate(-40 -210)"><rect class="a" width="24" height="24" transform="translate(40 210)"/><path class="b" d="M12.77,6.121v4.848h1.808a.938.938,0,1,1,0,1.875H12.77v4.989a1.9,1.9,0,0,0,1.9,1.9.938.938,0,0,1,0,1.875,3.781,3.781,0,0,1-3.777-3.777V6.121a3.781,3.781,0,0,1,3.777-3.777.937.937,0,0,1,0,1.875A1.9,1.9,0,0,0,12.77,6.121ZM24,11.906a3.375,3.375,0,1,1-3.375-3.375A3.379,3.379,0,0,1,24,11.906Zm-1.875,0a1.5,1.5,0,1,0-1.5,1.5A1.5,1.5,0,0,0,22.125,11.906ZM17.25,3.375A3.375,3.375,0,1,1,20.625,6.75,3.379,3.379,0,0,1,17.25,3.375Zm1.875,0a1.5,1.5,0,1,0,1.5-1.5A1.5,1.5,0,0,0,19.125,3.375ZM8.906,11.983v3.954a.9.9,0,0,1-.21.591,9.277,9.277,0,0,0-1.479,5.436A2.088,2.088,0,0,1,5.085,24H3.822a2.088,2.088,0,0,1-2.133-2.035A9.261,9.261,0,0,0,.212,16.531.938.938,0,0,1,0,15.937V11.983A4.16,4.16,0,0,1,4.155,7.828h.6a4.16,4.16,0,0,1,4.155,4.155Zm-1.875,0A2.283,2.283,0,0,0,4.751,9.7h-.6a2.283,2.283,0,0,0-2.28,2.28v3.654a11.459,11.459,0,0,1,1.689,6.328c0,.062.118.16.258.16H5.085c.14,0,.258-.1.258-.16a11.459,11.459,0,0,1,1.689-6.328V11.983Zm-5.812-8.8A3.188,3.188,0,1,1,4.406,6.375,3.191,3.191,0,0,1,1.219,3.187Zm1.875,0A1.312,1.312,0,1,0,4.406,1.875,1.314,1.314,0,0,0,3.094,3.187ZM24,20.625a3.375,3.375,0,1,1-3.375-3.375A3.379,3.379,0,0,1,24,20.625Zm-1.875,0a1.5,1.5,0,1,0-1.5,1.5A1.5,1.5,0,0,0,22.125,20.625Z" transform="translate(40 210)"/></g></svg>