<svg xmlns="http://www.w3.org/2000/svg" width="24" height="24" viewBox="0 0 24 24"><defs><style>.a,.b{fill:#899ca8;}.a{opacity:0;}</style></defs><g transform="translate(-40 -274)"><rect class="a" width="24" height="24" transform="translate(40 274)"/><path class="b" d="M59.1,2.946A9.939,9.939,0,0,0,52.01,0H52a10.08,10.08,0,0,0-10.03,10.047c.141,3.813,3.81,8.656,6.667,12.376a4.406,4.406,0,0,0,6.837-.106c2.119-2.634,6.7-8.968,6.557-12.27a10,10,0,0,0-2.927-7.1ZM54,21.159a2.541,2.541,0,0,1-3.976,0c-3.874-4.932-6.18-9.04-6.18-11.112A8.173,8.173,0,0,1,52,1.876h.012a8.167,8.167,0,0,1,8.144,8.172C60.154,12.144,57.91,16.193,54,21.159Zm-1.948-7.143a3.984,3.984,0,1,1,3.984-3.984A3.989,3.989,0,0,1,52.051,14.016Zm0-6.093a2.109,2.109,0,1,0,2.109,2.109A2.112,2.112,0,0,0,52.051,7.923Z" transform="translate(0.034 274)"/></g></svg>