<svg xmlns="http://www.w3.org/2000/svg" xmlns:xlink="http://www.w3.org/1999/xlink" width="22" height="22" viewBox="0 0 22 22"><defs><style>.a,.c{fill:#899ca8;}.a{opacity:0;}.b{clip-path:url(#a);}</style><clipPath id="a"><rect class="a" width="22" height="22" transform="translate(603 1209) rotate(90)"/></clipPath></defs><g class="b" transform="translate(-581 -1209)"><path class="c" d="M16,3.794a.877.877,0,0,0-.877-.877H.877A.877.877,0,0,0,.16,4.3l5.165,7.344.015,5.343a1.7,1.7,0,0,0,2.639,1.408l1.845-1.23A1.753,1.753,0,0,0,10.6,15.7l-.019-4.021L15.838,4.3A.877.877,0,0,0,16,3.794ZM8.83,11.117,8.851,15.7,7.093,16.875l-.016-5.79L2.566,4.67H13.423Z" transform="translate(584 1209.203)"/></g></svg>