<svg xmlns="http://www.w3.org/2000/svg" width="137" height="140" viewBox="0 0 137 140"><defs><style>.image-mesh-network-a{fill:#0c8ce0;}.image-mesh-network-b{fill:#d5d5d3;}.image-mesh-network-c{fill:#dfdfdd;}.image-mesh-network-d{fill:#cececc;}.image-mesh-network-e{fill:#cbd3d8;}</style></defs><rect class="image-mesh-network-a" width="29" height="19" rx="4" transform="translate(54)"/><path class="image-mesh-network-b" d="M246.21,97.474H232L234.368,88h9.474Z" transform="translate(-170.421 -69)"/><path class="image-mesh-network-c" d="M224,112h18.947v4.737H224Z" transform="translate(-164.79 -85.897)"/><path class="image-mesh-network-d" d="M247.842,92.737H236L237.184,88h9.474Z" transform="translate(-173.237 -69)"/><g transform="translate(11.842 7.465)"><path class="image-mesh-network-e" d="M248,144h4.737v11.842H248Z" transform="translate(-193.527 -114.874)"/><path class="image-mesh-network-e" d="M248,328h4.737v11.842H248Z" transform="translate(-193.527 -244.276)"/><path class="image-mesh-network-e" d="M0,0H4.737V15.165H0Z" transform="matrix(0.625, -0.781, 0.781, 0.625, 22.225, 41.851)"/><path class="image-mesh-network-e" d="M0,0H17.079V4.737H0Z" transform="matrix(0.832, -0.555, 0.555, 0.832, 22.397, 85.46)"/><path class="image-mesh-network-e" d="M0,0H15.165V4.737H0Z" transform="matrix(0.781, -0.625, 0.625, 0.781, 76.708, 47.593)"/><path class="image-mesh-network-e" d="M0,0H4.737V17.079H0Z" transform="matrix(0.555, -0.832, 0.832, 0.555, 74.501, 79.976)"/><path class="image-mesh-network-e" d="M64,240h4.737v14.21H64Z" transform="translate(-64 -182.465)"/><path class="image-mesh-network-e" d="M0,0H22.344V4.737H0Z" transform="matrix(0.848, -0.53, 0.53, 0.848, 15.324, 11.843)"/><path class="image-mesh-network-e" d="M0,0H4.737V22.344H0Z" transform="matrix(0.53, -0.848, 0.848, 0.53, 15.324, 115.596)"/><path class="image-mesh-network-e" d="M0,0H4.737V22.344H0Z" transform="matrix(0.53, -0.848, 0.848, 0.53, 76.903, 4.017)"/><path class="image-mesh-network-e" d="M0,0H22.344V4.737H0Z" transform="matrix(0.848, -0.53, 0.53, 0.848, 76.902, 123.424)"/><path class="image-mesh-network-e" d="M432,240h4.737v14.21H432Z" transform="translate(-323.053 -182.465)"/></g><rect class="image-mesh-network-a" width="28" height="19" rx="4" transform="translate(109 28)"/><path class="image-mesh-network-b" d="M430.21,193.474H416L418.368,184h9.474Z" transform="translate(-299.948 -136.905)"/><path class="image-mesh-network-c" d="M408,208h18.947v4.737H408Z" transform="translate(-294.316 -153.42)"/><path class="image-mesh-network-d" d="M431.842,188.737H420L421.184,184h9.474Z" transform="translate(-302.764 -136.908)"/><rect class="image-mesh-network-a" width="28" height="19" rx="4" transform="translate(0 28)"/><path class="image-mesh-network-b" d="M62.21,193.474H48L50.368,184h9.474Z" transform="translate(-40.895 -136.905)"/><path class="image-mesh-network-c" d="M40,208H58.947v4.737H40Z" transform="translate(-35.263 -153.42)"/><path class="image-mesh-network-d" d="M63.842,188.737H52L53.184,184h9.474Z" transform="translate(-43.711 -136.908)"/><rect class="image-mesh-network-a" width="28" height="19" rx="4" transform="translate(109 85)"/><path class="image-mesh-network-b" d="M430.21,385.474H416L418.368,376h9.474Z" transform="translate(-299.948 -271.789)"/><path class="image-mesh-network-c" d="M408,400h18.947v4.737H408Z" transform="translate(-294.316 -288.467)"/><path class="image-mesh-network-d" d="M431.842,380.737H420L421.184,376h9.474Z" transform="translate(-302.764 -271.797)"/><rect class="image-mesh-network-a" width="28" height="19" rx="4" transform="translate(0 85)"/><path class="image-mesh-network-b" d="M62.21,385.474H48L50.368,376h9.474Z" transform="translate(-40.895 -271.789)"/><path class="image-mesh-network-c" d="M40,400H58.947v4.737H40Z" transform="translate(-35.263 -288.467)"/><path class="image-mesh-network-d" d="M63.842,380.737H52L53.184,376h9.474Z" transform="translate(-43.711 -271.797)"/><rect class="image-mesh-network-a" width="29" height="19" rx="4" transform="translate(54 109)"/><path class="image-mesh-network-b" d="M246.21,465.474H232L234.368,456h9.474Z" transform="translate(-170.421 -327.737)"/><path class="image-mesh-network-c" d="M224,480h18.947v4.737H224Z" transform="translate(-164.79 -344.737)"/><path class="image-mesh-network-d" d="M247.842,460.737H236L237.184,456h9.474Z" transform="translate(-173.237 -327.737)"/><rect class="image-mesh-network-a" width="29" height="19" rx="4" transform="translate(54 54)"/><path class="image-mesh-network-b" d="M246.21,281.474H232L234.368,272h9.474Z" transform="translate(-170.421 -198.852)"/><path class="image-mesh-network-c" d="M224,296h18.947v4.737H224Z" transform="translate(-164.79 -215.317)"/><path class="image-mesh-network-d" d="M247.842,276.737H236L237.184,272h9.474Z" transform="translate(-173.237 -198.858)"/></svg>