<svg xmlns="http://www.w3.org/2000/svg" width="90.133" height="36.125" viewBox="0 0 90.133 36.125"><defs><style>.a{fill:#fff;}</style></defs><path class="a" d="M1657.095-2059v-13.1l-2.849-1.643v6.539l-5.7-3.287-8.547,4.93v19.719l8.547,4.93,5.7-3.287v3.3l-2.846,1.641,2.849,1.643,2.845-1.641v-16.447l-8.547-4.924-5.7,3.286v-6.577l5.7-3.287,5.7,3.287v3.282Zm-8.547,1.652,2.849,1.643-2.849,1.643-2.849-1.643Zm0,6.572,5.7-3.286v6.573l-5.7,3.286-5.7-3.286v-6.573Z" transform="translate(-1640 2073.751)"/><g transform="translate(22.784 9.183)"><path class="a" d="M417.385,236.974a3.541,3.541,0,0,0-2.12-.658,4.024,4.024,0,0,0-4.02,3.983v3.8a3.867,3.867,0,0,0,4.093,3.983,4.088,4.088,0,0,0,4.093-3.983V232.552h-2.046Zm0,7.126a2.007,2.007,0,0,1-2.047,2.083,2.029,2.029,0,0,1-2.046-2.083l.037-3.8a2.029,2.029,0,1,1,4.056,0Z" transform="translate(-411.246 -232.515)"/><path class="a" d="M518.427,271.164a4.088,4.088,0,0,0-4.093,3.983v3.8a3.867,3.867,0,0,0,4.093,3.983,4.088,4.088,0,0,0,4.093-3.983h-2.047a2.007,2.007,0,0,1-2.046,2.083,2.029,2.029,0,0,1-2.046-2.083V278h6.139v-2.85A3.867,3.867,0,0,0,518.427,271.164Zm2.046,4.933h-4.056v-.95a2.029,2.029,0,1,1,4.056,0Z" transform="translate(-504.285 -267.363)"/><path class="a" d="M613.2,235.027v1.133h-1.023v1.9H613.2v9.5h2.046v-9.5h1.023v-1.9h-1.023v-1.133a.9.9,0,0,1,.95-.95h.183v-1.9h-.329A2.744,2.744,0,0,0,613.2,235.027Z" transform="translate(-592.588 -232.177)"/><path class="a" d="M672.123,271.164a4.088,4.088,0,0,0-4.093,3.983v3.8a3.78,3.78,0,0,0,3.91,3.983,3,3,0,0,0,2.266-.841v.658a2.037,2.037,0,0,1-2.046,2.193l-.038,0v1.792h.038a3.961,3.961,0,0,0,4.056-3.983v-7.6A3.867,3.867,0,0,0,672.123,271.164Zm2.046,7.784a2.007,2.007,0,0,1-2.046,2.083,2.029,2.029,0,0,1-2.046-2.083v-3.8a2.007,2.007,0,0,1,2.046-2.083,1.986,1.986,0,0,1,2.046,2.083Z" transform="translate(-642.998 -267.363)"/><path class="a" d="M775.009,280.639a2.007,2.007,0,0,1-2.047,2.083,2.029,2.029,0,0,1-2.047-2.083v-7.6H768.87v7.6a3.837,3.837,0,0,0,4.056,3.983,4.068,4.068,0,0,0,4.13-3.983v-7.6h-2.046Z" transform="translate(-734.008 -269.055)"/><path class="a" d="M873.876,271.164a3.953,3.953,0,0,0-4.093,3.91h1.937a2,2,0,0,1,2.083-2.12,2.065,2.065,0,0,1,2.083,2.193v.694h-.036a3.243,3.243,0,0,0-2.12-.731,3.962,3.962,0,0,0-4.02,3.91,3.721,3.721,0,0,0,3.91,3.91,3.059,3.059,0,0,0,2.266-.841v.658h2.01v-7.6A3.808,3.808,0,0,0,873.876,271.164Zm-.073,9.94a2.029,2.029,0,0,1-2.046-2.083,2.007,2.007,0,0,1,2.046-2.083,1.986,1.986,0,0,1,2.047,2.083A2.007,2.007,0,0,1,873.8,281.1Z" transform="translate(-825.018 -267.363)"/><path class="a" d="M969.8,275.888v8.551h2.046v-8.551a.9.9,0,0,1,.95-.95h.585v-1.9h-.731A2.744,2.744,0,0,0,969.8,275.888Z" transform="translate(-915.353 -269.055)"/><path class="a" d="M1024.3,232.552v4.422a3.541,3.541,0,0,0-2.119-.658,4.024,4.024,0,0,0-4.02,3.983v3.8a3.867,3.867,0,0,0,4.093,3.983,4.088,4.088,0,0,0,4.093-3.983V232.552Zm0,11.548a2.007,2.007,0,0,1-2.046,2.083,2.029,2.029,0,0,1-2.047-2.083l.036-3.8a2.029,2.029,0,1,1,4.056,0Z" transform="translate(-958.994 -232.515)"/></g></svg>