<?xml version="1.0" encoding="UTF-8" standalone="no"?><!DOCTYPE svg PUBLIC "-//W3C//DTD SVG 1.1//EN" "http://www.w3.org/Graphics/SVG/1.1/DTD/svg11.dtd"><svg width="100%" height="100%" viewBox="0 0 24 24" version="1.1" xmlns="http://www.w3.org/2000/svg" xmlns:xlink="http://www.w3.org/1999/xlink" xml:space="preserve" xmlns:serif="http://www.serif.com/" style="fill-rule:evenodd;clip-rule:evenodd;stroke-linejoin:round;stroke-miterlimit:2;"><circle cx="12" cy="12" r="12" style="fill:url(#_Linear1);"/><path d="M20.591,12.146l-2.116,0c0,-4.311 -3.507,-7.806 -7.833,-7.806c-4.273,0 -7.747,3.41 -7.832,7.647c-0.088,4.38 4.036,8.183 8.432,8.183l0.553,0c3.876,0 9.07,-3.023 9.882,-6.707c0.15,-0.679 -0.388,-1.317 -1.086,-1.317Zm-13.093,0.192c0,0.577 -0.473,1.048 -1.052,1.048c-0.578,0 -1.051,-0.471 -1.051,-1.048l-0,-1.695c-0,-0.577 0.473,-1.048 1.051,-1.048c0.579,-0 1.052,0.471 1.052,1.048l0,1.695Zm3.652,0c0,0.577 -0.473,1.048 -1.052,1.048c-0.578,0 -1.051,-0.471 -1.051,-1.048l-0,-1.695c-0,-0.577 0.473,-1.048 1.051,-1.048c0.579,-0 1.052,0.471 1.052,1.048l0,1.695Z" style="fill:url(#_Linear2);fill-rule:nonzero;"/><defs><linearGradient id="_Linear1" x1="0" y1="0" x2="1" y2="0" gradientUnits="userSpaceOnUse" gradientTransform="matrix(1.46958e-15,24,-24,1.46958e-15,12,0)"><stop offset="0" style="stop-color:#534bb1;stop-opacity:1"/><stop offset="1" style="stop-color:#551bf9;stop-opacity:1"/></linearGradient><linearGradient id="_Linear2" x1="0" y1="0" x2="1" y2="0" gradientUnits="userSpaceOnUse" gradientTransform="matrix(9.69297e-16,15.8298,-15.8298,9.69297e-16,12.2553,4.34042)"><stop offset="0" style="stop-color:#fff;stop-opacity:1"/><stop offset="1" style="stop-color:#fff;stop-opacity:0.82"/></linearGradient></defs></svg>