<svg xmlns="http://www.w3.org/2000/svg" width="24" height="14.704" viewBox="0 0 24 14.704">
  <g id="walletconnect-icon" transform="translate(-14.628 -10.626)">
    <path id="Path_5644" data-name="Path 5644" d="M9.542,7.5a10.177,10.177,0,0,1,14.173,0l.471.461a.483.483,0,0,1,0,.694l-1.611,1.577a.255.255,0,0,1-.355,0L21.572,9.6a7.1,7.1,0,0,0-9.888,0l-.694.679a.255.255,0,0,1-.355,0L9.025,8.7a.483.483,0,0,1,0-.694L9.542,7.5ZM27.048,10.76l1.434,1.4a.483.483,0,0,1,0,.694l-6.466,6.329a.509.509,0,0,1-.709,0l-4.589-4.492a.127.127,0,0,0-.178,0l-4.589,4.492a.509.509,0,0,1-.709,0L4.775,12.858a.483.483,0,0,1,0-.694l1.434-1.4a.509.509,0,0,1,.708,0l4.589,4.492a.127.127,0,0,0,.178,0l4.589-4.492a.509.509,0,0,1,.709,0l4.59,4.492a.127.127,0,0,0,.178,0l4.589-4.492a.509.509,0,0,1,.709,0Z" transform="translate(10 6)" fill="#3b99fc"/>
  </g>
</svg>
