<svg width="214" height="35" viewBox="0 0 214 35" fill="none" xmlns="http://www.w3.org/2000/svg">
  <path d="M21.5727 3.52715C21.5505 3.54112 21.5319 3.56012 21.5183 3.58262C21.5047 3.60512 21.4966 3.6305 21.4945 3.65673C21.4924 3.68297 21.4965 3.70933 21.5063 3.73371C21.5162 3.75809 21.5316 3.77983 21.5513 3.79716C21.5678 3.8265 21.59 3.85222 21.6166 3.87284C21.6431 3.89347 21.6735 3.90858 21.7059 3.9173C21.7383 3.92602 21.7722 3.92817 21.8054 3.92363C21.8387 3.91909 21.8707 3.90795 21.8996 3.89086C21.9713 3.85449 22.0421 3.81653 22.1201 3.77471C22.1571 3.75485 22.1957 3.73412 22.2369 3.71228C22.2035 3.68364 22.1723 3.65661 22.1424 3.63077C22.0803 3.57702 22.0237 3.52807 21.9664 3.48059C21.817 3.35679 21.6931 3.43456 21.5727 3.52715Z" fill="#222222"/>
  <path fill-rule="evenodd" clip-rule="evenodd" d="M17.369 0.460205C35.5072 0.460205 34.7204 17.0538 34.7204 17.0538C34.7204 17.0538 36.2215 34.6597 17.7386 34.6597C-1.53244 34.6597 0.827078 16.3778 0.827078 16.3778C0.827078 16.3778 1.32821 0.460205 17.369 0.460205ZM21.6745 13.5897C20.0454 10.4415 15.6974 9.16204 12.2941 11.2555C7.91874 13.9469 8.17617 20.1295 12.1827 22.593C12.4907 22.7824 12.6298 22.7603 12.832 22.4857C13.454 21.6464 14.2484 20.9517 15.1613 20.4488C15.3106 20.3651 15.4621 20.2855 15.6345 20.1948L15.7216 20.1491C15.7824 20.117 15.846 20.0835 15.913 20.0478C13.9201 19.7004 12.855 18.7856 12.7315 17.3742C12.5985 15.8547 13.3363 14.6187 14.6834 14.1044C15.3023 13.8773 15.9779 13.8589 16.6081 14.052C17.2384 14.2451 17.7889 14.6392 18.1767 15.1748C18.4239 15.5146 18.5975 15.9028 18.6863 16.3143C18.775 16.7258 18.7768 17.1514 18.6917 17.5637C18.5283 18.4336 18.0149 19.0633 17.3698 19.6185C19.5578 19.1037 21.1518 17.8918 21.8269 15.7308C22.0225 15.1049 21.9833 14.1864 21.6745 13.5897ZM7.96899 26.8976C8.41334 26.7431 8.84992 26.5914 9.29541 26.4777C9.74718 26.3624 10.2083 26.2842 10.6859 26.2033C10.8994 26.1671 11.1164 26.1303 11.337 26.0895C11.3982 25.025 11.7619 24.0006 12.3848 23.1377C10.2346 22.9084 7.69196 24.9189 7.37013 27.1021C7.57218 27.0355 7.771 26.9664 7.96817 26.8979L7.96899 26.8976ZM24.0819 5.18089C23.7179 5.17831 23.354 5.17573 22.9904 5.16229C22.9128 5.15942 22.8377 5.10371 22.7621 5.04793C22.7272 5.02216 22.6923 4.9964 22.6572 4.97585C22.6942 4.96104 22.7312 4.94228 22.7682 4.92351C22.848 4.88306 22.9278 4.84261 23.008 4.84185C23.8592 4.83382 24.7105 4.83455 25.5623 4.83529C25.8088 4.8355 26.0556 4.83571 26.3023 4.83571C26.3035 4.26138 25.5402 3.47495 24.8619 3.26185L24.8471 3.48908C24.1732 3.50518 23.5117 3.49256 22.9108 3.17127C22.8025 3.11334 22.7198 3.00693 22.6371 2.90049C22.599 2.85136 22.5608 2.80223 22.5201 2.75786C22.4697 2.70288 22.4221 2.64302 22.3744 2.58316C22.2689 2.45041 22.1633 2.31764 22.027 2.2381C21.7643 2.08481 21.486 1.95886 21.2076 1.83284C21.0563 1.76432 20.9049 1.69579 20.7559 1.62283C19.2526 0.886614 17.6651 0.912502 15.9599 1.06947L18.8203 1.73891L18.7888 1.90773C17.9478 2.02103 17.1378 1.84512 16.325 1.66862C15.9479 1.58673 15.57 1.50466 15.1883 1.45135C15.6206 1.70938 16.0664 1.94374 16.5238 2.15338C16.8461 2.29882 17.1754 2.42865 17.5069 2.55932C17.6527 2.61678 17.7991 2.67453 17.9453 2.73372C17.3372 3.25616 16.727 3.3708 15.9626 3.19518C15.5413 3.095 15.1085 3.05261 14.6759 3.06914C14.2193 3.08119 13.7748 3.21945 13.3911 3.46877C13.5167 3.53278 13.6394 3.5936 13.7595 3.65313C14.0491 3.79669 14.3239 3.93286 14.5872 4.08809C14.7408 4.17868 14.9169 4.33247 14.9598 4.49113C15.0456 4.87783 15.1095 5.26913 15.1511 5.66314C14.4494 5.74306 13.2157 6.46057 12.9663 6.9275C13.319 6.99575 13.682 7.01467 14.0468 7.03369C14.7972 7.07281 15.5553 7.11233 16.2476 7.58255C16.0715 7.71655 15.7738 7.86751 15.4878 8.01254C15.2235 8.14658 14.9692 8.27554 14.8301 8.38133C15.188 8.47561 16.0172 8.42945 16.3416 8.40734C16.6146 8.38873 16.7407 8.38202 16.8527 8.47465L20.0273 10.9736C20.361 11.2442 21.7092 12.5273 22.0612 13.3338C22.2612 13.7793 22.3753 14.2589 22.3974 14.7472C22.3981 15.3116 22.2934 15.8711 22.0889 16.3966C21.979 16.6771 21.6567 17.2986 20.9917 18.0229C19.9611 19.1455 18.6353 19.7523 17.1856 20.0529C13.8146 20.7517 11.0137 24.3713 11.8044 28.3615C12.7274 33.0202 17.8413 35.5424 22.0205 33.3264C24.7217 31.8941 26.1538 29.0996 25.7701 26.0576C25.5382 24.2199 24.7114 22.721 23.3253 21.5161C23.1441 21.3585 23.0293 21.3586 22.8168 21.4953C22.0942 21.9591 21.358 22.3984 20.6081 22.8133C20.3168 22.9745 20.0091 23.1057 19.6732 23.2489L19.6715 23.2496C19.5122 23.3175 19.3467 23.3881 19.1735 23.4659L19.3428 23.5097C19.4238 23.5306 19.4802 23.5451 19.5365 23.5602C21.5518 24.0994 22.6285 25.8783 22.1515 27.8708C21.7274 29.6427 19.9384 30.7756 18.2046 30.4768C16.7593 30.2277 15.4975 29.0209 15.2868 27.5748C15.0572 25.999 15.8377 24.4834 17.2265 23.8485C17.5961 23.6795 17.9704 23.521 18.3448 23.3626C18.7505 23.1908 19.1567 23.0189 19.5563 22.8338C19.787 22.7269 20.0227 22.626 20.2587 22.5249C20.9163 22.2433 21.5761 21.9607 22.1376 21.5462C24.0309 20.1482 25.2001 18.2236 25.6559 15.9005C25.929 14.509 25.9105 13.1235 25.2774 11.8023C24.7915 10.7883 23.9941 10.0517 23.1374 9.37949C22.7124 9.04602 22.2754 8.72797 21.8384 8.40993C21.3689 8.06827 20.8994 7.72653 20.4449 7.36582C20.2074 7.17732 20.0471 6.85231 19.9372 6.55759C19.8906 6.4327 20.0421 6.09401 20.1434 6.07572C20.684 5.98157 21.2305 5.92546 21.7789 5.9078C22.2764 5.88891 22.775 5.89751 23.2735 5.9061C23.408 5.90842 23.5431 5.91074 23.6775 5.91251C23.7007 5.91282 23.7252 5.91256 23.7503 5.9123C23.8745 5.91102 24.0143 5.90958 24.0799 5.97438C24.4077 6.29843 24.6648 6.08999 24.8924 5.8768C25.0696 5.68439 25.2303 5.47718 25.3726 5.25742C25.2169 5.2239 25.059 5.20178 24.9001 5.19122C24.6276 5.18474 24.3545 5.18281 24.0819 5.18089Z" fill="#222222"/>
  <path d="M132.761 23.0673V19.7219H126.578V17.0992H135.574V23.9555C134.479 25.8553 133.051 27.3112 131.292 28.3231C129.533 29.335 127.537 29.841 125.305 29.841C121.909 29.841 119.106 28.7154 116.894 26.4644C114.683 24.2135 113.577 21.3602 113.577 17.9046C113.577 14.4353 114.687 11.5751 116.905 9.32411C119.123 7.07317 121.923 5.9477 125.305 5.9477C127.4 5.9477 129.31 6.4089 131.035 7.3313C132.759 8.25201 134.211 9.61231 135.246 11.2756L132.884 12.969C132.188 11.6234 131.118 10.511 129.803 9.76801C128.432 8.98943 126.88 8.59037 125.305 8.6115C122.758 8.6115 120.65 9.48917 118.979 11.2445C117.308 12.9998 116.473 15.2198 116.473 17.9044C116.473 20.5891 117.309 22.8056 118.979 24.5541C120.65 26.3026 122.758 27.1768 125.305 27.1767C126.893 27.1767 128.307 26.8325 129.546 26.1441C130.785 25.4559 131.857 24.4303 132.761 23.0673Z" fill="#222222"/>
  <path d="M38.9985 6.44267L46.3924 29.2412H48.467L54.3822 10.8829L60.3589 29.2412H62.4128L69.7862 6.44267H67.0956L61.4475 23.9961L55.6966 6.44267H53.1703L47.3989 24.0372L41.7712 6.44267H38.9985Z" fill="#222222"/>
  <path d="M69.2803 11.5636V29.2413H72.0736V11.5636H69.2803Z" fill="#222222"/>
  <path fill-rule="evenodd" clip-rule="evenodd" d="M78.5487 21.5387V29.2415H75.7966V11.647H87.8736C89.6673 11.647 91.0707 12.0807 92.084 12.9481C93.0972 13.8155 93.6038 15.0201 93.6039 16.5621C93.6244 17.7596 93.1953 18.9209 92.4023 19.8145C91.6013 20.7303 90.5573 21.2914 89.2702 21.4976L94.1379 29.2418H91.1598L86.1894 21.5389L78.5487 21.5387ZM78.5487 18.9573H87.8733C88.8181 18.9573 89.5404 18.7508 90.0402 18.3377C90.5398 17.9247 90.7897 17.3327 90.7898 16.5618C90.7898 15.7909 90.5399 15.2024 90.0402 14.7962C89.5401 14.3902 88.8179 14.1871 87.8733 14.1869H78.5487V18.9573Z" fill="#222222"/>
  <path d="M96.1984 11.6057V29.2412L96.1973 29.2417H113.409V26.7015H98.9501V21.1258H107.946V18.5857H98.9501V14.187H112.65V11.6057H96.1984Z" fill="#222222"/>
  <path d="M141.397 11.647H138.645L138.645 23.6659C138.645 25.8549 139.315 27.4244 140.658 28.3743C141.999 29.3243 144.204 29.7993 147.271 29.7993C150.352 29.799 152.573 29.3171 153.936 28.3537C155.298 27.39 155.979 25.8274 155.979 23.6659V11.647H153.248V22.9431C153.248 24.6367 152.851 25.7794 152.057 26.3712C151.262 26.9632 149.681 27.2592 147.312 27.2592C144.957 27.2593 143.382 26.9633 142.588 26.3712C141.794 25.7792 141.397 24.6365 141.397 22.9431V11.647Z" fill="#222222"/>
  <path fill-rule="evenodd" clip-rule="evenodd" d="M155.55 29.2412L164.463 11.6057H166.189L175.185 29.2412H172.248L169.968 24.7599H160.705L158.446 29.2412H155.55ZM161.896 22.4264H168.756L165.347 15.6735L161.896 22.4264Z" fill="#222222"/>
  <path fill-rule="evenodd" clip-rule="evenodd" d="M178.237 29.2415V21.5387L185.877 21.5389L190.848 29.2418H193.826L188.958 21.4976C190.245 21.2914 191.289 20.7303 192.09 19.8145C192.883 18.9209 193.312 17.7596 193.292 16.5621C193.292 15.0201 192.785 13.8155 191.772 12.9481C190.759 12.0807 189.355 11.647 187.561 11.647H175.484V29.2415H178.237ZM187.561 18.9573H178.237V14.1869H187.561C188.506 14.1871 189.228 14.3902 189.728 14.7962C190.228 15.2024 190.478 15.7909 190.478 16.5618C190.477 17.3327 190.228 17.9247 189.728 18.3377C189.228 18.7508 188.506 18.9573 187.561 18.9573Z" fill="#222222"/>
  <path fill-rule="evenodd" clip-rule="evenodd" d="M203.713 11.6057C206.574 11.6057 208.881 12.4282 210.634 14.0734C212.387 15.7188 213.263 17.8561 213.263 20.4856C213.263 23.1428 212.404 25.2664 210.686 26.8565C208.967 28.4465 206.643 29.2416 203.713 29.2417H195.928V11.6061L203.713 11.6057ZM203.754 14.1458H198.681V26.7015H203.754C205.835 26.7015 207.471 26.1405 208.662 25.0185C209.854 23.8966 210.449 22.3718 210.449 20.4443C210.449 18.5857 209.833 17.0712 208.601 15.901C207.368 14.731 205.753 14.1459 203.754 14.1458Z" fill="#222222"/>
  <path d="M210.994 12.2381V10.592H211.552C211.933 10.592 212.105 10.7972 212.105 10.9978C212.105 11.2121 211.923 11.431 211.651 11.4812L212.209 12.2381H211.942L211.325 11.3489C211.375 11.3581 211.429 11.3672 211.47 11.3672C211.747 11.3672 211.901 11.1848 211.901 11.0252C211.901 10.893 211.796 10.7607 211.583 10.7607H211.198V12.2381H210.994Z" fill="#222222"/>
  <path fill-rule="evenodd" clip-rule="evenodd" d="M211.479 10.0038H211.62C212.436 10.0038 212.953 10.6878 212.985 11.4128V11.4949C212.985 12.188 212.558 12.8628 211.583 12.8902H211.52C210.581 12.8902 210.137 12.188 210.137 11.4857C210.137 10.7607 210.622 10.0129 211.479 10.0038ZM211.538 10.1998C211.189 10.1998 210.889 10.3138 210.604 10.6239C210.409 10.861 210.377 11.2167 210.377 11.2167C210.376 11.2349 210.374 11.2544 210.372 11.2743C210.368 11.3191 210.363 11.3658 210.363 11.4037C210.363 12.0512 210.817 12.6987 211.529 12.6987C211.536 12.6987 211.546 12.6976 211.556 12.6964C211.566 12.6953 211.577 12.6941 211.583 12.6941C212.146 12.6941 212.631 12.302 212.726 11.7411C212.744 11.659 212.753 11.5587 212.753 11.4721C212.753 10.861 212.304 10.2272 211.683 10.1998H211.538Z" fill="#222222"/>
</svg>
