<svg width="90" height="101" viewBox="0 0 90 101" fill="none" xmlns="http://www.w3.org/2000/svg">
  <path opacity="0.1" d="M77.9585 4.10132H12.0415C5.39117 4.10132 0 9.49249 0 16.1428V82.0598C0 88.7102 5.39117 94.1013 12.0415 94.1013H77.9585C84.6088 94.1013 90 88.7102 90 82.0598V16.1428C90 9.49249 84.6088 4.10132 77.9585 4.10132Z" fill="#3E73F9"/>
  <path d="M44.0543 0.500122L11.3284 19.3989C9.6178 20.3818 8.22983 22.7901 8.23733 24.7632L8.4324 92.7134C8.4324 94.6865 9.83537 95.4818 11.5459 94.499L55.143 69.3281C56.861 68.3377 58.249 65.9294 58.2415 63.9563L58.084 8.49779L47.1378 14.8149C45.4647 15.7827 44.0993 15.0025 44.0918 13.0818L44.0543 0.507625" fill="white"/>
  <path d="M44.0543 0.500122L11.3284 19.3989C9.6178 20.3818 8.22983 22.7901 8.23733 24.7632L8.4324 92.7134C8.4324 94.6865 9.83537 95.4818 11.5459 94.499L55.143 69.3281C56.861 68.3377 58.249 65.9294 58.2415 63.9563L58.084 8.49779L47.1378 14.8149C45.4647 15.7827 44.0993 15.0025 44.0918 13.0818L44.0543 0.507625" stroke="#3E73F9" stroke-linecap="round" stroke-linejoin="round"/>
  <path d="M44.0547 0.500122L44.0922 13.0743C44.0922 15.0025 45.4652 15.7752 47.1382 14.8074L58.0844 8.49029L44.0547 0.500122Z" fill="white" stroke="#3E73F9" stroke-linecap="round" stroke-linejoin="round"/>
  <path opacity="0.1" d="M62.0224 9.2781L54.9851 5.27177L53.6646 6.01451L46.7473 2.00818L15.2668 20.1867C13.5563 21.1696 12.1683 23.5779 12.1758 25.551L12.3709 93.5012C12.3709 93.5012 12.3709 93.5537 12.3709 93.5837L61.3847 67.5725C61.8724 66.6572 62.18 65.6594 62.1725 64.7441L62.0149 9.2856L62.0224 9.2781Z" fill="#7D8087"/>
  <path d="M51.0393 2.65332L18.3059 21.5521C16.5953 22.5349 15.2074 24.9433 15.2149 26.9164L15.4099 94.8666C15.4099 96.8397 16.8129 97.635 18.5235 96.6522L62.1205 71.4813C63.8386 70.4909 65.2265 68.0826 65.219 66.1095L65.0615 10.651L54.1153 16.9681C52.4423 17.9359 51.0768 17.1557 51.0693 15.235L51.0318 2.66082" fill="white"/>
  <path d="M51.0393 2.65332L18.3059 21.5521C16.5953 22.5349 15.2074 24.9433 15.2149 26.9164L15.4099 94.8666C15.4099 96.8397 16.8129 97.635 18.5235 96.6522L62.1205 71.4813C63.8386 70.4909 65.2265 68.0826 65.219 66.1095L65.0615 10.651L54.1153 16.9681C52.4423 17.9359 51.0768 17.1557 51.0693 15.235L51.0318 2.66082" stroke="#3E73F9" stroke-linecap="round" stroke-linejoin="round"/>
  <path d="M51.0391 2.65332L51.0766 15.2275C51.0766 17.1557 52.4495 17.9284 54.1226 16.9606L65.0687 10.6435L51.0466 2.65332" fill="white"/>
  <path d="M51.0391 2.65332L51.0766 15.2275C51.0766 17.1557 52.4495 17.9284 54.1226 16.9606L65.0687 10.6435L51.0466 2.65332" stroke="#3E73F9" stroke-linecap="round" stroke-linejoin="round"/>
  <path opacity="0.1" d="M69 11.4387L61.9626 7.43241L60.6422 8.17516L53.7249 4.16882L22.2444 22.3399C20.5338 23.3227 19.1458 25.731 19.1534 27.7042L19.3484 95.6543C19.3484 95.6543 19.3484 95.7068 19.3484 95.7368L68.3623 69.7257C68.8499 68.8104 69.1575 67.8125 69.15 66.8972L68.9925 11.4387H69Z" fill="#7D8087"/>
  <path d="M72.9836 55.7935L72.9686 50.1291V48.9512L72.8786 13.2543L71.0405 14.3197L61.9324 19.5714C60.2519 20.5393 58.8939 19.7665 58.8864 17.8384L58.8489 5.26416L52.5693 8.88787L36.8441 17.9734L26.1155 24.163C24.4049 25.1458 23.0169 27.5541 23.0244 29.5272L23.092 50.1516L23.167 77.6858L23.2195 97.4699C23.2195 99.4431 24.6225 100.246 26.3255 99.263L37.4743 92.8259L51.549 84.6931L53.4621 83.5903L57.0558 81.5121L59.6967 79.9891L69.9226 74.0846C71.6482 73.0943 73.0361 70.6935 73.0286 68.7128L73.0136 64.8115L72.9836 55.7935Z" fill="url(#paint0_linear_1942_18453)" stroke="#3E73F9" stroke-linecap="round" stroke-linejoin="round"/>
  <path opacity="0.1" d="M71.6029 12.204L63.0275 7.50743L58.9987 5.48926L57.7607 5.99943L57.7983 19.4064C57.7983 21.327 59.1712 21.8672 60.8443 20.5993L71.7904 14.1546L71.6104 12.204H71.6029Z" fill="#3E73F9"/>
  <path d="M58.8418 5.26416L58.8793 17.8384C58.8793 19.7665 60.2523 20.5393 61.9253 19.5714L72.8715 13.2543L58.8493 5.26416" fill="white"/>
  <path d="M58.8418 5.26416L58.8793 17.8384C58.8793 19.7665 60.2523 20.5393 61.9253 19.5714L72.8715 13.2543L58.8493 5.26416" stroke="#3E73F9" stroke-linecap="round" stroke-linejoin="round"/>
  <path d="M50.5594 56.9039C49.2314 57.6691 48.1511 57.0539 48.1436 55.5309C48.1436 54.0004 49.2089 52.1473 50.5444 51.382C51.8798 50.6168 52.9527 51.232 52.9602 52.755C52.9602 54.2855 51.8948 56.1386 50.5594 56.9039ZM45.2701 46.7455V44.1196C45.2551 40.7885 47.6034 36.7221 50.4993 35.0416C53.3953 33.3685 55.7586 34.719 55.7661 38.0501V40.6759L45.2626 46.7455M50.4918 31.3954C45.8403 34.0813 42.0665 40.6159 42.0815 45.9577V48.5986C40.536 49.6865 39.3281 51.8997 39.3281 53.7378L39.3581 65.5918C39.3581 67.5574 40.7536 68.3527 42.4642 67.3623L58.6846 57.9992C60.3951 57.0089 61.7756 54.6156 61.7681 52.6499L61.7381 40.796C61.7381 38.9579 60.5152 38.1476 58.9547 38.8603V36.2195C58.9322 30.8777 55.1359 28.7095 50.4843 31.3954" fill="#3E73F9"/>
  <g opacity="0.1" style="mix-blend-mode:multiply">
    <path d="M73.029 68.7129C73.0365 70.6935 71.6485 73.0943 69.9229 74.0847L59.697 79.9891L57.0561 81.5121C56.1333 80.1992 55.6157 78.3761 55.6007 76.1103C55.5782 69.133 60.4923 60.6327 66.5693 57.114C68.9626 55.7335 71.1834 55.3434 72.984 55.7936L73.014 64.8116L73.029 68.7129Z" fill="#3E73F9"/>
  </g>
  <path d="M49.621 20.2917L27.6237 32.9935V34.8916L49.621 22.1899V20.2917ZM37.0619 30.8478L27.6312 36.2871V38.1852L37.0619 32.7459V30.8478ZM41.9235 21.4171L27.6162 29.6774V31.5755L41.931 23.3153V21.4171" fill="#3E73F9"/>
  <g opacity="0.2" style="mix-blend-mode:screen">
    <path d="M52.5698 8.88794L23.16 77.6859L23.085 50.1517L36.8445 17.966L52.5698 8.88794Z" fill="#ECF1FF"/>
  </g>
  <g opacity="0.2" style="mix-blend-mode:screen">
    <path d="M72.9689 48.9438V48.9513L59.697 79.9891L53.4624 83.5903L51.5493 84.6932L37.4746 92.8184L71.0333 14.3122L72.8714 13.2544L72.9689 48.9438Z" fill="#ECF1FF"/>
  </g>
  <path d="M78.7304 60.8127C78.6779 60.7827 78.6253 60.7602 78.5653 60.7302C78.4678 60.6777 78.3628 60.6327 78.2652 60.5952C78.1902 60.5652 78.1077 60.5277 78.0326 60.5051C77.9276 60.4601 77.8076 60.4226 77.695 60.4001C77.5975 60.3701 77.515 60.3551 77.4174 60.3326C77.2524 60.3026 77.0948 60.2726 76.9223 60.2501C76.8172 60.2351 76.7047 60.2275 76.5997 60.22C76.4871 60.22 76.3671 60.205 76.2395 60.205C75.5193 60.205 74.7616 60.3251 73.9588 60.5877C73.6287 60.6852 73.2986 60.8202 72.9534 60.9628C72.5708 61.1353 72.1732 61.3304 71.7681 61.5705C66.2687 64.7441 61.8272 72.4341 61.8422 78.7587C61.8422 78.9838 61.8422 79.2014 61.8648 79.4114C61.8648 79.569 61.8873 79.7115 61.8948 79.8616C61.9098 80.0266 61.9248 80.1842 61.9473 80.3493C61.9773 80.5968 62.0223 80.8444 62.0748 81.0695C62.1574 81.4446 62.2549 81.8047 62.3749 82.1348C62.4349 82.3224 62.51 82.5025 62.5925 82.675C62.6375 82.7726 62.6825 82.8701 62.735 82.9601C62.7726 83.0577 62.8326 83.1477 62.8851 83.2377C62.9826 83.4103 63.0952 83.5828 63.2077 83.7329C63.2452 83.7929 63.2977 83.8529 63.3427 83.9129C63.5453 84.168 63.7629 84.4006 63.9955 84.6032C64.0555 84.6557 64.1155 84.7082 64.183 84.7607C64.3331 84.8808 64.4756 84.9858 64.6407 85.0833L61.4221 83.2152C59.6365 82.1799 58.5261 79.9666 58.5186 76.8306C58.4961 70.5135 62.9451 62.8234 68.4445 59.6424C71.2129 58.0443 73.7187 57.9018 75.5268 58.9521L78.7154 60.8127H78.7304Z" fill="#ECF1FF" stroke="#3E73F9" stroke-linecap="round" stroke-linejoin="round"/>
  <path d="M78.8658 60.8877C78.7683 60.8351 78.6708 60.7826 78.5732 60.7301C78.6258 60.7601 78.6783 60.7826 78.7383 60.8126C78.7758 60.8351 78.8283 60.8576 78.8658 60.8877Z" fill="#ECF1FF" stroke="#3E73F9" stroke-linecap="round" stroke-linejoin="round"/>
  <path d="M81.7616 67.2648C81.7842 73.5894 77.3352 81.2795 71.8433 84.453C69.0224 86.0811 66.4715 86.2011 64.6559 85.0832C64.4909 84.9857 64.3483 84.8807 64.1983 84.7606C64.1383 84.7156 64.0707 84.6631 64.0107 84.6031C63.7781 84.393 63.5606 84.1679 63.358 83.9129C63.313 83.8603 63.268 83.8003 63.223 83.7328C63.1104 83.5752 62.9979 83.4102 62.9004 83.2376C62.8478 83.1476 62.8028 83.0576 62.7503 82.96C62.7053 82.87 62.6528 82.78 62.6078 82.6749C62.5327 82.5024 62.4577 82.3223 62.3902 82.1348C62.2701 81.8047 62.1651 81.4445 62.0901 81.0694C62.0376 80.8368 61.9926 80.5968 61.9625 80.3492C61.94 80.1841 61.925 80.0341 61.91 79.8615C61.8875 79.7115 61.88 79.5689 61.88 79.4114C61.865 79.2013 61.8575 78.9837 61.8575 78.7586C61.835 72.434 66.284 64.744 71.7833 61.5704C72.1885 61.3378 72.5861 61.1428 72.9687 60.9627C73.3138 60.8127 73.6439 60.6851 73.974 60.5876C74.7768 60.325 75.5346 60.205 76.2548 60.205C76.3748 60.205 76.4874 60.205 76.6149 60.22C76.72 60.22 76.8325 60.235 76.9375 60.25C77.1026 60.2725 77.2676 60.295 77.4327 60.3325C77.5302 60.355 77.6203 60.37 77.7103 60.4C77.8228 60.43 77.9354 60.46 78.0479 60.5051C78.1304 60.5351 78.213 60.5576 78.2805 60.5951C78.378 60.6326 78.483 60.6851 78.5806 60.7301C78.6331 60.7601 78.6856 60.7826 78.7456 60.8127C78.7831 60.8352 78.8357 60.8577 78.8732 60.8877C80.6663 61.923 81.7691 64.1363 81.7766 67.2723L81.7616 67.2648Z" fill="#C8D7FF" stroke="#3E73F9" stroke-linecap="round" stroke-linejoin="round"/>
  <path d="M76.795 64.9991L70.4403 76.0053L67.2668 74.1972L65.4512 77.3408L70.4553 80.1917L78.6256 66.042L76.795 64.9991Z" fill="#3E73F9"/>
  <defs>
    <linearGradient id="paint0_linear_1942_18453" x1="17.9528" y1="27.1039" x2="71.6181" y2="78.5486" gradientUnits="userSpaceOnUse">
      <stop stop-color="#E6E6FF"/>
      <stop offset="1" stop-color="#9FB8F9"/>
    </linearGradient>
  </defs>
</svg>
