<svg width="90" height="88" viewBox="0 0 90 88" fill="none" xmlns="http://www.w3.org/2000/svg">
  <g clip-path="url(#clip0_1927_2129)">
    <path opacity="0.1" d="M82.0661 3.55945H7.93391C3.55213 3.55945 0 7.10449 0 11.4775V72.8715C0 77.2446 3.55213 80.7896 7.93391 80.7896H82.0661C86.4479 80.7896 90 77.2446 90 72.8715V11.4775C90 7.10449 86.4479 3.55945 82.0661 3.55945Z" fill="#3E73F9"/>
    <path opacity="0.1" d="M56.5427 82.2119L83.4347 66.6152L76.2346 62.4643L37.6833 40.2522L14.513 53.6907L4.99514 59.2077L43.6946 81.5078L4.99514 59.2112L4.93164 61.637L50.6866 88L83.3712 69.041L83.4347 66.6152L56.5427 82.2119Z" fill="#3E73F9"/>
    <path d="M83.4025 65.7386L50.7178 84.6976L4.96289 58.3311L14.4808 52.8141L37.651 39.3756L76.2023 61.5877L83.4025 65.7386Z" fill="white" stroke="#3E73F9" stroke-linecap="round" stroke-linejoin="round"/>
    <path d="M83.4024 65.7386L83.3389 68.1644L50.6543 87.1234L50.7178 84.6976L83.4024 65.7386Z" fill="#C6D5FE" stroke="#3E73F9" stroke-linecap="round" stroke-linejoin="round"/>
    <path d="M50.7182 84.6976L50.6547 87.1234L4.90332 60.7604L4.96682 58.3346L50.7182 84.6976Z" fill="#ECF1FF" stroke="#3E73F9" stroke-linecap="round" stroke-linejoin="round"/>
    <path d="M75.4587 60.3801L75.4516 66.0977L49.7273 81.0185L13.7266 60.2709L13.7371 51.6065L36.9074 38.168L75.4587 60.3801Z" fill="#ECF1FF"/>
    <path d="M75.3874 33.3341L75.3345 65.0486L70.8155 67.668L49.6172 79.9623L49.663 48.2513L70.8155 35.9852L75.3874 33.3341Z" fill="white" stroke="#3E73F9" stroke-linecap="round" stroke-linejoin="round"/>
    <path d="M49.6634 48.2513L49.614 79.9658L13.6133 59.2183L13.6627 27.5073L49.6634 48.2513Z" fill="white" stroke="#3E73F9" stroke-linecap="round" stroke-linejoin="round"/>
    <path d="M75.2683 33.5559L75.2189 64.9782L70.6963 67.5976V36.207L75.2683 33.5559Z" fill="#ECF1FF"/>
    <path d="M46.6856 50.6453L46.6786 52.962V53.5077L43.1191 51.4551L33.3966 45.8537L22.4077 39.5234L17.8498 36.897L15.8037 35.7176L15.8108 32.8552L16.2235 33.0946L17.8463 34.0276L22.4077 36.6576L33.386 42.9808L43.1191 48.5892L46.6856 50.6453Z" fill="#9EB8FB"/>
    <path d="M46.686 50.6453L46.6789 52.9619L43.1194 50.9094L33.3934 45.3079L22.408 38.9777L17.8501 36.3477L16.2168 35.4077L16.2239 33.0946L17.8466 34.0276L22.408 36.6576L33.3864 42.9807L43.1194 48.5892L46.686 50.6453Z" fill="url(#paint0_linear_1927_2129)"/>
    <path d="M46.6856 55.4335L46.6786 57.7502V58.2959L43.1191 56.2468L33.4107 50.6524L22.4077 44.3116L17.8604 41.6922V41.6887L15.8037 40.5058L15.8108 37.6434L16.2235 37.8828L17.8533 38.8193V38.8229L22.4077 41.4458L33.4037 47.7831L43.1191 53.381L46.6856 55.4335Z" fill="#9EB8FB"/>
    <path d="M46.686 55.4335L46.6789 57.7501L43.1194 55.7011L33.4111 50.1067L22.408 43.7659L17.8572 41.143L16.2168 40.1994L16.2239 37.8828L17.8537 38.8193V38.8228L22.408 41.4458L33.404 47.783L43.1194 53.381L46.686 55.4335Z" fill="url(#paint1_linear_1927_2129)"/>
    <path d="M46.6856 60.2252L46.6786 62.5418V63.084L43.1191 61.0349L33.4284 55.4511L22.4077 49.1033L17.8674 46.4839L15.8037 45.2939L15.8108 42.4351L16.2235 42.6709L17.8604 43.6145L22.4077 46.2339L33.4213 52.5817L43.1191 58.1691L46.6856 60.2252Z" fill="#9EB8FB"/>
    <path d="M46.686 60.2251L46.6789 62.5418L43.1194 60.4892L33.4287 54.9089V54.9053L22.408 48.5575L17.8643 45.9381L16.2168 44.9875L16.2239 42.6709L17.8607 43.6144L22.408 46.2339L33.4216 52.5817L43.1194 58.169L46.686 60.2251Z" fill="url(#paint2_linear_1927_2129)"/>
    <path d="M46.6856 65.0134L46.6786 67.33V67.8757L43.1191 65.8267L33.4495 60.2534L22.4077 53.8915L17.8745 51.2791L15.8037 50.0856L15.8108 47.2233L16.2235 47.4627L17.8674 48.4097L22.4077 51.0256L33.4389 57.3805L43.1191 62.9573L46.6856 65.0134Z" fill="#9EB8FB"/>
    <path d="M46.686 65.0134L46.6789 67.33L43.1194 65.2809L33.4463 59.7041L22.408 53.3457L17.8713 50.7334V50.7299L16.2168 49.7793L16.2239 47.4626L17.8678 48.4097L22.408 51.0256L33.4393 57.3805L43.1194 62.9573L46.686 65.0134Z" fill="url(#paint3_linear_1927_2129)"/>
    <path d="M46.6856 69.805L46.6786 72.1216V72.6638L43.1191 70.6148L33.4636 65.0521L22.4077 58.6796L17.8816 56.0743L15.8037 54.8772L15.8108 52.0149L16.2235 52.2508L17.878 53.2049L22.4077 55.8137L33.4531 62.1792L43.1191 67.7489L46.6856 69.805Z" fill="#9EB8FB"/>
    <path d="M46.686 69.805L46.6789 72.1216L43.1194 70.069L33.4604 64.5063L22.408 58.1374L17.8784 55.5285L16.2168 54.5709L16.2239 52.2507L17.8784 53.2048L22.408 55.8137L33.4534 62.1791L43.1194 67.7489L46.686 69.805Z" fill="url(#paint4_linear_1927_2129)"/>
    <path d="M73.0351 41.6746L60.0918 49.1314V46.2656L72.6153 39.0517L73.0281 38.8123L73.0351 41.6746Z" fill="#9EB8FB"/>
    <path d="M52.5 53.5077V50.6383L58.476 47.1951V50.0609L52.5 53.5077Z" fill="#9EB8FB"/>
    <path d="M72.6224 41.3683L60.0918 48.5857V46.2656L72.6153 39.0516L72.6224 41.3683Z" fill="url(#paint5_linear_1927_2129)"/>
    <path d="M52.5 52.962V50.6383L58.476 47.1951V49.5187L52.5 52.962Z" fill="url(#paint6_linear_1927_2129)"/>
    <path d="M73.0351 46.4627L60.0918 53.9231V51.0572L72.6153 43.8398L73.0281 43.6039L73.0351 46.4627Z" fill="#9EB8FB"/>
    <path d="M52.5 58.2958V55.4299L58.476 51.9867V54.8525L52.5 58.2958Z" fill="#9EB8FB"/>
    <path d="M72.6224 46.1563L60.0918 53.3773V51.0572L72.6153 43.8397L72.6224 46.1563Z" fill="url(#paint7_linear_1927_2129)"/>
    <path d="M52.5 57.75V55.4298L58.476 51.9866V54.3067L52.5 57.75Z" fill="url(#paint8_linear_1927_2129)"/>
    <path d="M73.0351 51.2544L60.0918 58.7113V55.8454L72.6153 48.6315L73.0281 48.3921L73.0351 51.2544Z" fill="#9EB8FB"/>
    <path d="M52.5 63.084V60.2182L58.476 56.7749V59.6408L52.5 63.084Z" fill="#9EB8FB"/>
    <path d="M72.6224 50.9481L60.0918 58.1655V55.8454L72.6153 48.6315L72.6224 50.9481Z" fill="url(#paint9_linear_1927_2129)"/>
    <path d="M52.5 62.5418V60.2182L58.476 56.7749V59.0951L52.5 62.5418Z" fill="url(#paint10_linear_1927_2129)"/>
    <path d="M73.0351 56.0426L60.0918 63.4995V60.6336L72.6153 53.4197L73.0281 53.1803L73.0351 56.0426Z" fill="#9EB8FB"/>
    <path d="M52.5 67.8758V65.0099L58.476 61.5667V64.4325L52.5 67.8758Z" fill="#9EB8FB"/>
    <path d="M72.6224 55.7363L60.0918 62.9573V60.6336L72.6153 53.4197L72.6224 55.7363Z" fill="url(#paint11_linear_1927_2129)"/>
    <path d="M52.5 67.3299V65.0098L58.476 61.5665V63.8867L52.5 67.3299Z" fill="url(#paint12_linear_1927_2129)"/>
    <path d="M73.0351 60.8343L60.0918 68.2911V65.4253L72.6153 58.2113L73.0281 57.9719L73.0351 60.8343Z" fill="#9EB8FB"/>
    <path d="M52.5 72.6638V69.798L58.476 66.3547V69.2206L52.5 72.6638Z" fill="#9EB8FB"/>
    <path d="M72.6224 60.5279L60.0918 67.7454V65.4252L72.6153 58.2113L72.6224 60.5279Z" fill="url(#paint13_linear_1927_2129)"/>
    <path d="M52.5 72.1217V69.798L58.476 66.3547V68.6749L52.5 72.1217Z" fill="url(#paint14_linear_1927_2129)"/>
    <path d="M75.3882 33.3341L74.3863 33.915L49.6638 48.2513L14.6614 28.0812L13.6631 27.5073L39.3839 12.5901L75.3882 33.3341Z" fill="white" stroke="#3E73F9" stroke-linecap="round" stroke-linejoin="round"/>
    <path d="M74.386 33.915L49.6635 48.2513L14.6611 28.0812L39.3836 13.7449L74.386 33.915Z" fill="white" stroke="#3E73F9" stroke-linecap="round" stroke-linejoin="round"/>
    <path d="M69.6835 32.7954L66.6673 34.5452L48.7146 44.956L22.3834 29.7852L19.3672 28.046L40.3326 15.8855L69.6835 32.7954Z" fill="#ECF1FF"/>
    <g style="mix-blend-mode:multiply" opacity="0.1">
      <path d="M31.6262 29.6092L31.6298 28.9649L27.2871 26.4652L23.9957 28.3734L23.9922 29.0177L28.3348 31.5174L31.6262 29.6092Z" fill="#3E73F9"/>
    </g>
    <path d="M31.6266 28.4438L28.3352 30.3555L23.9961 27.8523L27.2875 25.9441L31.6266 28.4438Z" fill="white" stroke="#3E73F9" stroke-linecap="round" stroke-linejoin="round"/>
    <path d="M31.6264 28.4438V29.0881L28.335 30.9999V30.3556L31.6264 28.4438Z" fill="white" stroke="#3E73F9" stroke-linecap="round" stroke-linejoin="round"/>
    <path d="M28.3348 30.3555V30.9998L23.9922 28.4966L23.9957 27.8523L28.3348 30.3555Z" fill="white" stroke="#3E73F9" stroke-linecap="round" stroke-linejoin="round"/>
    <g opacity="0.5" style="mix-blend-mode:screen">
      <path d="M22.4081 36.6576V39.5234L17.8502 36.897V36.3477L17.8467 34.0276L22.4081 36.6576Z" fill="#ECF1FF"/>
    </g>
    <path opacity="0.1" d="M58.9094 27.5812L56.7539 28.831V29.6619L65.0018 34.4149L67.1537 33.165L67.1572 32.3341L58.9094 27.5812Z" fill="#3E73F9"/>
    <g opacity="0.5" style="mix-blend-mode:screen">
      <path d="M17.8535 38.8229L22.4078 41.4458V44.3117L17.8606 41.6923V41.6887L17.857 41.143L17.8535 38.8229Z" fill="#ECF1FF"/>
    </g>
    <g opacity="0.5" style="mix-blend-mode:screen">
      <path d="M17.8604 43.6145L22.4076 46.2339V49.1033L17.8674 46.4839L17.8639 45.9382L17.8604 43.6145Z" fill="#ECF1FF"/>
    </g>
    <g opacity="0.5" style="mix-blend-mode:screen">
      <path d="M17.8682 48.4097L22.4084 51.0255V53.8914L17.8752 51.279L17.8717 50.7333V50.7298L17.8682 48.4097Z" fill="#ECF1FF"/>
    </g>
    <g opacity="0.5" style="mix-blend-mode:screen">
      <path d="M17.8779 53.205L22.4076 55.8138V58.6797L17.8815 56.0743L17.8779 55.5286V53.205Z" fill="#ECF1FF"/>
    </g>
    <g opacity="0.5" style="mix-blend-mode:screen">
      <path d="M43.1198 48.5893V51.4552L33.3973 45.8537L33.3938 45.308L33.3867 42.9808L43.1198 48.5893Z" fill="#ECF1FF"/>
    </g>
    <g opacity="0.5" style="mix-blend-mode:screen">
      <path d="M43.1197 53.381V56.2469L33.4114 50.6525V50.1067L33.4043 47.7831L43.1197 53.381Z" fill="#ECF1FF"/>
    </g>
    <g opacity="0.5" style="mix-blend-mode:screen">
      <path d="M43.1197 58.1691V61.035L33.4289 55.4512V54.909V54.9054L33.4219 52.5818L43.1197 58.1691Z" fill="#ECF1FF"/>
    </g>
    <g opacity="0.5" style="mix-blend-mode:screen">
      <path d="M43.1196 62.9573V65.8267L33.45 60.2534L33.4465 59.7042L33.4395 57.3805L43.1196 62.9573Z" fill="#ECF1FF"/>
    </g>
    <g opacity="0.5" style="mix-blend-mode:screen">
      <path d="M33.4531 62.1792L43.1192 67.749V70.6148L33.4637 65.0521L33.4602 64.5064L33.4531 62.1792Z" fill="#ECF1FF"/>
    </g>
    <g style="mix-blend-mode:multiply">
      <path d="M38.6601 28.3382C40.4698 27.3771 44.8125 28.3911 48.3508 30.6091C51.8891 32.8271 53.2932 35.4078 51.4799 36.3725C49.6667 37.3372 45.3275 36.3197 41.7857 34.0981C38.2438 31.8801 36.8433 29.2994 38.6565 28.3382" fill="#ECF1FF"/>
    </g>
    <path d="M48.3434 1.48578C45.6835 -0.0457298 43.274 -0.190079 41.5313 0.820363L36.0527 3.99604C37.7919 2.9856 40.2049 3.12995 42.8648 4.66145C48.1494 7.70686 52.4215 15.0898 52.4039 21.1524C52.3827 28.0389 47.4897 31.8589 44.6816 33.4855L50.1602 30.3098C52.9683 28.6797 57.8613 24.8597 57.8825 17.9768C57.9001 11.9141 53.628 4.53119 48.3434 1.48578Z" fill="white"/>
    <path d="M57.841 17.9767C57.8269 23.1345 55.0753 26.5707 52.5177 28.6585C54.5391 26.4299 56.2465 23.3071 56.2571 19.1174C56.2747 12.6675 51.731 4.8128 46.1077 1.57023C44.9647 0.911858 43.8606 0.492894 42.834 0.302776C44.3862 -0.0422526 46.27 0.316859 48.302 1.48573C53.5901 4.53114 57.8587 11.9176 57.841 17.9767Z" fill="#ECF1FF"/>
    <path d="M48.3047 15.8221C46.4032 14.7272 44.8651 12.069 44.8722 9.88621C44.8722 8.80184 45.2602 8.04136 45.8776 7.68225L40.399 10.8579C39.7816 11.217 39.3971 11.9775 39.3936 13.0619C39.3865 15.2447 40.9246 17.9029 42.8261 18.9978C43.7821 19.5505 44.6499 19.5998 45.2779 19.2372L50.7565 16.0615C50.1285 16.4242 49.2642 16.3749 48.3047 15.8221Z" fill="#3E73F9"/>
    <path d="M52.1995 14.5899L48.4706 16.7516C48.1037 16.9628 47.6557 17.0367 47.1513 16.9452C46.7985 16.8818 46.4175 16.741 46.0224 16.5122C44.1209 15.4172 42.5828 12.7591 42.5899 10.5762C42.5899 10.3544 42.6075 10.1502 42.6393 9.9566C42.7592 9.19965 43.1049 8.65746 43.5953 8.37229L46.9749 6.41125C47.3523 6.78093 47.7192 7.17173 48.072 7.58013C48.1496 9.72424 49.6524 12.2662 51.5045 13.333C51.5892 13.3822 51.6738 13.428 51.7585 13.4667C51.9172 13.8364 52.0689 14.2131 52.2065 14.5863L52.1995 14.5899Z" fill="white"/>
    <path d="M51.279 15.2975C51.1414 14.9208 50.9897 14.5476 50.8309 14.1779C49.9137 12.0549 48.6437 10.0199 47.148 8.29128C46.7952 7.88288 46.4283 7.49208 46.0508 7.1224C45.056 6.14365 43.9836 5.30572 42.8653 4.66495C37.5807 1.61954 33.2804 4.06291 33.2627 10.1256C33.2381 19.5294 42.3044 33.6932 42.7806 34.4395C43.2604 34.2459 52.3796 30.5562 52.4043 21.1559C52.4079 19.2724 52.0022 17.2656 51.279 15.2975ZM46.2308 17.6528C45.9556 19.3709 44.5339 19.9835 42.823 18.9977C40.9215 17.8993 39.3834 15.2447 39.3905 13.0618C39.394 11.3367 40.3676 10.4248 41.7152 10.6642C42.068 10.7276 42.449 10.8684 42.8476 11.0973C44.7491 12.1922 46.2872 14.8503 46.2802 17.0332C46.2802 17.255 46.2625 17.4627 46.2308 17.6528Z" fill="url(#paint15_linear_1927_2129)" stroke="#3E73F9" stroke-linecap="round" stroke-linejoin="round"/>
    <path d="M48.3434 1.48578C45.6835 -0.0457298 43.274 -0.190079 41.5313 0.820363L36.0527 3.99604C37.7919 2.9856 40.2049 3.12995 42.8648 4.66145C48.1494 7.70686 52.4215 15.0898 52.4039 21.1524C52.3827 28.0389 47.4897 31.8589 44.6816 33.4855L50.1602 30.3098C52.9683 28.6797 57.8613 24.8597 57.8825 17.9768C57.9001 11.9141 53.628 4.53119 48.3434 1.48578Z" stroke="#3E73F9" stroke-linecap="round" stroke-linejoin="round"/>
    <path d="M66.8368 32.2356L64.8436 33.3939L57.2061 28.993L59.1992 27.8347L66.8368 32.2356Z" fill="white" stroke="#3E73F9" stroke-linecap="round" stroke-linejoin="round"/>
    <path d="M66.8366 32.2356V33.0066L64.8398 34.1614L64.8434 33.3939L66.8366 32.2356Z" fill="white" stroke="#3E73F9" stroke-linecap="round" stroke-linejoin="round"/>
    <path d="M64.8433 33.3939L64.8397 34.1614L57.2021 29.7606L57.2057 28.993L64.8433 33.3939Z" fill="white" stroke="#3E73F9" stroke-linecap="round" stroke-linejoin="round"/>
  </g>
  <defs>
    <linearGradient id="paint0_linear_1927_2129" x1="16.2168" y1="43.0265" x2="46.686" y2="43.0265" gradientUnits="userSpaceOnUse">
      <stop stop-color="#E6E6FF"/>
      <stop offset="1" stop-color="#8CADFF"/>
    </linearGradient>
    <linearGradient id="paint1_linear_1927_2129" x1="-0.000278175" y1="47.8182" x2="0.352497" y2="47.8182" gradientUnits="userSpaceOnUse">
      <stop stop-color="#E6E6FF"/>
      <stop offset="1" stop-color="#8CADFF"/>
    </linearGradient>
    <linearGradient id="paint2_linear_1927_2129" x1="-0.000278175" y1="52.6063" x2="0.352497" y2="52.6063" gradientUnits="userSpaceOnUse">
      <stop stop-color="#E6E6FF"/>
      <stop offset="1" stop-color="#8CADFF"/>
    </linearGradient>
    <linearGradient id="paint3_linear_1927_2129" x1="-0.000278175" y1="57.3946" x2="0.352497" y2="57.3946" gradientUnits="userSpaceOnUse">
      <stop stop-color="#E6E6FF"/>
      <stop offset="1" stop-color="#8CADFF"/>
    </linearGradient>
    <linearGradient id="paint4_linear_1927_2129" x1="-0.000278175" y1="62.1862" x2="0.352497" y2="62.1862" gradientUnits="userSpaceOnUse">
      <stop stop-color="#E6E6FF"/>
      <stop offset="1" stop-color="#8CADFF"/>
    </linearGradient>
    <linearGradient id="paint5_linear_1927_2129" x1="72.6188" y1="43.8187" x2="60.0918" y2="43.8187" gradientUnits="userSpaceOnUse">
      <stop stop-color="#E6E6FF"/>
      <stop offset="1" stop-color="#8CADFF"/>
    </linearGradient>
    <linearGradient id="paint6_linear_1927_2129" x1="58.476" y1="50.0785" x2="52.5" y2="50.0785" gradientUnits="userSpaceOnUse">
      <stop stop-color="#E6E6FF"/>
      <stop offset="1" stop-color="#8CADFF"/>
    </linearGradient>
    <linearGradient id="paint7_linear_1927_2129" x1="72.6188" y1="48.6068" x2="60.0918" y2="48.6068" gradientUnits="userSpaceOnUse">
      <stop stop-color="#E6E6FF"/>
      <stop offset="1" stop-color="#8CADFF"/>
    </linearGradient>
    <linearGradient id="paint8_linear_1927_2129" x1="58.476" y1="54.8665" x2="52.5" y2="54.8665" gradientUnits="userSpaceOnUse">
      <stop stop-color="#E6E6FF"/>
      <stop offset="1" stop-color="#8CADFF"/>
    </linearGradient>
    <linearGradient id="paint9_linear_1927_2129" x1="72.6188" y1="53.3985" x2="60.0918" y2="53.3985" gradientUnits="userSpaceOnUse">
      <stop stop-color="#E6E6FF"/>
      <stop offset="1" stop-color="#8CADFF"/>
    </linearGradient>
    <linearGradient id="paint10_linear_1927_2129" x1="58.476" y1="59.6584" x2="52.5" y2="59.6584" gradientUnits="userSpaceOnUse">
      <stop stop-color="#E6E6FF"/>
      <stop offset="1" stop-color="#8CADFF"/>
    </linearGradient>
    <linearGradient id="paint11_linear_1927_2129" x1="72.6188" y1="58.1867" x2="60.0918" y2="58.1867" gradientUnits="userSpaceOnUse">
      <stop stop-color="#E6E6FF"/>
      <stop offset="1" stop-color="#8CADFF"/>
    </linearGradient>
    <linearGradient id="paint12_linear_1927_2129" x1="58.476" y1="64.4465" x2="52.5" y2="64.4465" gradientUnits="userSpaceOnUse">
      <stop stop-color="#E6E6FF"/>
      <stop offset="1" stop-color="#8CADFF"/>
    </linearGradient>
    <linearGradient id="paint13_linear_1927_2129" x1="72.6188" y1="62.9783" x2="60.0918" y2="62.9783" gradientUnits="userSpaceOnUse">
      <stop stop-color="#E6E6FF"/>
      <stop offset="1" stop-color="#8CADFF"/>
    </linearGradient>
    <linearGradient id="paint14_linear_1927_2129" x1="58.476" y1="69.2382" x2="52.5" y2="69.2382" gradientUnits="userSpaceOnUse">
      <stop stop-color="#E6E6FF"/>
      <stop offset="1" stop-color="#8CADFF"/>
    </linearGradient>
    <linearGradient id="paint15_linear_1927_2129" x1="33.2627" y1="18.8956" x2="52.4043" y2="18.8956" gradientUnits="userSpaceOnUse">
      <stop stop-color="#E6E6FF"/>
      <stop offset="1" stop-color="#8CADFF"/>
    </linearGradient>
    <clipPath id="clip0_1927_2129">
      <rect width="90" height="88" fill="white"/>
    </clipPath>
  </defs>
</svg>
