<svg width="90" height="88" viewBox="0 0 90 88" fill="none" xmlns="http://www.w3.org/2000/svg">
  <g clip-path="url(#clip0_1975_65353)">
    <path opacity="0.1" d="M82.0662 5.11398H7.93377C3.55207 5.11398 0 8.68389 0 13.0876V74.9124C0 79.3161 3.55207 82.886 7.93377 82.886H82.0662C86.4479 82.886 90 79.3161 90 74.9124V13.0876C90 8.68389 86.4479 5.11398 82.0662 5.11398Z" fill="#3E73F9"/>
    <path d="M75.5891 39.6334L75.4846 85.8074C75.4846 87.4935 74.2985 88.1729 72.842 87.3268L36.2398 66.0865L34.1135 64.8512L15.3207 53.95C13.8642 53.1039 12.6843 51.0534 12.6905 49.3734L12.715 38.0708L12.7949 3.19316C12.7949 1.51321 13.981 0.833812 15.4375 1.67379L72.9588 35.0505C74.4153 35.8967 75.5952 37.9472 75.5891 39.6334Z" fill="white" stroke="#3E73F9" stroke-linecap="round" stroke-linejoin="round"/>
    <path d="M77.3101 38.6266L77.261 59.5458L77.2057 84.8007C77.2057 85.6407 76.9107 86.2274 76.4375 86.5053L74.7168 87.5121C75.19 87.2342 75.4849 86.6474 75.4849 85.8074L75.5464 58.5514L75.5894 39.6334C75.5894 37.9472 74.4156 35.8967 72.9592 35.0505L59.1319 27.0275L15.4378 1.67997C14.7065 1.2538 14.0428 1.21057 13.5635 1.49468L15.2842 0.487943C15.7635 0.203833 16.4273 0.247067 17.1586 0.673232L59.1381 25.0326L74.6799 34.05C76.1364 34.8961 77.3163 36.9467 77.3101 38.6266Z" fill="white" stroke="#3E73F9" stroke-linecap="round" stroke-linejoin="round"/>
    <path d="M15.2964 4.37283C14.8601 4.1196 14.5098 4.32342 14.5098 4.8237C14.5098 5.32398 14.8601 5.92926 15.2902 6.18249C15.7204 6.43572 16.0707 6.2319 16.0769 5.73162C16.083 5.23134 15.7266 4.62606 15.2964 4.37283Z" fill="#3E73F9"/>
    <path d="M18.1167 6.00955C17.6865 5.75632 17.3301 5.96014 17.3301 6.46042C17.3301 6.9607 17.6804 7.57216 18.1105 7.81921C18.5407 8.06626 18.8972 7.86862 18.8972 7.36834C18.8972 6.86806 18.5469 6.26278 18.1167 6.00955Z" fill="#3E73F9"/>
    <path d="M20.938 7.64627C20.5017 7.39304 20.1514 7.59686 20.1514 8.09714C20.1514 8.59742 20.5017 9.2027 20.9318 9.45593C21.362 9.70916 21.7185 9.50534 21.7185 9.00506C21.7185 8.50478 21.3682 7.8995 20.938 7.64627Z" fill="#3E73F9"/>
    <path d="M31.373 20.0113L31.1886 59.5149C31.1886 60.1758 30.7277 60.4413 30.1501 60.1078L19.6413 54.0056L15.6652 51.6957C15.0937 51.3622 14.6328 50.5593 14.6328 49.8984L14.8172 10.4009C14.8172 9.74006 15.2842 9.47448 15.8558 9.808L19.6413 12.0068L30.3406 18.2201C30.9182 18.5536 31.373 19.3566 31.373 20.0113Z" fill="#C6D5FE"/>
    <path d="M72.3069 41.7148L34.9857 20.3756C34.2605 19.9556 33.6705 20.2953 33.6644 21.1353L33.6152 46.7608C33.6152 47.6008 34.1991 48.6261 34.9242 49.046L72.2455 70.3852C72.9768 70.8052 73.5668 70.4716 73.5668 69.6255L73.6159 44C73.6159 43.16 73.0321 42.1348 72.3008 41.7148" fill="#ECF1FF"/>
    <path d="M53.3614 32.9815L47.9166 29.8192L47.9043 33.0865L44.0449 30.8445L53.3491 36.2426C53.6134 36.397 53.8285 36.2735 53.8285 35.9708V33.8029C53.8346 33.5003 53.6195 33.1297 53.3614 32.9753" fill="#C6D5FE"/>
    <path d="M53.3491 38.1819L40.4375 30.6901L40.4252 33.9573L39.0732 33.1729L53.3307 41.4492C53.5949 41.6036 53.81 41.4801 53.81 41.1774V39.0095C53.8162 38.7069 53.6011 38.3363 53.343 38.1819" fill="#C6D5FE"/>
    <path d="M53.33 43.3824L41.7704 36.6749L41.7581 39.9422L41.5 39.794L53.3177 46.6497C53.5819 46.8041 53.797 46.6805 53.797 46.3779V44.21C53.8032 43.9074 53.5881 43.5368 53.33 43.3824Z" fill="#C6D5FE"/>
    <path d="M53.3184 48.5828L46.202 44.4509L46.1897 47.7182L44.002 46.4458L53.3062 51.8439C53.5704 51.9983 53.7855 51.8748 53.7855 51.5722V49.3981C53.7916 49.0955 53.5766 48.7249 53.3184 48.5767" fill="#C6D5FE"/>
    <path d="M53.2999 53.7895L44.9605 48.9472L44.9482 52.2145L43.9834 51.6525L53.2876 57.0505C53.5519 57.205 53.7669 57.0814 53.7669 56.7788V54.6047C53.7731 54.3021 53.558 53.9315 53.2999 53.7833" fill="#C6D5FE"/>
    <path d="M47.916 29.8192L35.7542 22.7659L35.748 26.0331L44.0444 30.8507L47.9037 33.0927L47.916 29.8192Z" fill="#9EB8FB"/>
    <path d="M40.4369 30.6901L35.7418 27.9663L35.7295 31.2336L39.0788 33.1791L40.4246 33.9635L40.4369 30.6901Z" fill="#9EB8FB"/>
    <path d="M41.771 36.6749L35.7239 33.1668L35.7178 36.4402L41.5068 39.8001L41.7649 39.9484L41.771 36.6749Z" fill="#9EB8FB"/>
    <path d="M46.2018 44.4571L35.7115 38.3672L35.6992 41.6407L44.0017 46.452L46.1895 47.7243L46.2018 44.4571Z" fill="#9EB8FB"/>
    <path d="M44.96 48.9472L35.6988 43.5739L35.6865 46.8411L43.9829 51.6586L44.9539 52.2145L44.96 48.9472Z" fill="#9EB8FB"/>
    <path d="M51.6892 62.8377L35.2379 53.2892C34.6295 52.9371 34.1317 53.2212 34.1317 53.9253L34.1133 60.5957C34.1133 61.2998 34.6049 62.1584 35.2133 62.5104L51.6647 72.059C52.2731 72.411 52.7708 72.1331 52.777 71.4228L52.7954 64.7524C52.7954 64.0483 52.3038 63.1898 51.6892 62.8316" fill="#C6D5FE"/>
    <path d="M71.9383 74.5913L55.4869 65.0427C54.8785 64.6906 54.3807 64.9747 54.3807 65.6788L54.3623 72.3493C54.3623 73.0534 54.8539 73.9119 55.4623 74.2639L71.9137 83.8125C72.5221 84.1645 73.0199 83.8804 73.0199 83.1763L73.0383 76.5059C73.0383 75.8018 72.5467 74.9433 71.9383 74.5913Z" fill="#C6D5FE"/>
    <path d="M63.7526 45.6985C63.7526 45.6985 63.7403 45.6923 63.7341 45.6923C59.7396 43.7715 56.5993 45.8158 56.587 50.5284C56.5747 54.3762 58.6518 58.8725 61.5955 61.8742C61.6201 61.8989 61.6447 61.9175 61.6692 61.936C61.7614 61.9916 61.8536 61.9669 61.8782 61.8742L62.8983 58.3476C62.9291 58.2487 62.8799 58.0943 62.7816 57.9832C61.5402 56.575 60.686 54.6171 60.6921 52.9186C60.6921 50.8125 62.0257 49.8304 63.771 50.5037C63.8755 50.5407 63.9554 50.4851 63.9554 50.3616L63.9676 46.0876C63.9676 45.9455 63.8693 45.7788 63.7526 45.7108" fill="#3E73F9"/>
    <path d="M64.632 46.1741C64.5152 46.1061 64.4107 46.1617 64.4107 46.3038L64.3984 50.5531C64.3984 50.689 64.4906 50.8557 64.6074 50.9237C66.156 51.918 67.4466 53.8698 67.8952 55.7721C67.9259 55.8956 68.0058 56.0191 68.1041 56.0685C68.1164 56.0685 68.1226 56.0809 68.1349 56.087L71.8037 57.6002C71.9327 57.6558 72.0188 57.5632 71.9881 57.4026C71.2076 53.0421 68.2332 48.379 64.632 46.1741Z" fill="#9EB8FB"/>
    <path d="M71.9203 58.1685C71.9203 58.1685 71.9018 58.1561 71.8895 58.1499L68.2453 56.6491C68.1285 56.6059 68.0486 56.6738 68.0548 56.8097C68.0671 56.9085 68.0671 57.0011 68.0671 57.0938C68.0671 57.1247 68.0671 57.1617 68.0671 57.1926C68.0671 57.9214 67.9073 58.5143 67.6246 58.9528C67.5877 59.0084 67.5508 59.064 67.514 59.1134C67.4525 59.1937 67.471 59.3605 67.5693 59.4964L70.5744 63.6839C70.6113 63.7395 70.6543 63.7765 70.6973 63.8012C70.7711 63.8445 70.8387 63.8445 70.8817 63.7889L70.9001 63.7642C70.9308 63.7271 70.9677 63.6901 70.9984 63.6468C71.7482 62.7019 72.1845 61.3184 72.1907 59.5767C72.1907 59.3111 72.1845 59.0455 72.1661 58.7737C72.1661 58.6996 72.1538 58.6255 72.1476 58.5452V58.5143C72.1353 58.3784 72.037 58.224 71.9325 58.1623" fill="#C6D5FE"/>
    <path d="M67.1512 59.5952C67.0959 59.5643 67.0345 59.552 66.9914 59.5828C66.34 59.9596 65.4428 59.9164 64.4534 59.3605C64.4288 59.3481 64.4042 59.3358 64.3735 59.3173C64.3182 59.2864 64.2629 59.2493 64.2137 59.2184C64.2137 59.2184 64.2137 59.2184 64.2076 59.2184C64.0969 59.1567 64.0048 59.1999 63.9863 59.3173L63.6115 63.338C63.5992 63.4739 63.6913 63.653 63.8142 63.7333L63.8265 63.7457C63.8941 63.7889 63.9556 63.8321 64.017 63.8692C64.1277 63.9433 64.2383 64.0051 64.3489 64.073C66.7456 65.4627 68.8904 65.4565 70.3223 64.3262C70.4022 64.2583 70.3837 64.0792 70.2793 63.931L67.2618 59.7187C67.225 59.6693 67.182 59.6261 67.1389 59.6014" fill="#9EB8FB"/>
    <path d="M63.3716 58.5699L62.2962 62.2757C62.2962 62.2757 62.29 62.3128 62.29 62.3313C62.29 62.4425 62.3515 62.5845 62.4498 62.671C62.6096 62.8131 62.7632 62.9428 62.9292 63.0725C62.9415 63.0848 62.9537 63.091 62.966 63.0972C63.0767 63.1589 63.175 63.1157 63.1873 62.9922L63.5806 58.7429C63.513 58.6873 63.4392 58.6255 63.3778 58.5638" fill="#C6D5FE"/>
    <path d="M70.3039 43.0242L58.5047 36.1808C58.2097 36.0079 57.9639 36.1499 57.9639 36.4896C57.9639 36.8293 58.2035 37.2493 58.4985 37.4222L70.2978 44.2656C70.5928 44.4385 70.8324 44.2965 70.8324 43.9568C70.8324 43.6171 70.5928 43.1971 70.2978 43.0303" fill="#C6D5FE"/>
    <path d="M65.1172 42.0792L58.5047 38.2437C58.2097 38.0708 57.9639 38.2128 57.9639 38.5525C57.9639 38.8922 58.2035 39.3122 58.4985 39.4851L65.111 43.3206C65.406 43.4936 65.6457 43.3515 65.6457 43.0118C65.6457 42.6721 65.406 42.2521 65.111 42.0854" fill="#C6D5FE"/>
    <path d="M19.6413 12.0067V54.0118L15.6652 51.7019C15.0937 51.3684 14.6328 50.5654 14.6328 49.9046L14.8172 10.4071C14.8172 9.74622 15.2842 9.48064 15.8558 9.81416L19.6413 12.0129V12.0067Z" fill="#9EB8FB"/>
    <path d="M29.32 20.4745L21.5521 15.9658C21.2448 15.7866 20.999 15.9287 20.999 16.2869C20.999 16.6452 21.2448 17.0651 21.546 17.2443L29.3138 21.753C29.6211 21.9321 29.8669 21.79 29.8669 21.438C29.8669 21.0859 29.6211 20.6536 29.3138 20.4745" fill="#ECF1FF"/>
    <path d="M29.3141 23.2414L21.5463 18.7327C21.239 18.5536 20.9932 18.6957 20.9932 19.0477C20.9932 19.3998 21.239 19.8321 21.5401 20.0051L29.3079 24.5138C29.6152 24.6929 29.861 24.5508 29.861 24.1926C29.861 23.8405 29.6152 23.4144 29.3079 23.2353" fill="#ECF1FF"/>
    <path d="M29.3073 25.9961L21.5394 21.4874C21.2321 21.3083 20.9863 21.4565 20.9863 21.8086C20.9863 22.1606 21.2321 22.5929 21.5333 22.7659L29.3011 27.2746C29.6084 27.4537 29.8542 27.3116 29.8542 26.9534C29.8542 26.5952 29.6084 26.169 29.3011 25.9899" fill="#ECF1FF"/>
    <path d="M29.2955 28.7569L21.5277 24.2482C21.2204 24.0691 20.9746 24.2173 20.9746 24.5694C20.9746 24.9214 21.2204 25.3476 21.5216 25.5267L29.2894 30.0354C29.5967 30.2145 29.8425 30.0724 29.8425 29.7204C29.8425 29.3683 29.5967 28.936 29.2894 28.7569" fill="#ECF1FF"/>
    <path d="M29.2887 31.5177L21.5209 27.009C21.2136 26.8299 20.9678 26.9719 20.9678 27.3302C20.9678 27.6884 21.2136 28.1084 21.5147 28.2875L29.2826 32.7962C29.5898 32.9753 29.8356 32.8333 29.8356 32.4812C29.8356 32.1292 29.5898 31.6968 29.2826 31.5177" fill="#ECF1FF"/>
    <path d="M29.2828 34.2785L21.515 29.7698C21.2077 29.5907 20.9619 29.7328 20.9619 30.0848C20.9619 30.4369 21.2077 30.8692 21.5089 31.0421L29.2767 35.5508C29.584 35.7299 29.8298 35.5879 29.8298 35.2297C29.8298 34.8776 29.584 34.4515 29.2767 34.2723" fill="#ECF1FF"/>
    <path d="M29.277 37.0393L21.5091 32.5306C21.2019 32.3515 20.9561 32.4997 20.9561 32.8518C20.9561 33.2038 21.2019 33.6362 21.503 33.8091L29.2708 38.3178C29.5781 38.4969 29.8239 38.3549 29.8239 37.9966C29.8239 37.6384 29.5781 37.2122 29.2708 37.0331" fill="#ECF1FF"/>
    <path d="M29.2643 39.8001L21.4964 35.2914C21.1892 35.1123 20.9434 35.2606 20.9434 35.6126C20.9434 35.9646 21.1892 36.3908 21.4903 36.5699L29.2581 41.0786C29.5654 41.2577 29.8112 41.1157 29.8112 40.7636C29.8112 40.4116 29.5654 39.9792 29.2581 39.8001" fill="#ECF1FF"/>
    <path d="M29.2584 42.5609L21.4906 38.0522C21.1833 37.8731 20.9375 38.0152 20.9375 38.3734C20.9375 38.7316 21.1833 39.1516 21.4844 39.3307L29.2523 43.8394C29.5596 44.0185 29.8054 43.8765 29.8054 43.5244C29.8054 43.1724 29.5596 42.74 29.2523 42.5609" fill="#ECF1FF"/>
    <path d="M29.32 56.155L21.5521 51.6463C21.2448 51.4672 20.999 51.6092 20.999 51.9674C20.999 52.3257 21.2448 52.7457 21.546 52.9248L29.3138 57.4335C29.6211 57.6126 29.8669 57.4705 29.8669 57.1185C29.8669 56.7664 29.6211 56.3341 29.3138 56.155" fill="#ECF1FF"/>
    <path d="M17.3791 13.3841C16.8321 13.0691 16.3958 13.3223 16.3896 13.9523C16.3896 14.5761 16.826 15.3481 17.3729 15.6631C17.9199 15.9781 18.3562 15.7249 18.3623 15.0949C18.3685 14.4649 17.926 13.6991 17.3791 13.3841Z" fill="#ECF1FF"/>
    <path d="M17.3674 17.0837C16.8205 16.7687 16.3841 17.0219 16.378 17.6519C16.3718 18.2819 16.8143 19.0478 17.3613 19.3627C17.9082 19.6777 18.3445 19.4245 18.3507 18.7945C18.3507 18.1707 17.9144 17.3987 17.3674 17.0837Z" fill="#ECF1FF"/>
    <path d="M17.3547 20.7833C16.8077 20.4683 16.3714 20.7215 16.3652 21.3515C16.3652 21.9815 16.8016 22.7473 17.3485 23.0623C17.8954 23.3773 18.3318 23.1241 18.3379 22.4941C18.3441 21.8641 17.9016 21.0983 17.3547 20.7833Z" fill="#ECF1FF"/>
    <path d="M17.342 24.4829C16.795 24.1679 16.3587 24.4211 16.3525 25.0511C16.3525 25.6811 16.7889 26.447 17.3358 26.7619C17.8828 27.0769 18.3191 26.8237 18.3252 26.1937C18.3314 25.5637 17.8889 24.7979 17.342 24.4829Z" fill="#ECF1FF"/>
    <path d="M17.3361 28.1887C16.7892 27.8737 16.3528 28.1269 16.3467 28.7569C16.3467 29.3869 16.783 30.1527 17.33 30.4677C17.8769 30.7827 18.3132 30.5295 18.3194 29.8995C18.3255 29.2695 17.883 28.5037 17.3361 28.1887Z" fill="#ECF1FF"/>
    <path d="M17.3235 31.8944C16.7765 31.5795 16.3402 31.8327 16.334 32.4627C16.3279 33.0927 16.7704 33.8585 17.3173 34.1735C17.8643 34.4885 18.3006 34.2353 18.3067 33.6053C18.3129 32.9753 17.8704 32.2094 17.3235 31.8944Z" fill="#ECF1FF"/>
    <path d="M17.2932 43.7282C16.7462 43.4133 16.3099 43.6665 16.3038 44.2965C16.2976 44.9265 16.7401 45.6923 17.287 46.0073C17.834 46.3223 18.2703 46.0691 18.2765 45.4391C18.2826 44.8091 17.8401 44.0432 17.2932 43.7282Z" fill="#ECF1FF"/>
    <path opacity="0.2" d="M74.6795 34.05L59.1376 25.0326V27.0275L59.0762 46.0753C59.0762 47.6811 60.2008 49.6452 61.5958 50.4543L75.546 58.5514L77.2605 59.5458L77.3097 38.6266C77.3158 36.9467 76.1359 34.8962 74.6795 34.05Z" fill="#3E73F9"/>
    <path d="M80.0867 23.9826C81.4817 24.7917 82.6063 26.7558 82.6002 28.3616L82.5265 53.4992C82.5265 55.1112 81.3895 55.7597 79.9945 54.9506L58.2274 42.3201C56.8324 41.511 55.7077 39.5469 55.7139 37.9411L55.7876 12.8035C55.7876 11.1977 56.9245 10.5491 58.3196 11.3582L80.0867 23.9888V23.9826Z" fill="white" stroke="#3E73F9" stroke-linecap="round" stroke-linejoin="round"/>
    <path d="M82.4469 22.5991L60.6797 9.96858C59.9791 9.56095 59.34 9.52389 58.8852 9.78947L56.5254 11.1668C56.9863 10.9012 57.6193 10.9383 58.3199 11.3459L80.087 23.9764C81.482 24.7855 82.6066 26.7496 82.6005 28.3554L82.5268 53.493C82.5268 54.2898 82.2441 54.858 81.7893 55.1174L84.1491 53.7401C84.6039 53.4745 84.8805 52.9124 84.8866 52.1157L84.9604 26.9781C84.9604 25.3723 83.8357 23.4082 82.4469 22.5991Z" fill="white" stroke="#3E73F9" stroke-linecap="round" stroke-linejoin="round"/>
    <path d="M68.4904 26.6322L70.8195 25.292L71.5016 26.484L68.4842 28.2196L66.8618 25.3908L67.5501 24.9955L68.4904 26.6322ZM69.1971 22.1853C67.1445 20.9933 65.473 21.9506 65.4668 24.3223C65.4607 26.694 67.1199 29.5845 69.1725 30.7765C71.2251 31.9686 72.8967 31.0112 72.9028 28.6395C72.9089 26.2678 71.2497 23.3773 69.1971 22.1853Z" fill="#3E73F9"/>
    <path d="M79.6443 39.4048L58.6822 27.2437C58.0615 26.8855 57.5576 27.1758 57.5576 27.886C57.5576 28.6025 58.0554 29.4733 58.6761 29.8316L79.6382 41.9927C80.2589 42.3509 80.7628 42.0607 80.7628 41.3504C80.7628 40.6401 80.265 39.7631 79.6443 39.4048Z" fill="#C6D5FE"/>
    <path d="M74.8696 44.982L63.4083 38.3302C62.6094 37.8669 61.958 38.2375 61.958 39.164C61.958 40.0842 62.6033 41.2083 63.4022 41.6715L74.8634 48.3234C75.6623 48.7866 76.3138 48.4161 76.3138 47.4896C76.3138 46.5632 75.6685 45.4453 74.8696 44.982Z" fill="#9EB8FB"/>
    <path d="M76.2032 41.128L62.1056 32.9444C61.7799 32.753 61.5156 32.9074 61.5156 33.2841C61.5156 33.6609 61.7799 34.1179 62.1056 34.3094L76.2032 42.493C76.5289 42.6845 76.7932 42.53 76.7932 42.1533C76.7932 41.7765 76.5289 41.3195 76.2032 41.128Z" fill="#C6D5FE"/>
    <path opacity="0.2" d="M33.9967 49.639L14.3374 38.2313C13.7045 37.8608 13.1268 37.8299 12.715 38.0708L12.6905 49.3734C12.6843 51.0534 13.8642 53.1039 15.3207 53.95L34.1135 64.8512L36.2398 66.0865L36.2705 53.5918C36.2705 52.1404 35.2565 50.3678 33.9967 49.639Z" fill="#3E73F9"/>
    <path d="M27.5742 53.5856C28.8341 54.3144 29.8542 56.087 29.8481 57.5385L29.7866 83.2875C29.7866 84.7389 28.7603 85.3257 27.5005 84.5969L7.84122 73.1892C6.58141 72.4604 5.56126 70.6878 5.56741 69.2302L5.62886 43.4812C5.62886 42.0298 6.65515 41.443 7.91497 42.1718L27.5742 53.5795V53.5856Z" fill="white" stroke="#3E73F9" stroke-linecap="round" stroke-linejoin="round"/>
    <path d="M29.713 52.338L10.0537 40.9304C9.42071 40.5598 8.84304 40.5289 8.4313 40.7698L6.29883 42.0174C6.71057 41.7765 7.28824 41.8074 7.92123 42.178L27.5805 53.5856C28.8403 54.3144 29.8605 56.087 29.8543 57.5385L29.7929 83.2875C29.7929 84.0101 29.5347 84.5166 29.1291 84.7574L31.2616 83.5098C31.6734 83.269 31.9253 82.7625 31.9253 82.0399L31.9868 56.2909C31.9868 54.8394 30.9728 53.0668 29.713 52.338Z" fill="white" stroke="#3E73F9" stroke-linecap="round" stroke-linejoin="round"/>
    <path d="M7.87197 44.0494C7.58314 43.8826 7.34961 44.0185 7.34961 44.352C7.34961 44.6856 7.58314 45.087 7.87197 45.2538C8.16081 45.4205 8.39433 45.2847 8.39433 44.9573C8.39433 44.6238 8.16081 44.2223 7.87812 44.0556L7.87197 44.0494Z" fill="#3E73F9"/>
    <path d="M9.83193 45.2908C9.5431 45.1241 9.30957 45.2599 9.30957 45.5935C9.30957 45.927 9.5431 46.3284 9.83193 46.4952C10.1208 46.662 10.3543 46.5261 10.3543 46.1987C10.3543 45.8652 10.1208 45.4638 9.83808 45.297L9.83193 45.2908Z" fill="#3E73F9"/>
    <path d="M11.7929 46.5138C11.504 46.347 11.2705 46.4829 11.2705 46.8164C11.2705 47.1499 11.504 47.5514 11.7929 47.7181C12.0817 47.8849 12.3152 47.749 12.3152 47.4217C12.3152 47.0882 12.0817 46.6867 11.799 46.5199L11.7929 46.5138Z" fill="#3E73F9"/>
    <path d="M9.69129 52.8692L11.1109 52.0539L11.5288 52.7827L9.68514 53.8389L8.69573 52.1157L9.11362 51.8748L9.68514 52.8754M10.1215 50.1578C8.8678 49.429 7.84766 50.0157 7.84766 51.461C7.84766 52.9062 8.85551 54.6727 10.1092 55.3953C11.3628 56.1241 12.383 55.5373 12.383 54.0921C12.383 52.6468 11.3751 50.8804 10.1215 50.1578Z" fill="#3E73F9"/>
    <path d="M26.8924 60.3796L14.116 52.9618C13.7412 52.7457 13.4277 52.9186 13.4277 53.3571C13.4277 53.7956 13.735 54.3268 14.1099 54.543L26.8863 61.9607C27.2611 62.1769 27.5745 62.0039 27.5745 61.5654C27.5745 61.1269 27.2673 60.5958 26.8924 60.3796Z" fill="#C6D5FE"/>
    <path d="M21.705 60.1387L13.8449 55.5806C13.6114 55.4447 13.4209 55.5559 13.4209 55.8214C13.4209 56.087 13.6053 56.4144 13.8388 56.5503L21.6988 61.1084C21.9323 61.2442 22.1228 61.1331 22.1228 60.8675C22.1228 60.6019 21.9385 60.2746 21.705 60.1387Z" fill="#C6D5FE"/>
    <path d="M9.69129 60.6637L11.1109 59.8484L11.5288 60.5772L9.68514 61.6334L8.69573 59.9102L9.11362 59.6693L9.68514 60.6699M10.1215 57.9523C8.8678 57.2235 7.84766 57.8102 7.84766 59.2555C7.84766 60.7007 8.85551 62.4672 10.1092 63.1898C11.3628 63.9124 12.383 63.3318 12.383 61.8866C12.383 60.4413 11.3751 58.6749 10.1215 57.9523Z" fill="#3E73F9"/>
    <path d="M26.8924 68.1679L14.116 60.7501C13.7412 60.534 13.4277 60.7069 13.4277 61.1454C13.4277 61.5839 13.735 62.1151 14.1099 62.3313L26.8863 69.749C27.2611 69.9652 27.5745 69.7922 27.5745 69.3537C27.5745 68.9152 27.2673 68.3841 26.8924 68.1679Z" fill="#C6D5FE"/>
    <path d="M21.705 67.9332L13.8449 63.3751C13.6114 63.2392 13.4209 63.3504 13.4209 63.6159C13.4209 63.8815 13.6053 64.2089 13.8388 64.3447L21.6988 68.9029C21.9323 69.0387 22.1228 68.9276 22.1228 68.662C22.1228 68.3964 21.9385 68.0691 21.705 67.9332Z" fill="#C6D5FE"/>
    <path d="M9.69129 68.4582L11.1109 67.6429L11.5288 68.3717L9.68514 69.4279L8.69573 67.7047L9.11362 67.4638L9.68514 68.4644M10.1215 65.7468C8.8678 65.018 7.84766 65.6047 7.84766 67.05C7.84766 68.4952 8.85551 70.2617 10.1092 70.9843C11.3628 71.7069 12.383 71.1263 12.383 69.6811C12.383 68.2358 11.3751 66.4694 10.1215 65.7468Z" fill="#3E73F9"/>
    <path d="M26.8924 75.9624L14.116 68.5447C13.7412 68.3285 13.4277 68.5014 13.4277 68.9399C13.4277 69.3785 13.735 69.9096 14.1099 70.1258L26.8863 77.5435C27.2611 77.7597 27.5745 77.5868 27.5745 77.1483C27.5745 76.7097 27.2673 76.1786 26.8924 75.9624Z" fill="#C6D5FE"/>
    <path d="M21.705 75.7277L13.8449 71.1696C13.6114 71.0337 13.4209 71.1449 13.4209 71.4105C13.4209 71.6761 13.6053 72.0034 13.8388 72.1393L21.6988 76.6974C21.9323 76.8333 22.1228 76.7221 22.1228 76.4565C22.1228 76.1909 21.9385 75.8636 21.705 75.7277Z" fill="#C6D5FE"/>
  </g>
  <defs>
    <clipPath id="clip0_1975_65353">
      <rect width="90" height="88" fill="white"/>
    </clipPath>
  </defs>
</svg>
