<svg width="443" height="657" viewBox="0 0 443 657" fill="none" xmlns="http://www.w3.org/2000/svg">
<g clip-path="url(#clip0_1975_65036)">
<rect width="443" height="657" fill="url(#paint0_linear_1975_65036)"/>
<g clip-path="url(#clip1_1975_65036)">
<path opacity="0.1" d="M388.551 430.625C385.768 427.261 381.964 424.084 377.14 421.3L373.801 419.375L346.411 403.557L343.419 401.84L337.551 398.454L329.11 393.56L323.404 390.266L314.962 385.396L309.257 382.102L301.186 377.44L276.046 362.944L275.234 362.456L251.184 348.586L229.569 336.085L196.428 316.972L187.986 312.078L182.281 308.785L173.816 303.914L172.378 303.079C167.09 300.017 161.06 297.675 154.613 296.074C142.553 293.013 129.101 292.479 116.554 294.428C109.017 295.61 101.827 297.675 95.4729 300.644C93.8726 301.386 92.2956 302.198 90.8113 303.079L61.4037 320.173L34.8952 335.574L13.6049 347.937L-11.2569 362.387L-38.5076 378.252L-82.8508 403.997L-109.336 419.399L-112.606 421.3C-117.314 424.037 -121.048 427.145 -123.762 430.439C-127.495 434.985 -129.374 439.902 -129.374 444.843L-129.56 509.439V515.493L-129.699 558.216C-129.699 566.822 -124.04 575.45 -112.676 582.014L-96.1166 591.57L73.6723 689.612L92.0868 700.235C99.1604 704.317 107.602 707.124 116.554 708.632C129.032 710.765 142.506 710.418 154.613 707.565C161.547 705.941 168.041 703.506 173.653 700.235L190.908 690.215L215.7 675.812L362.715 590.364L377.071 582.014C388.226 575.519 393.815 567.03 393.839 558.541L393.955 514.17V508.094L394.163 445.098C394.186 440.157 392.308 435.194 388.551 430.625ZM377.395 468.547C378.045 468.153 378.694 467.782 379.32 467.388C379.135 467.527 378.926 467.643 378.741 467.759C378.3 468.037 377.859 468.315 377.395 468.57L362.715 477.106L221.707 559.051L377.395 468.547ZM-112.351 468.57C-113.766 467.759 -115.111 466.9 -116.34 466.019C-116.966 465.578 -117.569 465.138 -118.126 464.674C-118.706 464.233 -119.262 463.769 -119.796 463.305C-120.329 462.841 -120.839 462.378 -121.326 461.891C-120.352 462.841 -119.286 463.769 -118.126 464.674C-116.41 466.019 -114.485 467.318 -112.351 468.547L73.6723 575.983L-96.1166 477.941L-112.351 468.57ZM110.339 593.843C110.339 593.843 110.177 593.797 110.107 593.797C109.736 593.704 109.365 593.611 108.994 593.495C109.829 593.727 110.664 593.936 111.522 594.121C111.128 594.052 110.733 593.936 110.339 593.843ZM156.236 593.82C156.236 593.82 156.074 593.843 156.004 593.866C156.398 593.773 156.793 593.681 157.164 593.565C156.862 593.657 156.538 593.727 156.236 593.82ZM167.832 589.9C167.67 589.969 167.507 590.039 167.345 590.109C167.994 589.83 168.667 589.529 169.316 589.227C168.829 589.459 168.342 589.668 167.832 589.9ZM386.232 461.96C385.745 462.424 385.258 462.888 384.724 463.352C384.214 463.816 383.68 464.256 383.101 464.697C384.237 463.792 385.281 462.865 386.232 461.937V461.96ZM392.331 453.378C392.169 453.749 391.983 454.12 391.798 454.492C392.076 453.981 392.308 453.471 392.517 452.938C392.47 453.077 392.401 453.239 392.331 453.378Z" fill="#3E73F9"/>
<path d="M395.021 431.622C395.021 432.086 394.998 432.573 394.952 433.037C394.952 433.222 394.928 433.408 394.905 433.593C394.905 433.64 394.882 433.709 394.882 433.756C394.859 433.918 394.836 434.104 394.812 434.289C394.812 434.452 394.766 434.614 394.743 434.8C394.581 435.866 394.302 436.91 393.954 437.954C393.931 438 393.908 438.07 393.885 438.116C393.746 438.58 393.583 439.021 393.375 439.462C393.166 439.995 392.934 440.505 392.656 441.016C392.4 441.526 392.145 442.013 391.867 442.477C391.821 442.546 391.797 442.593 391.751 442.662C391.45 443.149 391.148 443.613 390.823 444.077C390.476 444.564 390.104 445.075 389.71 445.562C388.922 446.582 388.064 447.51 387.09 448.461C386.139 449.389 385.095 450.317 383.959 451.221C382.961 452.01 381.894 452.775 380.758 453.541C380.573 453.68 380.387 453.796 380.178 453.912C379.552 454.306 378.903 454.677 378.253 455.071L222.565 545.576L191.766 563.482L174.836 573.316C173.352 574.174 171.798 574.986 170.174 575.751C169.525 576.053 168.852 576.354 168.203 576.633C167.623 576.888 167.02 577.12 166.417 577.352C165.42 577.746 164.423 578.117 163.402 578.465C162.985 578.627 162.567 578.767 162.15 578.883C162.08 578.883 162.034 578.883 161.964 578.929C161.895 578.975 161.802 578.999 161.709 579.022C161.663 579.045 161.64 579.045 161.593 579.068C161.129 579.207 160.642 579.346 160.178 579.486C159.483 579.694 158.764 579.903 158.045 580.089C157.674 580.205 157.279 580.297 156.885 580.39C156.421 580.506 155.958 580.599 155.494 580.715C155.076 580.808 154.636 580.924 154.195 581.016C154.056 581.04 153.893 581.086 153.754 581.109C153.569 581.156 153.383 581.179 153.198 581.225C152.572 581.341 151.945 581.457 151.296 581.573C151.273 581.573 151.25 581.573 151.226 581.573C150.507 581.689 149.812 581.828 149.093 581.921C149.046 581.921 149 581.921 148.954 581.944C148.142 582.083 147.33 582.199 146.518 582.292C145.707 582.385 144.872 582.478 144.06 582.57C143.225 582.64 142.413 582.71 141.578 582.779C140.744 582.849 139.932 582.895 139.097 582.942C138.262 582.988 137.45 583.011 136.615 583.034C134.992 583.104 133.345 583.104 131.699 583.034C130.887 583.011 130.075 582.988 129.287 582.942C128.498 582.895 127.686 582.849 126.921 582.802H126.875C126.063 582.733 125.251 582.686 124.463 582.594C123.674 582.524 122.863 582.431 122.074 582.339C121.285 582.246 120.497 582.13 119.708 582.014C118.943 581.898 118.201 581.782 117.436 581.666C117.412 581.643 117.366 581.643 117.343 581.643C116.577 581.504 115.789 581.364 115.024 581.202C114.142 581.016 113.284 580.831 112.403 580.622C111.545 580.437 110.71 580.228 109.875 579.996C108.994 579.764 108.136 579.509 107.277 579.254C103.938 578.233 100.714 577.004 97.6759 575.589C96.1684 574.87 94.7074 574.105 93.2926 573.293L74.5535 562.484L-111.493 455.071C-113.627 453.842 -115.552 452.543 -117.268 451.198C-118.428 450.293 -119.494 449.366 -120.468 448.415C-120.956 447.951 -121.419 447.464 -121.86 446.977C-122.069 446.745 -122.277 446.513 -122.44 446.281C-123.112 445.538 -123.692 444.773 -124.249 443.984C-127.101 439.949 -128.516 435.658 -128.516 431.367C-128.516 426.426 -126.638 421.509 -122.904 416.963C-120.19 413.67 -116.456 410.561 -111.748 407.825L-108.478 405.923L-81.9929 390.522L-37.6497 364.776L-10.399 348.934L14.4629 334.461L35.7532 322.098L62.2617 306.697L91.6692 289.603C93.1535 288.722 94.7305 287.91 96.3308 287.168C102.685 284.199 109.875 282.135 117.412 280.952C129.959 279.003 143.411 279.537 155.471 282.598C161.918 284.199 167.948 286.542 173.236 289.603L174.674 290.438L183.139 295.309L188.844 298.603L197.286 303.497L230.427 322.609L252.042 335.11L276.092 348.981L276.904 349.444L302.044 363.964L310.115 368.626L315.82 371.92L324.262 376.791L329.967 380.084L338.409 384.978L344.277 388.365L347.269 390.081L374.659 405.899L377.998 407.825C382.822 410.608 386.626 413.785 389.409 417.149C393.166 421.718 395.044 426.682 395.021 431.622Z" fill="white" stroke="#3E73F9" stroke-linecap="round" stroke-linejoin="round"/>
<path d="M395.021 431.622L394.836 494.618V500.695L394.697 545.065C394.673 553.554 389.084 562.044 377.929 568.538L363.573 576.888L216.558 662.336L191.766 676.739L174.511 686.759C168.899 690.03 162.405 692.465 155.471 694.089C143.364 696.942 129.89 697.29 117.412 695.156C108.46 693.648 100.018 690.842 92.9448 686.759L74.5303 676.136L-95.2587 578.094L-111.818 568.538C-123.182 561.974 -128.864 553.346 -128.841 544.741L-128.725 502.017V495.963L-128.516 431.367C-128.516 435.658 -127.101 439.949 -124.249 443.984C-123.715 444.75 -123.112 445.538 -122.44 446.281C-122.277 446.513 -122.069 446.745 -121.86 446.977C-121.419 447.464 -120.955 447.951 -120.468 448.415C-119.981 448.902 -119.471 449.366 -118.938 449.829C-118.404 450.293 -117.848 450.757 -117.268 451.198C-116.711 451.662 -116.108 452.102 -115.482 452.543C-114.253 453.425 -112.908 454.283 -111.493 455.095L-95.2587 464.465L74.5303 562.507L93.2695 573.316C94.6842 574.128 96.1453 574.893 97.6528 575.612C100.691 577.027 103.915 578.256 107.254 579.277C108.112 579.532 108.971 579.787 109.852 580.019C110.223 580.135 110.594 580.228 110.965 580.321C111.035 580.321 111.127 580.344 111.197 580.367C111.591 580.46 111.985 580.576 112.38 580.645C113.238 580.854 114.119 581.04 115 581.225C115.766 581.388 116.554 581.527 117.32 581.666C117.343 581.666 117.389 581.666 117.412 581.689C118.178 581.805 118.92 581.921 119.685 582.037C120.474 582.153 121.262 582.269 122.051 582.362C122.839 582.454 123.651 582.547 124.44 582.617C125.228 582.71 126.04 582.756 126.852 582.826H126.898C127.663 582.872 128.475 582.918 129.264 582.965C130.052 583.011 130.864 583.034 131.676 583.058C133.322 583.127 134.969 583.127 136.592 583.058C137.427 583.034 138.239 583.011 139.074 582.965C139.909 582.918 140.72 582.872 141.555 582.802C142.39 582.733 143.202 582.663 144.037 582.594C144.849 582.501 145.684 582.408 146.495 582.315C147.353 582.199 148.211 582.083 149.07 581.944C149.789 581.828 150.484 581.735 151.203 581.596C151.853 581.48 152.525 581.364 153.175 581.225C153.36 581.179 153.546 581.156 153.731 581.109C153.87 581.086 154.033 581.04 154.172 581.016C154.612 580.924 155.053 580.808 155.471 580.715C155.934 580.599 156.398 580.506 156.862 580.39C156.932 580.367 157.024 580.344 157.094 580.344C157.396 580.251 157.72 580.181 158.022 580.089C158.741 579.903 159.46 579.694 160.155 579.486C160.619 579.346 161.106 579.207 161.57 579.068C161.616 579.045 161.64 579.045 161.686 579.022C161.779 578.999 161.872 578.975 161.941 578.929C162.011 578.906 162.057 578.906 162.127 578.883C162.544 578.767 162.985 578.627 163.379 578.465C164.4 578.117 165.397 577.746 166.394 577.352C166.997 577.12 167.6 576.888 168.18 576.633C168.342 576.563 168.504 576.494 168.667 576.424C169.177 576.192 169.664 575.983 170.151 575.751C171.775 574.986 173.328 574.174 174.813 573.316L191.743 563.482L222.542 545.576L363.55 463.63L378.23 455.095C378.694 454.839 379.135 454.561 379.575 454.283C379.761 454.167 379.97 454.051 380.155 453.912C380.364 453.796 380.549 453.68 380.735 453.541C381.871 452.798 382.938 452.033 383.935 451.221C384.515 450.78 385.049 450.34 385.559 449.876C386.092 449.412 386.579 448.948 387.066 448.484C388.04 447.51 388.899 446.582 389.687 445.585C390.104 445.075 390.476 444.564 390.8 444.077C391.148 443.613 391.45 443.149 391.728 442.662C391.774 442.593 391.798 442.546 391.844 442.477C392.122 442.013 392.377 441.526 392.632 441.039C392.818 440.644 393.004 440.273 393.166 439.902C393.235 439.763 393.305 439.601 393.351 439.462C393.56 439.021 393.722 438.557 393.862 438.116C393.885 438.07 393.908 438 393.931 437.954C394.279 436.91 394.557 435.866 394.72 434.8C394.72 434.614 394.789 434.452 394.789 434.289C394.812 434.104 394.836 433.918 394.859 433.756C394.859 433.709 394.882 433.64 394.882 433.593C394.905 433.408 394.928 433.222 394.928 433.037C394.975 432.573 394.998 432.086 394.998 431.622H395.021Z" fill="white" stroke="#3E73F9" stroke-linecap="round" stroke-linejoin="round"/>
<path d="M89.2574 602.61L15.5763 560.072C11.6568 557.822 8.47949 559.631 8.47949 564.131L8.38672 599.085C8.38672 603.585 11.5408 609.058 15.4371 611.331L89.1182 653.87C93.0377 656.143 96.215 654.334 96.2382 649.811L96.331 614.857C96.331 610.357 93.1768 604.883 89.2574 602.61Z" fill="url(#paint1_linear_1975_65036)"/>
<path d="M178.825 596.858C176.483 598.203 174.627 601.451 174.627 604.141L174.767 649.556C174.767 652.246 176.645 653.313 178.988 651.968C181.307 650.623 183.185 647.399 183.185 644.708L183.046 599.294C183.046 596.603 181.144 595.536 178.825 596.881V596.858Z" fill="#C6D5FE"/>
<path d="M192.949 588.717C190.607 590.062 188.728 593.333 188.751 596L188.89 641.415C188.89 644.105 190.792 645.149 193.134 643.804C195.477 642.458 197.332 639.234 197.332 636.544L197.193 591.129C197.193 588.439 195.291 587.372 192.972 588.717H192.949Z" fill="#C6D5FE"/>
<path d="M207.05 580.553C204.708 581.898 202.829 585.168 202.852 587.836L202.991 633.25C202.991 635.941 204.893 636.984 207.236 635.639C209.578 634.294 211.433 631.07 211.433 628.379L211.294 582.965C211.294 580.274 209.392 579.207 207.073 580.553H207.05Z" fill="#C6D5FE"/>
<path d="M221.174 572.411C218.855 573.757 216.976 577.004 216.976 579.694L217.115 625.109C217.115 627.799 219.017 628.843 221.336 627.521C223.655 626.199 225.557 622.929 225.534 620.261L225.395 574.847C225.395 572.156 223.493 571.089 221.151 572.435L221.174 572.411Z" fill="#C6D5FE"/>
<path d="M235.274 564.27C232.955 565.615 231.077 568.863 231.077 571.553L231.216 616.968C231.216 619.658 233.118 620.702 235.437 619.38C237.756 618.058 239.658 614.787 239.635 612.12L239.495 566.706C239.495 564.015 237.594 562.948 235.251 564.293L235.274 564.27Z" fill="#C6D5FE"/>
<path d="M249.398 556.106C247.056 557.451 245.201 560.698 245.201 563.389L245.34 608.803C245.34 611.494 247.218 612.561 249.561 611.215C251.903 609.87 253.759 606.646 253.759 603.956L253.619 558.541C253.619 555.851 251.741 554.784 249.398 556.129V556.106Z" fill="#C6D5FE"/>
<path d="M263.523 547.965C261.18 549.31 259.302 552.58 259.325 555.248L259.464 600.662C259.464 603.353 261.366 604.396 263.708 603.051C266.027 601.706 267.906 598.482 267.906 595.791L267.767 550.377C267.767 547.686 265.865 546.619 263.546 547.965H263.523Z" fill="#C6D5FE"/>
<path d="M277.623 539.8C275.281 541.145 273.402 544.416 273.426 547.083L273.565 592.498C273.565 595.188 275.466 596.232 277.809 594.887C280.151 593.541 282.007 590.317 282.007 587.627L281.867 542.212C281.867 539.522 279.966 538.455 277.646 539.8H277.623Z" fill="#C6D5FE"/>
<path d="M291.747 531.659C289.428 533.004 287.549 536.252 287.549 538.942L287.688 584.356C287.688 587.047 289.59 588.091 291.909 586.769C294.252 585.423 296.13 582.176 296.107 579.509L295.968 534.094C295.968 531.404 294.066 530.337 291.724 531.682L291.747 531.659Z" fill="#C6D5FE"/>
<path d="M305.848 523.518C303.529 524.863 301.65 528.11 301.65 530.801L301.79 576.215C301.79 578.906 303.691 579.95 306.011 578.628C308.353 577.282 310.231 574.035 310.208 571.368L310.069 525.953C310.069 523.263 308.167 522.196 305.825 523.541L305.848 523.518Z" fill="#C6D5FE"/>
<path d="M319.972 515.353C317.653 516.699 315.774 519.946 315.774 522.636L315.914 568.051C315.914 570.741 317.815 571.785 320.134 570.463C322.454 569.141 324.332 565.894 324.332 563.203L324.193 517.789C324.193 515.098 322.315 514.031 319.972 515.377V515.353Z" fill="#C6D5FE"/>
<path d="M334.096 507.212C331.754 508.557 329.875 511.828 329.898 514.495L330.037 559.91C330.037 562.6 331.939 563.644 334.281 562.299C336.601 560.953 338.479 557.729 338.479 555.039L338.34 509.624C338.34 506.934 336.438 505.867 334.119 507.212H334.096Z" fill="#C6D5FE"/>
<path d="M348.197 499.071C345.854 500.416 343.976 503.687 343.999 506.354L344.138 551.768C344.138 554.459 346.04 555.503 348.382 554.157C350.724 552.812 352.58 549.588 352.58 546.898L352.441 501.483C352.441 498.793 350.539 497.726 348.22 499.071H348.197Z" fill="#C6D5FE"/>
<path d="M362.297 490.907C359.978 492.252 358.1 495.499 358.1 498.19L358.239 543.604C358.239 546.295 360.14 547.338 362.46 546.016C364.779 544.694 366.681 541.424 366.657 538.756L366.518 493.342C366.518 490.651 364.617 489.584 362.274 490.93L362.297 490.907Z" fill="#C6D5FE"/>
<path d="M376.421 482.765C374.102 484.111 372.224 487.358 372.224 490.048L372.363 535.463C372.363 538.153 374.265 539.197 376.584 537.875C378.926 536.53 380.805 533.283 380.782 530.615L380.642 485.201C380.642 482.51 378.741 481.443 376.398 482.789L376.421 482.765Z" fill="#C6D5FE"/>
<path d="M155.471 582.06V692.79C143.364 695.573 129.89 695.921 117.413 693.834V583.011C118.178 583.127 118.92 583.243 119.685 583.359C120.474 583.475 121.262 583.591 122.051 583.684C122.84 583.777 123.651 583.869 124.44 583.939C125.228 584.032 126.04 584.078 126.852 584.148C127.64 584.194 128.452 584.24 129.264 584.287C130.052 584.333 130.864 584.356 131.676 584.38C133.322 584.449 134.969 584.449 136.592 584.38C138.239 584.333 139.909 584.264 141.556 584.124C142.39 584.055 143.202 583.985 144.037 583.916C144.849 583.823 145.684 583.73 146.495 583.637C147.307 583.545 148.119 583.429 148.931 583.289C149.719 583.173 150.484 583.058 151.273 582.895C152.108 582.756 152.92 582.594 153.731 582.431C153.87 582.431 154.033 582.362 154.172 582.339C154.613 582.246 155.053 582.13 155.471 582.037V582.06Z" fill="#ECF1FF"/>
<path opacity="0.1" d="M389.409 417.149C386.695 420.442 382.961 423.55 378.253 426.287L222.635 516.722L174.836 544.509C171.403 546.503 167.646 548.196 163.657 549.588C141.555 557.265 112.403 555.572 93.2693 544.509L-111.493 426.287C-116.317 423.504 -120.121 420.326 -122.904 416.963C-120.19 413.669 -116.456 410.561 -111.748 407.825L-108.478 405.923L-81.993 390.522L-37.6498 364.776L-10.3992 348.934L14.4627 334.461L35.753 322.098L62.2615 306.697L91.669 289.603C93.1533 288.722 94.7304 287.91 96.3306 287.168C102.685 284.199 109.875 282.135 117.412 280.952C129.959 279.003 143.41 279.537 155.47 282.598C161.918 284.199 167.948 286.542 173.235 289.603L174.673 290.438L183.138 295.309L188.844 298.603L197.286 303.497L230.427 322.609L252.042 335.11L276.092 348.981L276.904 349.444L302.044 363.964L310.115 368.626L315.82 371.92L324.262 376.791L329.967 380.084L338.409 384.978L344.277 388.364L347.269 390.081L374.658 405.899L377.998 407.825C382.822 410.608 386.626 413.785 389.409 417.149Z" fill="#3E73F9"/>
<path d="M378.253 290.531L174.836 408.776C152.386 421.811 115.858 421.811 93.2694 408.776L-111.493 290.531C-129.351 280.233 -133.155 264.878 -122.904 252.423C-120.19 249.129 -116.456 246.021 -111.748 243.284L91.6692 125.063C114.119 112.004 150.647 112.004 173.236 125.063L377.998 243.284C382.822 246.067 386.626 249.245 389.409 252.608C399.613 265.017 395.902 280.279 378.253 290.531Z" fill="white" stroke="#3E73F9" stroke-linecap="round" stroke-linejoin="round"/>
<path d="M395.021 267.081L394.859 319.593V330.077L394.812 336.154L394.697 380.525C394.673 389.014 389.084 397.503 377.929 403.998L374.659 405.899L363.573 412.347L222.704 494.223L191.766 512.199L174.511 522.219C171.125 524.19 167.438 525.86 163.495 527.206C160.921 528.133 158.23 528.899 155.471 529.548C143.364 532.401 129.89 532.749 117.412 530.615C108.46 529.108 100.018 526.301 92.9448 522.219L74.5303 511.596L-95.2587 413.554L-108.478 405.923L-111.818 403.998C-123.182 397.434 -128.864 388.805 -128.841 380.2L-128.725 337.476V331.423L-128.516 266.826C-128.516 271.117 -127.101 275.408 -124.249 279.444C-123.715 280.209 -123.112 280.998 -122.44 281.74C-122.277 281.972 -122.069 282.204 -121.86 282.436C-121.419 282.923 -120.955 283.41 -120.468 283.874C-119.981 284.361 -119.471 284.825 -118.938 285.289C-118.404 285.753 -117.848 286.217 -117.268 286.657C-116.711 287.121 -116.108 287.562 -115.482 288.003C-114.253 288.884 -112.908 289.742 -111.493 290.554L-95.2587 299.925L-10.399 348.911L74.5303 397.967L93.2695 408.776C94.6842 409.587 96.1453 410.353 97.6528 411.072C100.691 412.487 103.915 413.716 107.254 414.736C108.112 414.992 108.971 415.247 109.852 415.479C110.223 415.595 110.594 415.687 110.965 415.78C111.035 415.78 111.127 415.803 111.197 415.827C111.591 415.919 111.985 416.035 112.38 416.105C113.238 416.314 114.119 416.499 115 416.685C115.766 416.847 116.554 416.986 117.32 417.125C117.343 417.125 117.389 417.125 117.412 417.149C118.178 417.265 118.92 417.381 119.685 417.497C120.474 417.613 121.262 417.729 122.051 417.821C122.839 417.914 123.651 418.007 124.44 418.076C125.228 418.169 126.04 418.216 126.852 418.285H126.898C127.663 418.332 128.475 418.378 129.264 418.424C130.052 418.471 130.864 418.494 131.676 418.517C133.322 418.587 134.969 418.587 136.592 418.517C137.427 418.494 138.239 418.471 139.074 418.424C139.909 418.378 140.72 418.332 141.555 418.262C142.39 418.192 143.202 418.123 144.037 418.053C144.849 417.96 145.684 417.868 146.495 417.775C147.353 417.659 148.211 417.543 149.07 417.404C149.789 417.288 150.484 417.195 151.203 417.056C151.853 416.94 152.525 416.824 153.175 416.685C153.36 416.638 153.546 416.615 153.731 416.569C153.87 416.546 154.033 416.499 154.172 416.476C154.612 416.383 155.053 416.267 155.471 416.175C155.934 416.059 156.398 415.966 156.862 415.85C156.932 415.827 157.024 415.803 157.094 415.803C157.396 415.711 157.72 415.641 158.022 415.548C158.741 415.363 159.46 415.154 160.155 414.945C160.619 414.806 161.106 414.667 161.57 414.528C161.616 414.505 161.64 414.505 161.686 414.481C161.779 414.458 161.872 414.435 161.941 414.389C162.011 414.365 162.057 414.365 162.127 414.342C162.544 414.226 162.985 414.087 163.379 413.925C164.4 413.577 165.42 413.206 166.417 412.811C167.02 412.579 167.623 412.347 168.203 412.092C168.365 412.023 168.528 411.953 168.69 411.884C169.2 411.652 169.687 411.443 170.174 411.211C171.798 410.446 173.352 409.634 174.836 408.776L191.766 398.941L273.704 351.323L273.75 351.277L276.904 349.468L298.403 336.966L363.573 299.09L378.253 290.554C378.717 290.299 379.158 290.021 379.599 289.742C379.784 289.626 379.993 289.51 380.178 289.371C380.387 289.255 380.573 289.139 380.758 289C381.895 288.258 382.961 287.492 383.959 286.681C384.538 286.24 385.072 285.799 385.582 285.335C386.115 284.872 386.603 284.408 387.09 283.944C388.064 282.97 388.922 282.042 389.71 281.044C390.128 280.534 390.499 280.024 390.823 279.537C391.171 279.073 391.473 278.609 391.751 278.122C391.798 278.052 391.821 278.006 391.867 277.936C392.145 277.473 392.401 276.985 392.656 276.498C392.841 276.104 393.027 275.733 393.189 275.362C393.259 275.223 393.328 275.06 393.375 274.921C393.583 274.48 393.746 274.017 393.885 273.576C393.908 273.53 393.931 273.46 393.954 273.414C394.302 272.37 394.581 271.326 394.743 270.259C394.743 270.074 394.812 269.911 394.812 269.749C394.836 269.563 394.859 269.378 394.882 269.215C394.882 269.169 394.905 269.099 394.905 269.053C394.928 268.867 394.952 268.682 394.952 268.496C394.998 268.032 395.021 267.545 395.021 267.081Z" fill="white" stroke="#3E73F9" stroke-linecap="round" stroke-linejoin="round"/>
<path d="M89.2574 438.07L15.5763 395.532C11.6568 393.282 8.47949 395.091 8.47949 399.591L8.38672 434.544C8.38672 439.044 11.5408 444.518 15.4371 446.791L89.1182 489.329C93.0377 491.602 96.215 489.793 96.2382 485.27L96.331 450.317C96.331 445.817 93.1768 440.343 89.2574 438.07Z" fill="url(#paint2_linear_1975_65036)"/>
<path d="M178.825 432.318C176.483 433.663 174.627 436.91 174.627 439.601L174.767 485.015C174.767 487.706 176.645 488.773 178.988 487.427C181.307 486.082 183.185 482.858 183.185 480.168L183.046 434.753C183.046 432.063 181.144 430.996 178.825 432.341V432.318Z" fill="#C6D5FE"/>
<path d="M192.949 424.153C190.607 425.499 188.728 428.769 188.751 431.436L188.89 476.851C188.89 479.541 190.792 480.585 193.134 479.24C195.477 477.895 197.332 474.671 197.332 471.98L197.193 426.566C197.193 423.875 195.291 422.808 192.972 424.153H192.949Z" fill="#C6D5FE"/>
<path d="M207.05 416.012C204.708 417.357 202.829 420.628 202.852 423.295L202.991 468.71C202.991 471.4 204.893 472.444 207.236 471.099C209.555 469.753 211.433 466.529 211.433 463.839L211.294 418.424C211.294 415.734 209.392 414.667 207.073 416.012H207.05Z" fill="#C6D5FE"/>
<path d="M221.174 407.871C218.855 409.216 216.976 412.463 216.976 415.154L217.115 460.568C217.115 463.259 219.017 464.303 221.336 462.981C223.655 461.659 225.557 458.388 225.534 455.721L225.395 410.306C225.395 407.616 223.493 406.549 221.151 407.894L221.174 407.871Z" fill="#C6D5FE"/>
<path d="M235.274 399.707C232.955 401.052 231.077 404.299 231.077 406.99L231.216 452.404C231.216 455.095 233.118 456.138 235.437 454.816C237.756 453.494 239.658 450.224 239.635 447.556L239.495 402.142C239.495 399.451 237.594 398.384 235.251 399.73L235.274 399.707Z" fill="#C6D5FE"/>
<path d="M249.398 391.565C247.056 392.911 245.201 396.158 245.201 398.848L245.34 444.263C245.34 446.953 247.218 448.02 249.561 446.675C251.903 445.33 253.759 442.106 253.759 439.415L253.619 394.001C253.619 391.31 251.741 390.243 249.398 391.589V391.565Z" fill="#C6D5FE"/>
<path d="M263.523 383.424C261.18 384.769 259.302 388.04 259.325 390.707L259.464 436.122C259.464 438.812 261.366 439.856 263.708 438.511C266.027 437.165 267.906 433.941 267.906 431.251L267.767 385.836C267.767 383.146 265.865 382.079 263.546 383.424H263.523Z" fill="#C6D5FE"/>
<path d="M277.623 375.26C275.281 376.605 273.402 379.875 273.426 382.543L273.565 427.957C273.565 430.648 275.466 431.692 277.809 430.346C280.151 429.001 282.007 425.777 282.007 423.086L281.867 377.672C281.867 374.981 279.966 373.915 277.646 375.26H277.623Z" fill="#C6D5FE"/>
<path d="M291.747 367.119C289.428 368.464 287.549 371.711 287.549 374.402L287.688 419.816C287.688 422.507 289.59 423.55 291.909 422.228C294.252 420.883 296.13 417.636 296.107 414.968L295.968 369.554C295.968 366.863 294.066 365.796 291.724 367.142L291.747 367.119Z" fill="#C6D5FE"/>
<path d="M305.848 358.977C303.529 360.323 301.65 363.57 301.65 366.26L301.79 411.675C301.79 414.365 303.691 415.409 306.011 414.087C308.353 412.742 310.231 409.495 310.208 406.827L310.069 361.413C310.069 358.722 308.167 357.655 305.825 359.001L305.848 358.977Z" fill="#C6D5FE"/>
<path d="M319.972 350.813C317.653 352.158 315.774 355.405 315.774 358.096L315.914 403.51C315.914 406.201 317.815 407.245 320.134 405.923C322.454 404.601 324.332 401.353 324.332 398.663L324.193 353.248C324.193 350.558 322.315 349.491 319.972 350.836V350.813Z" fill="#C6D5FE"/>
<path d="M334.096 342.672C331.754 344.017 329.875 347.287 329.898 349.955L330.037 395.369C330.037 398.06 331.939 399.104 334.281 397.758C336.601 396.413 338.479 393.189 338.479 390.498L338.34 345.084C338.34 342.393 336.438 341.326 334.119 342.672H334.096Z" fill="#C6D5FE"/>
<path d="M348.197 334.507C345.854 335.853 343.976 339.123 343.999 341.79L344.138 387.205C344.138 389.895 346.04 390.939 348.382 389.594C350.724 388.249 352.58 385.025 352.58 382.334L352.441 336.92C352.441 334.229 350.539 333.162 348.22 334.507H348.197Z" fill="#C6D5FE"/>
<path d="M362.297 326.366C359.978 327.711 358.1 330.959 358.1 333.649L358.239 379.064C358.239 381.754 360.14 382.798 362.46 381.476C364.802 380.131 366.681 376.883 366.657 374.216L366.518 328.802C366.518 326.111 364.617 325.044 362.274 326.389L362.297 326.366Z" fill="#C6D5FE"/>
<path d="M376.421 318.225C374.102 319.57 372.224 322.817 372.224 325.508L372.363 370.922C372.363 373.613 374.265 374.657 376.584 373.335C378.926 371.989 380.805 368.742 380.782 366.075L380.642 320.66C380.642 317.97 378.741 316.903 376.398 318.248L376.421 318.225Z" fill="#C6D5FE"/>
<path d="M155.471 417.52V528.249C143.364 531.033 129.89 531.381 117.413 529.293V418.471C118.178 418.587 118.92 418.703 119.685 418.819C120.474 418.935 121.262 419.051 122.051 419.143C122.84 419.236 123.651 419.329 124.44 419.399C125.228 419.491 126.04 419.538 126.852 419.607C127.64 419.654 128.452 419.7 129.264 419.746C130.052 419.793 130.864 419.816 131.676 419.839C133.322 419.909 134.969 419.909 136.592 419.839C138.239 419.793 139.909 419.723 141.556 419.584C142.39 419.515 143.202 419.445 144.037 419.375C144.849 419.283 145.684 419.19 146.495 419.097C147.307 419.004 148.119 418.888 148.931 418.749C149.719 418.633 150.484 418.517 151.273 418.355C152.108 418.216 152.92 418.053 153.731 417.891C153.87 417.891 154.033 417.821 154.172 417.798C154.613 417.705 155.053 417.589 155.471 417.497V417.52Z" fill="#ECF1FF"/>
<path opacity="0.1" d="M389.409 252.608C386.695 255.902 382.961 259.01 378.253 261.747L174.836 379.968C152.386 393.027 115.858 393.027 93.2693 379.968L-111.493 261.747C-116.317 258.963 -120.121 255.786 -122.904 252.423C-120.19 249.129 -116.456 246.021 -111.748 243.284L91.669 125.063C114.119 112.004 150.646 112.004 173.235 125.063L377.998 243.284C382.822 246.067 386.626 249.245 389.409 252.608Z" fill="#3E73F9"/>
<path d="M377.998 76.1691C400.587 89.2275 400.703 110.358 378.253 123.416L174.836 241.637C152.386 254.696 115.882 254.696 93.2693 241.637L-111.493 123.416C-134.082 110.358 -134.198 89.2275 -111.748 76.1691L91.6691 -42.0523C114.119 -55.1107 150.623 -55.1107 173.236 -42.0523L377.998 76.1691Z" fill="white" stroke="#3E73F9" stroke-linecap="round" stroke-linejoin="round"/>
<path d="M282.262 83.3362C296.014 91.2918 296.084 104.165 282.424 112.097L158.555 184.092C144.895 192.048 122.654 192.048 108.901 184.092L-15.7794 112.097C-29.5323 104.141 -29.6019 91.2686 -15.9417 83.3362L107.927 11.341C121.587 3.38537 143.828 3.38537 157.581 11.341L282.262 83.3362Z" fill="#ECF1FF"/>
<path opacity="0.5" d="M318.696 79.8338C335.812 89.7146 335.905 105.742 318.905 115.646L164.747 205.245C147.747 215.126 120.056 215.126 102.94 205.245L-52.2144 115.646C-69.3301 105.765 -69.4229 89.7378 -52.4231 79.8338L101.734 -9.76581C118.757 -19.6466 146.426 -19.6466 163.541 -9.76581L318.696 79.8338Z" stroke="#3E73F9" stroke-linecap="round" stroke-linejoin="round"/>
<path d="M395.021 99.9433L394.836 162.939V169.016L394.697 213.387C394.673 221.876 389.084 230.365 377.929 236.859L363.573 245.209L191.766 345.061L174.511 355.081C168.899 358.351 162.405 360.787 155.471 362.41C143.364 365.263 129.89 365.611 117.412 363.477C108.46 361.969 100.018 359.163 92.9448 355.081L74.5303 344.458L-95.2587 246.415L-111.818 236.859C-123.182 230.295 -128.864 221.667 -128.841 213.062L-128.725 170.338V164.284L-128.516 99.6882C-128.516 103.979 -127.101 108.27 -124.249 112.306C-123.53 113.326 -122.741 114.324 -121.86 115.298C-120.979 116.272 -120.005 117.223 -118.938 118.151C-117.871 119.079 -116.734 119.983 -115.482 120.865C-114.253 121.746 -112.908 122.604 -111.493 123.416L-95.2587 132.786L74.5303 230.829L93.2695 241.637C94.6842 242.449 96.1453 243.215 97.6528 243.934C100.691 245.348 103.915 246.578 107.254 247.598C108.483 247.969 109.713 248.317 110.965 248.642C111.035 248.642 111.127 248.665 111.197 248.688C112.449 249.013 113.725 249.291 115 249.547C115.766 249.709 116.554 249.848 117.32 249.987C117.343 249.987 117.389 249.987 117.412 250.01C118.178 250.126 118.92 250.242 119.685 250.358C120.474 250.474 121.262 250.59 122.051 250.683C122.839 250.776 123.651 250.869 124.44 250.938C125.228 251.031 126.04 251.077 126.852 251.147C127.64 251.193 128.452 251.24 129.264 251.286C130.052 251.333 130.864 251.356 131.676 251.379C133.322 251.449 134.969 251.449 136.592 251.379C138.239 251.333 139.909 251.263 141.555 251.124C142.39 251.054 143.202 250.985 144.037 250.915C144.849 250.822 145.684 250.73 146.495 250.637C147.307 250.544 148.119 250.428 148.93 250.289C149.719 250.173 150.484 250.057 151.273 249.895C152.108 249.755 152.919 249.593 153.731 249.431C153.87 249.407 154.033 249.361 154.172 249.338C154.612 249.245 155.053 249.129 155.471 249.036C155.934 248.92 156.398 248.828 156.862 248.712C156.932 248.688 157.024 248.665 157.094 248.665C158.138 248.387 159.158 248.109 160.155 247.807C160.666 247.668 161.176 247.506 161.686 247.343C161.779 247.32 161.872 247.297 161.941 247.25C162.428 247.134 162.915 246.972 163.379 246.786C164.4 246.439 165.42 246.067 166.417 245.673C167.183 245.372 167.948 245.07 168.69 244.745C169.2 244.513 169.687 244.305 170.174 244.073C171.798 243.307 173.352 242.496 174.836 241.637L191.766 231.803L363.573 131.951L378.253 123.416C378.717 123.161 379.158 122.882 379.599 122.604C379.993 122.372 380.387 122.117 380.758 121.862C382.521 120.702 384.144 119.473 385.582 118.197C386.115 117.733 386.603 117.269 387.09 116.806C388.04 115.855 388.922 114.904 389.71 113.906C390.893 112.422 391.867 110.914 392.656 109.36C392.841 108.989 393.027 108.595 393.189 108.224C393.491 107.574 393.746 106.925 393.954 106.275C394.302 105.232 394.581 104.188 394.743 103.121C394.812 102.773 394.836 102.425 394.882 102.077C394.882 102.031 394.905 101.961 394.905 101.915C394.928 101.729 394.952 101.544 394.952 101.358C394.998 100.894 395.021 100.407 395.021 99.9433Z" fill="white" stroke="#3E73F9" stroke-linecap="round" stroke-linejoin="round"/>
<path d="M89.2574 270.955L15.5763 228.417C11.6568 226.167 8.47949 227.976 8.47949 232.476L8.38672 267.429C8.38672 271.929 11.5408 277.403 15.4371 279.676L89.1182 322.214C93.0377 324.487 96.215 322.678 96.2382 318.155L96.331 283.202C96.331 278.702 93.1768 273.228 89.2574 270.955Z" fill="url(#paint3_linear_1975_65036)"/>
<path d="M178.825 265.203C176.483 266.548 174.627 269.795 174.627 272.486L174.767 317.9C174.767 320.591 176.645 321.658 178.988 320.312C181.33 318.967 183.185 315.743 183.185 313.053L183.046 267.638C183.046 264.948 181.144 263.881 178.825 265.226V265.203Z" fill="#C6D5FE"/>
<path d="M192.949 257.038C190.607 258.384 188.728 261.654 188.751 264.321L188.89 309.736C188.89 312.426 190.792 313.47 193.134 312.125C195.477 310.78 197.332 307.556 197.332 304.865L197.193 259.451C197.193 256.76 195.291 255.693 192.972 257.038H192.949Z" fill="#C6D5FE"/>
<path d="M207.05 248.897C204.708 250.242 202.829 253.513 202.852 256.18L202.991 301.595C202.991 304.285 204.893 305.329 207.236 303.984C209.578 302.638 211.433 299.414 211.433 296.724L211.294 251.309C211.294 248.619 209.392 247.552 207.073 248.897H207.05Z" fill="#C6D5FE"/>
<path d="M221.174 240.756C218.855 242.101 216.976 245.348 216.976 248.039L217.115 293.453C217.115 296.144 219.017 297.188 221.336 295.866C223.655 294.544 225.557 291.273 225.534 288.606L225.395 243.191C225.395 240.501 223.493 239.434 221.151 240.779L221.174 240.756Z" fill="#C6D5FE"/>
<path d="M235.274 232.592C232.955 233.937 231.077 237.184 231.077 239.875L231.216 285.289C231.216 287.98 233.118 289.023 235.437 287.701C237.779 286.356 239.658 283.109 239.635 280.441L239.495 235.027C239.495 232.336 237.594 231.269 235.251 232.615L235.274 232.592Z" fill="#C6D5FE"/>
<path d="M249.398 224.45C247.056 225.796 245.201 229.043 245.201 231.733L245.34 277.148C245.34 279.838 247.218 280.905 249.561 279.56C251.903 278.215 253.759 274.991 253.759 272.3L253.619 226.886C253.619 224.195 251.741 223.128 249.398 224.474V224.45Z" fill="#C6D5FE"/>
<path d="M263.523 216.309C261.18 217.654 259.302 220.925 259.325 223.592L259.464 269.007C259.464 271.697 261.366 272.741 263.708 271.396C266.027 270.05 267.906 266.826 267.906 264.136L267.767 218.721C267.767 216.031 265.865 214.964 263.546 216.309H263.523Z" fill="#C6D5FE"/>
<path d="M277.623 208.145C275.281 209.49 273.402 212.76 273.426 215.428L273.565 260.842C273.565 263.533 275.466 264.576 277.809 263.231C280.151 261.886 282.007 258.662 282.007 255.971L281.867 210.557C281.867 207.866 279.966 206.799 277.646 208.145H277.623Z" fill="#C6D5FE"/>
<path d="M291.747 200.004C289.428 201.349 287.549 204.596 287.549 207.287L287.688 252.701C287.688 255.392 289.59 256.435 291.909 255.113C294.252 253.768 296.13 250.521 296.107 247.853L295.968 202.439C295.968 199.748 294.066 198.681 291.724 200.027L291.747 200.004Z" fill="#C6D5FE"/>
<path d="M305.848 191.862C303.529 193.208 301.65 196.455 301.65 199.145L301.79 244.56C301.79 247.25 303.691 248.294 306.011 246.972C308.33 245.65 310.231 242.38 310.208 239.712L310.069 194.298C310.069 191.607 308.167 190.54 305.825 191.886L305.848 191.862Z" fill="#C6D5FE"/>
<path d="M319.972 183.698C317.653 185.043 315.774 188.29 315.774 190.981L315.914 236.395C315.914 239.086 317.815 240.13 320.134 238.808C322.454 237.486 324.332 234.238 324.332 231.548L324.193 186.133C324.193 183.443 322.315 182.376 319.972 183.721V183.698Z" fill="#C6D5FE"/>
<path d="M334.096 175.557C331.754 176.902 329.875 180.172 329.898 182.84L330.037 228.254C330.037 230.945 331.939 231.989 334.281 230.643C336.624 229.298 338.479 226.074 338.479 223.383L338.34 177.969C338.34 175.278 336.438 174.211 334.119 175.557H334.096Z" fill="#C6D5FE"/>
<path d="M348.197 167.392C345.854 168.738 343.976 172.008 343.999 174.675L344.138 220.09C344.138 222.78 346.04 223.824 348.382 222.479C350.724 221.134 352.58 217.91 352.58 215.219L352.441 169.805C352.441 167.114 350.539 166.047 348.22 167.392H348.197Z" fill="#C6D5FE"/>
<path d="M362.297 159.251C359.978 160.596 358.1 163.844 358.1 166.534L358.239 211.949C358.239 214.639 360.14 215.683 362.46 214.361C364.802 213.016 366.681 209.768 366.657 207.101L366.518 161.687C366.518 158.996 364.617 157.929 362.274 159.274L362.297 159.251Z" fill="#C6D5FE"/>
<path d="M376.421 151.11C374.102 152.455 372.224 155.702 372.224 158.393L372.363 203.807C372.363 206.498 374.265 207.542 376.584 206.22C378.926 204.874 380.805 201.627 380.782 198.96L380.642 153.545C380.642 150.855 378.741 149.788 376.398 151.133L376.421 151.11Z" fill="#C6D5FE"/>
<path d="M375.401 93.6576C372.455 91.9644 367.678 91.9644 364.779 93.6576C361.856 95.3508 361.856 98.1109 364.802 99.8041C367.747 101.497 372.502 101.497 375.424 99.8041C378.346 98.1109 378.346 95.3508 375.377 93.6576H375.401Z" fill="#3E73F9"/>
<path d="M138.772 228.185C135.827 226.491 131.049 226.491 128.15 228.185C125.228 229.878 125.228 232.638 128.173 234.331C131.119 236.024 135.873 236.024 138.795 234.331C141.718 232.638 141.718 229.878 138.749 228.185H138.772Z" fill="#3E73F9"/>
<path d="M155.471 250.405V361.134C143.364 363.918 129.89 364.266 117.413 362.178V251.356C118.178 251.472 118.92 251.588 119.685 251.704C120.474 251.82 121.262 251.936 122.051 252.028C122.84 252.121 123.651 252.214 124.44 252.284C125.228 252.376 126.04 252.423 126.852 252.492C127.64 252.539 128.452 252.585 129.264 252.631C130.052 252.678 130.864 252.701 131.676 252.724C133.322 252.794 134.969 252.794 136.592 252.724C138.239 252.678 139.909 252.608 141.556 252.469C142.39 252.399 143.202 252.33 144.037 252.26C144.849 252.168 145.684 252.075 146.495 251.982C147.307 251.889 148.119 251.773 148.931 251.634C149.719 251.518 150.484 251.402 151.273 251.24C152.108 251.101 152.92 250.938 153.731 250.776C153.87 250.776 154.033 250.706 154.172 250.683C154.613 250.59 155.053 250.474 155.471 250.382V250.405Z" fill="#ECF1FF"/>
<path opacity="0.2" d="M389.409 417.149C386.626 413.785 382.823 410.608 377.999 407.825L374.659 405.899L377.929 403.997C389.084 397.503 394.674 389.014 394.697 380.525L394.813 336.154V330.077L394.859 319.593L380.666 322.145L372.502 323.629L298.404 336.966H298.357L286.158 339.169L276.093 348.981L273.75 351.277L273.704 351.323L207.746 415.687L203.989 419.352L197.124 426.055L188.728 434.243L183.069 439.786L174.651 447.974L163.681 458.69H163.658C163.588 481.513 163.565 504.359 163.495 527.206C163.495 531.265 163.472 535.3 163.472 539.359C163.472 542.815 163.519 546.225 163.658 549.588C164.006 559.237 164.933 568.515 166.394 577.352C168.25 588.555 171.01 599.062 174.651 608.71C177.063 615.205 179.892 621.328 183.139 627.011C184.902 630.142 186.803 633.134 188.844 636.01C190.468 638.33 192.184 640.556 193.97 642.69C194.039 642.783 194.132 642.876 194.202 642.968C194.781 643.687 195.408 644.36 196.011 645.079C202.528 652.316 209.462 657.952 216.559 662.336L363.573 576.888L377.929 568.538C389.084 562.044 394.674 553.554 394.697 545.065L394.813 500.695V494.618L395.022 431.622C395.045 426.682 393.166 421.718 389.409 417.149Z" fill="#3E73F9"/>
<path d="M477.191 347.473L477.121 347.519L476.449 347.635L476.426 347.612L426.771 318.758L304.781 340.723L295.412 335.273L418.19 313.169L477.191 347.473Z" fill="#ECF1FF" stroke="#3E73F9" stroke-linecap="round" stroke-linejoin="round"/>
<path d="M477.841 427.679C478.188 470.264 468.146 518.276 448.039 565.824C447.389 567.378 446.694 568.955 445.998 570.556C414.712 642.203 371.946 689.009 355.387 705.941C342.306 707.657 312.829 709.699 285.416 693.091C284.604 692.604 283.816 692.094 282.981 691.561C280.546 689.983 278.157 688.267 275.768 686.342C275.142 685.855 274.539 685.345 273.913 684.811C273.681 684.625 273.426 684.44 273.194 684.185C272.661 683.721 272.127 683.28 271.594 682.77C271.269 682.492 270.944 682.213 270.62 681.889C270.133 681.471 269.646 681.007 269.182 680.52C267.558 678.943 265.912 677.25 264.311 675.464C263.616 674.698 262.92 673.91 262.247 673.075C241.954 648.86 231.657 612.607 231.773 569.744C231.819 543.071 231.889 516.374 231.958 489.677V489.097L354.065 369.948L354.436 369.577L476.403 347.612L477.098 347.496H477.168C477.377 374.193 477.585 400.936 477.817 427.679H477.841Z" fill="white" stroke="#3E73F9" stroke-linecap="round" stroke-linejoin="round"/>
<path d="M338.502 697.568C319.485 697.568 292.42 692.628 271.408 669.132C270.828 668.459 270.202 667.763 269.599 667.044C250.952 644.801 241.165 611.192 241.281 569.79C241.328 544.23 241.397 518.67 241.444 493.11L358.981 378.414L467.798 358.838L468.355 427.772C468.703 469.893 458.637 516.351 439.295 562.136C438.646 563.69 437.973 565.221 437.301 566.775C409.679 630.072 372.224 674.698 350.91 696.942C346.712 697.382 342.631 697.614 338.502 697.614V697.568Z" fill="url(#paint4_linear_1975_65036)"/>
<path d="M476.426 347.612L354.435 369.577L304.967 340.839L304.781 340.723L426.771 318.758L476.426 347.612Z" fill="white" stroke="#3E73F9" stroke-linecap="round" stroke-linejoin="round"/>
<path d="M354.435 369.577L354.064 369.948L231.958 489.097L182.42 460.313L181.91 460.012L172.911 454.793L295.412 335.273L304.781 340.723L304.967 340.839L354.435 369.577Z" fill="#ECF1FF" stroke="#3E73F9" stroke-linecap="round" stroke-linejoin="round"/>
<path d="M354.064 369.948L231.958 489.097L182.42 460.313L181.91 460.012L303.993 340.863L313.571 346.429L354.064 369.948Z" fill="white" stroke="#3E73F9" stroke-linecap="round" stroke-linejoin="round"/>
<path d="M380.04 434.66L380.132 468.802L354.343 466.576L321.271 507.699L321.503 590.688L354.668 593.541L380.364 561.603L380.411 579.184L367.957 594.678L375.332 595.304L387.786 579.81L387.577 508.465L354.412 505.612L328.716 537.55L328.623 508.279L354.32 476.317L380.109 478.567V488.286L387.507 488.912L387.345 435.263L379.993 434.637M354.575 554.459L380.272 522.52L380.364 551.815L354.668 583.753L328.878 581.527L328.785 552.232L354.575 554.459ZM354.552 544.717L332.426 542.815L354.459 515.423L376.561 517.325L354.552 544.694" fill="#3961DB"/>
<path d="M286.854 693.973L228.572 660.086L227.83 659.668C220.038 655.122 212.384 649.115 205.287 641.183C204.592 640.371 203.896 639.605 203.223 638.794C182.93 614.579 172.633 578.303 172.749 535.486C172.795 508.581 172.865 481.698 172.935 454.793L231.958 489.097V489.677C231.889 516.374 231.819 543.071 231.773 569.744C231.657 612.607 241.954 648.837 262.247 673.075C262.92 673.91 263.615 674.675 264.311 675.464C271.408 683.419 279.061 689.427 286.854 693.973Z" fill="#ECF1FF" stroke="#3E73F9" stroke-linecap="round" stroke-linejoin="round"/>
<path d="M286.854 693.973L228.572 660.086C223.516 656.421 218.553 651.991 213.869 646.749C213.173 645.984 212.5 645.195 211.828 644.36C191.535 620.169 181.214 583.893 181.33 541.076C181.376 514.17 181.469 487.288 181.516 460.383L231.958 489.677C231.889 516.374 231.819 543.071 231.773 569.744C231.657 612.607 241.954 648.837 262.247 673.075C262.92 673.91 263.615 674.675 264.311 675.464C271.408 683.419 279.061 689.427 286.854 693.973Z" fill="white" stroke="#3E73F9" stroke-linecap="round" stroke-linejoin="round"/>
</g>
</g>
<defs>
<linearGradient id="paint0_linear_1975_65036" x1="-31.5" y1="-7.32411e-06" x2="417.5" y2="697.5" gradientUnits="userSpaceOnUse">
<stop stop-color="#E6E6FF"/>
<stop offset="1" stop-color="#8CADFF"/>
</linearGradient>
<linearGradient id="paint1_linear_1975_65036" x1="8.38672" y1="606.971" x2="96.331" y2="606.971" gradientUnits="userSpaceOnUse">
<stop stop-color="#E6E6FF"/>
<stop offset="1" stop-color="#8CADFF"/>
</linearGradient>
<linearGradient id="paint2_linear_1975_65036" x1="8.38672" y1="442.43" x2="96.331" y2="442.43" gradientUnits="userSpaceOnUse">
<stop stop-color="#E6E6FF"/>
<stop offset="1" stop-color="#8CADFF"/>
</linearGradient>
<linearGradient id="paint3_linear_1975_65036" x1="8.38672" y1="275.315" x2="96.331" y2="275.315" gradientUnits="userSpaceOnUse">
<stop stop-color="#E6E6FF"/>
<stop offset="1" stop-color="#8CADFF"/>
</linearGradient>
<linearGradient id="paint4_linear_1975_65036" x1="241.258" y1="528.203" x2="468.355" y2="528.203" gradientUnits="userSpaceOnUse">
<stop stop-color="#E6E6FF"/>
<stop offset="1" stop-color="#8CADFF"/>
</linearGradient>
<clipPath id="clip0_1975_65036">
<rect width="443" height="657" fill="white"/>
</clipPath>
<clipPath id="clip1_1975_65036">
<rect width="609" height="763" fill="white" transform="translate(-130 -53)"/>
</clipPath>
</defs>
</svg>
